<?xml version="1.0" encoding="UTF-8" standalone="no"?>
<svg
   width="482.55807pt"
   height="384.76218pt"
   version="1.1"
   viewBox="0 0 482.55807 384.76218"
   id="svg962"
   sodipodi:docname="logo.svg"
   inkscape:version="1.1.2 (b8e25be8, 2022-02-05)"
   xmlns:inkscape="http://www.inkscape.org/namespaces/inkscape"
   xmlns:sodipodi="http://sodipodi.sourceforge.net/DTD/sodipodi-0.dtd"
   xmlns="http://www.w3.org/2000/svg"
   xmlns:svg="http://www.w3.org/2000/svg">
  <sodipodi:namedview
     id="namedview964"
     pagecolor="#ffffff"
     bordercolor="#666666"
     borderopacity="1.0"
     inkscape:pageshadow="2"
     inkscape:pageopacity="0.0"
     inkscape:pagecheckerboard="0"
     inkscape:document-units="pt"
     showgrid="false"
     fit-margin-top="0"
     fit-margin-left="0"
     fit-margin-right="0"
     fit-margin-bottom="0"
     inkscape:zoom="0.74678571"
     inkscape:cx="173.40985"
     inkscape:cy="350.16738"
     inkscape:window-width="1312"
     inkscape:window-height="925"
     inkscape:window-x="0"
     inkscape:window-y="23"
     inkscape:window-maximized="0"
     inkscape:current-layer="svg962" />
  <defs
     id="defs890" />
  <path
     d="m 242.82807,0 h -3.125 c -0.0508,0 -0.0977,0 -0.14844,0.0039 L 84.574633,0.12499 c -1.8242,0 -3.4375,1.1797 -3.9922,2.918 l -16.258,50.746 c -0.20312,0.63672 -0.25391,1.3125 -0.14453,1.9727 l 2.4297,14.527 c 0,0 -19.324,65.98 -19.324,65.98 -0.18359,0.62891 -0.21875,1.293 -0.0977,1.9375 l 2.5508,13.859 c 0,0 -23.496,86.098 -23.496,86.098 -0.16406,0.60156 -0.19141,1.2305 -0.082,1.8438 l 2.4766,13.859 c -0.0156,0.16016 -0.0234,0.32422 -0.0195,0.48828 l -28.48399952,110.25 c -0.0625,0.23828 -0.10156,0.47656 -0.12109,0.71484 l -0.004,0.0742 c -0.0234,0.35938 0,0.72656 0.0742,1.0859 l 2.68750002,14.836 c 0.24609,1.3555 1.1367,2.5 2.3906,3.0703 1.2539,0.57031 2.7031,0.48828 3.8867,-0.21484 0,0 8.4179995,-5.0039 18.2889995,-5.0039 9.6172,0 28.719,4.4141 32.531,5.3164 0.5,0.19141 1.0391,0.28906 1.5938,0.27734 h 0.0625 83.351997 c 0.24219,0 0.48047,-0.0234 0.71484,-0.0586 0.82031,0.14062 1.6758,0.0352 2.4492,-0.31641 0,0 11.41,-5.2188 22.566,-5.2188 10.086,0 15.266,4.4883 15.266,4.4883 0.77344,0.71094 1.7891,1.1055 2.8398,1.1055 h 105.14 c 1.0508,0 2.0664,-0.39453 2.8398,-1.1055 0,0 5.1797,-4.4883 15.266,-4.4883 11.156,0 22.566,5.2188 22.566,5.2188 0.77344,0.35156 1.6289,0.45703 2.4492,0.31641 0.23047,0.0391 0.46875,0.0586 0.71484,0.0586 h 83.352 0.0625 c 0.55469,0.0117 1.0938,-0.0859 1.5938,-0.27734 3.8086,-0.90234 22.91,-5.3164 32.527,-5.3164 9.875,0 18.289,5.0039 18.289,5.0039 1.1836,0.70312 2.6328,0.78125 3.8867,0.21484 1.25,-0.57031 2.1445,-1.7188 2.3906,-3.0703 l 2.6875,-14.836 c 0.0742,-0.36328 0.0937,-0.72656 0.0742,-1.0859 l -0.004,-0.0742 c -0.0195,-0.24219 -0.0586,-0.48047 -0.12109,-0.71484 l -28.484,-110.25 c 0.004,-0.16406 -0.004,-0.32812 -0.0195,-0.48828 l 2.4766,-13.859 c 0.10937,-0.61328 0.082,-1.2422 -0.082,-1.8438 l -23.496,-86.098 2.5508,-13.859 c 0.11719,-0.64453 0.0859,-1.3086 -0.10156,-1.9375 l -19.324,-65.98 2.4258,-14.527 c 0.10938,-0.66016 0.0625,-1.3359 -0.14062,-1.9727 l -16.258,-50.746 c -0.55469,-1.7383 -2.1719,-2.9141 -3.9922,-2.918 l -154.98,-0.12109 h -0.0391 -0.10938 z m 174.96,376.37 1.4297,-6.5234 h -75.348 l -1.9766,6.5195 c 14.773,0 63.793,0 75.895,0.004 z m -131.15,0 -2.668,-6.5234 h -85.418 l -2.668,6.5195 h 46.945 43.812 z m -223.339997,-6.5234 1.4297,6.5195 h 75.894997 l -1.9766,-6.5195 z m 272.279997,-1.6055 c -4.7109,-1.5664 -13.371,-3.9883 -21.816,-3.9883 -8.2266,0 -16.656,2.3008 -21.441,3.8672 l 2.707,6.6094 c 3.4414,-1.8516 9.0781,-3.957 16.895,-3.957 8.2656,0 16.66,2.4648 21.605,4.2266 l 2.0469,-6.7578 z m -145.39,-0.125 c -4.7852,-1.5664 -13.215,-3.8672 -21.441,-3.8672 -8.4453,0 -17.105,2.4258 -21.812,3.9883 l 2.0469,6.7578 c 4.9453,-1.7617 13.34,-4.2266 21.605,-4.2266 7.8164,0 13.453,2.1055 16.895,3.957 z m -135.649997,0.94531 c -5.6992,-1.4375 -20.047,-4.8125 -29.25,-4.8125 -6.1289,0 -12.742,2.3477 -16.3909995,3.8711 0.46094,2.5508 1.1405995,6.2969 1.1405995,6.2969 4.1875,-1.707 10.453,-3.6484 17.281,-3.6484 7.5469,0 20.609,2.5273 28.516,4.2188 z M 473.61807,368.12 c -3.6484,-1.5234 -10.262,-3.8711 -16.391,-3.8711 -9.2031,0 -23.551,3.375 -29.25,4.8125 l -1.2969,5.9258 c 7.9062,-1.6953 20.969,-4.2188 28.512,-4.2188 6.832,0 13.094,1.9414 17.285,3.6484 z m -335.52,-6.668 14.047,-102.98 H 86.016073 l -22.707,102.98 c 15.156,0 62.612997,0 74.788997,0.004 z m 144.5,0 0.20703,-102.98 h -83.094 l 0.20703,102.98 h 42.906 c 8.3516,0 31.121,0 39.77,0.004 z m 136.61,0 -22.707,-102.98 h -66.129 l 14.047,102.98 c 12.199,0 59.66,0 74.789,0.004 z m 26.699,-104.52 c -2.6953,-1.4258 -8.4844,-4.0586 -14.5,-4.0586 -6.8828,0 -20.41,3.1484 -26.52,4.6602 l 22.707,102.99 c 6.8828,-1.6602 20.586,-4.668 29.629,-4.668 5.1797,0 10.66,1.3789 14.969,2.8203 l -26.289,-101.75 z m -368.279997,0.60156 c -6.1094,-1.5117 -19.641,-4.6602 -26.52,-4.6602 -6.0156,0 -11.805,2.6328 -14.5,4.0586 l -26.289,101.74 c 4.3086,-1.4414 9.7891,-2.8203 14.969,-2.8203 9.043,0 22.746,3.0039 29.629,4.668 l 22.711,-102.99 z M 321.71707,257.1195 c -3.2422,-1.457 -10.375,-4.25 -17.492,-4.25 -6.1914,0 -10.789,2.2188 -13.023,3.5781 l -0.21094,103.3 c 5.5273,-1.7109 14.25,-3.8945 22.777,-3.8945 8.0938,0 16.367,1.9688 21.91,3.6328 l -13.961,-102.37 z m -130.4,-0.67187 c -2.2344,-1.3594 -6.832,-3.5781 -13.023,-3.5781 -7.1172,0 -14.25,2.7891 -17.492,4.25 l -13.961,102.37 c 5.5469,-1.6641 13.816,-3.6328 21.91,-3.6328 8.5273,0 17.254,2.1836 22.777,3.8945 l -0.21094,-103.3 z m -40.004,-6.3711 -1.9883,-6.6133 H 84.601773 l 1.4336,6.6094 c 12.238,0 51.581997,0 65.276997,0.004 z m 245.18,0 1.4297,-6.6094 h -64.723 l -1.9883,6.6094 h 65.277 z m -118.41,-6.6094 h -73.641 l -2.6914,6.6094 h 41.078 37.945 z m 169.28,-0.72656 c -0.0937,-0.0664 -0.1875,-0.13281 -0.27734,-0.20703 0,0 -5.8477,-4.6641 -14.152,-4.6641 -7.6016,0 -21.176,3.4922 -26.262,4.8789 l -1.3125,6.0625 c 7.2188,-1.6953 19.48,-4.332 26.062,-4.332 5.6406,0 11.133,1.793 15.016,3.4531 l 0.92969,-5.1953 z m -371.499997,0.008 c -5.0859,-1.3867 -18.66,-4.8789 -26.262,-4.8789 -8.3047,0 -14.152,4.6641 -14.152,4.6641 -0.0898,0.0742 -0.18359,0.14062 -0.27734,0.20703 l 0.92969,5.1953 c 3.8828,-1.6641 9.375,-3.4531 15.016,-3.4531 6.582,0 18.844,2.6367 26.062,4.332 l -1.3164,-6.0625 z m 120.359997,-1.332 c -4.4844,-1.5273 -11.82,-3.543 -19.309,-3.543 -7.9023,0 -15.27,2.2578 -19.359,3.793 l 2.0703,6.8789 c 4.4414,-1.7695 11.57,-4.0625 18.68,-4.0625 6.5273,0 11.746,1.8555 15.207,3.5977 z m 128.77,0.24609 c -4.0938,-1.5352 -11.457,-3.793 -19.359,-3.793 -7.4883,0 -14.824,2.0156 -19.312,3.543 l 2.7148,6.6641 c 3.4609,-1.7422 8.6797,-3.5977 15.207,-3.5977 7.1094,0 14.242,2.293 18.68,4.0625 z m -176.15,-6.5859 11.867,-78.629 h -57.523 l -18.479997,78.629 c 14.168,0 53.577997,0 64.136997,0.004 z m 127.94,0 1.2305,-78.629 h -73.477 l 1.2266,78.629 h 37.082 33.941 z m 121.06,0 -18.48,-78.629 h -57.523 l 11.863,78.629 h 64.137 z m 27.258,-79.367 c -0.23047,-0.16016 -0.44531,-0.33984 -0.64453,-0.55078 0,0 -4.2969,-4.3086 -11.645,-4.3086 -6.6484,0 -19.109,3.0078 -25.07,4.5508 l 18.52,78.789 c 6.4062,-1.6602 19.219,-4.7148 26.684,-4.7148 5.2109,0 9.7109,1.3594 13.062,2.8359 l -20.906,-76.605 z M 94.811073,155.40507 c -5.9609,-1.543 -18.422,-4.5508 -25.07,-4.5508 -7.3516,0 -11.645,4.3086 -11.645,4.3086 -0.19922,0.20703 -0.41797,0.39062 -0.64453,0.55078 l -20.906,76.605 c 3.3516,-1.4766 7.8516,-2.8359 13.062,-2.8359 7.4688,0 20.281,3.0547 26.684,4.7148 l 18.52,-78.789 z m 218.269997,-0.73828 c -2.6797,-1.418 -8.2617,-3.8125 -15.41,-3.8125 -6.2031,0 -9.668,1.8438 -11.223,3.0391 l -1.2344,79.074 c 5.1797,-1.6367 12.727,-3.4883 20.418,-3.4883 7.3594,0 14.316,1.6875 19.234,3.2734 l -11.785,-78.09 z m -116.98,-0.76953 c -1.5547,-1.1953 -5.0195,-3.0391 -11.223,-3.0391 -7.1484,0 -12.727,2.3945 -15.41,3.8125 l -11.785,78.09 c 4.918,-1.5859 11.871,-3.2734 19.234,-3.2734 7.6914,0 15.246,1.8516 20.418,3.4883 l -1.2344,-79.074 z m -36.184,-5.8359 -1.9609,-6.4102 h -56.145 l 1.4219,6.4062 c 10.879,0 44.785,0 56.688,0.004 z m 116.09,0 -2.6406,-6.4102 h -64.184 l -2.6406,6.4062 h 36.305 c 7.2031,0 24.953,0 33.164,0.004 z m 103.31,0 1.4219,-6.4102 h -56.145 l -1.9609,6.4062 c 11.914,0 45.824,0 56.684,0.004 z m 47.172,-8.0273 c -2.1367,-1.3242 -7.2227,-3.9766 -13.727,-3.9766 -7.6172,0 -18.824,3.332 -23.234,4.7461 l -1.3008,5.8555 c 6.9609,-1.7031 18.234,-4.1914 24.582,-4.1914 5.3633,0 9.6406,1.5664 12.645,3.207 l 1.0352,-5.6367 z m -333.469997,0.76953 c -4.4102,-1.4141 -15.617,-4.7461 -23.234,-4.7461 -6.5039,0 -11.594,2.6523 -13.727,3.9766 l 1.0391,5.6367 c 3.0039,-1.6406 7.2773,-3.207 12.645,-3.207 6.3477,0 17.617,2.4883 24.578,4.1914 l -1.2969,-5.8555 z m 107.999997,-1.3711 c -3.957,-1.4883 -10.266,-3.375 -16.82,-3.375 -7.4375,0 -14.383,2.4375 -17.973,3.9453 l 1.8477,6.0352 c 3.8867,-1.7109 9.7461,-3.5742 16.805,-3.5742 6.2578,0 10.672,1.4141 13.652,3.0039 l 2.4883,-6.0391 z m 115.3,0.57031 c -3.5898,-1.5078 -10.535,-3.9453 -17.973,-3.9453 -6.5547,0 -12.863,1.8867 -16.82,3.375 l 2.4883,6.0391 c 2.9844,-1.5898 7.3945,-3.0039 13.652,-3.0039 7.0586,0 12.918,1.8633 16.805,3.5703 z m -44.199,-6.7422 2.0078,-58.512 h -65.711 l 2.0078,58.512 h 32.418 29.277 z m -114.61,0 10,-58.512 h -50.617 l -14.918,58.512 h 55.539 z m 223.05,0 -14.918,-58.512 h -50.617 l 10,58.512 h 28.664 21.934 z m 27.758,-59.07 c -0.0273,-0.0117 -0.0508,-0.0273 -0.0742,-0.043 0,0 -8.1641,-4.9922 -16.117,-4.9922 -5.8594,0 -13.879,2.5742 -18.195,4.1289 l 15.027,58.926 c 5.7266,-1.7148 16.324,-4.5469 23.797,-4.5469 4.582,0 8.6367,0.99219 11.871,2.1992 l -16.305,-55.672 z m -299.72,-0.90625 c -4.3164,-1.5547 -12.335997,-4.1289 -18.194997,-4.1289 -7.957,0 -16.117,4.9922 -16.117,4.9922 -0.0273,0.0156 -0.0508,0.0312 -0.0742,0.043 l -16.305,55.672 c 3.2383,-1.207 7.293,-2.1992 11.871,-2.1992 7.4727,0 18.074,2.8359 23.797,4.5469 l 15.026997,-58.926 z m 91.316,-1.3086 c -1.4258,-1.0586 -4.5859,-2.8242 -9.7734,-2.8242 -6.2305,0 -11.117,2.0273 -13.75,3.4297 l -9.9766,58.379 c 4.5625,-1.6016 10.996,-3.2969 17.773,-3.2969 6.6602,0 13.105,1.6445 17.75,3.2148 l -2.0195,-58.902 z m 106.22,0.60547 c -2.6367,-1.4023 -7.5234,-3.4297 -13.75,-3.4297 -5.1875,0 -8.3477,1.7656 -9.7734,2.8242 l -2.0195,58.902 c 4.6445,-1.5742 11.09,-3.2148 17.75,-3.2148 6.7812,0 13.215,1.6992 17.773,3.2969 l -9.9766,-58.379 z m 59.34,-6.2227 1.4531,-7.082 h -49.25 l -2.0469,7.082 c 10.281,0 40.199,0 49.848,0.004 z m -198.58,0 -2.0469,-7.082 h -49.254 l 1.4531,7.082 h 49.848 z m 105.39,0 -2.8086,-7.082 h -56.434 l -2.8047,7.082 h 47.66 12.516 z m 137,-7.2383 c -0.46875,-0.13281 -0.92578,-0.34766 -1.3398,-0.64844 0,0 -6.6094,-4.793 -15.188,-4.793 -6.7227,0 -13.801,2.8281 -16.988,4.2812 l -1.2969,6.3281 c 5.1289,-1.6406 12.215,-3.5234 17.656,-3.5234 6.0742,0 12.254,2.2539 16.207,4.0391 l 0.94922,-5.6797 z m -302.52,-1.1602 c -3.1914,-1.4531 -10.269997,-4.2812 -16.991997,-4.2812 -8.5742,0 -15.188,4.793 -15.188,4.793 -0.41797,0.30469 -0.87109,0.51953 -1.3398,0.64844 l 0.94922,5.6797 c 3.9531,-1.7891 10.137,-4.0391 16.211,-4.0391 5.4453,0 12.530997,1.8867 17.655997,3.5234 l -1.2969,-6.3281 z m 98.25,-1.1914 c -3.1758,-1.3906 -8.3828,-3.0898 -14.871,-3.0898 -7.457,0 -13.734,2.2227 -17.098,3.707 l 1.9023,6.5859 c 3.6719,-1.6094 8.9062,-3.2148 15.195,-3.2148 5.5391,0 9.4922,1.1914 12.242,2.6406 l 2.625,-6.6328 z m 104.47,0.61719 c -3.3633,-1.4844 -9.6445,-3.707 -17.098,-3.707 -6.4883,0 -11.695,1.6992 -14.871,3.0898 l 2.625,6.6328 c 2.7539,-1.4492 6.7031,-2.6406 12.242,-2.6406 6.2891,0 11.527,1.6055 15.195,3.2148 l 1.9023,-6.5859 z m 57.039,-6.5039 -11.977,-42.390997 -45,-0.03516 8.418,42.426007 c 8.8281,0 37.359,0 48.559,0.004 z m -201.96,0 8.418,-42.425997 -45,0.03516 -11.977,42.390997 h 48.559 z m 78.27,-42.354997 h -31.223 l 2.543,42.354997 h 28.684 25.547 l 2.543,-42.354997 z m 120.45,-0.02734 11.523,40.784997 c 4.4141,-1.7578 11.336,-4 17.957,-4 6.0742,0 11.398,1.8242 15.043,3.5234 l -12.906,-40.284997 z m -275.639997,0.02344 -12.906,40.285007 c 3.6445,-1.6992 8.9727,-3.5234 15.043,-3.5234 6.6289,0 13.546997,2.2422 17.956997,4 l 11.523,-40.785007 z M 173.66607,48.15202 c 4.2461,-1.4688 9.9961,-2.8672 16.484,-2.8672 6.2188,0 11.5,1.2773 15.422,2.6836 l -2.3672,-39.441007 h -21.676 l -7.8633,39.629007 z m 105.67,-39.629007 -2.3672,39.441007 c 3.9258,-1.4062 9.2031,-2.6836 15.422,-2.6836 6.4883,0 12.238,1.4023 16.48,2.8672 l -7.8633,-39.625007 h -21.676 z"
     fill-rule="evenodd"
     id="path892" />
</svg>
