<?xml version="1.0" encoding="UTF-8" standalone="no"?>
<!-- Created with Inkscape (http://www.inkscape.org/) -->

<svg
   width="960"
   height="440"
   viewBox="0 0 254 116.41667"
   version="1.1"
   id="svg5"
   inkscape:version="1.1.2 (b8e25be8, 2022-02-05)"
   sodipodi:docname="blog-1.svg"
   inkscape:export-filename="/Users/walid/Projects/qrcode-generator/qrcode-generator-backend/resources/themes/blue/public/assets/images/blog-1.png"
   inkscape:export-xdpi="75"
   inkscape:export-ydpi="75"
   xmlns:inkscape="http://www.inkscape.org/namespaces/inkscape"
   xmlns:sodipodi="http://sodipodi.sourceforge.net/DTD/sodipodi-0.dtd"
   xmlns:xlink="http://www.w3.org/1999/xlink"
   xmlns="http://www.w3.org/2000/svg"
   xmlns:svg="http://www.w3.org/2000/svg">
  <sodipodi:namedview
     id="namedview7"
     pagecolor="#ffffff"
     bordercolor="#666666"
     borderopacity="1.0"
     inkscape:pageshadow="2"
     inkscape:pageopacity="0.0"
     inkscape:pagecheckerboard="0"
     inkscape:document-units="mm"
     showgrid="false"
     units="px"
     inkscape:zoom="0.62092452"
     inkscape:cx="430.80921"
     inkscape:cy="189.23395"
     inkscape:window-width="1680"
     inkscape:window-height="925"
     inkscape:window-x="0"
     inkscape:window-y="23"
     inkscape:window-maximized="0"
     inkscape:current-layer="layer1" />
  <defs
     id="defs2">
    <linearGradient
       inkscape:collect="always"
       id="linearGradient2062">
      <stop
         style="stop-color:#48a9a6;stop-opacity:0.80960268"
         offset="0"
         id="stop2058" />
      <stop
         style="stop-color:#1c57cb;stop-opacity:0.0281457"
         offset="1"
         id="stop2060" />
    </linearGradient>
    <linearGradient
       inkscape:collect="always"
       id="linearGradient1008">
      <stop
         style="stop-color:#48a9a6;stop-opacity:1"
         offset="0"
         id="stop1004" />
      <stop
         style="stop-color:#1c57cb;stop-opacity:0.99000001"
         offset="1"
         id="stop1006" />
    </linearGradient>
    <linearGradient
       inkscape:collect="always"
       xlink:href="#linearGradient1008"
       id="linearGradient1010"
       x1="46.020084"
       y1="37.923962"
       x2="180.67145"
       y2="98.857964"
       gradientUnits="userSpaceOnUse"
       gradientTransform="translate(-9.374462,-5.1133429)" />
    <linearGradient
       inkscape:collect="always"
       xlink:href="#linearGradient2062"
       id="linearGradient1189"
       gradientUnits="userSpaceOnUse"
       x1="157.66141"
       y1="-14.487806"
       x2="108.23242"
       y2="103.11908"
       gradientTransform="translate(-9.3744579,-5.1133429)" />
    <symbol
       id="u"
       overflow="visible">
      <path
         d="M 0.40625,-0.03125 C 0.382812,-0.019531 0.359375,-0.007812 0.328125,0 0.304688,0.0078125 0.285156,0.015625 0.265625,0.015625 c -0.074219,0 -0.13281,-0.019531 -0.17188,-0.0625 -0.042969,-0.039062 -0.0625,-0.097656 -0.0625,-0.17188 0,-0.070312 0.019531,-0.12891 0.0625,-0.17188 0.039062,-0.039063 0.097656,-0.0625 0.17188,-0.0625 0.019531,0 0.039063,0.007813 0.0625,0.015625 0.03125,0 0.054687,0.007812 0.078125,0.015625 v 0.09375 C 0.382812,-0.335948 0.363281,-0.347666 0.34375,-0.359385 0.320312,-0.367198 0.300781,-0.37501 0.28125,-0.37501 c -0.042969,0 -0.074219,0.015625 -0.09375,0.046875 -0.023438,0.023437 -0.03125,0.058594 -0.03125,0.10938 0,0.042969 0.007812,0.078125 0.03125,0.10938 0.019531,0.023438 0.050781,0.03125 0.09375,0.03125 h 0.0625 c 0.019531,-0.0078125 0.039062,-0.019531 0.0625,-0.03125 z"
         id="path7556" />
    </symbol>
    <symbol
       id="d"
       overflow="visible">
      <path
         d="M 0.29688,-0.23438 C 0.285161,-0.242193 0.273443,-0.250005 0.26563,-0.250005 H 0.250005 c -0.03125,0 -0.058594,0.011719 -0.078125,0.03125 -0.011719,0.011719 -0.015625,0.03125 -0.015625,0.0625 V -5e-6 h -0.10938 v -0.32812 h 0.10938 V -0.28125 C 0.164067,-0.300781 0.175786,-0.316406 0.187505,-0.328125 0.207036,-0.335938 0.23438,-0.34375 0.26563,-0.34375 H 0.281255 0.29688 Z"
         id="path7559" />
    </symbol>
    <symbol
       id="a"
       overflow="visible">
      <path
         d="m 0.375,-0.17188 v 0.046875 h -0.25 c 0.007812,0.023438 0.019531,0.039062 0.03125,0.046875 0.007812,0.011719 0.03125,0.015625 0.0625,0.015625 h 0.0625 C 0.3125,-0.0703175 0.34375,-0.085943 0.375,-0.10938 v 0.09375 c -0.03125,0 -0.0625,0.0078125 -0.09375,0.015625 -0.023438,0.0078125 -0.042969,0.015625 -0.0625,0.015625 -0.0625,0 -0.10938,-0.015625 -0.14062,-0.046875 -0.03124,-0.03125 -0.046875,-0.070312 -0.046875,-0.125 0,-0.0625 0.015625,-0.10938 0.046875,-0.14062 0.03125,-0.03124 0.070313,-0.046875 0.125,-0.046875 0.050781,0 0.09375,0.015625 0.125,0.046875 0.03125,0.03125 0.046875,0.074219 0.046875,0.125 z M 0.28125,-0.20313 C 0.28125,-0.222661 0.269531,-0.238286 0.25,-0.250005 0.238281,-0.257817 0.222656,-0.26563 0.203125,-0.26563 c -0.023437,0 -0.039063,0.007813 -0.046875,0.015625 C 0.144531,-0.238286 0.132812,-0.222661 0.125,-0.20313 Z"
         id="path7562" />
    </symbol>
    <symbol
       id="c"
       overflow="visible">
      <path
         d="m 0.20312,-0.15625 c -0.023437,0 -0.042969,0.007812 -0.0625,0.015625 -0.011719,0.011719 -0.015625,0.023437 -0.015625,0.03125 0,0.023438 0.003906,0.039062 0.015625,0.046875 h 0.03125 c 0.03125,0 0.050781,-0.0039062 0.0625,-0.015625 C 0.242183,-0.097656 0.249995,-0.113281 0.249995,-0.125 V -0.15625 Z M 0.35937,-0.1875 V 0 H 0.24999 V -0.046875 C 0.238271,-0.023437 0.222646,-0.007813 0.203115,0 0.179678,0.0078125 0.160146,0.015625 0.140615,0.015625 c -0.03125,0 -0.058594,-0.011719 -0.078125,-0.03125 -0.023438,-0.019531 -0.03125,-0.050781 -0.03125,-0.09375 0,-0.03125 0.0078125,-0.050781 0.03125,-0.0625 0.03125,-0.019531 0.070312,-0.03125 0.125,-0.03125 h 0.0625 V -0.21875 c 0,-0.019531 -0.007812,-0.03125 -0.015625,-0.03125 -0.011719,-0.007812 -0.03125,-0.015625 -0.0625,-0.015625 -0.023437,0 -0.042969,0.007813 -0.0625,0.015625 H 0.06249 v -0.078125 h 0.046875 c 0.03125,-0.007813 0.054687,-0.015625 0.078125,-0.015625 0.0625,0 0.10156,0.015625 0.125,0.046875 0.03125,0.023437 0.046875,0.058594 0.046875,0.10938 z"
         id="path7565" />
    </symbol>
    <symbol
       id="b"
       overflow="visible">
      <path
         d="m 0.17188,-0.42188 v 0.09375 h 0.10938 v 0.078125 H 0.17188 v 0.14062 0.03125 h 0.03125 0.0625 V -10e-6 H 0.17188 C 0.128911,-10e-6 0.097661,-0.0078225 0.07813,-0.03126 0.066411,-0.050791 0.062505,-0.078135 0.062505,-0.109385 v -0.14062 H 0.01563 V -0.32813 h 0.046875 v -0.09375 z"
         id="path7568" />
    </symbol>
    <symbol
       id="k"
       overflow="visible">
      <path
         d="m 0.28125,-0.28125 v -0.1875 H 0.375 V 0 H 0.28125 V -0.046875 C 0.257812,-0.023437 0.238281,-0.007813 0.21875,0 0.207031,0.0078125 0.191406,0.015625 0.171875,0.015625 0.128906,0.015625 0.09375,0 0.062495,-0.03125 c -0.023438,-0.03125 -0.03125,-0.070312 -0.03125,-0.125 0,-0.0625 0.0078125,-0.10938 0.03125,-0.14062 0.03125,-0.03125 0.066406,-0.046875 0.10938,-0.046875 0.019531,0 0.035156,0.007812 0.046875,0.015625 0.019531,0.011719 0.039062,0.027344 0.0625,0.046875 z M 0.203125,-0.0625 C 0.222656,-0.0625 0.238281,-0.0664062 0.25,-0.078125 0.269531,-0.097656 0.28125,-0.125 0.28125,-0.15625 0.28125,-0.1875 0.269531,-0.210938 0.25,-0.234375 0.238281,-0.253906 0.222656,-0.265625 0.203125,-0.265625 c -0.023437,0 -0.042969,0.011719 -0.0625,0.03125 C 0.128906,-0.210938 0.125,-0.1875 0.125,-0.15625 c 0,0.03125 0.003906,0.058594 0.015625,0.078125 0.019531,0.011719 0.039063,0.015625 0.0625,0.015625 z"
         id="path7571" />
    </symbol>
    <symbol
       id="j"
       overflow="visible">
      <path
         d="m 0.21875,-0.0625 c 0.03125,0 0.050781,-0.0039062 0.0625,-0.015625 0.007812,-0.019531 0.015625,-0.046875 0.015625,-0.078125 0,-0.03125 -0.007813,-0.054688 -0.015625,-0.078125 -0.011719,-0.019531 -0.03125,-0.03125 -0.0625,-0.03125 -0.023438,0 -0.039062,0.011719 -0.046875,0.03125 C 0.160156,-0.210938 0.15625,-0.1875 0.15625,-0.15625 c 0,0.023438 0.003906,0.042969 0.015625,0.0625 0.007813,0.023438 0.023437,0.03125 0.046875,0.03125 z m -0.0625,-0.21875 c 0.007812,-0.019531 0.023438,-0.035156 0.046875,-0.046875 0.019531,-0.007813 0.039063,-0.015625 0.0625,-0.015625 0.039063,0 0.070313,0.015625 0.09375,0.046875 0.03125,0.03125 0.046875,0.078125 0.046875,0.14062 0,0.054688 -0.015625,0.09375 -0.046875,0.125 C 0.335938,-5e-6 0.304688,0.01562 0.265625,0.01562 0.242188,0.01562 0.222656,0.0078075 0.203125,-5e-6 0.179688,-0.0078175 0.164062,-0.023443 0.15625,-0.04688 V -5e-6 H 0.04687 v -0.46875 h 0.10938 z"
         id="path7574" />
    </symbol>
    <symbol
       id="i"
       overflow="visible">
      <path
         d="m 0.015625,-0.32812 h 0.09375 l 0.09375,0.21875 0.078125,-0.21875 H 0.39063 L 0.25001,0.03126 C 0.226572,0.06251 0.207041,0.082041 0.18751,0.09376 0.175791,0.113291 0.15626,0.12501 0.12501,0.12501 h -0.0625 v -0.0625 h 0.03125 c 0.019531,0 0.03125,-0.0078125 0.03125,-0.015625 0.007812,0 0.019531,-0.011719 0.03125,-0.03125 z"
         id="path7577" />
    </symbol>
    <symbol
       id="h"
       overflow="visible">
      <path
         d="m 0.17188,-0.35938 v 0.28125 h 0.03125 c 0.050781,0 0.085937,-0.0078125 0.10938,-0.03125 0.019531,-0.03125 0.03125,-0.066406 0.03125,-0.10938 0,-0.039062 -0.011719,-0.070312 -0.03125,-0.09375 C 0.289072,-0.34376 0.253916,-0.359385 0.20313,-0.359385 Z M 0.0625,-0.437505 h 0.10938 c 0.070313,0 0.125,0.007812 0.15625,0.015625 0.03125,0 0.054687,0.015625 0.078125,0.046875 0.019531,0.023438 0.035156,0.042969 0.046875,0.0625 0.007813,0.023438 0.015625,0.054688 0.015625,0.09375 0,0.03125 -0.007812,0.0625 -0.015625,0.09375 -0.011719,0.023438 -0.027344,0.042969 -0.046875,0.0625 C 0.382817,-0.039067 0.35938,-0.023443 0.32813,-0.01563 0.29688,-0.003911 0.242193,-5e-6 0.17188,-5e-6 H 0.0625 Z"
         id="path7580" />
    </symbol>
    <symbol
       id="g"
       overflow="visible">
      <path
         d="m 0.35938,-0.28125 c 0.007813,-0.007812 0.023437,-0.019531 0.046875,-0.03125 0.019531,-0.019531 0.039062,-0.03125 0.0625,-0.03125 0.03125,0 0.054688,0.015625 0.078125,0.046875 0.019531,0.023437 0.03125,0.054687 0.03125,0.09375 V -5e-6 H 0.46875 v -0.17188 -0.015625 c 0,-0.019531 -0.007812,-0.035156 -0.015625,-0.046875 0,-0.007813 -0.007813,-0.015625 -0.015625,-0.015625 -0.023438,0 -0.039062,0.011719 -0.046875,0.03125 C 0.378906,-0.207041 0.375,-0.18751 0.375,-0.15626 V -1e-5 H 0.26562 v -0.17188 c 0,-0.03125 -0.007813,-0.050781 -0.015625,-0.0625 0,-0.007813 -0.011719,-0.015625 -0.03125,-0.015625 -0.023438,0 -0.039062,0.011719 -0.046875,0.03125 -0.011719,0.011719 -0.015625,0.03125 -0.015625,0.0625 v 0.15625 h -0.10938 v -0.32812 h 0.10938 v 0.046875 c 0.007812,-0.019531 0.019531,-0.035156 0.03125,-0.046875 0.019531,-0.007813 0.039062,-0.015625 0.0625,-0.015625 0.03125,0 0.050781,0.011719 0.0625,0.03125 0.019531,0.011719 0.035156,0.023438 0.046875,0.03125 z"
         id="path7583" />
    </symbol>
    <symbol
       id="t"
       overflow="visible">
      <path
         d="m 0.046875,-0.32812 h 0.10938 V 0 h -0.10938 z m 0,-0.14062 h 0.10938 v 0.09375 h -0.10938 z"
         id="path7586" />
    </symbol>
    <symbol
       id="f"
       overflow="visible">
      <path
         d="M 0.39062,-0.20312 V 0 H 0.28124 v -0.15625 -0.046875 c 0,-0.007813 -0.007812,-0.019531 -0.015625,-0.03125 C 0.265615,-0.242188 0.257802,-0.25 0.24999,-0.25 H 0.21874 c -0.011719,0 -0.027344,0.011719 -0.046875,0.03125 C 0.160146,-0.207031 0.15624,-0.1875 0.15624,-0.15625 V 0 H 0.04686 v -0.32812 h 0.10938 v 0.046875 c 0.007812,-0.019531 0.023438,-0.035156 0.046875,-0.046875 0.019531,-0.007813 0.039063,-0.015625 0.0625,-0.015625 0.039063,0 0.070313,0.015625 0.09375,0.046875 0.019531,0.023437 0.03125,0.054687 0.03125,0.09375 z"
         id="path7589" />
    </symbol>
    <symbol
       id="s"
       overflow="visible">
      <path
         d="m 0.0625,-0.4375 h 0.10938 v 0.15625 H 0.34376 V -0.4375 H 0.45314 V 0 H 0.34376 V -0.1875 H 0.17188 V 0 H 0.0625 Z"
         id="path7592" />
    </symbol>
    <symbol
       id="r"
       overflow="visible">
      <path
         d="m 0.26562,-0.46875 v 0.078125 h -0.0625 c -0.011719,0 -0.023437,0.007813 -0.03125,0.015625 v 0.03125 0.015625 H 0.26562 V -0.25 H 0.17187 V 0 H 0.06249 V -0.25 H 0.015615 V -0.328125 H 0.06249 V -0.34375 c 0,-0.039062 0.0078125,-0.070312 0.03125,-0.09375 0.019531,-0.019531 0.050781,-0.03125 0.09375,-0.03125 z"
         id="path7595" />
    </symbol>
    <symbol
       id="e"
       overflow="visible">
      <path
         d="m 0.20312,-0.26562 c -0.023437,0 -0.042969,0.011719 -0.0625,0.03125 -0.011719,0.011719 -0.015625,0.039063 -0.015625,0.078125 0,0.03125 0.003906,0.058594 0.015625,0.078125 0.019531,0.011719 0.039063,0.015625 0.0625,0.015625 0.03125,0 0.050781,-0.0039062 0.0625,-0.015625 0.007813,-0.019531 0.015625,-0.046875 0.015625,-0.078125 0,-0.039062 -0.007812,-0.066406 -0.015625,-0.078125 -0.011719,-0.019531 -0.03125,-0.03125 -0.0625,-0.03125 z m 0,-0.078125 c 0.0625,0 0.10938,0.015625 0.14062,0.046875 0.03124,0.03125 0.046875,0.078125 0.046875,0.14062 0,0.054688 -0.015625,0.09375 -0.046875,0.125 C 0.31249,0 0.265615,0.015625 0.20312,0.015625 0.148433,0.015625 0.10937,0 0.07812,-0.03125 0.04687,-0.0625 0.031245,-0.101562 0.031245,-0.15625 c 0,-0.0625 0.015625,-0.10938 0.046875,-0.14062 0.03125,-0.03124 0.070313,-0.046875 0.125,-0.046875 z"
         id="path7598" />
    </symbol>
    <symbol
       id="q"
       overflow="visible">
      <path
         d="M 0.39062,-0.20312 V 0 H 0.28124 v -0.15625 -0.046875 c 0,-0.007813 -0.007812,-0.019531 -0.015625,-0.03125 C 0.265615,-0.242188 0.257802,-0.25 0.24999,-0.25 H 0.21874 c -0.011719,0 -0.027344,0.011719 -0.046875,0.03125 C 0.160146,-0.207031 0.15624,-0.1875 0.15624,-0.15625 V 0 H 0.04686 v -0.46875 h 0.10938 v 0.1875 c 0.007812,-0.019531 0.023438,-0.035156 0.046875,-0.046875 0.019531,-0.007813 0.039063,-0.015625 0.0625,-0.015625 0.039063,0 0.070313,0.015625 0.09375,0.046875 0.019531,0.023437 0.03125,0.054687 0.03125,0.09375 z"
         id="path7601" />
    </symbol>
    <symbol
       id="p"
       overflow="visible">
      <path
         d="m 0.0625,-0.4375 h 0.10938 l 0.17188,0.29688 V -0.4375 H 0.45314 V 0 h -0.125 L 0.15626,-0.29688 V 0 H 0.06251 Z"
         id="path7604" />
    </symbol>
    <symbol
       id="o"
       overflow="visible">
      <path
         d="m 0.046875,-0.125 v -0.20312 h 0.10938 v 0.03125 0.0625 0.0625 0.0625 0.015625 C 0.164067,-0.082026 0.17188,-0.07812 0.17188,-0.07812 h 0.03125 c 0.019531,0 0.035156,-0.0039062 0.046875,-0.015625 0.019531,-0.019531 0.03125,-0.046875 0.03125,-0.078125 v -0.15625 h 0.09375 V 0 H 0.281255 V -0.046875 C 0.257817,-0.023437 0.238286,-0.007813 0.218755,0 c -0.011719,0.0078125 -0.03125,0.015625 -0.0625,0.015625 -0.03125,0 -0.058594,-0.011719 -0.078125,-0.03125 -0.023438,-0.03125 -0.03125,-0.066406 -0.03125,-0.10938 z"
         id="path7607" />
    </symbol>
    <symbol
       id="n"
       overflow="visible">
      <path
         d="M 0.0625,-0.4375 H 0.25 c 0.050781,0 0.09375,0.011719 0.125,0.03125 0.03125,0.023438 0.046875,0.058594 0.046875,0.10938 0,0.054687 -0.015625,0.089844 -0.046875,0.10938 -0.03125,0.023438 -0.074219,0.03125 -0.125,0.03125 H 0.171875 V 1e-5 h -0.10938 z m 0.10938,0.078125 v 0.125 h 0.0625 c 0.019531,0 0.035156,-0.003906 0.046875,-0.015625 0.007812,-0.007812 0.015625,-0.023438 0.015625,-0.046875 0,-0.019531 -0.007813,-0.035156 -0.015625,-0.046875 C 0.269536,-0.351562 0.253911,-0.359375 0.23438,-0.359375 Z"
         id="path7610" />
    </symbol>
    <symbol
       id="m"
       overflow="visible">
      <path
         d="m 0.046875,-0.32812 h 0.10938 v 0.3125 c 0,0.050781 -0.011719,0.085938 -0.03125,0.10938 C 0.101567,0.113291 0.070317,0.12501 0.031255,0.12501 H -0.01562 V 0.06251 H 5e-6 c 0.019531,0 0.03125,-0.0078125 0.03125,-0.015625 0.0078125,-0.011719 0.015625,-0.03125 0.015625,-0.0625 z m 0,-0.14062 h 0.10938 v 0.09375 h -0.10938 z"
         id="path7613" />
    </symbol>
    <symbol
       id="l"
       overflow="visible">
      <path
         d="m 0.32812,-0.32812 v 0.09375 C 0.304683,-0.242183 0.285151,-0.249995 0.26562,-0.249995 0.253901,-0.257807 0.238276,-0.26562 0.218745,-0.26562 c -0.023438,0 -0.042969,0.011719 -0.0625,0.03125 -0.023438,0.023437 -0.03125,0.046875 -0.03125,0.078125 0,0.023438 0.007812,0.042969 0.03125,0.0625 0.019531,0.023438 0.039062,0.03125 0.0625,0.03125 H 0.26562 c 0.019531,-0.0078125 0.039063,-0.019531 0.0625,-0.03125 V -0.01562 C 0.304683,-0.003901 0.285151,5e-6 0.26562,5e-6 0.253901,0.0078175 0.238276,0.01563 0.218745,0.01563 c -0.0625,0 -0.10938,-0.015625 -0.14062,-0.046875 -0.03124,-0.03125 -0.046875,-0.070312 -0.046875,-0.125 0,-0.0625 0.015625,-0.10938 0.046875,-0.14062 0.03125,-0.03124 0.078125,-0.046875 0.14062,-0.046875 0.019531,0 0.035156,0.007812 0.046875,0.015625 h 0.0625 z"
         id="path7616" />
    </symbol>
    <symbol
       id="w"
       overflow="visible">
      <path
         d="m 18.766,-1.125 c -0.96875,0.5 -1.9805,0.875 -3.0312,1.125 -1.043,0.25781 -2.1367,0.39062 -3.2812,0.39062 -3.3984,0 -6.0898,-0.94531 -8.0781,-2.8438 -1.9922,-1.9062 -2.9844,-4.4844 -2.9844,-7.7344 0,-3.2578 0.99219,-5.8359 2.9844,-7.7344 1.9883,-1.9062 4.6797,-2.8594 8.0781,-2.8594 1.1445,0 2.2383,0.13281 3.2812,0.39062 1.0508,0.25 2.0625,0.625 3.0312,1.125 v 4.2188 c -0.98047,-0.65625 -1.9453,-1.1406 -2.8906,-1.4531 -0.94922,-0.3125 -1.9492,-0.46875 -3,-0.46875 -1.875,0 -3.3516,0.60547 -4.4219,1.8125 -1.0742,1.1992 -1.6094,2.8555 -1.6094,4.9688 0,2.1055 0.53516,3.7617 1.6094,4.9688 1.0703,1.1992 2.5469,1.7969 4.4219,1.7969 1.0508,0 2.0508,-0.14844 3,-0.45312 0.94531,-0.3125 1.9102,-0.80078 2.8906,-1.4688 z"
         id="path10106" />
    </symbol>
    <symbol
       id="b-5"
       overflow="visible">
      <path
         d="m 13.734,-11.141 c -0.4375,-0.19531 -0.87109,-0.34375 -1.2969,-0.4375 -0.41797,-0.10156 -0.83984,-0.15625 -1.2656,-0.15625 -1.2617,0 -2.2305,0.40625 -2.9062,1.2188 -0.67969,0.80469 -1.0156,1.9531 -1.0156,3.4531 v 7.0625 H 2.3591 v -15.312 h 4.8906 v 2.5156 c 0.625,-1 1.3438,-1.7266 2.1562,-2.1875 0.82031,-0.46875 1.8008,-0.70312 2.9375,-0.70312 0.16406,0 0.34375,0.01172 0.53125,0.03125 0.19531,0.01172 0.47656,0.03906 0.84375,0.07813 z"
         id="path10109" />
    </symbol>
    <symbol
       id="d-5"
       overflow="visible">
      <path
         d="m 17.641,-7.7031 v 1.4062 H 6.188 c 0.125,1.1484 0.53906,2.0078 1.25,2.5781 0.70703,0.57422 1.7031,0.85938 2.9844,0.85938 1.0312,0 2.082,-0.14844 3.1562,-0.45312 1.082,-0.3125 2.1914,-0.77344 3.3281,-1.3906 v 3.7656 c -1.1562,0.4375 -2.3125,0.76562 -3.4688,0.98438 -1.1562,0.22656 -2.3125,0.34375 -3.4688,0.34375 -2.7734,0 -4.9297,-0.70312 -6.4688,-2.1094 -1.5312,-1.4062 -2.2969,-3.3789 -2.2969,-5.9219 0,-2.5 0.75391,-4.4609 2.2656,-5.8906 1.5078,-1.4375 3.582,-2.1562 6.2188,-2.1562 2.4062,0 4.332,0.73047 5.7812,2.1875 1.4453,1.4492 2.1719,3.3828 2.1719,5.7969 z m -5.0312,-1.625 c 0,-0.92578 -0.27344,-1.6719 -0.8125,-2.2344 -0.54297,-0.57031 -1.25,-0.85938 -2.125,-0.85938 -0.94922,0 -1.7188,0.26562 -2.3125,0.79688 -0.5937,0.53126 -0.96484,1.2969 -1.1094,2.2969 z"
         id="path10112" />
    </symbol>
    <symbol
       id="a-4"
       overflow="visible">
      <path
         d="m 9.2188,-6.8906 c -1.0234,0 -1.793,0.17188 -2.3125,0.51562 -0.51172,0.34375 -0.76562,0.85547 -0.76562,1.5312 0,0.625 0.20703,1.1172 0.625,1.4688 0.41406,0.34375 0.98828,0.51562 1.7188,0.51562 0.92578,0 1.7031,-0.32812 2.3281,-0.98438 0.63281,-0.66406 0.95312,-1.4922 0.95312,-2.4844 v -0.5625 z m 7.4688,-1.8438 V 0 h -4.9219 v -2.2656 c -0.65625,0.92969 -1.3984,1.6055 -2.2188,2.0312 -0.82422,0.41406 -1.8242,0.625 -3,0.625 -1.5859,0 -2.8711,-0.45703 -3.8594,-1.375 -0.99219,-0.92578 -1.4844,-2.1289 -1.4844,-3.6094 0,-1.7891 0.61328,-3.1016 1.8438,-3.9375 1.2383,-0.84375 3.1797,-1.2656 5.8281,-1.2656 h 2.8906 v -0.39062 c 0,-0.76953 -0.30859,-1.332 -0.92188,-1.6875 -0.61719,-0.36328 -1.5703,-0.54688 -2.8594,-0.54688 -1.0547,0 -2.0312,0.10547 -2.9375,0.3125 -0.89844,0.21094 -1.7305,0.52344 -2.5,0.9375 v -3.7344 c 1.0391,-0.25 2.0859,-0.44141 3.1406,-0.57812 1.0625,-0.13281 2.125,-0.20312 3.1875,-0.20312 2.7578,0 4.75,0.54688 5.9688,1.6406 1.2266,1.0859 1.8438,2.8555 1.8438,5.3125 z"
         id="path10115" />
    </symbol>
    <symbol
       id="c-0"
       overflow="visible">
      <path
         d="m 7.7031,-19.656 v 4.3438 H 12.75 v 3.5 H 7.7031 v 6.5 c 0,0.71094 0.14062,1.1875 0.42188,1.4375 0.28126,0.25 0.83594,0.375 1.6719,0.375 h 2.5156 v 3.5 h -4.1875 c -1.9375,0 -3.3125,-0.39844 -4.125,-1.2031 -0.80469,-0.8125 -1.2031,-2.1797 -1.2031,-4.1094 v -6.5 h -2.4219 v -3.5 h 2.4219 v -4.3438 z"
         id="path10118" />
    </symbol>
    <symbol
       id="l-6"
       overflow="visible">
      <path
         d="m 12.766,-13.078 v -8.2031 h 4.9219 V -10e-5 H 12.766 v -2.2188 c -0.66797,0.90625 -1.4062,1.5703 -2.2188,1.9844 -0.8126,0.4141 -1.7578,0.625 -2.8281,0.625 -1.8867,0 -3.4336,-0.75 -4.6406,-2.25 -1.2109,-1.5 -1.8125,-3.4258 -1.8125,-5.7812 0,-2.3633 0.60156,-4.2969 1.8125,-5.7969 1.207,-1.5 2.7539,-2.25 4.6406,-2.25 1.0625,0 2,0.21484 2.8125,0.64062 0.82031,0.42969 1.5664,1.0859 2.2344,1.9688 z m -3.2188,9.9219 c 1.0391,0 1.8359,-0.37891 2.3906,-1.1406 0.55078,-0.76953 0.82812,-1.8828 0.82812,-3.3438 0,-1.457 -0.27734,-2.5664 -0.82812,-3.3281 -0.55469,-0.76953 -1.3516,-1.1562 -2.3906,-1.1562 -1.043,0 -1.8398,0.38672 -2.3906,1.1562 -0.55469,0.76172 -0.82812,1.8711 -0.82812,3.3281 0,1.4609 0.27344,2.5742 0.82812,3.3438 0.55078,0.76172 1.3477,1.1406 2.3906,1.1406 z"
         id="path10121" />
    </symbol>
    <symbol
       id="k-2"
       overflow="visible">
      <path
         d="m 10.5,-3.1562 c 1.0508,0 1.8516,-0.37891 2.4062,-1.1406 0.55078,-0.76953 0.82812,-1.8828 0.82812,-3.3438 0,-1.457 -0.27734,-2.5664 -0.82812,-3.3281 -0.55469,-0.76953 -1.3555,-1.1562 -2.4062,-1.1562 -1.0547,0 -1.8594,0.38672 -2.4219,1.1562 -0.55469,0.77344 -0.82812,1.8828 -0.82812,3.3281 0,1.4492 0.27344,2.5586 0.82812,3.3281 0.5625,0.77344 1.3672,1.1562 2.4219,1.1562 z m -3.25,-9.9219 c 0.67578,-0.88281 1.4219,-1.5391 2.2344,-1.9688 0.82031,-0.42578 1.7656,-0.64062 2.8281,-0.64062 1.8945,0 3.4453,0.75 4.6562,2.25 1.207,1.5 1.8125,3.4336 1.8125,5.7969 0,2.3555 -0.60547,4.2812 -1.8125,5.7812 -1.2109,1.5 -2.7617,2.25 -4.6562,2.25 -1.0625,0 -2.0078,-0.21094 -2.8281,-0.625 C 8.6719,-0.6602 7.9258,-1.32032 7.25,-2.21882 V -2e-5 H 2.3594 v -21.281 H 7.25 Z"
         id="path10124" />
    </symbol>
    <symbol
       id="j-6"
       overflow="visible">
      <path
         d="m 0.34375,-15.312 h 4.8906 l 4.125,10.391 3.5,-10.391 h 4.8906 l -6.4375,16.766 c -0.64844,1.6953 -1.4023,2.8828 -2.2656,3.5625 -0.86719,0.6875 -2,1.0312 -3.4062,1.0312 H 2.79685 V 2.8289 h 1.5312 c 0.83203,0 1.4375,-0.13672 1.8125,-0.40625 C 6.52336,2.16093 6.82024,1.69218 7.03117,1.01645 L 7.17179,0.59457 Z"
         id="path10127" />
    </symbol>
    <symbol
       id="i-7"
       overflow="visible">
      <path
         d="M 2.3594,-15.312 H 7.25 V 0 H 2.3594 Z m 0,-5.9688 H 7.25 v 4 H 2.3594 Z"
         id="path10130" />
    </symbol>
    <symbol
       id="v"
       overflow="visible">
      <path
         d="m 1.5938,-15.312 h 13.359 v 3.4219 l -8.0625,8.3906 h 8.0625 v 3.5 H 1.2648 V -3.4214 L 9.3273,-11.812 H 1.5929 Z"
         id="path10133" />
    </symbol>
    <symbol
       id="u-8"
       overflow="visible">
      <path
         d="M 2.3594,-21.281 H 7.25 V 0 H 2.3594 Z"
         id="path10136" />
    </symbol>
    <symbol
       id="h-8"
       overflow="visible">
      <path
         d="M 17.75,-9.3281 V 0 h -4.9219 v -7.1406 c 0,-1.3203 -0.03125,-2.2344 -0.09375,-2.7344 -0.0625,-0.5 -0.16797,-0.86719 -0.3125,-1.1094 -0.1875,-0.3125 -0.44922,-0.55469 -0.78125,-0.73438 -0.32422,-0.17578 -0.69531,-0.26562 -1.1094,-0.26562 -1.0234,0 -1.8242,0.39844 -2.4062,1.1875 -0.58594,0.78125 -0.875,1.8711 -0.875,3.2656 V -1e-4 H 2.3594 v -15.312 H 7.25 v 2.2344 c 0.73828,-0.88281 1.5195,-1.5391 2.3438,-1.9688 0.83203,-0.42578 1.75,-0.64062 2.75,-0.64062 1.7695,0 3.1133,0.54688 4.0312,1.6406 0.91406,1.0859 1.375,2.6562 1.375,4.7188 z"
         id="path10139" />
    </symbol>
    <symbol
       id="g-5"
       overflow="visible">
      <path
         d="m 12.766,-2.5938 c -0.66797,0.88672 -1.4062,1.543 -2.2188,1.9688 C 9.7347,-0.20703 8.7894,0 7.7191,0 5.8519,0 4.3129,-0.73438 3.0941,-2.2031 1.8753,-3.6797 1.266,-5.5547 1.266,-7.8281 c 0,-2.2891 0.60938,-4.1641 1.8281,-5.625 1.2188,-1.4688 2.7578,-2.2031 4.625,-2.2031 1.0703,0 2.0156,0.21484 2.8281,0.64062 0.8125,0.41797 1.5508,1.0742 2.2188,1.9688 v -2.2656 h 4.9219 v 13.766 c 0,2.457 -0.77734,4.3359 -2.3281,5.6406 -1.5547,1.3008 -3.8086,1.9531 -6.7656,1.9531 -0.94922,0 -1.8711,-0.074219 -2.7656,-0.21875 C 4.93016,5.68013 4.0317,5.45748 3.1255,5.15669 v -3.8125 c 0.86328,0.48828 1.7031,0.85156 2.5156,1.0938 0.82031,0.23828 1.6484,0.35938 2.4844,0.35938 1.6016,0 2.7734,-0.35156 3.5156,-1.0469 0.75,-0.69922 1.125,-1.7969 1.125,-3.2969 z M 9.5472,-12.125 c -1.0117,0 -1.8047,0.375 -2.375,1.125 -0.5625,0.74219 -0.84375,1.7969 -0.84375,3.1719 0,1.3984 0.26953,2.4609 0.8125,3.1875 0.55078,0.71875 1.3516,1.0781 2.4062,1.0781 1.0195,0 1.8125,-0.36719 2.375,-1.1094 0.5625,-0.75 0.84375,-1.8008 0.84375,-3.1562 0,-1.375 -0.28125,-2.4297 -0.84375,-3.1719 -0.5625,-0.75 -1.3555,-1.125 -2.375,-1.125 z"
         id="path10142" />
    </symbol>
    <symbol
       id="t-3"
       overflow="visible">
      <path
         d="M 7.25,-2.2188 V 5.8281 H 2.3594 v -21.141 H 7.25 v 2.2344 c 0.67578,-0.88281 1.4219,-1.5391 2.2344,-1.9688 0.82031,-0.42578 1.7656,-0.64062 2.8281,-0.64062 1.8945,0 3.4453,0.75 4.6562,2.25 1.207,1.5 1.8125,3.4336 1.8125,5.7969 0,2.3555 -0.60547,4.2812 -1.8125,5.7812 -1.2109,1.5 -2.7617,2.25 -4.6562,2.25 -1.0625,0 -2.0078,-0.21094 -2.8281,-0.625 C 8.6719,-0.6606 7.9258,-1.32072 7.25,-2.21922 Z m 3.25,-9.9062 c -1.0547,0 -1.8594,0.38672 -2.4219,1.1562 -0.55469,0.77344 -0.82812,1.8828 -0.82812,3.3281 0,1.4492 0.27344,2.5586 0.82812,3.3281 0.5625,0.77344 1.3672,1.1562 2.4219,1.1562 1.0508,0 1.8516,-0.37891 2.4062,-1.1406 0.55078,-0.76953 0.82812,-1.8828 0.82812,-3.3438 0,-1.457 -0.27734,-2.5664 -0.82812,-3.3281 -0.55469,-0.76953 -1.3555,-1.1562 -2.4062,-1.1562 z"
         id="path10145" />
    </symbol>
    <symbol
       id="f-8"
       overflow="visible">
      <path
         d="m 2.1875,-5.9688 v -9.3438 h 4.9219 v 1.5312 c 0,0.83594 -0.00781,1.875 -0.015625,3.125 -0.011719,1.25 -0.015625,2.0859 -0.015625,2.5 0,1.2422 0.03125,2.1328 0.09375,2.6719 0.070313,0.54297 0.17969,0.93359 0.32812,1.1719 0.20703,0.32422 0.47266,0.57422 0.79688,0.75 0.32031,0.16797 0.69141,0.25 1.1094,0.25 1.0195,0 1.8203,-0.39062 2.4062,-1.1719 0.58203,-0.78125 0.875,-1.8672 0.875,-3.2656 v -7.5625 h 4.8906 V -6e-4 H 12.6875 V -2.2194 C 11.94531,-1.32096 11.1641,-0.6608 10.3437,-0.235 9.51948,0.17906 8.6093,0.39 7.6093,0.39 5.8476,0.39 4.5038,-0.14906 3.5781,-1.235 2.64841,-2.317 2.1875,-3.8952 2.1875,-5.9694 Z"
         id="path10148" />
    </symbol>
    <symbol
       id="s-7"
       overflow="visible">
      <path
         d="m 12.422,-21.281 v 3.2188 H 9.7189 c -0.6875,0 -1.1719,0.125 -1.4531,0.375 -0.27344,0.25 -0.40625,0.6875 -0.40625,1.3125 v 1.0625 h 4.1875 v 3.5 H 7.85955 V -2e-4 h -4.8906 v -11.812 h -2.4375 v -3.5 h 2.4375 v -1.0625 c 0,-1.6641 0.46094,-2.8984 1.3906,-3.7031 0.92578,-0.80078 2.3672,-1.2031 4.3281,-1.2031 z"
         id="path10151" />
    </symbol>
    <symbol
       id="e-3"
       overflow="visible">
      <path
         d="m 9.6406,-12.188 c -1.0859,0 -1.9141,0.39062 -2.4844,1.1719 -0.57422,0.78125 -0.85938,1.9062 -0.85938,3.375 0,1.4688 0.28516,2.5938 0.85938,3.375 0.57031,0.77344 1.3984,1.1562 2.4844,1.1562 1.0625,0 1.875,-0.38281 2.4375,-1.1562 0.57031,-0.78125 0.85938,-1.9062 0.85938,-3.375 0,-1.4688 -0.28906,-2.5938 -0.85938,-3.375 -0.5625,-0.78125 -1.375,-1.1719 -2.4375,-1.1719 z m 0,-3.5 c 2.6328,0 4.6914,0.71484 6.1719,2.1406 1.4766,1.418 2.2188,3.3867 2.2188,5.9062 0,2.5117 -0.74219,4.4805 -2.2188,5.9062 C 14.332,-0.317 12.2734,0.39 9.6406,0.39 6.9922,0.39 4.9258,-0.31703 3.4375,-1.735 1.9453,-3.1608 1.2031,-5.1295 1.2031,-7.6412 c 0,-2.5195 0.74219,-4.4883 2.2344,-5.9062 1.4883,-1.4258 3.5547,-2.1406 6.2031,-2.1406 z"
         id="path10154" />
    </symbol>
    <symbol
       id="r-3"
       overflow="visible">
      <path
         d="m 16.547,-12.766 c 0.61328,-0.94531 1.3477,-1.6719 2.2031,-2.1719 0.85156,-0.5 1.7891,-0.75 2.8125,-0.75 1.7578,0 3.0977,0.54688 4.0156,1.6406 0.92578,1.0859 1.3906,2.6562 1.3906,4.7188 V -4e-4 h -4.9219 v -7.9844 -0.35938 c 0.0078,-0.13281 0.01563,-0.32031 0.01563,-0.5625 0,-1.082 -0.16406,-1.8633 -0.48438,-2.3438 -0.3125,-0.48828 -0.82422,-0.73438 -1.5312,-0.73438 -0.92969,0 -1.6484,0.38672 -2.1562,1.1562 -0.51172,0.76172 -0.77344,1.8672 -0.78125,3.3125 v 7.5156 h -4.9219 v -7.9844 c 0,-1.6953 -0.14844,-2.7852 -0.4375,-3.2656 -0.29297,-0.48828 -0.8125,-0.73438 -1.5625,-0.73438 -0.9375,0 -1.6641,0.38672 -2.1719,1.1562 -0.51172,0.76172 -0.76562,1.8594 -0.76562,3.2969 v 7.5312 h -4.9219 v -15.312 h 4.9219 v 2.2344 c 0.60156,-0.86328 1.2891,-1.5156 2.0625,-1.9531 0.78125,-0.4375 1.6406,-0.65625 2.5781,-0.65625 1.0625,0 2,0.25781 2.8125,0.76562 0.8125,0.51172 1.4258,1.2305 1.8438,2.1562 z"
         id="path10157" />
    </symbol>
    <symbol
       id="q-9"
       overflow="visible">
      <path
         d="M 17.75,-9.3281 V 0 h -4.9219 v -7.1094 c 0,-1.3438 -0.03125,-2.2656 -0.09375,-2.7656 -0.0625,-0.5 -0.16797,-0.86719 -0.3125,-1.1094 -0.1875,-0.3125 -0.44922,-0.55469 -0.78125,-0.73438 -0.32422,-0.17578 -0.69531,-0.26562 -1.1094,-0.26562 -1.0234,0 -1.8242,0.39844 -2.4062,1.1875 -0.58594,0.78125 -0.875,1.8711 -0.875,3.2656 V -1e-4 H 2.3594 v -21.281 H 7.25 v 8.2031 c 0.73828,-0.88281 1.5195,-1.5391 2.3438,-1.9688 0.83203,-0.42578 1.75,-0.64062 2.75,-0.64062 1.7695,0 3.1133,0.54688 4.0312,1.6406 0.91406,1.0859 1.375,2.6562 1.375,4.7188 z"
         id="path10160" />
    </symbol>
    <symbol
       id="p-7"
       overflow="visible">
      <path
         d="m 2.5781,-20.406 h 5.875 l 7.4219,14 v -14 h 4.9844 V 0 h -5.875 L 7.5625,-14 V 0 H 2.5781 Z"
         id="path10163" />
    </symbol>
    <symbol
       id="o-2"
       overflow="visible">
      <path
         d="m 2.5781,-20.406 h 8.7344 c 2.5938,0 4.582,0.57812 5.9688,1.7344 1.3945,1.1484 2.0938,2.7891 2.0938,4.9219 0,2.1367 -0.69922,3.7812 -2.0938,4.9375 -1.3867,1.1562 -3.375,1.7344 -5.9688,1.7344 H 7.8281 V 3e-4 h -5.25 z m 5.25,3.8125 v 5.7031 H 10.75 c 1.0195,0 1.8047,-0.25 2.3594,-0.75 0.5625,-0.5 0.84375,-1.2031 0.84375,-2.1094 0,-0.91406 -0.28125,-1.6172 -0.84375,-2.1094 -0.55469,-0.48828 -1.3398,-0.73438 -2.3594,-0.73438 z"
         id="path10166" />
    </symbol>
    <symbol
       id="n-3"
       overflow="visible">
      <path
         d="M 2.3594,-15.312 H 7.25 v 15.031 c 0,2.0508 -0.49609,3.6172 -1.4844,4.7031 -0.98047,1.082 -2.4062,1.625 -4.2812,1.625 H -0.9375 V 2.8283 h 0.85938 c 0.92578,0 1.5625,-0.21094 1.9062,-0.625 0.35156,-0.41797 0.53125,-1.2461 0.53125,-2.4844 z m 0,-5.9688 H 7.25 v 4 H 2.3594 Z"
         id="path10169" />
    </symbol>
    <symbol
       id="m-0"
       overflow="visible">
      <path
         d="m 14.719,-14.828 v 3.9844 c -0.65625,-0.45703 -1.3242,-0.79688 -2,-1.0156 -0.66797,-0.21875 -1.3594,-0.32812 -2.0781,-0.32812 -1.3672,0 -2.4336,0.40234 -3.2031,1.2031 -0.76172,0.79297 -1.1406,1.9062 -1.1406,3.3438 0,1.4297 0.37891,2.543 1.1406,3.3438 0.76953,0.79297 1.8359,1.1875 3.2031,1.1875 0.75781,0 1.4844,-0.10938 2.1719,-0.32812 0.6875,-0.22656 1.3203,-0.56641 1.9062,-1.0156 v 4 c -0.76172,0.28125 -1.5391,0.48828 -2.3281,0.625 -0.78125,0.14453 -1.5742,0.21875 -2.375,0.21875 -2.7617,0 -4.9219,-0.70703 -6.4844,-2.125 -1.5547,-1.4141 -2.3281,-3.3828 -2.3281,-5.9062 0,-2.5312 0.77344,-4.5039 2.3281,-5.9219 1.5625,-1.4141 3.7227,-2.125 6.4844,-2.125 0.80078,0 1.5938,0.07422 2.375,0.21875 0.78125,0.13672 1.5547,0.35156 2.3281,0.64062 z"
         id="path10172" />
    </symbol>
    <symbol
       id="v-8"
       overflow="visible">
      <path
         d="m18.766-1.125c-0.96875 0.5-1.9805 0.875-3.0312 1.125-1.043 0.25781-2.1367 0.39062-3.2812 0.39062-3.3984 0-6.0898-0.94531-8.0781-2.8438-1.9922-1.9062-2.9844-4.4844-2.9844-7.7344 0-3.2578 0.99219-5.8359 2.9844-7.7344 1.9883-1.9062 4.6797-2.8594 8.0781-2.8594 1.1445 0 2.2383 0.13281 3.2812 0.39062 1.0508 0.25 2.0625 0.625 3.0312 1.125v4.2188c-0.98047-0.65625-1.9453-1.1406-2.8906-1.4531-0.94922-0.3125-1.9492-0.46875-3-0.46875-1.875 0-3.3516 0.60547-4.4219 1.8125-1.0742 1.1992-1.6094 2.8555-1.6094 4.9688 0 2.1055 0.53516 3.7617 1.6094 4.9688 1.0703 1.1992 2.5469 1.7969 4.4219 1.7969 1.0508 0 2.0508-0.14844 3-0.45312 0.94531-0.3125 1.9102-0.80078 2.8906-1.4688z"
         id="path1334" />
    </symbol>
    <symbol
       id="d-4"
       overflow="visible">
      <path
         d="m13.734-11.141c-0.4375-0.19531-0.87109-0.34375-1.2969-0.4375-0.41797-0.10156-0.83984-0.15625-1.2656-0.15625-1.2617 0-2.2305 0.40625-2.9062 1.2188-0.67969 0.80469-1.0156 1.9531-1.0156 3.4531v7.0625h-4.8906v-15.312h4.8906v2.5156c0.625-1 1.3438-1.7266 2.1562-2.1875 0.82031-0.46875 1.8008-0.70312 2.9375-0.70312 0.16406 0 0.34375 0.011719 0.53125 0.03125 0.19531 0.011719 0.47656 0.039062 0.84375 0.078125z"
         id="path1337" />
    </symbol>
    <symbol
       id="b-6"
       overflow="visible">
      <path
         d="m17.641-7.7031v1.4062h-11.453c0.125 1.1484 0.53906 2.0078 1.25 2.5781 0.70703 0.57422 1.7031 0.85938 2.9844 0.85938 1.0312 0 2.082-0.14844 3.1562-0.45312 1.082-0.3125 2.1914-0.77344 3.3281-1.3906v3.7656c-1.1562 0.4375-2.3125 0.76562-3.4688 0.98438-1.1562 0.22656-2.3125 0.34375-3.4688 0.34375-2.7734 0-4.9297-0.70312-6.4688-2.1094-1.5312-1.4062-2.2969-3.3789-2.2969-5.9219 0-2.5 0.75391-4.4609 2.2656-5.8906 1.5078-1.4375 3.582-2.1562 6.2188-2.1562 2.4062 0 4.332 0.73047 5.7812 2.1875 1.4453 1.4492 2.1719 3.3828 2.1719 5.7969zm-5.0312-1.625c0-0.92578-0.27344-1.6719-0.8125-2.2344-0.54297-0.57031-1.25-0.85938-2.125-0.85938-0.94922 0-1.7188 0.26562-2.3125 0.79688s-0.96484 1.2969-1.1094 2.2969z"
         id="path1340" />
    </symbol>
    <symbol
       id="a-8"
       overflow="visible">
      <path
         d="m9.2188-6.8906c-1.0234 0-1.793 0.17188-2.3125 0.51562-0.51172 0.34375-0.76562 0.85547-0.76562 1.5312 0 0.625 0.20703 1.1172 0.625 1.4688 0.41406 0.34375 0.98828 0.51562 1.7188 0.51562 0.92578 0 1.7031-0.32812 2.3281-0.98438 0.63281-0.66406 0.95312-1.4922 0.95312-2.4844v-0.5625zm7.4688-1.8438v8.7344h-4.9219v-2.2656c-0.65625 0.92969-1.3984 1.6055-2.2188 2.0312-0.82422 0.41406-1.8242 0.625-3 0.625-1.5859 0-2.8711-0.45703-3.8594-1.375-0.99219-0.92578-1.4844-2.1289-1.4844-3.6094 0-1.7891 0.61328-3.1016 1.8438-3.9375 1.2383-0.84375 3.1797-1.2656 5.8281-1.2656h2.8906v-0.39062c0-0.76953-0.30859-1.332-0.92188-1.6875-0.61719-0.36328-1.5703-0.54688-2.8594-0.54688-1.0547 0-2.0312 0.10547-2.9375 0.3125-0.89844 0.21094-1.7305 0.52344-2.5 0.9375v-3.7344c1.0391-0.25 2.0859-0.44141 3.1406-0.57812 1.0625-0.13281 2.125-0.20312 3.1875-0.20312 2.7578 0 4.75 0.54688 5.9688 1.6406 1.2266 1.0859 1.8438 2.8555 1.8438 5.3125z"
         id="path1343" />
    </symbol>
    <symbol
       id="c-5"
       overflow="visible">
      <path
         d="m7.7031-19.656v4.3438h5.0469v3.5h-5.0469v6.5c0 0.71094 0.14062 1.1875 0.42188 1.4375s0.83594 0.375 1.6719 0.375h2.5156v3.5h-4.1875c-1.9375 0-3.3125-0.39844-4.125-1.2031-0.80469-0.8125-1.2031-2.1797-1.2031-4.1094v-6.5h-2.4219v-3.5h2.4219v-4.3438z"
         id="path1346" />
    </symbol>
    <symbol
       id="l-7"
       overflow="visible">
      <path
         d="m12.766-13.078v-8.2031h4.9219v21.281h-4.9219v-2.2188c-0.66797 0.90625-1.4062 1.5703-2.2188 1.9844s-1.7578 0.625-2.8281 0.625c-1.8867 0-3.4336-0.75-4.6406-2.25-1.2109-1.5-1.8125-3.4258-1.8125-5.7812 0-2.3633 0.60156-4.2969 1.8125-5.7969 1.207-1.5 2.7539-2.25 4.6406-2.25 1.0625 0 2 0.21484 2.8125 0.64062 0.82031 0.42969 1.5664 1.0859 2.2344 1.9688zm-3.2188 9.9219c1.0391 0 1.8359-0.37891 2.3906-1.1406 0.55078-0.76953 0.82812-1.8828 0.82812-3.3438 0-1.457-0.27734-2.5664-0.82812-3.3281-0.55469-0.76953-1.3516-1.1562-2.3906-1.1562-1.043 0-1.8398 0.38672-2.3906 1.1562-0.55469 0.76172-0.82812 1.8711-0.82812 3.3281 0 1.4609 0.27344 2.5742 0.82812 3.3438 0.55078 0.76172 1.3477 1.1406 2.3906 1.1406z"
         id="path1349" />
    </symbol>
    <symbol
       id="k-6"
       overflow="visible">
      <path
         d="m10.5-3.1562c1.0508 0 1.8516-0.37891 2.4062-1.1406 0.55078-0.76953 0.82812-1.8828 0.82812-3.3438 0-1.457-0.27734-2.5664-0.82812-3.3281-0.55469-0.76953-1.3555-1.1562-2.4062-1.1562-1.0547 0-1.8594 0.38672-2.4219 1.1562-0.55469 0.77344-0.82812 1.8828-0.82812 3.3281 0 1.4492 0.27344 2.5586 0.82812 3.3281 0.5625 0.77344 1.3672 1.1562 2.4219 1.1562zm-3.25-9.9219c0.67578-0.88281 1.4219-1.5391 2.2344-1.9688 0.82031-0.42578 1.7656-0.64062 2.8281-0.64062 1.8945 0 3.4453 0.75 4.6562 2.25 1.207 1.5 1.8125 3.4336 1.8125 5.7969 0 2.3555-0.60547 4.2812-1.8125 5.7812-1.2109 1.5-2.7617 2.25-4.6562 2.25-1.0625 0-2.0078-0.21094-2.8281-0.625-0.8125-0.42578-1.5586-1.0859-2.2344-1.9844v2.2188h-4.8906v-21.281h4.8906z"
         id="path1352" />
    </symbol>
    <symbol
       id="f-1"
       overflow="visible">
      <path
         d="m0.34375-15.312h4.8906l4.125 10.391 3.5-10.391h4.8906l-6.4375 16.766c-0.64844 1.6953-1.4023 2.8828-2.2656 3.5625-0.86719 0.6875-2 1.0312-3.4062 1.0312h-2.8438v-3.2188h1.5312c0.83203 0 1.4375-0.13672 1.8125-0.40625 0.38281-0.26172 0.67969-0.73047 0.89062-1.4062l0.14062-0.42188z"
         id="path1355" />
    </symbol>
    <symbol
       id="j-8"
       overflow="visible">
      <path
         d="m2.3594-21.281h4.8906v21.281h-4.8906z"
         id="path1358" />
    </symbol>
    <symbol
       id="u-4"
       overflow="visible">
      <path
         d="m0.42188-15.312h4.8906l3.8281 10.578 3.7969-10.578h4.9062l-6.0312 15.312h-5.375z"
         id="path1361" />
    </symbol>
    <symbol
       id="i-2"
       overflow="visible">
      <path
         d="m2.3594-15.312h4.8906v15.312h-4.8906zm0-5.9688h4.8906v4h-4.8906z"
         id="path1364" />
    </symbol>
    <symbol
       id="h-2"
       overflow="visible">
      <path
         d="m17.75-9.3281v9.3281h-4.9219v-7.1406c0-1.3203-0.03125-2.2344-0.09375-2.7344s-0.16797-0.86719-0.3125-1.1094c-0.1875-0.3125-0.44922-0.55469-0.78125-0.73438-0.32422-0.17578-0.69531-0.26562-1.1094-0.26562-1.0234 0-1.8242 0.39844-2.4062 1.1875-0.58594 0.78125-0.875 1.8711-0.875 3.2656v7.5312h-4.8906v-15.312h4.8906v2.2344c0.73828-0.88281 1.5195-1.5391 2.3438-1.9688 0.83203-0.42578 1.75-0.64062 2.75-0.64062 1.7695 0 3.1133 0.54688 4.0312 1.6406 0.91406 1.0859 1.375 2.6562 1.375 4.7188z"
         id="path1367" />
    </symbol>
    <symbol
       id="t-2"
       overflow="visible">
      <path
         d="m0.98438-15.312h4.7656l2.5625 10.547 2.5781-10.547h4.0938l2.5781 10.438 2.5781-10.438h4.75l-4.0312 15.312h-5.3438l-2.5781-10.531-2.5781 10.531h-5.3438z"
         id="path1370" />
    </symbol>
    <symbol
       id="g-1"
       overflow="visible">
      <path
         d="m2.3594-15.312h4.8906v15.031c0 2.0508-0.49609 3.6172-1.4844 4.7031-0.98047 1.082-2.4062 1.625-4.2812 1.625h-2.4219v-3.2188h0.85938c0.92578 0 1.5625-0.21094 1.9062-0.625 0.35156-0.41797 0.53125-1.2461 0.53125-2.4844zm0-5.9688h4.8906v4h-4.8906z"
         id="path1373" />
    </symbol>
    <symbol
       id="s-9"
       overflow="visible">
      <path
         d="m12.422-21.281v3.2188h-2.7031c-0.6875 0-1.1719 0.125-1.4531 0.375-0.27344 0.25-0.40625 0.6875-0.40625 1.3125v1.0625h4.1875v3.5h-4.1875v11.812h-4.8906v-11.812h-2.4375v-3.5h2.4375v-1.0625c0-1.6641 0.46094-2.8984 1.3906-3.7031 0.92578-0.80078 2.3672-1.2031 4.3281-1.2031z"
         id="path1376" />
    </symbol>
    <symbol
       id="e-1"
       overflow="visible">
      <path
         d="m9.6406-12.188c-1.0859 0-1.9141 0.39062-2.4844 1.1719-0.57422 0.78125-0.85938 1.9062-0.85938 3.375s0.28516 2.5938 0.85938 3.375c0.57031 0.77344 1.3984 1.1562 2.4844 1.1562 1.0625 0 1.875-0.38281 2.4375-1.1562 0.57031-0.78125 0.85938-1.9062 0.85938-3.375s-0.28906-2.5938-0.85938-3.375c-0.5625-0.78125-1.375-1.1719-2.4375-1.1719zm0-3.5c2.6328 0 4.6914 0.71484 6.1719 2.1406 1.4766 1.418 2.2188 3.3867 2.2188 5.9062 0 2.5117-0.74219 4.4805-2.2188 5.9062-1.4805 1.418-3.5391 2.125-6.1719 2.125-2.6484 0-4.7148-0.70703-6.2031-2.125-1.4922-1.4258-2.2344-3.3945-2.2344-5.9062 0-2.5195 0.74219-4.4883 2.2344-5.9062 1.4883-1.4258 3.5547-2.1406 6.2031-2.1406z"
         id="path1379" />
    </symbol>
    <symbol
       id="r-0"
       overflow="visible">
      <path
         d="m16.547-12.766c0.61328-0.94531 1.3477-1.6719 2.2031-2.1719 0.85156-0.5 1.7891-0.75 2.8125-0.75 1.7578 0 3.0977 0.54688 4.0156 1.6406 0.92578 1.0859 1.3906 2.6562 1.3906 4.7188v9.3281h-4.9219v-7.9844-0.35938c0.007813-0.13281 0.015625-0.32031 0.015625-0.5625 0-1.082-0.16406-1.8633-0.48438-2.3438-0.3125-0.48828-0.82422-0.73438-1.5312-0.73438-0.92969 0-1.6484 0.38672-2.1562 1.1562-0.51172 0.76172-0.77344 1.8672-0.78125 3.3125v7.5156h-4.9219v-7.9844c0-1.6953-0.14844-2.7852-0.4375-3.2656-0.29297-0.48828-0.8125-0.73438-1.5625-0.73438-0.9375 0-1.6641 0.38672-2.1719 1.1562-0.51172 0.76172-0.76562 1.8594-0.76562 3.2969v7.5312h-4.9219v-15.312h4.9219v2.2344c0.60156-0.86328 1.2891-1.5156 2.0625-1.9531 0.78125-0.4375 1.6406-0.65625 2.5781-0.65625 1.0625 0 2 0.25781 2.8125 0.76562 0.8125 0.51172 1.4258 1.2305 1.8438 2.1562z"
         id="path1382" />
    </symbol>
    <symbol
       id="q-5"
       overflow="visible">
      <path
         d="m17.75-9.3281v9.3281h-4.9219v-7.1094c0-1.3438-0.03125-2.2656-0.09375-2.7656s-0.16797-0.86719-0.3125-1.1094c-0.1875-0.3125-0.44922-0.55469-0.78125-0.73438-0.32422-0.17578-0.69531-0.26562-1.1094-0.26562-1.0234 0-1.8242 0.39844-2.4062 1.1875-0.58594 0.78125-0.875 1.8711-0.875 3.2656v7.5312h-4.8906v-21.281h4.8906v8.2031c0.73828-0.88281 1.5195-1.5391 2.3438-1.9688 0.83203-0.42578 1.75-0.64062 2.75-0.64062 1.7695 0 3.1133 0.54688 4.0312 1.6406 0.91406 1.0859 1.375 2.6562 1.375 4.7188z"
         id="path1385" />
    </symbol>
    <symbol
       id="p-8"
       overflow="visible">
      <path
         d="m2.5781-20.406h5.875l7.4219 14v-14h4.9844v20.406h-5.875l-7.4219-14v14h-4.9844z"
         id="path1388" />
    </symbol>
    <symbol
       id="o-27"
       overflow="visible">
      <path
         d="m2.1875-5.9688v-9.3438h4.9219v1.5312c0 0.83594-0.007813 1.875-0.015625 3.125-0.011719 1.25-0.015625 2.0859-0.015625 2.5 0 1.2422 0.03125 2.1328 0.09375 2.6719 0.070313 0.54297 0.17969 0.93359 0.32812 1.1719 0.20703 0.32422 0.47266 0.57422 0.79688 0.75 0.32031 0.16797 0.69141 0.25 1.1094 0.25 1.0195 0 1.8203-0.39062 2.4062-1.1719 0.58203-0.78125 0.875-1.8672 0.875-3.2656v-7.5625h4.8906v15.312h-4.8906v-2.2188c-0.74219 0.89844-1.5234 1.5586-2.3438 1.9844-0.82422 0.41406-1.7344 0.625-2.7344 0.625-1.7617 0-3.1055-0.53906-4.0312-1.625-0.92969-1.082-1.3906-2.6602-1.3906-4.7344z"
         id="path1391" />
    </symbol>
    <symbol
       id="n-9"
       overflow="visible">
      <path
         d="m2.5781-20.406h8.7344c2.5938 0 4.582 0.57812 5.9688 1.7344 1.3945 1.1484 2.0938 2.7891 2.0938 4.9219 0 2.1367-0.69922 3.7812-2.0938 4.9375-1.3867 1.1562-3.375 1.7344-5.9688 1.7344h-3.4844v7.0781h-5.25zm5.25 3.8125v5.7031h2.9219c1.0195 0 1.8047-0.25 2.3594-0.75 0.5625-0.5 0.84375-1.2031 0.84375-2.1094 0-0.91406-0.28125-1.6172-0.84375-2.1094-0.55469-0.48828-1.3398-0.73438-2.3594-0.73438z"
         id="path1394" />
    </symbol>
    <symbol
       id="m-5"
       overflow="visible">
      <path
         d="m14.719-14.828v3.9844c-0.65625-0.45703-1.3242-0.79688-2-1.0156-0.66797-0.21875-1.3594-0.32812-2.0781-0.32812-1.3672 0-2.4336 0.40234-3.2031 1.2031-0.76172 0.79297-1.1406 1.9062-1.1406 3.3438 0 1.4297 0.37891 2.543 1.1406 3.3438 0.76953 0.79297 1.8359 1.1875 3.2031 1.1875 0.75781 0 1.4844-0.10938 2.1719-0.32812 0.6875-0.22656 1.3203-0.56641 1.9062-1.0156v4c-0.76172 0.28125-1.5391 0.48828-2.3281 0.625-0.78125 0.14453-1.5742 0.21875-2.375 0.21875-2.7617 0-4.9219-0.70703-6.4844-2.125-1.5547-1.4141-2.3281-3.3828-2.3281-5.9062 0-2.5312 0.77344-4.5039 2.3281-5.9219 1.5625-1.4141 3.7227-2.125 6.4844-2.125 0.80078 0 1.5938 0.074219 2.375 0.21875 0.78125 0.13672 1.5547 0.35156 2.3281 0.64062z"
         id="path1397" />
    </symbol>
  </defs>
  <g
     inkscape:label="Layer 1"
     inkscape:groupmode="layer"
     id="layer1">
    <rect
       style="display:none;fill:#ffffff;stroke:#000000;stroke-width:4;stroke-linejoin:round;stroke-miterlimit:4;stroke-dasharray:none"
       id="rect846"
       width="254"
       height="142.875"
       x="5e-07"
       y="5e-07"
       sodipodi:insensitive="true" />
    <g
       id="g2832"
       transform="matrix(1,0,0,0.81481476,9.3744617,4.1664338)"
       sodipodi:insensitive="true">
      <rect
         style="fill:url(#linearGradient1010);fill-opacity:1;stroke:#000000;stroke-width:0;stroke-linejoin:round;stroke-miterlimit:4;stroke-dasharray:none"
         id="rect972"
         width="254"
         height="142.875"
         x="-9.3744612"
         y="-5.1133423" />
      <rect
         style="opacity:1;fill:url(#linearGradient1189);fill-opacity:1;stroke:#000000;stroke-width:0;stroke-linejoin:round;stroke-miterlimit:4;stroke-dasharray:none"
         id="rect972-1"
         width="254"
         height="142.875"
         x="-9.3744583"
         y="-5.1133504" />
    </g>
    <g
       id="g2874"
       transform="translate(-30.162513,3.2038396)">
      <rect
         style="fill:#ffffff;fill-opacity:1;stroke:#000000;stroke-width:0;stroke-linejoin:round;stroke-miterlimit:4;stroke-dasharray:none"
         id="rect7830"
         width="120.27487"
         height="20.007919"
         x="118.04211"
         y="45.000534"
         ry="5.3357515" />
      <text
         xml:space="preserve"
         style="font-size:11.294px;line-height:1.25;font-family:sans-serif;letter-spacing:0.00847051px;stroke-width:0.28235"
         x="125.62244"
         y="57.918335"
         id="text8742"><tspan
           sodipodi:role="line"
           id="tspan8740"
           style="font-style:normal;font-variant:normal;font-weight:900;font-stretch:normal;font-family:Avenir;-inkscape-font-specification:'Avenir Heavy';stroke-width:0.28235"
           x="125.62244"
           y="57.918335">qr.your-domain.com</tspan></text>
    </g>
    <g
       id="g10491"
       transform="matrix(0.77748684,-0.77748684,0.77748684,0.77748684,115.75745,126.72656)"
       style="opacity:0.152866;fill:#ffffff">
      <path
         d="M 59.242217,39.125573 H 43.437419 V 23.320776 H 59.242217 Z M 75.047014,13.444409 v 35.56 c 0,3.27974 -2.647209,5.92702 -5.927019,5.92702 l -35.560001,-0.0014 c -3.279739,0 -5.927019,-2.647209 -5.927019,-5.92702 v -35.56 c 0,-3.27974 2.647209,-5.9270195 5.927019,-5.9270195 h 35.560001 c 3.278364,0 5.925608,2.6472095 5.925608,5.9270195 z m -5.927019,0 H 33.559994 v 35.56 H 69.119995 Z M 59.242217,82.588854 H 43.437419 v 15.804797 h 15.804798 z m 15.804797,-9.877778 v 35.560004 c 0,3.27974 -2.647209,5.92702 -5.927019,5.92702 l -35.560001,-10e-4 c -3.279739,0 -5.927019,-2.6472 -5.927019,-5.92701 V 72.709665 c 0,-3.27974 2.647209,-5.927019 5.927019,-5.927019 h 35.560001 c 3.278364,0 5.925608,2.647209 5.925608,5.927019 z m -5.927019,0 H 33.559994 V 108.27108 H 69.119995 Z M 134.31333,114.19774 V 98.392946 h -15.8048 v 15.804794 z m -15.8048,-90.875553 h -15.8048 v 15.804797 h 15.8048 z m 0,59.266667 h 15.8048 V 66.784057 h -15.8048 z m 15.8048,-69.144445 v 35.56 c 0,3.27974 -2.64721,5.92702 -5.92702,5.92702 l -35.560001,-0.0014 c -3.27974,0 -5.92702,-2.647209 -5.92702,-5.92702 v -35.56 c 0,-3.27974 2.647209,-5.9270195 5.92702,-5.9270195 h 35.560001 c 3.27836,0 5.92561,2.6472095 5.92561,5.9270195 z m -5.92702,0 H 92.826309 v 35.56 h 35.560001 z m -41.486668,53.34 V 82.589207 H 102.70444 V 66.784409 Z m 15.804798,31.608184 h 15.8048 V 82.587796 h -15.8048 z M 86.899642,114.19739 H 102.70444 V 98.392593 H 86.899642 Z"
         id="path10177"
         style="fill:#ffffff;stroke-width:0.352778" />
    </g>
    <g
       id="g2851"
       style="opacity:0.637329"
       transform="translate(-30.162513,-0.49344993)">
      <g
         id="g7701"
         transform="matrix(0.035614,0,0,0.035614,59.034952,48.68465)"
         style="fill:#ffffff">
        <path
           d="m 349.95,0 h -0.90625 c -154.05,0.25 -279.04,125.39 -279.04,279.49 0,154.26 125.24,279.49 279.49,279.49 154.26,0 279.49,-125.24 279.49,-279.49 0,-154.1 -124.99,-279.24 -279.04,-279.49 z m -11.598,340.76 c -44.25,0.96875 -85.656,7.6953 -121.36,18.863 9.5664,51.305 28.113,95.496 52.582,126.77 19.691,25.164 43.121,41.809 68.781,45.582 z m 26.203,0.10156 v 190.43 c 24.133,-4.8164 46.188,-21.027 64.875,-44.906 24.469,-31.27 43.016,-75.461 52.582,-126.77 -34.656,-10.84 -74.676,-17.492 -117.46,-18.762 z m -172.48,27.645 c -24.922,10.066 -46.148,22.52 -62.43,36.777 29.316,51.09 75.922,91.012 131.82,111.76 -4.3086,-4.5078 -8.4883,-9.3477 -12.523,-14.508 -25.996,-33.219 -46.156,-79.844 -56.863,-134.03 z m 314.85,0 c -10.707,54.188 -30.867,100.81 -56.863,134.03 -4.0352,5.1562 -8.2148,10 -12.523,14.508 55.891,-20.746 102.5,-60.668 131.82,-111.76 -16.285,-14.258 -37.516,-26.711 -62.43,-36.773 z m -384.94,-200.39 c -16.504,33.621 -25.773,71.426 -25.773,111.38 0,36.195 7.6094,70.625 21.316,101.79 18.699,-15.082 42.535,-28.316 70.207,-38.949 -2.7305,-20.18 -4.1797,-41.219 -4.1797,-62.84 0,-26.07 2.1055,-51.297 6.0312,-75.207 -26.301,-9.9258 -49.203,-22.195 -67.598,-36.168 z m 455.03,0 c -18.391,13.973 -41.289,26.238 -67.598,36.168 3.9258,23.91 6.0312,49.137 6.0312,75.207 0,21.621 -1.4492,42.66 -4.1797,62.84 27.668,10.629 51.508,23.867 70.207,38.949 13.707,-31.164 21.312,-65.598 21.312,-101.79 0,-39.953 -9.2695,-77.758 -25.773,-111.38 z m -362.29,44.625 c -3.2461,21.289 -4.9727,43.672 -4.9727,66.75 0,18.582 1.1172,36.711 3.25,54.191 37.242,-11.293 79.871,-18.164 125.35,-19.133 v -83.211 c -44.785,-0.95312 -86.809,-7.625 -123.63,-18.594 z m 269.55,0 c -35.754,10.652 -76.402,17.25 -119.72,18.496 v 83.406 c 44.016,1.2695 85.277,8.0703 121.45,19.035 2.1289,-17.477 3.25,-35.605 3.25,-54.191 0,-23.082 -1.7266,-45.461 -4.9727,-66.75 z m -145.93,-185.73 c -25.66,3.7734 -49.09,20.422 -68.781,45.582 -22.484,28.734 -39.969,68.375 -50.078,114.41 35.137,10.715 75.637,17.164 118.86,18.117 z m 26.203,0.67578 v 177.34 c 41.762,-1.2422 80.887,-7.625 114.95,-18.016 -10.109,-46.043 -27.594,-85.684 -50.078,-114.41 -18.688,-23.879 -40.742,-40.09 -64.875,-44.906 z m 72.984,14.25 c 4.3086,4.5078 8.4883,9.3477 12.523,14.508 24.039,30.719 43.086,72.895 54.285,121.93 23.402,-9.2109 43.656,-20.5 59.766,-33.398 -29.477,-46.906 -73.906,-83.488 -126.57,-103.04 z m -176.08,0 c -52.668,19.551 -97.094,56.129 -126.57,103.04 16.105,12.895 36.355,24.184 59.766,33.398 11.199,-49.031 30.25,-91.211 54.285,-121.93 4.0352,-5.1562 8.2148,-10 12.523,-14.508 z"
           fill-rule="evenodd"
           id="path7621"
           style="fill:#ffffff" />
        <use
           x="70"
           y="561.8125"
           xlink:href="#u"
           id="use7623"
           width="100%"
           height="100%"
           style="fill:#ffffff" />
        <use
           x="70.441406"
           y="561.8125"
           xlink:href="#d"
           id="use7625"
           width="100%"
           height="100%"
           style="fill:#ffffff" />
        <use
           x="70.742188"
           y="561.8125"
           xlink:href="#a"
           id="use7627"
           width="100%"
           height="100%"
           style="fill:#ffffff" />
        <use
           x="71.148438"
           y="561.8125"
           xlink:href="#c"
           id="use7629"
           width="100%"
           height="100%"
           style="fill:#ffffff" />
        <use
           x="71.558594"
           y="561.8125"
           xlink:href="#b"
           id="use7631"
           width="100%"
           height="100%"
           style="fill:#ffffff" />
        <use
           x="71.847656"
           y="561.8125"
           xlink:href="#a"
           id="use7633"
           width="100%"
           height="100%"
           style="fill:#ffffff" />
        <use
           x="72.253906"
           y="561.8125"
           xlink:href="#k"
           id="use7635"
           width="100%"
           height="100%"
           style="fill:#ffffff" />
        <use
           x="72.898438"
           y="561.8125"
           xlink:href="#j"
           id="use7637"
           width="100%"
           height="100%"
           style="fill:#ffffff" />
        <use
           x="73.332031"
           y="561.8125"
           xlink:href="#i"
           id="use7639"
           width="100%"
           height="100%"
           style="fill:#ffffff" />
        <use
           x="73.933594"
           y="561.8125"
           xlink:href="#h"
           id="use7641"
           width="100%"
           height="100%"
           style="fill:#ffffff" />
        <use
           x="74.433594"
           y="561.8125"
           xlink:href="#c"
           id="use7643"
           width="100%"
           height="100%"
           style="fill:#ffffff" />
        <use
           x="74.84375"
           y="561.8125"
           xlink:href="#g"
           id="use7645"
           width="100%"
           height="100%"
           style="fill:#ffffff" />
        <use
           x="75.472656"
           y="561.8125"
           xlink:href="#t"
           id="use7647"
           width="100%"
           height="100%"
           style="fill:#ffffff" />
        <use
           x="75.679688"
           y="561.8125"
           xlink:href="#c"
           id="use7649"
           width="100%"
           height="100%"
           style="fill:#ffffff" />
        <use
           x="76.085938"
           y="561.8125"
           xlink:href="#f"
           id="use7651"
           width="100%"
           height="100%"
           style="fill:#ffffff" />
        <use
           x="76.726562"
           y="561.8125"
           xlink:href="#s"
           id="use7653"
           width="100%"
           height="100%"
           style="fill:#ffffff" />
        <use
           x="77.230469"
           y="561.8125"
           xlink:href="#a"
           id="use7655"
           width="100%"
           height="100%"
           style="fill:#ffffff" />
        <use
           x="77.640625"
           y="561.8125"
           xlink:href="#b"
           id="use7657"
           width="100%"
           height="100%"
           style="fill:#ffffff" />
        <use
           x="77.929688"
           y="561.8125"
           xlink:href="#g"
           id="use7659"
           width="100%"
           height="100%"
           style="fill:#ffffff" />
        <use
           x="78.558594"
           y="561.8125"
           xlink:href="#c"
           id="use7661"
           width="100%"
           height="100%"
           style="fill:#ffffff" />
        <use
           x="78.964844"
           y="561.8125"
           xlink:href="#f"
           id="use7663"
           width="100%"
           height="100%"
           style="fill:#ffffff" />
        <use
           x="70"
           y="562.41406"
           xlink:href="#r"
           id="use7665"
           width="100%"
           height="100%"
           style="fill:#ffffff" />
        <use
           x="70.261719"
           y="562.41406"
           xlink:href="#d"
           id="use7667"
           width="100%"
           height="100%"
           style="fill:#ffffff" />
        <use
           x="70.558594"
           y="562.41406"
           xlink:href="#e"
           id="use7669"
           width="100%"
           height="100%"
           style="fill:#ffffff" />
        <use
           x="70.976562"
           y="562.41406"
           xlink:href="#g"
           id="use7671"
           width="100%"
           height="100%"
           style="fill:#ffffff" />
        <use
           x="71.8125"
           y="562.41406"
           xlink:href="#b"
           id="use7673"
           width="100%"
           height="100%"
           style="fill:#ffffff" />
        <use
           x="72.101562"
           y="562.41406"
           xlink:href="#q"
           id="use7675"
           width="100%"
           height="100%"
           style="fill:#ffffff" />
        <use
           x="72.53125"
           y="562.41406"
           xlink:href="#a"
           id="use7677"
           width="100%"
           height="100%"
           style="fill:#ffffff" />
        <use
           x="73.152344"
           y="562.41406"
           xlink:href="#p"
           id="use7679"
           width="100%"
           height="100%"
           style="fill:#ffffff" />
        <use
           x="73.65625"
           y="562.41406"
           xlink:href="#e"
           id="use7681"
           width="100%"
           height="100%"
           style="fill:#ffffff" />
        <use
           x="74.074219"
           y="562.41406"
           xlink:href="#o"
           id="use7683"
           width="100%"
           height="100%"
           style="fill:#ffffff" />
        <use
           x="74.503906"
           y="562.41406"
           xlink:href="#f"
           id="use7685"
           width="100%"
           height="100%"
           style="fill:#ffffff" />
        <use
           x="75.140625"
           y="562.41406"
           xlink:href="#n"
           id="use7687"
           width="100%"
           height="100%"
           style="fill:#ffffff" />
        <use
           x="75.585938"
           y="562.41406"
           xlink:href="#d"
           id="use7689"
           width="100%"
           height="100%"
           style="fill:#ffffff" />
        <use
           x="75.882812"
           y="562.41406"
           xlink:href="#e"
           id="use7691"
           width="100%"
           height="100%"
           style="fill:#ffffff" />
        <use
           x="76.296875"
           y="562.41406"
           xlink:href="#m"
           id="use7693"
           width="100%"
           height="100%"
           style="fill:#ffffff" />
        <use
           x="76.503906"
           y="562.41406"
           xlink:href="#a"
           id="use7695"
           width="100%"
           height="100%"
           style="fill:#ffffff" />
        <use
           x="76.914062"
           y="562.41406"
           xlink:href="#l"
           id="use7697"
           width="100%"
           height="100%"
           style="fill:#ffffff" />
        <use
           x="77.269531"
           y="562.41406"
           xlink:href="#b"
           id="use7699"
           width="100%"
           height="100%"
           style="fill:#ffffff" />
      </g>
      <g
         id="g1694"
         style="fill:#ffffff;stroke-width:7.37999;stroke-miterlimit:4;stroke-dasharray:none"
         transform="matrix(0.27100303,0,0,0.27100303,80.315702,-1.6743376)">
        <rect
           style="opacity:1;fill:none;stroke:#ffffff;stroke-width:7.37999;stroke-linejoin:round;stroke-miterlimit:4;stroke-dasharray:none;stroke-opacity:1"
           id="rect1836"
           width="55.918083"
           height="55.918083"
           x="53.5042"
           y="194.82858"
           ry="4.5274744" />
      </g>
      <rect
         style="opacity:1;fill:#ffffff;fill-opacity:1;stroke:none;stroke-width:1.46777;stroke-linejoin:round;stroke-miterlimit:4;stroke-dasharray:none;stroke-opacity:1"
         id="rect2681"
         width="22.7202"
         height="4.2611189"
         x="80.272789"
         y="56.571224"
         ry="2.0000012" />
    </g>
  </g>
</svg>
