<?xml version="1.0" encoding="UTF-8" standalone="no"?>
<svg
   width="700pt"
   height="700pt"
   version="1.1"
   viewBox="0 0 700 700"
   id="svg2236"
   sodipodi:docname="noun-quote-3264202.svg"
   inkscape:version="1.1.2 (b8e25be8, 2022-02-05)"
   xmlns:inkscape="http://www.inkscape.org/namespaces/inkscape"
   xmlns:sodipodi="http://sodipodi.sourceforge.net/DTD/sodipodi-0.dtd"
   xmlns:xlink="http://www.w3.org/1999/xlink"
   xmlns="http://www.w3.org/2000/svg"
   xmlns:svg="http://www.w3.org/2000/svg">
  <defs
     id="defs2240">
    <linearGradient
       inkscape:collect="always"
       id="linearGradient2443">
      <stop
         style="stop-color:#48a9a6;stop-opacity:1"
         offset="0"
         id="stop2439" />
      <stop
         style="stop-color:#1c57cb;stop-opacity:0.94463086"
         offset="1"
         id="stop2441" />
    </linearGradient>
    <linearGradient
       inkscape:collect="always"
       xlink:href="#linearGradient2443"
       id="linearGradient2445"
       x1="142.61119"
       y1="243.04161"
       x2="526.25537"
       y2="415.78192"
       gradientUnits="userSpaceOnUse" />
  </defs>
  <sodipodi:namedview
     id="namedview2238"
     pagecolor="#ffffff"
     bordercolor="#666666"
     borderopacity="1.0"
     inkscape:pageshadow="2"
     inkscape:pageopacity="0.0"
     inkscape:pagecheckerboard="0"
     inkscape:document-units="pt"
     showgrid="false"
     inkscape:zoom="0.37339286"
     inkscape:cx="1061.8843"
     inkscape:cy="654.80631"
     inkscape:window-width="1296"
     inkscape:window-height="925"
     inkscape:window-x="239"
     inkscape:window-y="46"
     inkscape:window-maximized="0"
     inkscape:current-layer="svg2236" />
  <path
     d="m 80.728427,85.464495 c -5.12004,-0.0214 -10.030029,2.00085 -13.650141,5.62129 -3.616163,3.61616 -5.638402,8.53043 -5.621291,13.645745 v 226.73823 c 0.02142,5.08998 2.060847,9.96575 5.67701,13.55142 3.611886,3.58611 8.504772,5.58707 13.595302,5.56985 h 85.137613 c -3.509,30.88255 -8.47054,59.88074 -21.52104,77.63964 -16.13119,21.95868 -44.957175,40.98552 -88.286642,55.26195 v -0.004 c -5.239921,1.72664 -9.485888,5.62129 -11.64951,10.69416 -2.168008,5.07288 -2.048014,10.83555 0.329907,15.81421 l 44.46469,93.49661 h -0.004 c 2.02235,4.29313 5.56558,7.68214 9.94009,9.51594 4.374525,1.8338 9.275965,1.98374 13.753255,0.41988 50.45452,-17.93878 92.79463,-42.99932 126.22404,-75.24085 l 0.15424,-0.15424 c 33.74091,-32.06933 57.29659,-69.20824 69.58117,-110.67089 v -0.11568 c 12.15515,-40.58299 17.84555,-93.74121 17.84555,-160.41247 V 104.73341 c 0.0214,-5.115755 -2.00513,-10.030025 -5.6213,-13.645745 -3.62044,-3.62044 -8.53471,-5.64268 -13.65014,-5.62129 z m 330.542923,0 h -0.004 c -5.11576,-0.0214 -10.02575,2.00085 -13.64575,5.62129 -3.61617,3.61616 -5.64268,8.53043 -5.6213,13.645745 v 226.73823 c 0.0214,5.08998 2.06085,9.96575 5.67702,13.55142 3.61188,3.58611 8.50049,5.58707 13.59091,5.56985 h 85.176 c -3.509,30.88694 -8.65898,59.88074 -21.70531,77.63964 -16.13119,21.95868 -44.76852,40.98552 -88.09798,55.26195 v -0.004 c -5.24859,1.71809 -9.50311,5.60846 -11.67584,10.68561 -2.17656,5.07287 -2.06084,10.83982 0.31278,15.82297 l 44.34952,93.49662 h 0.004 c 2.02234,4.31879 5.58268,7.72502 9.98297,9.5631 4.40018,1.83381 9.3274,1.96663 13.82235,0.37275 50.45452,-17.93877 92.82863,-42.99931 126.26792,-75.24085 l 0.15423,-0.15424 c 33.74091,-32.06933 57.2582,-69.20824 69.54169,-110.67089 v -0.11568 c 12.15515,-40.58299 17.73366,-93.74121 17.73366,-160.41247 l -0.004,-162.10159 c 0.0214,-5.089985 -1.98374,-9.978695 -5.56985,-13.595295 -3.58611,-3.61189 -8.4576,-5.65552 -13.55143,-5.67274 z"
     id="path2234"
     style="stroke-width:1.09684;fill-opacity:1;fill:url(#linearGradient2445)" />
</svg>
