<?xml version="1.0" encoding="UTF-8" standalone="no"?>
<svg
   width="511.80359pt"
   height="435.17133pt"
   version="1.1"
   viewBox="0 0 511.80359 435.17133"
   id="svg1319"
   sodipodi:docname="logo.svg"
   inkscape:version="1.1.2 (b8e25be8, 2022-02-05)"
   xmlns:inkscape="http://www.inkscape.org/namespaces/inkscape"
   xmlns:sodipodi="http://sodipodi.sourceforge.net/DTD/sodipodi-0.dtd"
   xmlns="http://www.w3.org/2000/svg"
   xmlns:svg="http://www.w3.org/2000/svg">
  <sodipodi:namedview
     id="namedview1321"
     pagecolor="#ffffff"
     bordercolor="#666666"
     borderopacity="1.0"
     inkscape:pageshadow="2"
     inkscape:pageopacity="0.0"
     inkscape:pagecheckerboard="0"
     inkscape:document-units="pt"
     showgrid="false"
     fit-margin-top="0"
     fit-margin-left="0"
     fit-margin-right="0"
     fit-margin-bottom="0"
     inkscape:zoom="0.42107143"
     inkscape:cx="340.79729"
     inkscape:cy="374.0458"
     inkscape:window-width="1680"
     inkscape:window-height="925"
     inkscape:window-x="0"
     inkscape:window-y="23"
     inkscape:window-maximized="0"
     inkscape:current-layer="svg1319" />
  <defs
     id="defs1287" />
  <path
     d="m 230.757,253.50734 c 24.977,-15.062 41.773,-42.379 41.773,-73.613 0,-0.35938 -0.0703,-0.71875 -0.0742,-1.0781 16.254,-1.2266 29.148,-14.699 29.148,-31.262 0,-11.656 -6.4375,-21.734 -15.871,-27.184 0,-0.0586 0.0352,-0.10547 0.0352,-0.16406 0,-37.496002 -28.727,-69.777002 -70.555,-80.367002 -4.5312,-9.6367 -13.898,-16.34 -24.809,-16.34 h -7.7422 c -10.914,0 -20.281,6.7031 -24.812,16.34 -41.824,10.59 -70.551003,42.871 -70.551003,80.363002 0,0.0586 0.0312,0.10547 0.0352,0.16406 -9.4336,5.4492 -15.871,15.527 -15.871,27.184 0,16.566 12.895,30.039 29.152003,31.262 -0.004,0.36328 -0.082,0.71875 -0.082,1.0781 0,31.242 16.805,58.566 41.797,73.629 -82.805003,14.293 -142.33,66.461 -142.33,112.39 0,60.871 89.675997,69.262 186.59,69.262 96.91,0 186.59,-8.3906 186.59,-69.262 -0.0156,-45.945 -59.578,-98.129 -142.43,-112.4 z m -120.07,156.37 c -5.332,-0.50391 -10.516,-1.1016 -15.582003,-1.7812 v -117.21 c 5.007803,-2.1758 10.219003,-4.1875 15.582003,-6.0469 z m 22.398,-131.47 c 4.3398,-1.0273 8.75,-1.9258 13.23,-2.7188 3.6445,18.949 20.305,33.324 40.301,33.324 19.992,0 36.648,-14.363 40.301,-33.305 4.4492,0.78906 8.8281,1.6797 13.137,2.6992 v 84.73 h -106.97 z m 53.484,-6.3984 c 6.0781,0 12.078,0.29297 18.02,0.76172 -2.1484,7.9453 -9.3516,13.84 -17.969,13.84 -8.6211,0 -15.824,-5.8984 -17.973,-13.852 5.9062,-0.46094 11.879,-0.75 17.922,-0.75 z m 75.887,12.828 c 5.3633,1.8594 10.57,3.8711 15.582,6.0469 v 117.21 c -5.0625,0.67969 -10.25,1.2812 -15.582,1.7812 z M 177.296,52.626938 c 0,-3.6406 2.4492,-6.7227 5.3555,-6.7227 h 7.7422 c 2.8984,0 5.3477,3.0781 5.3477,6.7227 v 34.602 c 0,6.1836 5.0156,11.199 11.199,11.199 6.1836,0 11.199,-5.0156 11.199,-11.199 v -23.082 c 5.5039,1.9844 10.504,4.5625 15.18,7.4531 v 28.207 c 0,6.183602 5.0156,11.199002 11.199,11.199002 6.1834,0 11.199,-5.0156 11.199,-11.199002 v -5.9883 c 4.0664,6.859402 6.5352,14.352002 7.1953,22.242002 l -152.79,-0.004 c 0.67969,-8.0859 3.2344,-15.762 7.4805,-22.754002 v 6.5 c 0,6.183602 5.0156,11.199002 11.199,11.199002 6.1834,0 11.199,-5.0156 11.199,-11.199002 v -28.383 c 4.5977,-2.8125 9.5039,-5.3281 14.891,-7.2734 v 23.078 c 0,6.1836 5.0156,11.199 11.199,11.199 6.1836,0 11.199,-5.0156 11.199,-11.199 z M 93.846997,147.55694 c 0,-5.0195 4.0781,-9.1016 9.101603,-9.1016 h 167.15 c 5.0195,0 9.1016,4.0781 9.1016,9.1016 0,5.0195 -4.0781,9.1016 -9.1016,9.1016 h -167.15 c -5.019503,0 -9.101603,-4.082 -9.101603,-9.1016 z m 29.074003,32.344 c 0,-0.28125 0.0586,-0.55859 0.0625,-0.84375 h 127.08 c 0.004,0.28516 0.0586,0.55469 0.0586,0.84375 0,35.066 -28.531,63.598 -63.602,63.598 -35.07,-0.004 -63.602,-28.531 -63.602,-63.598 z m -100.540003,186.02 c 0,-21.445 19.559,-45.277 50.324,-63.578 v 101.84 c -29.766,-6.6484 -50.324,-18.211 -50.324,-38.266 z m 110.700003,45.598 v -25.98 h 106.97 v 25.98 c -17.629,0.94531 -35.844,1.2617 -53.484,1.2617 -17.64,0 -35.855,-0.3125 -53.484,-1.2617 z m 167.35,-7.3281 v -101.85 c 30.77,18.301 50.328,42.133 50.328,63.582 0,20.055 -20.559,31.617 -50.328,38.266 z m 25.723,-249.15 h 0.004 l 39.387,-0.0117 -30.211,82.195 c -1.8828,5.1133 0.19141,10.84 4.9062,13.562 1.7539,1.0156 3.6875,1.5039 5.6016,1.5039 3.2266,0 6.4023,-1.3945 8.5977,-4.0195 l 110.88,-132.64 c 2.7891,-3.3359 3.3945,-7.9844 1.5547,-11.926 -1.8438,-3.937502 -5.7969,-6.453102 -10.145,-6.453102 h -0.004 l -39.387,0.0117 30.211,-82.195 C 449.432,9.9548383 447.35779,4.2281383 442.643,1.5061383 c -4.7031,-2.7305 -10.691,-1.66409998 -14.195,2.5156 L 317.568,136.66174 c -2.7891,3.3359 -3.3945,7.9844 -1.5547,11.926 1.8398,3.9375 5.793,6.4531 10.141,6.4531 z m 78.129,-87.199002 -13.508,36.754002 c -1.2617,3.4414 -0.76953,7.2695 1.3281,10.27 2.0938,2.9961 5.5234,4.7812 9.1836,4.7812 h 31.484 l -54.168,64.801 13.504,-36.738 c 1.2617,-3.4414 0.76953,-7.2734 -1.3281,-10.277 -2.0938,-3.0039 -5.5234,-4.7891 -9.1836,-4.7891 h -31.477 z m 100.08,101.140002 -40.426,-14.371 c -4.7969,-1.7188 -10.148,0.0391 -13.012,4.2539 l -30.133,44.293 c -2.5117,3.6875 -2.5938,8.5039 -0.21484,12.273 l 11.305,17.938 -13.801,38.816 c -5.043,-0.53516 -9.9727,2.1797 -11.746,7.168 l -19.109,53.754 c -5.1562,14.52 2.4609,30.527 16.977,35.695 l 11.293,4.0156 c 3.0859,1.0938 6.2305,1.6133 9.3281,1.6133 11.496,0 22.289,-7.1523 26.363,-18.59 l 19.109,-53.754 c 0.99609,-2.8008 0.83594,-5.8789 -0.4375,-8.5625 -0.90234,-1.8867 -2.418,-3.2969 -4.1445,-4.418 l 13.793,-38.801 20.086,-6.7695 c 4.2227,-1.4258 7.2031,-5.2188 7.5781,-9.6562 l 4.5898,-53.375 c 0.44141,-5.0859 -2.5977,-9.8164 -7.3984,-11.523 z m -74.273,179.34 c -1.0273,2.8828 -4.1875,4.3984 -7.0859,3.375 l -11.293,-4.0156 c -2.8828,-1.0234 -4.3906,-4.207 -3.3672,-7.0859 l 15.355,-43.191 21.742,7.7266 z m 55.398,-123.68 -18.289,6.1641 c -3.2539,1.0977 -5.8242,3.625 -6.9766,6.8633 l -15.441,43.453 -5.4141,-1.9258 15.449,-43.453 c 1.1484,-3.2383 0.75,-6.8203 -1.082,-9.7227 l -10.293,-16.328 21.141,-31.078 24.129,8.582 z"
     id="path1289" />
</svg>
