<?xml version="1.0" encoding="UTF-8" standalone="no"?>
<svg
   width="503.996pt"
   height="422.23126pt"
   version="1.1"
   viewBox="0 0 503.996 422.23126"
   id="svg1677"
   sodipodi:docname="logo.svg"
   inkscape:version="1.1.2 (b8e25be8, 2022-02-05)"
   xmlns:inkscape="http://www.inkscape.org/namespaces/inkscape"
   xmlns:sodipodi="http://sodipodi.sourceforge.net/DTD/sodipodi-0.dtd"
   xmlns="http://www.w3.org/2000/svg"
   xmlns:svg="http://www.w3.org/2000/svg">
  <sodipodi:namedview
     id="namedview1679"
     pagecolor="#ffffff"
     bordercolor="#666666"
     borderopacity="1.0"
     inkscape:pageshadow="2"
     inkscape:pageopacity="0.0"
     inkscape:pagecheckerboard="0"
     inkscape:document-units="pt"
     showgrid="false"
     fit-margin-top="0"
     fit-margin-left="0"
     fit-margin-right="0"
     fit-margin-bottom="0"
     inkscape:zoom="0.74678571"
     inkscape:cx="181.44429"
     inkscape:cy="497.46533"
     inkscape:window-width="1296"
     inkscape:window-height="925"
     inkscape:window-x="379"
     inkscape:window-y="53"
     inkscape:window-maximized="0"
     inkscape:current-layer="svg1677" />
  <defs
     id="defs1573" />
  <path
     d="m 292.746,386.28326 v -45.316 h -42.852 v -51.707 h 42.852 v -37.645 c -12.879,-6.4844 -27.109,-10.68 -42.156,-12.051 -0.46484,21.531 -32.379,38.902 -71.68,38.902 -39.312,0 -71.215,-17.375 -71.68,-38.902 -60.133,5.5 -107.23,56.039 -107.23,117.59 0,65.23 52.879,65.066 118.1,65.066 h 121.63 c 39.48,0 74.418,0.0352 95.867,-14.387 v -21.555 z"
     id="path1575" />
  <path
     d="m 178.906,235.84326 c -39.895,0 -72.863,-43.238 -78.16,-99.379 H 89.898 c 6.0273,63.934 43.562,113.2 89.008,113.2 45.434,0 82.98,-49.258 89.008,-113.2 h -10.852 c -5.3008,56.141 -38.258,99.379 -78.156,99.379 z"
     id="path1577" />
  <path
     d="m 85.676,123.16326 h 186.48 c 7.2734,0 13.156,-5.8906 13.156,-13.148 0,-7.2617 -5.8789,-13.16 -13.156,-13.16 h -3.582 c 0,-34.938 -20.016,-65.195 -49.18,-79.984 l -7.4297,42.125 c -0.58203,3.332 -3.4844,5.6797 -6.7656,5.6797 -0.39062,0 -0.79688,-0.0352 -1.1992,-0.10156 -3.7344,-0.66016 -6.2266,-4.2227 -5.5703,-7.9648 l 8.4844,-48.133 C 203.7261,3.3868 198.0777,0 191.6326,0 h -25.441 c -6.4414,0 -12.086,3.3867 -15.277,8.4766 l 8.4844,48.133 c 0.66016,3.7422 -1.832,7.3008 -5.5703,7.9648 -0.40234,0.0625 -0.80469,0.10156 -1.1992,0.10156 -3.2812,0 -6.1836,-2.3477 -6.7656,-5.6797 l -7.4297,-42.117 c -29.172,14.789 -49.18,45.039 -49.18,79.98 h -3.5859 c -7.2617,0 -13.148,5.8906 -13.148,13.16 0.008,7.2539 5.8867,13.145 13.156,13.145 z"
     id="path1579" />
  <path
     d="m 302.136,253.33326 h 73.328 v 32.934 h -73.328 z"
     id="path1581" />
  <path
     d="m 387.836,253.33326 h 73.309 v 32.934 h -73.309 z"
     id="path1583" />
  <path
     d="m 302.136,343.97326 h 73.328 v 32.938 h -73.328 z"
     id="path1585" />
  <path
     d="m 387.836,343.97326 h 73.309 v 32.938 h -73.309 z"
     id="path1587" />
  <path
     d="m 344.976,389.29326 h 73.332 v 32.938 h -73.332 z"
     id="path1589" />
  <path
     d="m 344.976,298.65326 h 73.328 v 32.934 h -73.328 z"
     id="path1591" />
  <path
     d="m 259.286,298.65326 h 73.32 v 32.934 h -73.32 z"
     id="path1593" />
  <path
     d="m 430.676,298.65326 h 73.32 v 32.934 h -73.32 z"
     id="path1595" />
</svg>
