<?xml version="1.0" encoding="UTF-8" standalone="no"?>
<svg
   width="487.19431pt"
   height="487.19147pt"
   version="1.1"
   viewBox="0 0 487.19431 487.19147"
   id="svg826"
   sodipodi:docname="logo.svg"
   inkscape:version="1.1.2 (b8e25be8, 2022-02-05)"
   xmlns:inkscape="http://www.inkscape.org/namespaces/inkscape"
   xmlns:sodipodi="http://sodipodi.sourceforge.net/DTD/sodipodi-0.dtd"
   xmlns="http://www.w3.org/2000/svg"
   xmlns:svg="http://www.w3.org/2000/svg">
  <defs
     id="defs830" />
  <sodipodi:namedview
     id="namedview828"
     pagecolor="#ffffff"
     bordercolor="#666666"
     borderopacity="1.0"
     inkscape:pageshadow="2"
     inkscape:pageopacity="0.0"
     inkscape:pagecheckerboard="0"
     inkscape:document-units="pt"
     showgrid="false"
     fit-margin-top="0"
     fit-margin-left="0"
     fit-margin-right="0"
     fit-margin-bottom="0"
     inkscape:zoom="0.74678571"
     inkscape:cx="237.68532"
     inkscape:cy="540.31564"
     inkscape:window-width="1312"
     inkscape:window-height="925"
     inkscape:window-x="0"
     inkscape:window-y="23"
     inkscape:window-maximized="0"
     inkscape:current-layer="svg826" />
  <path
     d="M 0.83984,130.7533 0,134.0072 v 0.42188 c 0.03516,37.102 29.891,67.164 66.605,67.164 h 0.59375 v 277.2 c 0,4.6562 3.7461,8.3984 8.3984,8.3984 h 336 c 4.6562,0 8.3984,-3.7461 8.3984,-8.3984 v -277.2 h 0.59375 c 36.715,0 66.57,-30.066 66.605,-67.164 v -0.42188 l -0.83984,-3.2539 -58.766,-125.89 C 426.22516,1.8867 423.24866,0 419.99466,0 h -352.8 c -3.2539,0 -6.2305,1.8906 -7.5938,4.8633 l -58.766,125.89 z m 360.75,34.859 c -11.164,21.387 -33.391,35.98 -58.977,35.98 -25.586,0 -47.844,-14.594 -59.012,-35.98 -11.164,21.387 -33.426,35.98 -59.012,35.98 -25.586,0 -47.809,-14.594 -58.977,-35.98 -8.5391,16.379 -23.555,28.734 -41.613,33.672 v 271.11 h 319.2 v -271.11 c -18.059,-4.9336 -33.074,-17.289 -41.613,-33.672 z m -149.27,104.16 c -46.305,12.215 -82.109,50.891 -90.512,99.051 h -4.1992 c -2.5898,0 -5.0742,1.2266 -6.6484,3.2891 -1.5742,2.0312 -2.1367,4.7266 -1.4688,7.2461 l 8.9961,34.371 c 0.98047,3.6758 4.3047,6.2656 8.1211,6.2656 h 234.01 c 3.8164,0 7.1406,-2.5898 8.1211,-6.2656 l 8.9961,-34.371 c 0.66406,-2.5195 0.10547,-5.2148 -1.4688,-7.2461 -1.5742,-2.0664 -4.0586,-3.2891 -6.6484,-3.2891 h -4.1992 c -8.3984,-48.16 -44.203,-86.836 -90.477,-99.051 v -0.31641 c 0,-17.953 -14.141,-32.34 -31.324,-32.34 -17.183,0 -31.324,14.387 -31.324,32.34 l 0.0352,0.31641 z m 145.91,115.85 h -229.74 l 4.5859,17.57 h 221.06 l 4.5859,-17.57 z m -9.9062,-16.801 c -10.012,-49.211 -53.094,-86.273 -104.72,-86.273 -51.626,0 -94.711,37.066 -104.72,86.273 z m -90.477,-102.27 c -1.2617,-7.1406 -7.0703,-12.637 -14.246,-12.637 -7.1757,0 -12.984,5.4961 -14.246,12.637 l 14.246,-0.80469 z m -24.113,-123.76 h -98.246 c 3.9531,23.801 24.43,42 49.105,42 24.711,0 45.184,-18.199 49.141,-42 z m 235.97,0 h -98.246 c 3.9531,23.801 24.43,42 49.141,42 24.676,0 45.148,-18.199 49.105,-42 z m -353.95,0 h -98.246 c 3.9531,23.801 24.43,42 49.105,42 24.711,0 45.184,-18.199 49.141,-42 z m 235.97,0 h -98.246 c 3.9531,23.801 24.43,42 49.141,42 24.676,0 45.148,-18.199 49.105,-42 z m 113.89,-16.801 h -444.01 l 50.961,-109.2 h 342.09 z"
     fill-rule="evenodd"
     id="path824" />
</svg>
