<?xml version="1.0" encoding="UTF-8" standalone="no"?>
<svg
   version="1.1"
   viewBox="0 0 700 700"
   width="700pt"
   height="700pt"
   id="svg825"
   sodipodi:docname="bag.svg"
   inkscape:version="1.1.2 (b8e25be8, 2022-02-05)"
   xmlns:inkscape="http://www.inkscape.org/namespaces/inkscape"
   xmlns:sodipodi="http://sodipodi.sourceforge.net/DTD/sodipodi-0.dtd"
   xmlns="http://www.w3.org/2000/svg"
   xmlns:svg="http://www.w3.org/2000/svg">
  <defs
     id="defs829" />
  <sodipodi:namedview
     id="namedview827"
     pagecolor="#ffffff"
     bordercolor="#666666"
     borderopacity="1.0"
     inkscape:pageshadow="2"
     inkscape:pageopacity="0.0"
     inkscape:pagecheckerboard="0"
     inkscape:document-units="pt"
     showgrid="false"
     inkscape:zoom="0.35302735"
     inkscape:cx="-63.734439"
     inkscape:cy="570.77731"
     inkscape:window-width="1312"
     inkscape:window-height="925"
     inkscape:window-x="0"
     inkscape:window-y="23"
     inkscape:window-maximized="0"
     inkscape:current-layer="svg825" />
  <path
     id="dummy-data-area"
     style="fill:#999999;stroke:none;stroke-width:0.75"
     d="m 127.875,156.99609 c -8.09473,0.0674 -16.19887,-0.0381 -24.2833,0.43348 -2.18286,0.22805 -4.434505,0.19356 -6.538966,0.87902 -1.447009,0.5057 -2.795021,1.50833 -3.477247,2.89025 -1.102344,8.65313 -1.800781,17.35138 -2.680894,26.02904 -6.347573,65.71287 -12.474321,131.45349 -18.615738,197.18874 -7.512797,80.58873 -15.015137,161.17858 -22.330576,241.78549 -1.24916,13.95856 -2.547362,27.91384 -3.659217,41.88383 -0.154826,1.65342 0.33814,3.42781 1.688265,4.48341 2.044482,1.74654 4.883546,1.6904 7.410774,1.93841 7.371105,0.51583 14.76653,0.48076 22.151393,0.61013 26.533016,0.30304 53.068366,0.26491 79.602686,0.30049 96.22082,0.0724 192.44167,0.0338 288.66251,0.0406 15.10361,-149.81005 30.23783,-299.61704 45.2365,-449.43765 2.06757,-20.73909 4.1396,-41.47779 6.15022,-62.2225 0.11886,-0.74672 0.0184,-1.8117 -0.3374,-2.60789 -0.75973,-2.01013 -2.89569,-2.97522 -4.88526,-3.30227 -4.4706,-0.60003 -8.99467,-0.63719 -13.49836,-0.75362 -20.2536,-0.23496 -40.50923,-0.1091 -60.76375,-0.14413 -1.69258,-2.6e-4 -3.38516,-8.1e-4 -5.07773,-6.9e-4 -0.63684,14.46376 -0.97527,28.9799 -2.07772,43.38295 -0.11327,2.12292 -0.53787,4.2115 -0.74455,6.32213 -0.14297,2.51444 0.92078,5.19798 3.16016,6.50781 1.75544,1.13845 3.84406,1.69692 5.44705,3.08141 6.85791,4.9385 11.54238,12.79889 12.49591,21.20876 0.48169,3.95777 0.10981,8.00033 -0.9371,11.84069 -0.19109,0.6673 -0.48485,1.61887 -0.77109,2.38055 -2.81729,7.72799 -8.80878,14.239 -16.28703,17.66669 -4.27,1.89931 -9.01866,2.47895 -13.65707,2.42225 -4.57101,-0.11038 -9.22536,-0.907 -13.26685,-3.14466 -3.56858,-1.88196 -6.79116,-4.44775 -9.31093,-7.60803 -0.52234,-0.64581 -1.17957,-1.53904 -1.68869,-2.33174 -1.47031,-2.25632 -2.61772,-4.72315 -3.37967,-7.30693 -0.12802,-0.42188 -0.32246,-1.20021 -0.4668,-1.76172 -1.50462,-6.47813 -1.28021,-13.38953 0.80195,-19.715 2.09897,-6.12321 6.43833,-11.42768 12.02839,-14.69264 2.41491,-1.50999 5.08603,-2.53656 7.57083,-3.91143 2.35371,-1.37162 4.24199,-3.65887 4.72429,-6.38521 0.94834,-4.06599 1.05092,-8.26265 1.4169,-12.40612 0.86075,-11.83629 1.27893,-23.69887 1.88928,-35.54976 -74.59179,0 -149.18359,0 -223.77539,0 0.62739,12.94117 0.99468,25.89661 1.85437,38.82533 0.31185,3.9123 0.63346,7.97212 2.41133,11.5382 1.39263,2.60138 3.87467,4.43671 6.56546,5.53718 2.74894,1.21783 5.337,2.80063 7.56957,4.82317 2.60386,2.26133 4.90394,4.87672 6.77701,7.77417 0.24287,0.37619 0.68023,1.07373 0.96735,1.58762 2.82348,4.81369 3.9041,10.50656 3.63225,16.04324 -0.0223,0.42093 -0.0757,1.21768 -0.13841,1.77881 -1.05517,9.93026 -7.38897,19.03449 -16.18548,23.6994 -6.01671,3.22519 -13.11209,4.41193 -19.83669,3.17037 -8.06942,-1.35536 -15.5957,-6.00574 -20.14201,-12.84981 -5.22051,-7.66234 -6.69273,-17.66578 -4.11456,-26.55065 0.8432,-3.18516 2.28904,-6.23941 4.49997,-8.70724 2.4401,-2.7817 5.08321,-5.39503 7.90258,-7.7918 0.97052,-0.73999 1.90328,-1.61699 3.03236,-2.08856 1.64407,-0.2237 3.22779,-1.08931 4.06092,-2.56374 1.12377,-1.79858 0.99796,-4.03057 0.54632,-6.00498 -0.6841,-5.09352 -0.84417,-10.23993 -1.13856,-15.36647 -0.54853,-10.94701 -0.89884,-21.90267 -1.3419,-32.85424 -11.6159,0.008 -23.23178,-0.0155 -34.84766,0.006 z m 444.65625,-0.002 c -4.38086,-0.001 -8.76172,-0.004 -13.14258,-0.004 0,144.91146 0,289.82292 0,434.73438 17.59268,15.25567 35.08598,30.62655 52.77701,45.77224 7.59067,6.45067 15.17618,12.92297 23.15935,18.88673 1.60127,1.18493 3.64132,2.26463 5.67692,1.61056 1.85546,-0.44971 3.08796,-2.25506 3.18334,-4.10745 0.044,-1.55432 -0.24317,-3.09635 -0.299,-4.64933 -1.54094,-19.06822 -3.33341,-38.11616 -5.03587,-57.17093 C 631.22489,507.98784 623.39779,423.92766 615.54544,339.87 610.52082,286.24561 605.47888,232.6216 600.25612,179.01712 c -0.59221,-5.74746 -1.12264,-11.505 -1.84596,-17.23587 -0.43571,-2.05106 -2.36152,-3.40066 -4.32501,-3.79808 -3.08813,-0.73924 -6.29088,-0.72669 -9.44564,-0.8925 -4.03453,-0.1333 -8.07218,-0.10007 -12.10826,-0.0965 z m -46.96875,0.01 c -3.99164,0.12601 -8.03297,-0.009 -11.96845,0.75849 -2.11063,0.61007 -3.51124,2.80124 -3.38554,4.96199 -13.15759,131.10752 -26.49664,262.1968 -39.62327,393.30742 -2.90914,29.1872 -5.84268,58.37386 -8.67628,87.56737 -0.24279,2.86827 -0.58762,5.73466 -0.73548,8.60692 0.10373,2.79341 2.79047,5.34606 5.64025,4.83779 2.8772,-0.35668 5.09417,-2.41864 7.34417,-4.05584 6.77269,-5.22389 13.18288,-10.89345 19.69225,-16.43675 17.46394,-15.01288 34.85069,-30.11441 52.27876,-45.17044 0.0533,-144.79688 0.10928,-289.59375 0.16211,-434.39063 -6.90952,-0.002 -13.81902,3.6e-4 -20.72852,0.0137 z m -350.24805,66.49804 c -5.39232,0.28863 -10.74112,2.63239 -14.26345,6.78842 -3.23907,3.66938 -5.06774,8.81052 -4.0003,13.68355 0.84254,4.02779 3.04977,7.71643 5.96517,10.58972 2.60921,2.50181 6.11144,4.01206 9.72046,4.20784 5.51548,0.46133 11.42506,-1.24775 15.26367,-5.36914 4.29179,-4.65666 5.52906,-11.72432 3.41941,-17.64971 -1.67523,-4.93708 -5.55402,-9.08792 -10.42722,-10.97919 -1.78941,-0.77392 -3.71415,-1.31122 -5.67774,-1.27149 z m 224.15235,0.28321 c -5.94301,0.14554 -11.42699,3.79878 -14.5918,8.71289 -2.89535,4.67484 -3.23272,10.83639 -0.72637,15.75078 2.1791,4.51441 6.06937,8.19947 10.69707,10.12226 4.04345,1.5247 8.61968,1.04949 12.5039,-0.71997 3.33726,-1.37286 6.15158,-3.88745 7.95069,-7.00961 2.61003,-4.20291 3.8265,-9.57592 2.09169,-14.33972 -2.52975,-7.38456 -10.11536,-12.70236 -17.92518,-12.51663 z m 152.93945,381.83203 c -1.20302,0.10977 -2.21043,0.91912 -3.19164,1.56654 -3.04154,2.36521 -5.94401,4.90695 -8.91063,7.36624 -15.70701,13.26177 -31.22356,26.74479 -46.70536,40.26701 -5.00146,4.39051 -10.01334,8.77436 -14.85039,13.34464 -0.95816,1.10892 -1.89675,2.34804 -2.2619,3.78565 -0.35408,1.9667 1.40677,3.78887 3.31902,3.91146 2.67464,0.70141 5.46911,0.38034 8.20083,0.51864 31.19132,0.36674 62.38546,0.23416 93.57819,0.24104 18.37487,-0.0113 36.74974,-0.0241 55.12461,-0.0344 -22.21209,-19.17792 -44.15219,-38.6666 -66.40884,-57.79088 -4.90749,-4.15492 -9.73663,-8.42144 -14.88876,-12.27318 -0.89584,-0.55688 -1.93436,-0.96852 -3.00513,-0.90273 z" />
  <path
     id="frame-node"
     style="fill:none;stroke:#000000;stroke-width:4"
     d="m 359.25195,14.050781 c -14.11872,0.25822 -28.17409,3.295617 -41.1582,8.841797 -1.40489,0.608462 -3.00664,1.32417 -4.46175,2.032999 -2.20677,1.052282 -4.36865,2.195591 -6.51286,3.369345 -5.00648,-0.872404 -10.06582,-1.559631 -15.08203,-1.810547 -1.66502,-0.08351 -3.54857,-0.139503 -5.30039,-0.130859 -17.73365,0.06534 -35.47575,4.85848 -51.05335,13.412647 -7.22378,3.937002 -14.00505,8.666685 -20.27126,13.993603 -0.89231,0.780276 -1.98724,1.714863 -2.92983,2.585204 -14.17151,12.815492 -25.40424,28.897357 -33.17564,46.23315 -5.36421,11.94802 -9.10041,24.6004 -11.30426,37.50441 -0.36403,1.56521 -0.27668,3.29445 -1.08246,4.71825 -0.88923,1.35806 -2.65964,1.613 -4.14765,1.40529 -21.44088,0.0732 -42.88286,-0.0512 -64.323157,0.0847 -7.139926,0.47946 -13.765375,5.46375 -16.130965,12.23167 -1.404109,3.87953 -1.230371,8.06849 -1.734462,12.11022 -15.220603,167.11269 -30.441207,334.22538 -45.661811,501.33806 -0.262225,5.23885 2.692697,10.49423 7.362316,12.9141 2.572278,1.44713 5.573676,1.81871 8.481434,1.70504 10.47728,-0.0362 20.955809,-0.004 31.433594,-0.0166 187.121831,-0.0185 374.243831,-0.005 561.365561,-0.0221 6.2459,-0.124 12.06074,-4.98338 13.19318,-11.14572 0.69908,-3.40794 -0.12891,-6.85759 -0.33174,-10.27154 -15.40428,-167.51491 -30.8036,-335.03048 -46.22628,-502.54358 -0.86679,-7.68523 -7.03488,-14.46036 -14.64372,-15.94186 -3.73206,-0.73675 -7.55238,-0.31477 -11.32653,-0.41796 -34.01276,0 -68.02552,0 -102.03828,0 -0.40865,-4.99159 -0.83878,-10.00975 -1.50977,-14.88867 -1.08282,-7.81455 -2.80848,-15.79374 -5.07727,-23.35457 -1.12772,-3.79545 -2.49214,-7.77398 -3.92726,-11.469823 -2.13112,-5.50675 -4.61058,-10.931487 -7.3612,-16.086671 -1.17358,-2.220268 -2.51666,-4.555818 -3.79247,-6.690502 -4.89907,-8.104944 -10.62047,-15.716586 -17.10547,-22.621093 -1.34449,-1.42891 -2.86102,-2.970336 -4.32626,-4.389339 -8.67306,-8.393106 -18.56162,-15.554897 -29.35343,-20.975896 -5.06736,-2.556537 -10.56212,-4.810356 -15.9714,-6.535569 -5.04444,-1.613694 -10.20595,-2.86175 -15.43094,-3.728103 -3.68257,-0.608036 -7.66561,-1.065147 -11.5073,-1.277026 -2.52253,-0.146504 -5.05019,-0.200158 -7.57669,-0.162427 z m 1.12305,8.738281 c 20.96241,-0.02629 41.77626,6.868041 58.83132,19.000954 17.63711,12.407922 31.46151,29.83837 40.60726,49.291567 7.30898,15.456347 11.695,32.227987 13.40417,49.218997 0.69359,2.7777 -1.51739,6.00531 -4.47009,5.97059 -20.3813,-0.0665 -40.76277,-0.0131 -61.14414,-0.0309 0.19229,-3.20905 0.15214,-6.45475 -0.55936,-9.60413 -2.64553,-15.55356 -8.05835,-30.82292 -15.86865,-44.617622 -4.19306,-7.438391 -9.08605,-14.480252 -14.57981,-21.016525 -2.50203,-2.969797 -5.29316,-6.028199 -8.12638,-8.847867 -7.02934,-7.038009 -14.91711,-13.342635 -23.25057,-18.663852 -5.32667,-3.420027 -11.0209,-6.401351 -16.67758,-9.318278 -2.63936,-1.376369 -5.27871,-2.752728 -7.91812,-4.128987 9.3701,-2.429167 18.66371,-5.364747 28.30172,-6.553156 3.80006,-0.445611 7.62454,-0.669439 11.45023,-0.700751 z m -81.35547,12.833985 c 4.91081,0 9.82162,0 14.73242,0 -8.66325,8.410561 -17.54739,16.706983 -24.77704,26.430272 -8.15089,10.692359 -14.79889,22.52075 -19.76397,35.013087 -1.44672,3.665194 -2.82003,7.561244 -3.98171,11.402644 -2.05589,6.75554 -3.63654,13.71668 -4.72142,20.73993 -0.10809,0.82102 -0.28107,1.95341 -0.38704,2.79932 -0.37333,2.92132 -0.66214,5.76288 -0.90775,8.74619 -0.15162,1.33278 -0.14411,2.68958 -0.32006,4.00978 -0.2449,1.15108 -1.54396,1.7429 -2.62968,1.47011 -20.19648,0 -40.39297,-10e-6 -60.58945,0 2.03158,-12.59807 5.13617,-25.08215 10.12404,-36.8541 8.9083,-21.335598 23.24452,-40.599095 42.00291,-54.251374 14.95254,-10.849532 32.75307,-17.964996 51.21875,-19.505859 z m 29.50195,2.244141 c 3.14913,-0.127276 6.0973,1.137659 9.05923,2.003656 19.27887,6.315354 36.4572,18.378213 49.68208,33.684666 15.70815,18.113599 26.10702,40.58685 30.64682,64.07548 0.56566,2.82958 1.09985,5.66567 1.65289,8.49792 -50.55859,0 -101.11719,0 -151.67578,0 0.57935,-13.07151 2.65079,-26.12542 6.80297,-38.55506 8.9015,-27.155363 26.81637,-51.272442 50.29441,-67.576327 1.05357,-0.705241 2.0789,-1.532486 3.17059,-2.130335 0.12226,0 0.24453,-10e-7 0.36679,0 z M 510.26562,154.98047 c 12.5905,0 25.18099,0 37.77149,0 -0.002,145.80729 -0.004,291.61458 -0.006,437.42187 -30.45037,26.44113 -60.90349,52.8791 -91.35547,79.31836 17.41238,-172.24665 34.82219,-344.49356 52.23438,-516.74023 0.45182,0 0.90364,0 1.35546,0 z m -410.292964,0.006 c 21.858724,0 43.717444,0 65.576174,0 0.034,8.63717 -0.0588,17.2744 -0.0604,25.91123 0.0362,3.71173 0.22148,7.5163 0.47247,11.16494 0.30106,4.08219 0.75257,8.1926 1.32544,12.30825 0.37972,2.81983 0.83973,5.67183 1.29956,8.52183 -5.44864,1.76004 -10.80048,4.37028 -14.73948,8.62726 -4.29446,4.47441 -7.02985,10.38979 -7.77224,16.53875 -0.0822,0.62313 -0.14914,1.56779 -0.17441,2.20405 -0.48169,10.11911 4.85766,20.2854 13.48845,25.60235 7.64028,4.8626 17.61824,5.79181 26.01669,2.39194 1.26886,-0.50243 2.4858,-1.10087 3.59926,-1.72942 6.8325,-3.85333 11.95346,-10.59567 13.78354,-18.2272 1.97152,-7.97752 0.36197,-16.77399 -4.42299,-23.47084 -3.45914,-4.93081 -8.48861,-8.72884 -14.18507,-10.6908 -0.29209,-0.10077 -0.95075,-0.32223 -1.39524,-0.44649 -1.4497,-0.52091 -3.24848,-0.45519 -4.28304,-1.77208 -1.15056,-1.28824 -0.97248,-3.10946 -1.38581,-4.67914 -2.17869,-11.95797 -2.92534,-24.15428 -2.49451,-36.29526 0,-5.31979 0,-10.63958 0,-15.95937 75.30664,0 150.61329,0 225.91993,0 -0.0424,8.35484 0.0284,16.70984 0.0959,25.06401 -0.0979,10.88798 -1.39025,21.74684 -3.592,32.40474 -4.65314,1.09637 -9.36004,2.51134 -13.25715,5.38469 -7.02669,4.94038 -11.60981,13.16201 -12.08775,21.74101 -0.14942,2.47431 0.034,4.96621 0.52264,7.39578 0.18296,0.92306 0.48129,2.1024 0.8037,3.09834 2.17679,6.87719 7.03774,12.85634 13.36042,16.34087 0.85911,0.47958 1.79463,0.94287 2.59098,1.2843 7.70573,3.38592 16.89808,3.12384 24.38967,-0.718 1.50013,-0.74754 3.00143,-1.68986 4.25757,-2.62269 0.59991,-0.44959 1.41493,-1.1089 2.05579,-1.68947 2.84201,-2.5815 5.16959,-5.72956 6.79382,-9.20897 0.35852,-0.78032 0.80362,-1.8276 1.11269,-2.74608 0.56141,-1.58309 0.97695,-3.29602 1.23497,-4.86525 0.0899,-0.59419 0.21554,-1.5132 0.26405,-2.23851 0.55851,-6.95552 -1.48953,-14.08665 -5.7303,-19.63739 -3.33504,-4.47655 -8.04823,-7.82096 -13.25007,-9.79107 -2.29837,-0.7675 -3.30358,-3.45928 -2.87387,-5.70106 1.30943,-7.76572 2.05066,-15.62907 2.34604,-23.49916 0.15145,-3.98279 0.11628,-8.1384 0.0566,-12.1875 -0.0384,-5.93612 -0.0256,-11.87239 -0.0352,-17.80859 30.31315,0 60.6263,0 90.93945,0 -17.62846,174.27712 -35.25181,348.55477 -52.8789,522.83203 -134.8431,0 -269.6862,0 -404.529301,0 15.758779,-171.35283 31.51359,-342.70608 47.275391,-514.05859 0.527868,-4.72601 4.794809,-8.68929 9.566406,-8.77344 z m 475.814454,0 c 5.64239,0.0143 11.28748,-0.0246 16.92811,0.0726 4.82815,0.40317 8.80474,4.85225 8.95289,9.64561 0.17719,1.44272 0.0231,2.90556 0.27129,4.34408 15.49474,167.69996 30.99004,335.39986 46.48443,503.09985 -30.58463,-26.57664 -61.16754,-53.15526 -91.75,-79.73438 0,-145.80794 0,-291.61588 0,-437.42383 6.3711,0.001 12.74218,0.007 19.11328,-0.004 z m -400.98242,66.31445 c 8.37933,-0.13309 16.46964,5.6212 19.07832,13.58907 2.55441,7.31015 0.43915,16.0357 -5.31383,21.25535 -5.48168,5.14507 -13.96377,6.86757 -20.96768,4.05242 -6.73558,-2.58275 -11.8808,-8.99703 -12.71538,-16.19284 -0.94067,-7.05235 2.09788,-14.5629 7.9118,-18.73708 3.43856,-2.56527 7.71736,-3.97651 12.00677,-3.96692 z m 225.44922,0 c 8.31995,-0.1391 16.36348,5.52159 19.03515,13.4043 2.64019,7.32702 0.56679,16.13232 -5.20806,21.3965 -5.39661,5.104 -13.73576,6.87268 -20.6999,4.21542 -6.91962,-2.52393 -12.23955,-9.0725 -13.0431,-16.42774 -0.87506,-7.00476 2.17706,-14.4187 7.93168,-18.57006 3.42756,-2.57143 7.69807,-4.0075 11.98423,-4.01842 z m 153.46875,379.76563 c 29.40873,25.75981 58.81731,51.5198 88.22461,77.28125 -59.60547,0 -119.21094,0 -178.81641,0 29.86763,-26.04916 59.7366,-52.0968 89.60547,-78.14454 0.32877,0.28777 0.65755,0.57553 0.98633,0.86329 z" />
  <rect
     style="opacity:0.985669;fill:#ececec;stroke:none;stroke-width:0.279132;stroke-linejoin:round;stroke-miterlimit:4;stroke-dasharray:none;stroke-opacity:1"
     id="qrcode-rect"
     width="310"
     height="310"
     x="106.82157"
     y="306.52283" />
</svg>
