<?xml version="1.0" encoding="UTF-8" standalone="no"?>
<svg
   version="1.1"
   viewBox="0 0 700 700"
   width="700pt"
   height="700pt"
   id="svg825"
   sodipodi:docname="book.svg"
   inkscape:version="1.1.2 (b8e25be8, 2022-02-05)"
   xmlns:inkscape="http://www.inkscape.org/namespaces/inkscape"
   xmlns:sodipodi="http://sodipodi.sourceforge.net/DTD/sodipodi-0.dtd"
   xmlns="http://www.w3.org/2000/svg"
   xmlns:svg="http://www.w3.org/2000/svg">
   <defs
      id="defs829" />
   <sodipodi:namedview
      id="namedview827"
      pagecolor="#ffffff"
      bordercolor="#666666"
      borderopacity="1.0"
      inkscape:pageshadow="2"
      inkscape:pageopacity="0.0"
      inkscape:pagecheckerboard="0"
      inkscape:document-units="pt"
      showgrid="false"
      inkscape:zoom="0.70605469"
      inkscape:cx="349.1231"
      inkscape:cy="463.84509"
      inkscape:window-width="1312"
      inkscape:window-height="925"
      inkscape:window-x="0"
      inkscape:window-y="23"
      inkscape:window-maximized="0"
      inkscape:current-layer="svg825" />
   <path
      id="dummy-data-area"
      style="fill:#999999;stroke:none;stroke-width:0.75"
      d="m 607.65234,84.511719 c -46.09511,0.237707 -92.1863,0.938207 -138.27562,1.677833 -42.9361,0.725327 -85.87252,1.465727 -128.80251,2.49838 -20.35181,0.528621 -40.70925,1.028325 -61.03504,2.2207 -7.01854,0.456247 -14.05776,0.925636 -20.99652,2.119531 -4.2324,0.724339 -8.34458,2.083177 -12.17387,4.026034 -8.41077,4.160343 -15.90307,9.974373 -22.69424,16.405103 -7.21898,6.90835 -13.70269,14.67481 -18.64226,23.38439 -2.53717,4.5556 -4.41213,9.43357 -6.54585,14.18183 -9.72057,22.45837 -19.20405,45.02117 -28.7325,67.56015 -27.96965,66.34727 -55.57714,132.84675 -83.443266,199.23767 -8.591143,20.44885 -17.164344,40.906 -25.877746,61.30273 -0.640415,1.5628 -1.44405,3.07616 -1.948081,4.68501 -0.650997,2.91337 1.814115,6.02457 4.808377,6.03168 2.160006,0.19393 4.223798,-0.61632 6.216552,-1.33495 1.115018,-0.40888 2.502044,-0.7453 3.737739,-1.07206 3.085644,-0.77983 6.220525,-1.39721 9.29389,-1.92196 10.064138,-1.70818 20.205265,-2.9124 30.324585,-3.97999 22.61423,-2.31861 45.30696,-3.93815 68.01683,-5.34239 29.4458,-1.76566 59.01537,-3.14551 88.49969,-4.24607 10.15701,-0.38453 20.31722,-0.70973 30.48221,-0.76029 27.03388,-0.19001 54.03574,0.71482 81.00782,2.43369 20.6229,1.34484 41.18392,3.18026 61.69052,5.91412 10.13336,1.28925 20.27124,3.17798 30.45742,4.34965 5.75725,0.57748 11.62429,1.21922 17.36856,0.18556 4.18137,-0.73081 8.1528,-2.75806 11.01917,-5.91593 3.19953,-3.43262 5.36411,-7.6561 7.47657,-11.80448 1.86942,-3.8441 3.30995,-7.87863 4.85637,-11.85939 10.60221,-28.49378 20.73479,-57.16117 30.88725,-85.81908 23.56459,-66.65475 46.81157,-133.4248 69.7349,-200.30177 7.39092,-21.63513 14.77485,-43.27276 21.86198,-65.009 1.34243,-4.219048 2.7577,-8.425027 3.82219,-12.723513 0.37863,-1.894522 -0.18968,-4.22972 -1.97715,-5.220845 -2.24544,-0.972169 -4.75983,-0.739125 -7.1483,-0.836272 -7.75573,-0.121881 -15.51326,-0.09273 -23.26967,-0.06607 z" />
   <path
      id="frame-node"
      style="fill:none;stroke:#000000;stroke-width:4;"
      d="m 91.39377,580.36636 c 130.9388,3.57812 261.87761,7.15623 392.81641,10.73435 M 91.391677,530.27261 c 130.939453,3.5781 261.878913,7.1562 392.818363,10.7343 M 50.215208,499.13917 c -5.813009,28.69178 -20.269087,56.59575 -14.185263,86.37076 2.842294,26.18777 27.430158,55.26768 55.961642,53.14108 11.388673,1.3105 22.777673,2.62037 34.167003,3.92961 m -7.45658,0 c 136.90365,3.88933 273.80729,7.77866 410.71094,11.66799 47.22331,-133.23763 94.44661,-266.47526 141.66992,-399.71289 M 647.37801,81.565785 c -125.44157,2.18787 -250.90796,3.963216 -376.33386,6.410959 -41.94125,3.177462 -69.18837,40.374576 -81.56019,77.298986 L 50.215208,499.13917 C 70.69304,481.6997 166.20663,478.24907 232.30635,475.24743 514.35141,461.51419 480.9343,519.95646 514.35141,461.51419 558.69361,334.86472 603.03581,208.21525 647.37801,81.565785 Z" />
   <rect
      style="opacity:0.985669;fill:#ececec;stroke:none;stroke-width:0.25302;stroke-linejoin:round;stroke-miterlimit:4;stroke-dasharray:none;stroke-opacity:1"
      id="qrcode-rect"
      width="281"
      height="281"
      x="216.23236"
      y="159.93361" />
</svg>