<?xml version="1.0" encoding="UTF-8" standalone="no"?>
<svg
   version="1.0"
   width="948.83423pt"
   height="1162.0956pt"
   viewBox="0 0 948.83423 1162.0956"
   preserveAspectRatio="xMidYMid meet"
   id="svg836"
   sodipodi:docname="boot.svg"
   inkscape:version="1.1.2 (b8e25be8, 2022-02-05)"
   xmlns:inkscape="http://www.inkscape.org/namespaces/inkscape"
   xmlns:sodipodi="http://sodipodi.sourceforge.net/DTD/sodipodi-0.dtd"
   xmlns="http://www.w3.org/2000/svg"
   xmlns:svg="http://www.w3.org/2000/svg">
   <defs
      id="defs840" />
   <sodipodi:namedview
      id="namedview838"
      pagecolor="#ffffff"
      bordercolor="#666666"
      borderopacity="1.0"
      inkscape:pageshadow="2"
      inkscape:pageopacity="0.0"
      inkscape:pagecheckerboard="0"
      inkscape:document-units="pt"
      showgrid="false"
      fit-margin-top="0"
      fit-margin-left="0"
      fit-margin-right="0"
      fit-margin-bottom="0"
      inkscape:zoom="0.5646961"
      inkscape:cx="374.53774"
      inkscape:cy="918.19299"
      inkscape:window-width="1680"
      inkscape:window-height="925"
      inkscape:window-x="0"
      inkscape:window-y="23"
      inkscape:window-maximized="0"
      inkscape:current-layer="svg836" />
   <path
      id="dummy-data-area"
      style="opacity:1;fill:#999999;stroke-width:10.0396;stroke-linejoin:round"
      d="m 329.85064,1.3669227 c -11.47664,0.065105 -23.04033,1.4111298 -33.98223,4.955862 -11.43446,3.4693139 -22.59293,7.7731033 -33.70906,12.1377713 -4.54918,1.853851 -9.11562,3.747689 -13.33803,6.275418 -3.48753,2.442535 -5.68419,6.576075 -5.86717,10.818449 -3.15331,-1.768946 -6.97675,-2.185796 -10.45973,-1.250403 -5.22885,1.224615 -9.80386,4.173439 -14.40071,6.82188 -10.71767,6.465636 -20.80927,13.896493 -30.85128,21.350003 -13.96172,10.490052 -27.54854,21.506687 -40.36208,33.379667 -14.70332,13.82645 -28.31779,28.81649 -40.64838,44.79539 -13.121715,17.12019 -24.504657,35.54483 -34.235019,54.78838 -9.171646,18.00171 -16.95405,36.66715 -24.356528,55.45296 -2.739052,6.89538 -5.575866,13.75641 -8.1497,20.71428 -1.032302,3.72534 0.256482,7.5232 1.335297,11.07896 3.797492,12.78278 7.177542,25.70278 11.652879,38.27287 1.480295,3.56846 4.65111,6.45227 8.430333,7.36749 -2.486689,6.45417 -3.855119,13.53283 -2.637262,20.42151 0.771775,4.87138 2.016766,9.65206 2.846271,14.51366 4.736644,24.60594 8.520195,49.33709 12.200564,74.12224 4.610894,31.37561 8.765195,62.83511 12.492026,94.31521 3.530823,30.25099 6.400633,60.54949 9.039947,90.88751 2.669393,31.38527 4.741081,62.83684 5.843322,94.31575 1.59028,43.59155 1.90257,87.21479 2.58789,130.82635 0.23285,16.09933 0.42839,32.1994 0.76591,48.29699 -3.41912,-0.80075 -7.126959,0.0362 -9.915887,2.15747 -3.437496,2.52746 -5.541274,6.33662 -7.914907,9.78591 -5.579179,8.55588 -10.379167,17.57705 -15.497327,26.39842 -10.125495,-0.91326 -20.180301,-1.70327 -30.240545,-3.30426 -2.881727,-0.36885 -5.634285,-1.27663 -8.528986,-1.52191 -5.505497,-0.43517 -11.258421,2.95248 -13.068464,8.26026 -1.688338,4.59837 -0.390119,9.85948 2.511814,13.67762 3.947895,5.81668 8.855707,10.88135 13.399949,16.22045 3.764363,4.29419 7.560193,8.56066 11.346154,12.83581 -5.833896,11.89394 -12.044319,23.63341 -16.931641,35.96291 -1.248431,3.2462 -2.051816,6.9119 -0.876953,10.3027 1.47442,4.7097 5.996451,8.4346 11.007216,8.4814 4.16614,0.1255 7.924183,-1.9308 11.711669,-3.3669 10.440062,-4.226 20.702281,-8.8715 31.023303,-13.3762 6.273714,5.0112 12.387081,10.1241 18.076175,15.8086 3.69546,3.5946 7.16737,7.5078 11.50274,10.3593 2.91345,1.9239 6.46467,3.1869 9.98463,2.5621 0.58742,-0.089 1.16887,-0.2178 1.73919,-0.3843 -0.1101,0.3922 0.41095,1.5751 -0.34581,1.1911 -3.87685,-0.9871 -8.20778,-0.236 -11.36289,2.278 -3.40309,2.6101 -5.31197,6.9452 -5.07051,11.214 0.13842,4.5949 1.90056,8.9167 3.42074,13.1908 3.93275,10.4659 8.48081,20.6848 12.85854,30.9687 5.83708,13.5659 11.68999,27.1264 17.59368,40.6633 2.0775,4.6155 7.17018,7.4174 12.14998,7.2866 15.26687,1.1953 30.54071,2.5467 45.86344,2.732 42.7479,1.0433 85.50878,0.2165 128.25954,-0.1596 3.42265,-0.1092 6.88576,0.1731 10.27364,-0.4267 5.10613,-1.1142 9.22864,-5.8486 9.40942,-11.1074 2.16811,-17.5724 4.23728,-35.1573 6.56351,-52.7097 6.22031,-0.2632 12.46154,-0.516 18.71094,-0.3066 16.48637,0.6988 33.04294,2.4562 49.47235,4.4244 18.53722,2.2657 37.07284,4.9774 55.45863,8.3452 13.97526,2.5482 27.81805,5.7066 41.26987,10.4123 13.47559,4.7154 26.41368,10.6591 39.23999,16.9192 16.02799,7.6824 32.01814,15.4892 48.5002,22.1633 9.41556,3.5404 19.48528,4.8596 29.46415,5.5962 13.86438,0.9482 27.88823,0.6224 41.5756,-1.9233 11.3573,-2.2658 22.20585,-6.4632 32.89718,-10.82 23.87408,-9.9501 46.79389,-22.0249 69.30542,-34.7198 20.99472,-11.9149 41.55677,-24.6009 61.54417,-38.1385 23.43963,-16.264 45.02615,-35.1005 64.99248,-55.452 11.06521,-11.4114 21.6166,-23.39283 30.67225,-36.47908 4.50475,-6.62884 8.62916,-13.66353 10.91304,-21.39376 1.34494,-4.7067 1.5537,-9.92031 -0.44986,-14.47718 -2.57905,-6.27869 -7.29495,-11.32334 -12.04763,-16.03439 -1.73149,-1.65369 -7.88525,-1.72712 -9.7459,-3.23658 -3.65727,-2.70913 -4.39847,-5.01038 -8.38466,-2.65718 -2.25507,1.24438 -3.98896,3.20298 -5.60111,5.17034 -2.12549,-5.21848 -6.16216,-9.39845 -10.52348,-12.84427 -7.87752,-6.06168 -17.5543,-9.27437 -27.25191,-10.96042 -15.34243,-2.64494 -31.19944,-1.58942 -46.25799,2.20084 -8.33657,2.09695 -16.30046,5.37498 -24.38913,8.23464 -6.19441,2.23244 -12.34773,4.39605 -18.69131,6.27516 -3.23495,0.94143 -6.50241,1.78492 -9.81782,2.39288 -0.63297,0.10749 -1.49208,0.26071 -2.11133,0.34961 -3.22867,0.49068 -6.53301,0.71781 -9.72156,0.84623 -9.92472,0.3301 -19.85371,-0.0962 -29.77524,-0.35322 -13.10402,-0.3979 -26.2093,-0.84169 -39.29031,-1.97544 -7.92701,-0.7171 -16.00938,-1.60681 -23.85369,-3.3099 -6.53847,-1.43633 -12.97317,-3.24063 -19.48076,-4.80271 -0.91782,-0.2209 -1.83572,-0.44198 -2.75539,-0.65496 1.76259,-4.1485 1.30284,-9.25071 -1.53633,-12.81797 -2.36133,-3.0864 -6.02537,-4.76859 -9.65432,-5.87029 -9.13888,-2.96411 -18.78841,-3.75842 -28.04568,-6.2512 -0.8718,-0.23446 -1.90944,-0.50828 -2.81447,-0.77135 -8.12039,-2.33703 -16.31492,-5.00889 -23.38279,-9.7638 -3.2855,-2.30865 -4.93314,-6.10625 -6.65113,-9.59072 -3.9985,-8.41058 -6.95749,-17.33548 -9.60473,-26.20811 -2.53908,-8.64255 -4.71715,-17.43169 -6.65264,-26.14809 -4.42285,-20.06116 -7.63312,-40.29888 -9.9837,-60.69288 -1.71746,-14.95475 -2.86272,-29.97349 -3.46019,-45.01464 -0.62201,-14.06994 -0.96064,-28.16778 -2.37613,-42.18736 -0.44196,-3.4247 -1.97186,-6.85453 -4.83797,-8.9151 -0.51724,-0.39604 -1.06765,-0.74922 -1.6425,-1.0556 0.81157,-2.55722 1.01279,-5.21916 1.39525,-7.82068 1.47206,-11.94863 2.03057,-23.98329 2.85088,-35.98794 0.59517,-9.28808 1.34619,-18.50485 2.26722,-27.76149 3.77063,-39.63602 9.5969,-78.94666 16.34508,-118.18957 6.76463,-39.04539 14.63143,-77.92478 23.51876,-116.55312 4.74949,-20.69574 9.89926,-41.3396 14.8757,-62.00033 0.57164,-2.51309 1.23958,-5.01399 1.69126,-7.54859 0.2785,-3.44798 -1.00399,-6.90165 -3.13946,-9.57969 4.75444,-1.6188 8.34878,-5.74284 9.94922,-10.42969 2.14075,-6.03395 1.86812,-12.58256 1.17232,-18.84945 -1.70113,-14.35891 -6.54353,-28.15051 -12.51995,-41.24842 -7.84762,-17.1107 -17.82293,-33.16699 -28.73615,-48.4758 C 548.55311,130.86261 528.37421,108.79506 506.6262,88.506348 490.37683,73.252276 473.20224,58.923916 454.71742,46.443042 444.18185,39.291786 433.2061,32.803359 421.94733,26.859418 c -7.52696,-4.036151 -15.07936,-8.036697 -22.79524,-11.701652 -4.63339,-2.114076 -9.58374,-4.134288 -14.77606,-3.859202 -2.16416,0.131216 -4.32022,0.664874 -6.24023,1.685547 -1.56583,-2.307844 -3.93705,-3.9239796 -6.45684,-5.0360101 C 367.83561,5.8695351 363.82382,3.8766008 359.43471,3.3233245 349.68633,1.535369 339.73306,1.358086 329.85064,1.3669227 Z M 169.06158,965.25168 c 0.88834,0.11538 0.82135,0.28019 -0.0524,0.44405 -0.66494,0.27782 -1.1694,0.38448 -0.85966,-0.50459 -0.0714,-0.33963 0.73143,0.0961 0.91211,0.0605 z m -42.77539,39.50592 c 0.6792,0.1416 0.87678,1.0745 0.21161,1.3921 -0.52307,0.353 -0.95782,-0.6234 -0.79755,-1.0679 0.0775,-0.2344 0.33725,-0.4226 0.58594,-0.3242 z"
      sodipodi:nodetypes="ccccccccccccccccccccccccccccccccccccccccccccccccccccccccccccccccccccccccccccccccccccccccccccccccccccccccccccccccccccccccsccsscccc" />
   <rect
      style="opacity:1;fill:#ececec;stroke:none;stroke-width:0.255915;stroke-linejoin:round;stroke-miterlimit:4;stroke-dasharray:none;stroke-opacity:1"
      id="qrcode-rect"
      width="284.21509"
      height="284.21509"
      x="157.96564"
      y="405.26605" />
   <path
      id="frame-node"
      style="opacity:1;fill:#000000;fill-opacity:1;stroke:none;stroke-width:0.627472;stroke-linejoin:round;stroke-miterlimit:4;stroke-dasharray:none;stroke-opacity:1"
      d="M 331.83306,0.00754772 C 320.42107,0.11129092 308.98936,1.357828 297.92808,4.2216561 282.45318,8.191466 267.77851,14.69557 253.44862,21.657089 c -12.90418,6.336546 -25.62218,13.050163 -38.18197,20.043818 -19.16843,10.732905 -37.84712,22.527612 -54.68279,36.699143 -12.42485,10.431946 -23.88043,21.98143 -34.63266,34.11836 -21.97717,24.87147 -40.371161,52.80909 -55.301023,82.42518 -10.023117,19.86612 -18.583238,40.45948 -25.85801,61.48309 -2.199315,6.63853 -4.386432,13.39797 -4.818482,20.42461 -0.337264,5.15124 0.800967,10.26775 2.523303,15.09462 5.21926,15.57655 9.217282,31.48287 12.84295,47.51067 5.889276,26.33845 10.573137,53.0155 14.753459,79.68483 4.083601,26.16194 7.609549,52.41257 10.845132,78.70988 3.832347,31.45343 7.219356,62.98163 10.269357,94.54524 1.832006,19.04401 3.578119,38.14522 5.177909,57.23015 2.537472,31.37109 4.299755,62.82427 5.480885,94.29977 0.98234,27.06302 1.59965,54.19867 1.28148,81.3006 -0.15942,10.49922 -0.41509,20.91905 -1.20114,31.38882 -0.42165,5.25128 -0.98033,10.43603 -1.91496,15.63514 -1.231512,6.99299 -4.235694,13.49241 -7.390551,19.7966 -5.370621,10.59805 -10.984965,21.07183 -16.716278,31.4787 -1.975552,3.54059 -3.906476,7.11794 -6.276763,10.41623 -0.313365,0.59188 -0.661518,1.10203 -1.381111,0.73957 -16.90726,-2.86721 -33.774816,-5.98655 -50.746716,-8.45542 -3.7131,-0.4899 -7.418542,-1.1414 -11.1645062,-1.30467 -2.057942,0.0228 -4.523515,0.30473 -5.76331002,2.17341 -1.195319,1.91036 -0.364953,4.2764 0.57622002,6.10636 2.276283,4.26994 5.506396,7.92727 8.6429269,11.57724 6.2177643,7.02105 12.8328863,13.67552 19.2287913,20.53193 5.441253,5.75266 10.858943,11.52828 16.139954,17.42901 -8.762896,15.95604 -17.710465,31.82473 -25.713118,48.18183 -1.555375,3.3259 -3.253436,6.6185 -4.310795,10.1458 -0.528425,1.7547 0.149591,4.0314 2.021958,4.647 2.297176,0.7185 4.699581,-0.1294 6.91211,-0.7774 6.486314,-2.2082 12.648021,-5.2428 18.840162,-8.1504 9.86912,-4.7184 19.576587,-9.776 29.543783,-14.2875 2.288447,-1.0046 4.53239,-2.0102 6.991056,-2.6441 1.184307,-0.3145 2.618421,-0.4196 3.532289,0.5639 0.750347,0.6574 1.410343,1.4104 2.020445,2.1978 0.211912,0.2742 0.650211,0.8761 0.929539,1.2991 3.080031,4.7214 5.392893,9.886 7.768,14.9835 6.066131,13.365 11.660594,26.9353 17.422824,40.451 6.65446,15.74 13.42367,31.4309 20.03835,47.188 4.17198,9.8671 8.32241,19.7437 12.48387,29.6155 0.67582,0.3672 1.24041,1.103 2.08281,0.918 66.32461,0 132.64922,0 198.97383,0 0.59178,-0.3007 1.33336,-0.4526 1.4707,-1.2051 0.66346,-3.2889 1.37722,-6.5723 1.70025,-9.9172 2.07498,-18.1697 3.40832,-36.4124 5.00294,-54.6282 -0.0594,-0.7588 1.03756,-0.1791 1.53035,-0.2988 14.67002,0.8993 29.34089,1.7057 43.95968,3.0559 28.75835,2.5941 57.41555,6.482 85.73836,12.3618 10.08789,2.1199 20.08653,4.4189 30.01172,7.2125 2.01564,0.5911 4.21908,1.2511 6.25691,1.9272 4.59367,1.517 9.08581,3.2314 13.48708,5.0942 18.15884,7.6893 35.48516,17.1542 53.31286,25.5522 9.09544,4.2823 18.20599,8.5585 27.56124,12.249 2.74674,1.1222 5.61262,1.9318 8.54984,2.362 8.78148,1.3506 17.7033,1.3755 26.56539,1.1529 8.99327,-0.2676 18.06766,-0.7043 26.81718,-2.9717 6.8664,-1.7368 13.59416,-3.9799 20.27892,-6.3091 13.77031,-4.9796 27.10692,-11.0737 40.28565,-17.4346 23.88223,-11.6416 47.17725,-24.4677 69.97717,-38.1005 16.49115,-9.9037 32.74518,-20.223 48.47559,-31.301 12.74135,-9.0371 24.55452,-19.312 35.80759,-30.1284 10.79662,-10.4306 21.40002,-21.0852 31.29364,-32.3834 7.2213,-8.34488 14.17653,-17.03567 19.48026,-26.75198 3.87813,-7.16845 6.78721,-15.16027 6.53824,-23.41663 -0.17733,-5.81105 -1.91152,-11.54939 -4.81931,-16.57069 -3.62433,-5.75417 -9.46864,-9.91497 -15.84411,-12.12638 -2.85441,-0.98837 -5.86893,-1.4753 -8.88736,-1.48066 -3.61478,-0.47099 -6.9816,-2.01642 -10.23611,-3.58521 -4.18277,-2.06184 -8.00177,-4.77482 -12.18496,-6.83833 -11.79866,-6.09185 -24.94418,-9.54813 -38.21756,-9.996 -17.9285,-0.66398 -35.69214,3.8008 -52.13867,10.68369 -5.53703,2.37963 -11.04205,4.81055 -16.76625,6.78042 -6.82379,2.3988 -13.87815,4.14476 -21.04434,5.13707 -1.96001,0.27327 -4.12552,0.52413 -6.17385,0.71282 -3.40547,0.31777 -6.83523,0.51523 -10.22654,0.64655 -14.1523,0.49891 -28.32742,0.13693 -42.35913,-1.15251 -10.05632,-0.91449 -19.99017,-2.25872 -29.91392,-4.089 -7.88628,-1.46469 -15.80163,-3.239 -23.56875,-5.3913 -1.51711,-0.54932 -3.36898,-0.8967 -4.30942,-2.34173 -0.82441,-1.83192 -0.63571,-3.91314 -0.94194,-5.86199 -0.32791,-3.22781 -1.40257,-6.59303 -3.9713,-8.73964 -3.23618,-2.69575 -7.4543,-3.7009 -11.46728,-4.62484 -8.05135,-1.72526 -16.25664,-2.48918 -24.33022,-3.95547 -5.16164,-0.9289 -10.27772,-1.83671 -15.33288,-3.28419 -3.49047,-1.10599 -6.43917,-3.40896 -9.22447,-5.71179 -3.62729,-3.09959 -6.8942,-6.61306 -9.79554,-10.39832 -0.78821,-1.03469 -1.68138,-2.28851 -2.44065,-3.45716 -3.31049,-4.98055 -5.24293,-10.81432 -7.07107,-16.38659 -3.65758,-11.69835 -6.35008,-23.63698 -8.81232,-35.6197 -3.38803,-16.73166 -6.14332,-33.65013 -8.45916,-50.52288 -2.33646,-17.41532 -4.25673,-34.89588 -5.26957,-52.38619 -0.46879,-8.41092 -0.75248,-16.82019 -0.47652,-25.2642 0.21431,-6.02912 0.88633,-12.21099 0.83593,-18.31445 -0.036,-2.85433 -0.3818,-5.98002 -2.44692,-8.14624 -1.21033,-1.33031 -2.85256,-2.40715 -3.34238,-4.24422 -0.94544,-3.1902 -0.7983,-6.56884 -0.7911,-9.86062 0.20988,-8.20409 0.95083,-16.51311 1.62316,-24.74715 1.16573,-13.45732 2.38338,-26.92944 3.71289,-40.3529 2.78675,-27.18954 6.46796,-54.27242 10.63888,-81.30317 3.56,-22.88751 7.49179,-45.82367 11.77747,-68.58703 5.04869,-26.86539 10.57101,-53.59681 16.72644,-80.23133 5.14759,-22.11769 10.699,-44.21565 17.20259,-65.98435 2.40213,-8.09082 5.21042,-16.06628 7.15984,-24.28617 0.85576,-3.69753 1.81822,-7.41109 2.01257,-11.21581 -0.0737,-5.60353 -1.44972,-11.09065 -2.94779,-16.45866 -3.52752,-12.13077 -8.38167,-23.833 -13.68454,-35.2839 -6.81242,-14.53458 -14.48346,-28.69686 -23.41179,-42.04729 C 554.56141,134.1545 537.08248,113.69564 517.90266,95.028982 494.13332,71.951209 467.70558,51.563609 439.10906,34.813729 424.91036,26.454455 410.0679,19.175964 394.68381,13.264963 385.25509,9.6540976 375.69773,6.3666685 366.01277,3.5111761 360.13348,1.7901343 354.07804,0.64248123 347.9544,0.32330972 342.58809,3.6642285e-4 337.2074,-0.01671958 331.83306,0.00754772 Z M 334.8565,12.652079 c 3.55278,0.0069 7.07831,0.07403 10.54712,0.302195 5.23563,0.380796 10.57334,0.898507 15.48776,2.865046 2.81476,1.128441 5.54563,3.171351 6.38232,6.222061 0.29522,0.970279 0.24995,1.919985 0.32224,2.808859 0.41349,10.760084 0.3089,21.531686 0.31416,32.297529 -0.12195,24.853892 -0.47387,49.708031 -1.20287,74.551901 -0.79019,27.16427 -2.29459,54.31548 -4.48643,81.41397 -2.69779,33.54288 -6.19237,67.05944 -9.75795,100.54306 -1.54644,14.48743 -3.16433,28.97868 -5.16494,43.41139 -0.43656,2.80547 -0.76126,5.6802 -1.42188,8.41797 -2.13175,-0.76127 -3.88636,-2.27609 -5.68206,-3.60922 -5.67739,-4.5095 -11.00998,-9.41881 -16.54426,-14.10147 -5.69246,-4.81928 -11.32895,-9.72681 -17.37004,-14.11033 -1.37185,-0.88589 -2.71287,-2.02755 -4.3763,-2.27273 -1.34754,-0.007 -2.34764,1.08801 -3.39723,1.78934 -8.59874,6.75337 -16.37153,14.48997 -24.56905,21.66692 -3.79226,3.27661 -7.54222,6.65136 -11.76726,9.36971 -0.31515,0.13084 -0.89609,0.64095 -1.08281,0.48622 0.27481,-4.44826 1.2405,-8.81019 1.89783,-13.20761 0.84728,-7.32778 1.02551,-14.7123 1.28271,-22.07866 0.61153,-22.69947 0.63018,-45.40962 0.65598,-68.11576 -0.0203,-40.62011 -0.20781,-81.27571 -2.87567,-121.82375 -1.64382,-25.84662 -4.17033,-51.624694 -6.75387,-77.391157 -0.53148,-5.44924 -0.97776,-10.899926 -1.30626,-16.321216 -0.16391,-3.223255 -0.40573,-6.369023 -0.21563,-9.602424 0.13607,-0.640408 0.92041,-0.921534 1.39153,-1.322053 4.14881,-2.613908 8.69733,-4.508915 13.19051,-6.439873 3.76403,-1.566892 7.55332,-3.04834 11.33378,-4.433872 7.97224,-2.919686 16.01499,-5.599046 24.19272,-7.790507 5.65428,-1.504042 11.43725,-2.515734 17.26686,-3.015773 1.14315,-0.08823 2.54179,-0.198143 3.78486,-0.261697 3.20936,-0.18149 6.63505,-0.241651 9.92413,-0.248069 z m 47.79883,9.945313 c 3.15779,0.340574 6.1483,1.526665 9.11004,2.612798 4.60408,1.773684 9.08027,3.807213 13.47122,5.904712 8.60041,4.144796 17.06866,8.699386 25.20439,13.511064 9.02057,5.331266 17.78171,11.245584 26.26708,17.297598 10.35351,7.440631 20.38163,15.332295 30.0625,23.628906 4.63952,3.99278 9.30429,8.141786 13.81254,12.351184 13.56972,12.634156 26.46658,26.181846 38.34928,40.481716 13.08088,15.75333 25.18413,32.68444 35.32646,50.60264 2.71466,4.82444 5.31972,9.76192 7.69821,14.6929 2.08508,4.3076 4.02592,8.68469 5.82914,13.11765 0.64752,1.62885 1.37106,3.45808 2.00413,5.18044 2.13698,5.76408 3.95815,11.51216 5.44863,17.46411 1.1292,4.55489 2.32504,9.31016 1.36335,14.01053 -0.52045,2.71299 -1.2706,5.47461 -2.22925,7.97437 -0.56072,1.39433 -1.14743,2.80737 -2.05757,4.01508 -3.14828,-2.30209 -5.92257,-5.06834 -8.76666,-7.72655 -10.6204,-10.21563 -20.8521,-20.86376 -31.0219,-31.55179 -12.97565,-13.71388 -25.74699,-27.62039 -38.15312,-41.82913 -15.98693,-18.12867 -32.43206,-35.90428 -50.22376,-52.28758 -16.24857,-14.93448 -33.84219,-28.59991 -53.35975,-39.014014 -5.23482,-2.857928 -10.67614,-5.303414 -16.05406,-7.872706 -3.35526,-1.70044 -6.83771,-3.320721 -9.67661,-5.835413 -1.05391,-0.920207 -1.73336,-2.224045 -1.77065,-3.634063 -0.22134,-1.769228 -0.36861,-3.808231 -0.52965,-5.686371 -0.86799,-11.54358 -1.40896,-23.184498 -1.87157,-34.730347 -0.0778,-3.727693 -0.34892,-7.478927 0.0771,-11.193788 0.13865,-0.455448 0.081,-1.208002 0.57324,-1.437071 0.36715,-0.06639 0.74556,-0.05255 1.11719,-0.04687 z M 239.45415,44.550517 c 0.93489,3.043922 1.28921,6.362051 1.7754,9.414062 0.49814,3.673137 0.92566,7.317907 1.31445,11.035157 0.40932,4.054092 0.78604,8.263712 1.03827,12.389276 0.16861,2.982671 0.37037,5.888156 0.18438,8.893927 0.0663,0.918251 -0.88317,1.364821 -1.41015,1.96289 -5.87396,5.043241 -12.37695,9.276858 -18.76852,13.621331 -18.54095,12.8403 -34.81436,28.67981 -49.6297,45.61638 -17.65411,20.24402 -33.33454,42.1252 -48.03585,64.57988 -19.73983,30.22583 -37.65708,61.59695 -54.851412,93.32589 -2.003329,3.63237 -4.048644,7.26262 -6.179364,10.753 -0.305842,0.28172 -0.697928,1.65284 -0.917805,0.73046 -2.117098,-5.14685 -3.632227,-10.51481 -5.312319,-15.81417 -2.44186,-8.01547 -4.828176,-16.04369 -7.242532,-24.07254 3.534132,-10.83752 6.995,-21.70674 11.111778,-32.34153 4.045099,-10.61581 8.560115,-21.14589 13.413612,-31.35574 13.133853,-27.52732 29.202292,-53.70721 48.346852,-77.47188 8.73449,-10.59436 18.38163,-20.39814 28.28738,-29.89233 11.64582,-11.075287 23.73132,-21.715066 36.51807,-31.460695 5.83923,-4.49576 12.01363,-8.524827 18.20978,-12.505054 6.36644,-4.095667 12.78029,-8.125188 19.37034,-11.853627 3.23383,-1.787432 6.62876,-3.669335 10.16625,-4.967458 0.84243,-0.285816 1.71221,-0.58793 2.61109,-0.587229 z m 143.64844,49.664062 c 3.63957,1.040986 7.01784,2.810535 10.40531,4.468552 8.83725,4.505079 17.35302,9.490499 25.70211,14.834179 5.13198,3.31331 10.2693,6.84565 15.01391,10.76958 10.30035,8.48237 19.94273,17.72667 29.43923,27.08974 16.07948,15.94657 31.53562,32.5416 46.44921,49.6231 12.47671,13.92777 25.3637,27.48204 38.34855,40.93544 11.61059,11.93238 23.38177,23.70714 35.06772,35.56551 1.40421,1.42026 2.80842,2.84051 4.21263,4.26077 -4.66617,18.62354 -9.43188,37.22231 -14.0117,55.86711 -9.71643,39.89295 -18.07611,80.11362 -25.2283,120.54344 -7.31642,41.47609 -13.39123,83.18273 -17.69104,125.08293 -2.00632,19.57081 -3.54655,39.18963 -4.56784,58.83703 -0.29464,5.23749 -0.58929,10.47497 -0.88393,15.71246 -7.86245,3.86341 -15.78031,7.61557 -23.60097,11.56297 -15.92259,8.22386 -31.06389,17.86976 -45.86797,27.9445 -22.76388,15.55785 -44.62861,32.3859 -66.07903,49.69739 -24.20118,19.35271 -48.46474,38.62764 -72.75355,57.87023 -5.85338,4.59465 -11.64062,9.27568 -17.56865,13.77368 -3.61914,2.71815 -7.64406,5.0544 -11.70795,6.8856 -5.57162,2.5271 -11.26897,4.51928 -17.06055,6.54297 -12.06422,4.12582 -24.28398,7.98165 -36.33575,12.23954 -31.77348,11.08132 -63.04923,23.72551 -93.07218,38.96176 -8.7345,4.38477 -17.47116,8.80767 -26.21121,13.15417 -0.59876,-1.47067 -0.67885,-3.0844 -0.82422,-4.64844 -0.0199,-0.44334 -0.0725,-1.09327 -0.0879,-1.59524 -0.19624,-4.69458 -0.0528,-9.56849 0.0883,-14.3329 0.32498,-10.34698 1.02595,-20.79359 1.5126,-31.17878 0.98903,-22.95838 0.81109,-45.95026 0.27223,-68.91816 -1.03017,-41.06652 -3.42013,-82.0888 -6.49544,-123.04941 -4.08099,-53.69233 -9.399,-107.29372 -16.097261,-160.72335 C 88.682951,454.15468 83.254581,416.38634 76.380446,378.8682 73.873309,365.35966 71.17301,351.88798 68.567435,338.39817 c 3.728499,-7.63059 7.40264,-15.29035 11.455496,-22.75619 6.715117,-12.63678 13.972652,-24.94128 20.979119,-37.42113 12.04647,-21.48279 24.76405,-42.60491 38.62789,-62.96917 6.98523,-10.26011 14.27752,-20.35528 21.92704,-30.19337 7.6481,-9.84416 15.63667,-19.39391 24.06124,-28.63084 10.9625,-12.0134 22.72051,-23.4244 34.95159,-34.17825 6.15723,-5.35756 12.33031,-10.59046 18.99094,-15.28601 1.83791,-1.24284 3.67979,-2.53196 5.74106,-3.3795 0.82349,6.08028 1.31871,12.16424 1.89507,18.28913 1.27808,14.60174 2.48584,29.19195 3.20467,43.8123 1.46389,29.23937 1.82089,58.56651 1.93987,87.86653 0.0332,20.21771 0.12285,40.43756 -0.21725,60.65328 -0.17068,8.28332 -0.39046,16.48031 -1.1366,24.72245 -0.53996,6.2598 -1.62371,12.5674 -2.73886,18.79598 -1.09231,6.61886 -2.32568,13.23534 -2.78674,19.93651 -0.0675,2.4244 -0.26713,5.11329 1.14844,7.22461 1.13973,1.61805 3.39026,2.04245 5.17966,1.36518 3.77191,-1.2332 7.13656,-3.41867 10.47854,-5.50971 8.77031,-5.72797 17.0043,-12.24646 24.89396,-19.12663 4.15487,-3.69775 8.32685,-7.31042 12.82479,-10.53744 0.82483,-0.56316 1.64197,-1.1495 2.54101,-1.58984 3.07218,1.88324 5.83692,4.219 8.66211,6.44531 6.33279,5.10289 12.50383,10.55186 18.66516,15.91521 5.04315,4.28436 10.04781,8.66797 15.62665,12.25344 2.18772,1.29979 4.59173,2.75125 7.23749,2.51885 2.38424,-0.23832 3.93137,-2.55249 4.30411,-4.75101 1.14566,-6.54283 1.89762,-13.14741 2.7613,-19.73176 3.46376,-27.94155 6.58109,-55.92609 9.51672,-83.9278 2.31258,-22.80169 4.1424,-45.6492 5.9054,-68.49877 1.88401,-24.99648 3.6639,-50.00312 4.97473,-75.03682 0.54187,-10.8503 1.1057,-21.69411 1.97719,-32.48548 0.23661,-2.661795 0.44158,-5.322463 0.83985,-7.994135 l 0.0979,0.02032 z M 310.8233,239.53098 c -1.56065,-0.0244 -2.81416,0.98594 -4.21094,1.49609 -2.8124,0.91632 -5.77804,1.45223 -8.37486,2.93847 -4.49782,2.39255 -8.20411,6.00436 -11.56885,9.7747 -2.55429,2.97137 -4.91602,6.28876 -5.94301,10.11887 -0.89249,4.23547 -0.90929,8.59716 -0.85488,12.90724 0.14221,5.11713 0.80109,10.48193 3.66029,14.86355 2.34675,3.64087 5.46348,6.70466 8.59297,9.66808 4.36824,4.02858 9.65959,7.4776 15.67818,8.20085 4.4836,0.49625 9.06401,0.0397 13.40547,-1.15828 1.85742,-0.52249 3.63297,-1.33783 5.125,-2.57637 3.0791,-2.44881 5.81279,-5.32365 8.2543,-8.40312 4.7116,-5.97089 6.91881,-13.62645 7,-21.16641 0.0421,-5.07275 -0.70813,-10.16326 -2.23474,-15.00131 -1.05719,-3.40171 -3.12084,-6.37417 -5.5018,-8.98293 -2.3554,-2.52082 -4.70414,-5.09983 -7.50956,-7.13255 -2.27801,-1.68676 -4.99072,-2.61539 -7.73043,-3.23046 -1.68935,-0.41292 -3.40472,-0.84796 -4.90435,-1.75448 -0.8992,-0.40949 -1.89442,-0.61422 -2.88279,-0.56194 z m -1.53516,17.03125 c 4.3348,-0.004 8.95982,0.12138 12.74921,2.49774 2.46604,1.53303 4.65069,3.52296 6.48516,5.76789 1.52076,2.05955 2.44652,4.46861 3.57032,6.75 -0.0546,3.52092 0.12784,7.05482 -0.16662,10.56635 -0.55556,3.07394 -2.85654,5.40705 -4.91784,7.5934 -2.57609,2.61565 -5.5302,4.98011 -9.03867,6.1966 -2.91852,1.11439 -6.09444,1.09821 -9.17094,1.25951 -1.61727,-0.0276 -3.29712,0.19745 -4.86406,-0.28055 -2.319,-0.96101 -4.65388,-2.04915 -6.5845,-3.67116 -1.25664,-1.82767 -2.11434,-3.90337 -3.05217,-5.9077 -0.89879,-2.18681 -1.93015,-4.3849 -2.22278,-6.75255 -0.26084,-3.04337 0.0638,-6.1344 0.79459,-9.09433 1.78993,-6.67174 6.93921,-12.43055 13.50368,-14.67736 0.94629,-0.28745 1.93921,-0.22555 2.91462,-0.24784 z m 221.47461,414.04492 c 0.5109,-0.0652 0.95066,0.22287 0.99301,0.75933 0.56871,2.6626 0.35246,5.4156 0.35766,8.11972 -0.20023,7.68536 -0.59916,15.36934 -0.4467,23.05992 0.29636,20.57176 2.25762,41.08671 4.98216,61.46798 3.16833,23.20322 7.3742,46.28111 13.037,69.01027 3.15949,12.43555 6.6675,24.82408 11.49601,36.7278 2.20668,5.24199 4.5759,10.50925 8.08344,15.02825 2.74992,3.3755 6.40385,5.8765 10.11768,8.08102 8.96333,5.10341 18.96182,8.1061 29.03185,10.11444 6.22334,1.24997 12.59404,1.84026 18.79998,2.90154 3.22312,0.56009 6.61694,1.06496 9.82994,1.9733 0.67216,0.0555 -0.0116,0.81197 -0.11406,1.1408 -1.74231,2.75596 -4.31422,4.85432 -6.79532,6.91779 -2.22499,1.77435 -4.55215,3.42601 -6.84624,4.92165 -4.98576,3.25605 -10.18486,6.00452 -15.51644,8.67657 -6.5465,3.25225 -13.38724,6.1801 -20.14669,8.74611 -10.21924,3.86936 -20.71267,6.96768 -31.30849,9.61978 -4.91756,1.24918 -9.84608,2.47853 -14.84385,3.3685 -1.51345,0.25375 -3.2453,0.52062 -4.85997,0.66895 -4.49691,0.49309 -9.07295,0.0269 -13.39458,-1.30069 -3.74937,-1.14792 -7.43555,-2.50223 -11.2299,-3.50488 -13.63973,-3.77412 -27.45832,-6.85846 -41.27956,-9.88514 -21.43902,-4.65858 -42.98246,-8.81852 -64.55971,-12.78293 -7.05164,-1.29899 -14.09878,-2.64774 -21.15324,-3.91567 -1.67539,0.12792 -3.31506,0.61652 -4.97618,0.88857 -32.44966,6.4019 -64.92156,12.68857 -97.34465,19.22124 -20.89529,4.24547 -41.79292,8.49105 -62.61168,13.10207 -8.68447,1.95541 -17.31884,4.14 -26.04192,5.9197 -1.68741,0.25541 -3.41448,0.7719 -5.12479,0.47745 -0.83002,-0.6471 -1.04967,-1.88215 -2.01186,-2.43198 -2.31591,-1.45262 -5.03594,-2.05331 -7.62987,-2.81963 -13.07004,-3.37 -26.43773,-5.38495 -39.67659,-7.88643 -5.9807,-1.13012 -11.92843,-2.19611 -17.86918,-3.52212 -1.23854,-5.84887 -2.12102,-11.88703 -3.05159,-17.83545 -0.59221,-3.98863 -1.17885,-7.92165 -1.55391,-11.88509 -0.18382,-2.53353 -0.52136,-5.14669 0.12113,-7.64078 0.4879,-1.51423 2.06009,-2.24136 3.27217,-3.09932 5.44393,-3.31597 11.28373,-5.91361 17.07652,-8.54878 16.06295,-7.11849 32.44829,-13.48051 48.88779,-19.66955 29.36547,-10.99597 59.03818,-21.16375 88.94321,-30.59056 7.78899,-2.48147 15.55191,-5.22971 22.68302,-9.2813 9.0148,-5.06033 17.29355,-11.29705 25.52936,-17.51355 15.36127,-11.75308 30.40965,-23.90733 45.52923,-35.96966 25.22494,-20.1564 50.42552,-40.34423 75.68768,-60.45478 8.71972,-6.78715 17.93756,-12.90442 27.21988,-18.88812 12.14856,-7.76044 24.52019,-15.19382 37.20358,-22.08812 4.21648,-2.27501 8.60215,-4.56245 12.86795,-6.52712 2.54408,-1.0931 5.0696,-2.36782 7.81445,-2.86524 0.27377,-0.0245 0.548,-0.01 0.82227,-0.006 z M 288.36236,855.5427 c -0.56741,0.004 -1.51284,0.1042 -2.21472,0.28786 -3.84586,1.03652 -7.60345,2.60914 -10.75552,5.08578 -3.09148,2.45463 -5.94057,5.32152 -7.94599,8.74609 -1.89174,3.27501 -2.71872,7.1032 -2.55028,10.86932 -0.0561,4.47816 0.3109,9.11515 2.38366,13.16837 1.00887,2.09459 2.12971,4.28642 4.00773,5.72987 0.65063,0.37663 0.78236,1.24391 1.29657,1.78051 2.32591,3.12542 5.72224,5.28246 9.21995,6.88884 2.62512,1.18478 5.51569,1.70575 8.38944,1.5697 3.12273,0.0239 6.30844,-0.42734 9.10572,-1.8895 4.81273,-2.32863 8.94966,-6.35973 10.84606,-11.41328 0.8941,-2.38032 0.93784,-4.97995 0.67277,-7.47598 -0.30971,-1.03827 -0.88841,-2.25815 -2.1097,-2.39021 -0.94717,-0.40185 -1.99863,-0.0935 -2.73436,0.57388 -1.12636,0.83583 -1.26437,2.34372 -1.94481,3.48986 -1.83408,4.15546 -5.94424,6.91902 -10.2712,7.9422 -3.20182,0.76641 -6.56095,0.67282 -9.7979,0.1881 -2.28969,-0.34864 -4.52752,-1.3964 -5.95053,-3.27533 -2.9832,-3.87038 -3.80885,-9.16683 -2.58223,-13.85318 1.36242,-5.52394 5.26998,-10.63184 10.73357,-12.56495 2.49364,-0.87255 5.22871,-0.57021 7.66637,0.33704 2.23714,0.82311 4.46576,1.82891 6.33006,3.3352 2.67349,2.29168 3.84543,5.71114 5.59446,8.65805 0.8271,1.32674 2.06397,2.77545 3.78893,2.64936 1.59956,-0.0103 2.94667,-1.32169 3.19203,-2.87154 0.44247,-2.11904 0.1799,-4.33616 -0.29795,-6.42701 -0.86294,-3.10544 -2.43247,-6.00341 -4.40344,-8.5438 -2.61293,-3.29911 -5.84057,-6.19716 -9.62155,-8.08676 -2.33587,-1.06175 -4.82435,-1.76235 -7.31667,-2.34443 -0.90154,-0.15012 -1.81827,-0.17706 -2.73047,-0.16406 z m -80.17188,31.21094 c -6.79508,0.089 -13.62081,3.44748 -17.34825,9.21688 -2.77055,4.17996 -3.7299,9.39692 -3.03136,14.33079 0.33367,3.38082 0.90636,6.94504 3.07902,9.68411 2.0782,2.67043 4.53895,5.01568 6.93281,7.39888 1.39054,1.26467 2.72961,2.64981 4.3756,3.58027 2.02898,0.86247 4.30195,0.69381 6.45859,0.76867 2.9785,-0.0509 6.1788,-0.11796 8.74449,-1.83668 3.07075,-2.02285 5.35251,-5.03585 7.21098,-8.16245 1.32341,-2.39522 2.41629,-5.15009 1.99219,-7.93164 -0.22626,-1.60882 -1.58164,-3.03028 -3.25615,-3.04174 -1.80228,-0.14452 -3.14727,1.30764 -4.04246,2.6905 -3.09434,4.8494 -9.09382,7.83116 -14.83242,6.9047 -3.28176,-0.60474 -5.67643,-3.51581 -6.60065,-6.59047 -1.53571,-4.97986 0.78464,-10.96101 5.43871,-13.39268 2.72752,-1.26102 5.9197,-1.24414 8.78313,-0.48505 3.38984,1.02149 5.80369,3.76847 8.06759,6.33075 0.91301,0.99199 1.75761,2.14106 3.08701,2.58105 1.01215,0.38966 2.0964,-0.16962 2.89234,-0.77441 0.80234,-0.95352 0.96546,-2.34847 0.66564,-3.53484 -0.39028,-3.17089 -1.23694,-6.32461 -2.93439,-9.0592 -2.5791,-4.36307 -6.96681,-7.96104 -12.13238,-8.5046 -1.17671,-0.14784 -2.36513,-0.17955 -3.55004,-0.17284 z m -106.67383,18.43554 c 1.63468,5.70574 2.58575,11.57962 3.55162,17.42763 1.32092,8.79624 2.59399,17.62976 4.912,26.23085 0.52158,1.57546 0.83077,3.34942 1.99537,4.60129 1.61835,1.19999 3.65719,1.61306 5.54146,2.22865 8.58499,2.42007 17.40112,3.84434 26.16645,5.42685 4.21786,0.788 8.43243,1.63089 12.55365,2.61842 1.4985,0.38194 3.01966,0.71623 4.45914,1.29053 -2.50835,1.80615 -5.34786,3.08614 -8.0751,4.52192 -11.16395,5.66356 -22.59875,10.82799 -33.40416,17.1722 -1.16932,0.78913 -2.58248,1.39211 -3.38147,2.59983 -0.64337,1.48121 -0.33264,3.16672 -0.3194,4.73504 0.55931,8.15641 1.78317,16.24961 2.97519,24.33231 0.84444,5.6724 1.84342,11.3206 2.75666,16.9812 0.0634,0.6171 0.13039,1.2456 0.0323,1.8626 -2.11,-0.8307 -3.79815,-2.4343 -5.52827,-3.8551 -7.507,-6.5246 -14.08711,-14.0332 -21.633398,-20.5162 -2.808492,-2.3848 -5.591895,-4.8735 -8.830524,-6.6658 -1.096444,-0.6754 -2.423484,-0.5389 -3.587907,-0.1368 -5.194505,1.6083 -10.168141,3.8425 -15.147918,6.0081 -7.170207,3.2001 -14.216708,6.6756 -21.468894,9.6924 -2.394437,0.9598 -4.755042,2.047 -7.250359,2.7214 0.898989,-2.894 2.400137,-5.5567 3.717617,-8.2747 5.580319,-11.0249 11.715389,-21.78627 16.600844,-33.15003 0.465658,-1.2979 1.227507,-2.59706 1.126852,-4.0147 -0.456305,-1.6925 -1.704735,-3.02529 -2.700258,-4.42542 -5.750957,-7.35224 -12.343387,-13.97776 -18.72778,-20.76772 -3.335594,-3.66273 -6.785941,-7.26595 -9.578601,-11.37339 -0.237822,-0.40779 -0.641278,-0.96094 -0.702347,-1.32995 11.743514,1.75032 23.416222,3.94198 35.153751,5.7285 3.445543,0.43355 6.933229,1.05802 10.411905,0.67049 2.332315,-0.23414 4.382506,-1.69859 5.611628,-3.65701 3.313792,-4.81751 6.137495,-9.95064 8.9691,-15.06024 2.934153,-5.3468 5.614643,-10.7494 8.719364,-15.97936 1.577414,-2.65273 3.162058,-5.31396 5.036595,-7.77074 l 0.0334,0.0943 z m 753.91993,10.43555 c 5.82068,0.0111 11.75074,0.52556 17.51861,1.72388 7.66043,1.59859 15.47541,4.46076 21.74313,9.41523 2.88304,2.34738 5.40311,5.09811 8.10971,7.64026 0.40077,0.44194 -0.46899,1.05819 -0.60793,1.57417 -1.25468,2.17056 -2.45386,4.39141 -4.11874,6.28563 -2.65554,3.20069 -5.38295,6.08612 -8.25255,9.06503 -10.0233,10.30005 -20.45969,20.08147 -31.14772,29.6793 -9.02471,8.05026 -18.19711,15.96224 -27.96134,23.11127 -24.95935,18.6015 -51.00496,35.8397 -78.51394,50.4517 -10.71891,5.6888 -21.82036,11.0264 -33.01202,15.7243 -11.06681,4.6403 -22.26999,8.704 -33.84011,12.0308 -7.63656,2.2573 -15.66651,3.6446 -23.64715,4.4401 -6.03614,0.6013 -12.0345,0.8804 -18.11878,0.9048 -13.43534,0.09 -26.70637,-2.3944 -39.82036,-5.0634 -20.01947,-4.1743 -39.854,-9.0532 -59.72925,-13.8795 -37.01977,-9.066 -74.01448,-18.4909 -111.08943,-27.4426 -21.22505,-5.1313 -42.45969,-10.2307 -63.76054,-15.0382 -17.17209,-3.8885 -34.51436,-6.9776 -51.88884,-9.8066 -35.39693,-5.6655 -71.0235,-9.8885 -106.75417,-12.765 -17.4476,-1.4026 -34.92675,-2.3992 -52.42072,-2.9922 -8.02377,-0.3354 -16.0627,-0.5257 -24.05952,-1.30131 -1.71268,-0.25689 -3.55264,-0.31205 -5.08928,-1.18149 -0.52857,-0.69801 0.35828,-1.39693 0.78888,-1.88808 2.38232,-2.31947 5.38501,-4.08068 8.16034,-5.7252 6.93475,-3.94224 14.14715,-7.2018 21.61706,-9.95541 5.16277,-1.94573 10.50993,-3.33253 15.89099,-4.52168 18.47648,-4.21988 37.05364,-8.0752 55.62034,-11.9517 39.39287,-8.16432 78.81118,-16.09308 118.33891,-23.55832 12.06884,-2.29662 24.13769,-4.59323 36.20653,-6.88984 29.33474,5.56652 58.69461,10.90542 87.89666,17.15755 12.28765,2.65171 24.53901,5.51649 36.5922,9.10009 6.33627,1.81262 12.82459,3.3236 19.44473,3.43962 5.24414,0.0829 10.49865,-0.15251 15.71247,-0.72171 11.57761,-1.42942 22.89068,-4.47968 33.96703,-8.07233 15.72598,-5.18319 31.04965,-11.63447 45.64739,-19.45784 5.56542,-2.97992 10.94623,-6.28557 16.39577,-9.46882 14.43087,3.33249 28.80166,6.9528 43.34718,9.76364 11.578,2.25917 23.3198,3.70035 35.11099,4.13409 9.56758,0.36594 19.14841,0.3772 28.71987,0.1586 12.34781,-0.31609 24.76627,-1.43917 36.69892,-4.77947 9.65756,-2.6396 18.89564,-6.56182 28.01093,-10.65544 1.32087,-0.56731 2.75832,-1.14036 4.06914,-1.64095 5.45259,-2.06492 11.1883,-3.70594 16.82812,-4.85547 3.95187,-0.80156 7.95163,-1.39827 12.01112,-1.76097 3.10922,-0.28491 6.23236,-0.426 9.38537,-0.42653 z m 65.57422,20.11133 c 1.5497,0.27908 3.06769,1.34342 4.23046,2.11133 2.89691,2.07238 5.43976,4.62962 7.6287,7.43179 1.63585,2.0501 2.32206,4.67438 2.40877,7.25889 0.2075,3.82606 0.062,7.78842 -1.49242,11.35278 -2.06393,4.85026 -5.10688,9.19526 -7.9803,13.58798 -5.76541,8.46683 -12.42633,16.27984 -19.23838,23.91397 -10.63754,11.7952 -21.85289,23.0869 -33.78447,33.5768 -6.17397,5.4201 -12.55983,10.3579 -19.1125,15.2908 -19.73089,14.7514 -40.38113,28.222 -61.51253,40.9309 -21.14629,12.6546 -42.80814,24.5607 -65.0852,35.1519 -13.06395,6.1592 -26.33323,11.9722 -40.0902,16.4172 -7.84675,2.486 -15.88815,4.5547 -24.12673,5.1278 -8.02002,0.5941 -16.07245,0.4848 -24.10727,0.3507 -6.78727,-0.161 -13.73394,-0.6777 -20.38082,-2.4011 -9.48465,-2.4571 -18.34628,-6.7579 -27.11401,-11.0397 -12.96699,-6.4064 -25.71744,-13.4265 -38.86672,-19.5368 -13.20649,-6.2026 -26.8394,-11.5377 -40.88086,-15.5311 -10.92494,-3.1185 -22.01044,-5.6636 -33.16529,-7.8105 -16.38593,-3.0467 -32.90244,-5.331 -49.42969,-7.4539 -19.72427,-2.4726 -39.49055,-4.6681 -59.31767,-6.1309 -6.62007,-0.4291 -13.256,-0.9265 -19.89362,-0.7021 -2.11339,0.067 -4.44572,0.3857 -5.94479,2.0415 -1.88725,2.1029 -2.33971,5.0246 -2.87863,7.699 -1.22433,7.3521 -1.77886,14.7941 -2.48195,22.2085 -0.88532,9.9575 -1.72696,19.8781 -3.06221,29.7899 -0.19944,1.8133 -0.70924,3.5674 -1.12832,5.337 -60.69791,-0.3205 -121.39583,-0.6414 -182.09374,-0.9629 -6.63988,-15.5553 -13.19697,-31.1461 -19.86201,-46.6903 -3.47979,-8.1034 -7.1662,-16.1172 -10.54815,-24.2628 -1.5361,-3.8132 -3.06622,-7.7406 -4.3284,-11.5254 -0.6674,-1.9236 -1.17887,-3.8962 -1.52707,-5.9023 3.91991,3.4164 7.78092,7.2089 12.77853,8.9904 2.18164,0.7868 4.97191,1.033 6.78388,-0.695 1.18952,-1.0622 1.59309,-2.7045 1.47172,-4.2478 -0.18154,-5.7719 -0.98128,-11.5047 -1.7906,-17.2164 -0.64693,-4.3801 -1.20981,-8.8076 -1.60367,-13.156 -0.36357,-4.2516 -0.7959,-8.5376 -0.31409,-12.7985 0.073,-0.9446 0.1461,-1.8892 0.21915,-2.8338 16.78151,0.3342 33.5746,0.4311 50.3212,1.2511 37.45194,1.7345 74.64153,6.5184 111.78845,11.7537 22.61982,3.1321 45.16123,7.1054 67.53972,11.8239 28.76256,6.0559 57.33281,13.0345 85.86759,20.1364 36.33509,9.0972 72.62048,18.4004 109.05148,27.1077 17.38685,4.1122 34.79434,8.1951 52.38939,11.3293 10.80732,1.9147 21.7339,3.2403 32.71274,3.5316 9.5614,0.3398 19.23272,0.5393 28.66112,-1.3582 9.69633,-1.9298 19.20438,-4.7175 28.56934,-7.8665 21.47483,-7.301 42.14769,-16.801 62.16505,-27.4296 28.1587,-15.0199 55.05099,-32.3831 80.51359,-51.6145 14.58515,-11.0274 28.65109,-22.73982 42.16918,-35.05095 7.03354,-6.43968 13.71959,-13.30599 19.42314,-20.96684 3.97664,-5.18019 7.30738,-10.83994 11.58875,-15.78776 1.45997,-1.61782 2.86098,-3.38191 4.73536,-4.5351 l 0.043,-0.002 z" />
</svg>