<?xml version="1.0" encoding="UTF-8" standalone="no"?>
<svg
   version="1.1"
   x="0px"
   y="0px"
   viewBox="0 0 97.586434 89.065056"
   enable-background="new 0 0 100 100"
   xml:space="preserve"
   id="svg830"
   sodipodi:docname="brain.svg"
   width="97.586433"
   height="89.065056"
   inkscape:version="1.1.2 (b8e25be8, 2022-02-05)"
   xmlns:inkscape="http://www.inkscape.org/namespaces/inkscape"
   xmlns:sodipodi="http://sodipodi.sourceforge.net/DTD/sodipodi-0.dtd"
   xmlns="http://www.w3.org/2000/svg"
   xmlns:svg="http://www.w3.org/2000/svg"><defs
     id="defs834" /><sodipodi:namedview
     id="namedview832"
     pagecolor="#ffffff"
     bordercolor="#666666"
     borderopacity="1.0"
     inkscape:pageshadow="2"
     inkscape:pageopacity="0.0"
     inkscape:pagecheckerboard="0"
     showgrid="false"
     fit-margin-top="0"
     fit-margin-left="0"
     fit-margin-right="0"
     fit-margin-bottom="0"
     inkscape:zoom="5.4165095"
     inkscape:cx="38.954976"
     inkscape:cy="34.339458"
     inkscape:window-width="1680"
     inkscape:window-height="912"
     inkscape:window-x="0"
     inkscape:window-y="25"
     inkscape:window-maximized="0"
     inkscape:current-layer="svg830"
     inkscape:snap-page="false"
     inkscape:snap-text-baseline="false"
     inkscape:snap-object-midpoints="false"
     inkscape:snap-center="false"
     inkscape:snap-bbox="false" /><path
     d="m 94.919321,35.908044 c -0.018,-0.042 -0.048,-0.077 -0.09,-0.1 -2.16,-1.22 -4.451,-1.839 -6.809,-1.839 -3.1,0 -6.219,1.092 -9.268,3.244 -0.248,0.174 -0.537,0.266 -0.838,0.266 -0.474,0 -0.918,-0.23 -1.19,-0.616 -0.462,-0.655 -0.306,-1.564 0.351,-2.027 3.653,-2.579 7.025,-3.832 10.307,-3.832 1.604,0 3.234,0.299 4.988,0.917 0.083,0.029 0.176,0.002 0.23,-0.067 0.057,-0.07 1.369,-1.779 0.662,-5.938 -0.313,-1.494 -0.887,-2.714 -1.699,-3.615 -1.637,-2.077 -3.297,-2.513 -4.402,-2.513 -0.686,0 -1.12,0.171 -1.139,0.178 -0.04,0.016 -0.074,0.044 -0.097,0.082 -1.588,2.497 -3.431,4.174 -6.798,6.189 -0.227,0.135 -0.484,0.206 -0.746,0.206 -0.51,0 -0.987,-0.271 -1.249,-0.708 -0.412,-0.688 -0.187,-1.583 0.501,-1.995 4.064,-2.432 5.68,-4.031 6.658,-6.599 0.494,-1.812 -0.115,-4.256 -1.412,-5.676 l -0.26,-0.319 c -1.475,-1.8149996 -4.216,-5.1939996 -11.146,-6.9689996 -0.962,-0.306 -1.944,-0.461 -2.92,-0.461 -2.824,0 -4.666,1.271 -4.743,1.325 -0.076,0.053 -0.107,0.15 -0.078,0.237 0.275,0.808 1.113,3.266 0.26,6.0179996 -0.189,0.613 -0.749,1.024 -1.389,1.024 -0.146,0 -0.291,-0.021 -0.432,-0.065 -0.765,-0.238 -1.195,-1.054 -0.957,-1.82 0.565,-1.8229996 0.444,-3.4329996 -0.369,-4.9199996 -1.063,-1.946 -2.537,-3.256 -4.497,-4.003 -1.871,-0.79599997 -4.836,-0.97299997 -6.032,-1.01199997 -7.705,0.042 -13.198,0.53799997 -20.15,3.02499997 -0.89,0.29 -1.584,0.873 -1.955,1.64 -0.438,0.908 -0.428,2.04 0.031,3.273 0.006,0.015 0.022,0.065 0.05,0.145 0.538,1.5739996 1.064,2.9859996 1.564,4.1989996 0.148,0.359 0.148,0.754 -0.001,1.113 -0.149,0.358 -0.429,0.638 -0.788,0.786 -0.178,0.073 -0.364,0.11 -0.554,0.11 -0.587,0 -1.115,-0.354 -1.346,-0.901 -0.417,-0.995 -1.716,-4.2499996 -1.728,-4.2799996 -0.024,-0.064 -0.626,-1.574 -2.565,-1.574 -1.456,0 -3.263,0.867 -5.366,2.5749996 -2.797,2.167 -4.225,4.13 -4.245,5.833 -0.014,1.201 0.703,1.796 0.753,1.835 0.577,0.368 3.712,2.758 5.022,4.217 0.548,0.609 0.53,1.515 -0.041,2.061 -0.272,0.26 -0.629,0.403 -1.005,0.403 -0.401,0 -0.774,-0.16 -1.051,-0.449 -3.252,-3.397 -5.918,-5.05 -8.152,-5.05 -0.314,0 -0.622,0.034 -0.916,0.101 -0.867,0.199 -2.273,1.198 -3.119,2.514 -2.983,3.876 -3.95699996,6.917 -4.23199996,12.121 -0.166,3.115 0.67499996,6.155 1.61899996,7.476 1.327,1.856 2.669,2.907 3.178,3.275 0,0 0.409,0.26 0.565,0.138 1.328,-1.043 2.849,-1.591 4.716,-1.591 1.117,0 2.38,0.188 3.754,0.56 0.364,0.099 0.668,0.337 0.855,0.671 0.192,0.342 0.239,0.755 0.128,1.132 -0.18,0.616 -0.753,1.046 -1.396,1.046 -0.138,0 -0.275,-0.021 -0.408,-0.059 -0.96,-0.28 -1.856,-0.399 -2.662,-0.423 -0.794,-0.021 -2.242,0.054 -2.898,0.795 -0.03,0.034 -0.057,0.068 -0.067,0.111 -0.009,0.041 -0.164,3.581 4.875,5.387 8.035714,4.555122 10.239584,4.472744 16.993062,6.351223 1.190035,1.05835 7.832795,1.697106 9.747391,1.963895 2.117864,0.990764 21.922547,4.330882 22.645547,2.316882 0.609,-1.495 1.028,-3.868 -0.441,-6.687 -1.470368,-1.382482 1.175284,-3.424322 2.578,-1.344 1.682,3.225 1.445,6.095 0.949,7.94 -0.119,0.495 -0.029,0.995 0.24,1.338 0.172,0.216 0.493,0.474 1.063,0.474 0,0 5.096,0.033 9.26,-0.833 0.563,-0.116 1.1,0.3 1.188,0.865 0.088,0.567 -0.301,1.099 -0.867,1.187 -6.111,0.956 -11.469,1.434 -16.12,1.434 -5.62,0 -10.209,-0.699 -13.853,-2.098 0.062,2.569 0.935,4.809 2.522,6.642 0.01,0.015 0.019,0.026 0.028,0.04 0.529,0.557 1.322,1.345 2.046,2.005 0.554,0.505 3.175,2.175 3.857,2.587 1.316,0.768 7.3,4.45 7.875,4.82 2.634,1.697 3.414,3.539 3.496,3.649 0.281,0.372 0.426,1.476 0.426,1.476 0.238,0.99 1.131,1.726 2.195,1.723 1.243,-0.003 2.25,-1.014 2.246,-2.258 0,0 0.035,-2.529 -0.951,-4.262 -0.158,-0.321 -2.233,-3.721 -4.628,-5.568 -0.727,-0.561 -2.442,-1.815 -2.442,-1.815 l -0.01,-0.005 c -0.195,-0.133 -0.256,-0.395 -0.131,-0.598 0.127,-0.206 0.398,-0.272 0.607,-0.145 0,0 5.053,3.549 8.221,2.666 4.656,-1.297 10.75,-4.359 10.75,-11.249 0,-1.024 -0.102,-1.987 -0.296,-2.894 0.646,-0.344 1.288,-0.733 1.929,-1.18 0.752,-0.602 0.976,-1.348 1.031,-1.868 0.078,-0.744 -0.137,-1.532 -0.562,-2.052 l -3.068,-3.951 -0.036,-0.039 c -0.639,-0.812 -1.475,-0.982 -2.065,-0.982 -0.503,0 -0.897,0.121 -1.108,0.201 -1.078,0.544 -2.214,0.99 -3.371,1.325 -0.762,0.219 -1.585,-0.244 -1.801,-0.994 -0.107,-0.373 -0.064,-0.766 0.123,-1.106 0.188,-0.34 0.496,-0.586 0.87,-0.693 2.64,-0.763 7.403,-2.869 9.661,-8.402 0.223,-0.55 0.752,-0.905 1.348,-0.905 0.188,0 0.372,0.036 0.547,0.108 0.743,0.302 1.102,1.153 0.798,1.896 -0.724,1.775 -1.716,3.382 -2.966,4.804 -0.57,0.92 -0.496,1.873 0.234,2.922 l 2.004,2.604 c 0.027,0.037 0.064,0.063 0.107,0.074 0.033,0.01 0.816,0.231 1.934,0.231 1.506,0 3.637,-0.409 5.232,-2.363 3.898,-4.661 4.088,-8.694 4.225,-11.639 0.015,-0.293 0.027,-0.578 0.044,-0.882 -0.172,-2.157 -1.55,-3.252 -2.166,-3.638 z m -59.709,-1.932 c -1.875,1.853 -3.944,3.217 -6.147,4.056 -0.025,0.009 -0.046,0.023 -0.064,0.041 -1.014,0.551 -1.368,1.311 -1.179,2.537 l 0.835,4.753 c 0.075,0.381 -0.003,0.769 -0.22,1.091 -0.217,0.322 -0.545,0.542 -0.927,0.616 -0.785,0.155 -1.556,-0.374 -1.708,-1.146 l -0.91,-5.13 c -0.278,-1.078 -1.313,-1.648 -1.984,-1.724 -0.027,-0.015 -0.059,-0.024 -0.093,-0.025 -7.229,-0.261 -13.015,-4.931 -13.073,-4.978 -0.3,-0.247 -0.487,-0.595 -0.526,-0.981 -0.038,-0.386 0.077,-0.765 0.322,-1.065 0.277,-0.339 0.688,-0.533 1.126,-0.533 0.333,0 0.66,0.116 0.919,0.328 0.219,0.178 5.435,4.361 11.695,4.361 3.694,0 7.022,-1.437 9.891,-4.269 0.552,-0.546 1.51,-0.541 2.056,0.013 0.273,0.276 0.422,0.643 0.419,1.031 -0.001,0.387 -0.155,0.751 -0.432,1.024 z m 31.57,4.515 c -0.25,0.298 -0.601,0.48 -0.987,0.514 -6.263,0.549 -6.929,5.169 -9.767,1.92 -0.443,-0.506 -0.849,-1.073 -1.205,-1.685 -0.008,-0.015 -0.02,-0.029 -0.031,-0.042 -0.377,-0.379 -0.893,-0.582 -1.535,-0.605 -0.227,-0.008 -0.467,0.006 -0.734,0.044 -0.029,-0.006 -1.84,0.392 -3.618,0.333 -4.008,-0.132 -6.585,-2.011 -6.692,-2.09 -0.646,-0.476 -0.783,-1.388 -0.307,-2.034 0.284,-0.387 0.742,-0.608 1.222,-0.59 0.291,0.01 0.569,0.106 0.806,0.279 0.081,0.058 2.017,1.343 5.049,1.523 1.466,0.087 2.904,-0.376 3.079,-0.45 1.121,-0.471 1.079,-1.714 1.024,-2.195 -0.238,-2.811 0.26,-5.053 0.28,-5.148 0.173,-0.769 0.962,-1.274 1.739,-1.098 0.779,0.177 1.273,0.955 1.098,1.736 -0.014,0.063 -2.186553,4.851988 1.177447,8.685988 2.197,2.503 2.874553,-1.015988 8.161553,-1.480988 0.816,-0.068 1.507,0.532 1.575,1.322 0.033,0.386 -0.085,0.763 -0.335,1.061 z"
     id="frame-node"
     style="stroke:#010000;stroke-width:0.5;stroke-miterlimit:4;stroke-dasharray:none;stroke-opacity:0.99172187;fill:none"
     sodipodi:nodetypes="ccscsccsccccscccsccccccscccsccccccccccccsccscccccscsccccccscccsccccccccccccccccscccccccccccccccccsccccccsccccccsccccccscccccccccsccccccccscsccccsccccccccccccccccccccs" /><path
     style="fill:#cccccc;fill-opacity:1;stroke:#010000;stroke-width:0.0923104;stroke-linejoin:round;stroke-miterlimit:4;stroke-dasharray:none;stroke-opacity:0.991722"
     d="M 67.64879,87.900618 C 67.0888,87.559136 66.794579,87.03069 66.557714,85.940955 66.370856,85.081278 65.428151,83.73896 64.259856,82.669031 63.674691,82.133138 61.29335,80.536772 58.967985,79.121553 c -6.0717,-3.695244 -7.578501,-4.716549 -8.986948,-6.091329 -1.938429,-1.892089 -2.978064,-3.791327 -3.358962,-6.136256 l -0.125,-0.769537 1.167555,0.365658 c 5.363602,1.679782 13.310463,1.993016 22.815145,0.899286 5.182489,-0.596364 5.975284,-0.746576 6.450987,-1.222278 0.54466,-0.54466 0.54089,-1.210277 -0.01049,-1.851288 l -0.435812,-0.506662 -2.102723,0.314511 c -2.868327,0.429023 -7.609833,0.71616 -8.189111,0.495919 -0.574839,-0.218552 -0.725525,-0.79821 -0.482106,-1.854558 0.279294,-1.212043 0.239499,-3.638238 -0.07978,-4.864042 -0.861141,-3.306144 -2.19986,-4.489495 -3.903643,-3.450595 -0.879858,0.5365 -0.960401,1.257108 -0.285767,2.556731 0.960925,1.851143 1.177046,4.004121 0.575237,5.730469 -0.272358,0.78129 -0.667908,0.872092 -3.604956,0.82755 C 54.398344,63.504272 46.060843,62.328147 41.07811,61.119998 39.859614,60.824553 37.549124,60.403853 35.943688,60.185108 33.168926,59.80704 30.599648,59.233632 30.189578,58.900914 30.08579,58.816704 28.505442,58.360442 26.677696,57.887005 24.849951,57.413567 22.48219,56.738963 21.416005,56.387886 18.969748,55.582375 11.146055,51.673915 10.032713,50.701167 9.1612109,49.939719 8.3079324,48.484789 8.3079324,47.760234 c 0,-0.813661 1.7561636,-1.21699 3.6924146,-0.848017 2.022395,0.385389 2.742544,0.32667 3.251583,-0.265124 0.517999,-0.602209 0.590478,-1.673065 0.155292,-2.294382 -0.487236,-0.695625 -2.092016,-1.054958 -4.721368,-1.057179 -2.327699,-0.002 -2.3311775,-0.0013 -3.6686281,0.684884 C 6.0499037,44.476717 5.5920378,44.620993 5.366824,44.500461 4.6739265,44.129634 2.4241305,41.533403 1.9845933,40.597418 1.1348568,38.787921 0.86282923,37.012458 0.9723351,33.990632 1.1462474,29.191501 2.1016586,26.298178 4.6518696,22.847701 c 1.7385187,-2.352243 3.1907106,-3.26674 4.7650922,-3.000752 1.6842652,0.284556 3.7091952,1.570217 6.5102012,4.133434 1.215492,1.112303 1.534678,1.312659 2.091185,1.312659 1.35118,0 2.133709,-1.464839 1.469102,-2.750048 -0.252415,-0.488115 -2.095524,-2.13534 -4.348549,-3.886389 -0.558478,-0.434048 -1.116319,-0.96693 -1.239648,-1.184182 -0.406378,-0.715865 -0.276193,-1.798 0.347364,-2.887384 1.413918,-2.470184 5.867626,-5.8324587 8.184803,-6.1790218 0.560631,-0.083849 0.938568,-0.00892 1.569276,0.3111301 0.81235,0.4122206 0.854475,0.4789577 1.897532,3.0062697 1.174923,2.84682 1.616167,3.415484 2.650174,3.415484 0.8408,0 1.7294,-0.832888 1.7294,-1.620974 0,-0.29791 -0.456937,-1.79679 -1.015414,-3.330846 -0.558478,-1.5340558 -1.015414,-3.0855768 -1.015414,-3.4478243 0,-0.9450237 0.420494,-1.8193072 1.134289,-2.3583965 1.202821,-0.908421 6.774902,-2.4087909 11.2353,-3.0252805 3.385125,-0.4678717 12.328525,-0.47678334 14.031177,-0.013981 1.878032,0.5104724 3.349958,1.3173487 4.367104,2.393949 1.927614,2.0402856 2.470984,3.6596703 1.997358,5.9526428 -0.302438,1.4641945 -0.214193,1.9774675 0.441519,2.5681095 0.246577,0.222108 0.661592,0.348262 1.145695,0.348262 0.936158,0 1.598622,-0.588727 1.841704,-1.636709 C 64.699846,9.8524274 64.647286,7.1740444 64.3471,6.1765965 64.198511,5.6828749 64.094662,5.2648402 64.116324,5.2476304 c 0.320019,-0.254249 1.465813,-0.689817 2.384146,-0.9063214 1.647118,-0.3883218 2.804919,-0.3462213 4.81072,0.1749299 4.968742,1.290988 8.384774,3.4410217 11.100438,6.9865601 1.232537,1.609185 1.62092,2.597943 1.645818,4.189964 0.0161,1.02976 -0.06958,1.365395 -0.603844,2.365432 -0.764454,1.430897 -2.64966,3.234346 -4.86097,4.650156 -0.87227,0.558478 -1.673488,1.206251 -1.780484,1.439497 -0.353221,0.77 -0.231221,1.506155 0.345122,2.082498 0.854202,0.854204 1.503921,0.74721 3.526177,-0.580674 1.977591,-1.298556 3.327543,-2.52011 4.755221,-4.302936 l 1.016452,-1.269302 0.997814,0.102983 c 2.278111,0.235122 4.591093,2.567404 5.344957,5.389556 0.335251,1.255044 0.316715,3.865545 -0.03588,5.052857 -0.256612,0.864101 -0.329582,0.952246 -0.692328,0.836301 -4.239284,-1.355019 -7.983813,-0.951676 -12.301987,1.32511 -3.2636,1.720754 -4.072437,2.661404 -3.438032,3.998314 0.316917,0.667849 0.932573,1.067354 1.635131,1.061045 0.22369,-0.002 1.231512,-0.501317 2.239603,-1.109576 1.086046,-0.655295 2.552978,-1.344921 3.600104,-1.692466 1.60933,-0.534141 1.981632,-0.587559 4.167282,-0.597933 2.634322,-0.0125 3.685179,0.211121 5.723243,1.217926 1.419842,0.701404 2.18167,1.444436 2.688187,2.621866 0.363501,0.844981 0.392112,1.1308 0.27939,2.791144 -0.252148,3.714008 -1.018752,6.183021 -2.739353,8.822656 -2.043744,3.135379 -3.502593,4.084915 -6.294816,4.09717 l -1.635692,0.0072 -0.640443,-0.738483 c -1.1038,-1.272772 -2.088345,-2.880942 -2.088345,-3.411136 0,-0.325499 0.362192,-0.996446 1.010183,-1.871323 1.395019,-1.883471 2.396909,-3.898143 2.396909,-4.819875 0,-0.998405 -0.697523,-1.621085 -1.815929,-1.621085 -0.90433,0 -1.375294,0.392858 -1.849027,1.542384 -1.248134,3.028628 -4.451054,5.936442 -7.957759,7.224555 -1.791122,0.657933 -2.053011,0.809505 -2.287366,1.323862 -0.368254,0.808227 -0.247822,1.525902 0.357664,2.131386 0.491665,0.491667 0.660587,0.551635 1.3385,0.475182 0.426703,-0.04812 1.533836,-0.390798 2.460298,-0.7615 1.700092,-0.680251 2.754361,-0.830955 3.399117,-0.485892 0.193321,0.103462 1.195575,1.271539 2.227236,2.595729 1.559825,2.00212 1.890725,2.540529 1.964693,3.196778 0.129231,1.14653 -0.309951,1.847714 -1.720588,2.747037 -1.177048,0.750402 -1.187724,0.764749 -1.053204,1.415373 0.259902,1.257051 0.144119,4.108539 -0.210349,5.180493 -1.01667,3.074522 -3.405029,5.428819 -7.146391,7.044466 -2.505152,1.081812 -3.711589,1.339171 -5.048302,1.076914 -1.403781,-0.275416 -2.932797,-0.908163 -4.752886,-1.966865 -0.962352,-0.559777 -1.543837,-0.791316 -1.790609,-0.712994 -0.385146,0.122241 -0.667952,0.71066 -0.484343,1.007748 0.05964,0.09651 0.967957,0.838985 2.018471,1.649952 2.127151,1.642098 4.098422,3.909226 5.190823,5.96988 0.828768,1.56335 1.222208,3.813908 0.8316,4.756918 -0.266884,0.644317 -1.150097,1.296261 -1.75609,1.296261 -0.203083,0 -0.6251,-0.156021 -0.937816,-0.346716 z M 28.445795,46.90787 c 0.672046,-0.672046 0.677651,-0.988126 0.07703,-4.344906 -0.253584,-1.417244 -0.409562,-2.746514 -0.346619,-2.953932 0.199353,-0.656939 0.656509,-1.021253 2.271732,-1.810372 1.607648,-0.785419 3.914875,-2.409539 4.906933,-3.454121 0.447729,-0.471437 0.553862,-0.743126 0.553862,-1.417845 0,-1.073509 -0.662733,-1.725789 -1.753448,-1.725789 -0.597678,0 -0.894423,0.15487 -1.777602,0.92772 -3.885938,3.400496 -8.14871,4.426291 -13.068797,3.144883 -1.821525,-0.474407 -4.847516,-1.906903 -6.627672,-3.137524 -1.658394,-1.146447 -2.435089,-1.240089 -3.2797587,-0.395417 -0.8141925,0.814192 -0.7558955,1.714519 0.167143,2.581323 2.3482667,2.205198 8.1401677,4.602905 11.9229037,4.935793 1.568494,0.138029 2.383792,0.439631 2.758295,1.020373 0.152801,0.236949 0.496829,1.677008 0.764509,3.200129 0.267678,1.523121 0.610901,2.960709 0.762716,3.194638 0.590305,0.909592 1.880588,1.023231 2.668773,0.235047 z m 30.837602,-4.972769 c 0.547402,-0.290219 1.641943,-0.878247 2.432313,-1.306731 1.004583,-0.544617 1.939026,-0.879766 3.105129,-1.113697 2.065757,-0.414409 2.565732,-0.801286 2.565732,-1.985349 0,-0.635991 -0.103724,-0.903554 -0.48851,-1.260164 -0.922161,-0.854628 -3.26965,-0.483043 -5.947903,0.941494 -2.150082,1.143609 -2.620859,1.081728 -3.7885,-0.497978 -1.183792,-1.601553 -1.608381,-4.584965 -0.955204,-6.711805 0.435347,-1.41755 0.374747,-2.064289 -0.252168,-2.691202 -0.829632,-0.829634 -2.167123,-0.630015 -2.70141,0.40318 -0.368822,0.713227 -0.675809,3.716776 -0.535769,5.241953 0.105263,1.146429 0.07392,1.349168 -0.277598,1.795601 -1.036431,1.316291 -4.943434,1.196125 -7.787417,-0.239514 -1.329759,-0.67126 -2.151361,-0.696985 -2.808536,-0.08794 -0.702356,0.650923 -0.693132,1.870926 0.0192,2.539126 0.679013,0.636945 2.063565,1.311743 3.743226,1.824361 1.538901,0.469659 4.066019,0.574723 6.768764,0.281408 l 1.51173,-0.164059 0.519098,0.551318 c 0.285505,0.303223 0.768338,0.903561 1.072962,1.334082 0.597178,0.843987 1.791521,1.669014 2.420208,1.671835 0.214158,9.23e-4 0.837253,-0.235705 1.384656,-0.525923 z"
     id="dummy-data-area" /><rect
     style="fill:#ffffff;fill-opacity:1;stroke-width:0.157857;stroke-linejoin:round"
     id="qrcode-rect"
     width="38.582405"
     height="38.582405"
     x="33.138645"
     y="13.421923" /></svg>
