<?xml version="1.0" encoding="UTF-8" standalone="no"?>
<svg
   version="1.1"
   viewBox="0 0 700 700"
   width="700pt"
   height="700pt"
   id="svg825"
   sodipodi:docname="electrician.svg"
   inkscape:version="1.1.2 (b8e25be8, 2022-02-05)"
   xmlns:inkscape="http://www.inkscape.org/namespaces/inkscape"
   xmlns:sodipodi="http://sodipodi.sourceforge.net/DTD/sodipodi-0.dtd"
   xmlns="http://www.w3.org/2000/svg"
   xmlns:svg="http://www.w3.org/2000/svg">
   <defs
      id="defs829" />
   <sodipodi:namedview
      id="namedview827"
      pagecolor="#ffffff"
      bordercolor="#666666"
      borderopacity="1.0"
      inkscape:pageshadow="2"
      inkscape:pageopacity="0.0"
      inkscape:pagecheckerboard="0"
      inkscape:document-units="pt"
      showgrid="false"
      inkscape:zoom="0.7060547"
      inkscape:cx="385.94743"
      inkscape:cy="534.66112"
      inkscape:window-width="1680"
      inkscape:window-height="925"
      inkscape:window-x="0"
      inkscape:window-y="23"
      inkscape:window-maximized="0"
      inkscape:current-layer="svg825" />
   <path
      transform="scale(0.75)"
      id="dummy-data-area"
      style="fill:none;stroke:#000000;stroke-width:0"
      d="m 628.02487,684.84007 c 0,-0.36959 20.70846,-39.96847 46.01881,-87.99753 25.31034,-48.02906 47.55434,-90.36736 49.4311,-94.08509 l 3.41231,-6.75954 -55.62518,0.5689 c -36.20681,0.37029 -55.44958,0.1084 -55.12216,-0.75022 0.27665,-0.7255 30.93042,-52.92536 68.11947,-115.99969 L 751.8757,265.1363 h 42.68618 c 33.95509,0 42.41815,0.34237 41.3758,1.67384 -2.06313,2.63541 -103.46518,173.46592 -103.46518,174.30624 0,0.41358 29.10403,0.90836 64.67562,1.09948 l 64.67564,0.34751 -105.18257,109.35837 C 626.2314,687.50888 628.02487,685.65542 628.02487,684.84007 Z M 28.120516,140.60257 H 550.35868 V 662.84073 H 28.120516 Z" />
   <path
      id="frame-node"
      style="fill:#000000;stroke:#000000;stroke-width:0.283465;stroke-miterlimit:4;stroke-dasharray:none;stroke-opacity:1"
      d="m 562.96779,199.24472 -102.48,173.88 83.969,-0.66016 -77.355,146.78 181.16,-188.43 h -98.512 l 78.676,-132.23 h -64.793 z m -10.578,-18.512 108.43,-0.66016 -78.676,132.23 h 109.75 l -303.47,316.03 124.3,-236.7 -85.949,0.66016 124.96,-211.57 z" />
   <rect
      style="opacity:0.985669;fill:#ececec;stroke:none;stroke-width:0.351819;stroke-linejoin:round;stroke-miterlimit:4;stroke-dasharray:none;stroke-opacity:1"
      id="qrcode-rect"
      width="390.73032"
      height="390.73032"
      x="21.090387"
      y="105.45193" />
</svg>