<?xml version="1.0" encoding="UTF-8" standalone="no"?>
<svg
    version="1.1"
    id="Layer_1"
    x="0px"
    y="0px"
    width="344.93295"
    viewBox="0 0 344.93295 495.78146"
    enable-background="new 0 0 1280 502"
    xml:space="preserve"
    sodipodi:docname="ghaseel.svg"
    inkscape:version="1.1.2 (b8e25be8, 2022-02-05)"
    height="495.78146"
    xmlns:inkscape="http://www.inkscape.org/namespaces/inkscape"
    xmlns:sodipodi="http://sodipodi.sourceforge.net/DTD/sodipodi-0.dtd"
    xmlns="http://www.w3.org/2000/svg"
    xmlns:svg="http://www.w3.org/2000/svg"><defs
     id="defs917" /><sodipodi:namedview
     id="namedview915"
     pagecolor="#ffffff"
     bordercolor="#666666"
     borderopacity="1.0"
     inkscape:pageshadow="2"
     inkscape:pageopacity="0.0"
     inkscape:pagecheckerboard="0"
     showgrid="false"
     inkscape:zoom="0.90703125"
     inkscape:cx="256.33075"
     inkscape:cy="250.26701"
     inkscape:window-width="1664"
     inkscape:window-height="912"
     inkscape:window-x="16"
     inkscape:window-y="25"
     inkscape:window-maximized="0"
     inkscape:current-layer="Layer_1"
     fit-margin-top="0"
     fit-margin-left="0"
     fit-margin-right="0"
     fit-margin-bottom="0" />
     <path
     style="fill:#ffff00;stroke:#000000;stroke-width:1px;stroke-linecap:butt;stroke-linejoin:miter;stroke-opacity:1"
     d="M 46.30491,328.54436 37.484927,272.31697 172.39637,25.413424 184.94419,22.648577 317.51938,273.41947 284.44444,384.77175 164.27218,443.20413 Z"
     id="dummy-data-area" />
     <path
     id="outlined"
     d="M 75.980469 0 C 75.730469 0 75.229966 -9.0875e-05 75.244141 0.37695312 C 73.07644 10.657851 66.60527 16.507418 55.986328 19.503906 C 67.075691 22.178732 72.889648 28.620765 75.716797 39.146484 C 78.077545 28.055986 84.828394 22.464214 95.115234 19.410156 C 84.512209 16.054433 77.54863 10.639381 75.980469 0 z M 184.94336 22.648438 C 184.46053 24.250543 184.85562 25.252937 185.32031 26.222656 C 190.20868 36.423879 195.24873 46.555767 199.98242 56.828125 C 227.75685 117.1003 255.4187 177.42491 283.20117 237.69336 C 305.31225 285.65884 293.79569 341.15857 254.31836 376.25 C 254.39566 377.63614 254.07214 379.20481 254.60938 380.38086 C 262.04674 396.66199 269.6015 412.88932 277.64453 429.23438 C 296.1341 415.88733 310.95791 399.49332 321.94922 379.99609 C 350.11328 330.03653 353.12103 278.61919 326.92969 227.22461 C 316.33139 206.42795 302.69483 187.04321 289.2168 167.87695 C 255.70368 120.22004 221.48879 73.056158 187.54102 25.705078 C 186.76461 24.622114 185.81282 23.664697 184.94336 22.648438 z M 254.60938 380.38086 C 254.07214 379.20481 254.39553 377.63657 253.95312 376.19922 C 252.59985 374.66938 251.3902 373.29227 250.6543 371.69727 C 236.08672 340.12259 221.63526 308.49396 207.01172 276.94531 C 202.78766 267.83233 196.17404 260.94382 186.27344 258.0293 C 172.85695 254.07978 157.72098 260.03769 149.66016 272.16016 C 141.97558 283.71686 143.1682 298.91251 153.09766 311.05859 C 170.68088 332.56705 188.48226 353.89856 206.09766 375.38086 C 211.53856 382.01611 216.67415 388.90188 222.29297 395.80078 C 234.74715 410.44592 246.86761 424.9549 258.92578 439.51562 C 259.33963 440.01536 259.12479 441.03465 259.55469 441.85938 C 261.14121 442.95899 262.5651 443.85358 263.58203 445.08594 C 273.30765 456.87092 282.93954 468.73371 292.65234 480.5293 C 296.88248 485.66651 301.2384 490.70053 305.53711 495.78125 C 306.01773 495.49716 306.49985 495.21381 306.98047 494.92969 C 304.19428 488.62985 301.45117 482.30969 298.61328 476.0332 C 291.63776 460.6058 284.61832 445.19885 277.37305 429.45703 C 269.60287 412.89038 262.04674 396.66199 254.60938 380.38086 z M 258.92578 439.51562 C 246.86761 424.95489 234.74643 410.44452 221.96094 395.95703 C 198.02789 404.98276 174.20414 406.37981 150.1543 400.22656 C 82.581025 382.93752 45.320447 307.62598 72.539062 243.41016 C 77.594848 231.48222 83.802734 220.04755 89.222656 208.26758 C 116.55274 148.86692 143.80357 89.428817 171.04688 29.988281 C 171.70269 28.557418 171.95551 26.943393 172.39648 25.414062 C 170.88117 25.653547 170.29523 26.205806 169.83594 26.849609 C 133.96025 77.137466 97.805766 127.23166 62.384766 177.83789 C 50.102226 195.38603 37.747158 213.32256 28.720703 232.62305 C 6.5641711 279.99842 8.9681841 327.52405 32.986328 373.96094 C 75.310821 455.79156 178.91985 486.86975 259.20312 441.81055 C 259.12445 441.0333 259.33963 440.01535 258.92578 439.51562 z M 40.761719 60.294922 C 40.150234 62.426082 39.704793 63.983375 39.167969 65.910156 C 33.081215 84.886871 20.488977 95.989002 0 99.644531 C 10.412633 101.72519 19.521109 104.68883 25.785156 111.91602 C 31.701538 118.74208 36.274269 126.73187 41.589844 134.42969 C 47.176762 115.26676 60.4384 103.7992 80.783203 99.746094 C 58.588814 95.160437 45.387993 82.431972 40.761719 60.294922 z " /><rect
     style="fill:#000000;stroke-width:0.412358;stroke-linejoin:round;stroke-opacity:0.991722"
     id="qrcode-placeholder"
     width="108.04478"
     height="104.73729"
     x="125.68475"
     y="144.42722" />
    </svg>