<?xml version="1.0" encoding="UTF-8" standalone="no"?>
<svg
   version="1.1"
   viewBox="0 0 700 700"
   width="700pt"
   height="700pt"
   id="svg825"
   sodipodi:docname="juice.svg"
   inkscape:version="1.1.2 (b8e25be8, 2022-02-05)"
   xmlns:inkscape="http://www.inkscape.org/namespaces/inkscape"
   xmlns:sodipodi="http://sodipodi.sourceforge.net/DTD/sodipodi-0.dtd"
   xmlns="http://www.w3.org/2000/svg"
   xmlns:svg="http://www.w3.org/2000/svg">
   <defs
      id="defs829" />
   <sodipodi:namedview
      id="namedview827"
      pagecolor="#ffffff"
      bordercolor="#666666"
      borderopacity="1.0"
      inkscape:pageshadow="2"
      inkscape:pageopacity="0.0"
      inkscape:pagecheckerboard="0"
      inkscape:document-units="pt"
      showgrid="false"
      inkscape:zoom="0.7060547"
      inkscape:cx="385.94743"
      inkscape:cy="534.66112"
      inkscape:window-width="1680"
      inkscape:window-height="925"
      inkscape:window-x="0"
      inkscape:window-y="23"
      inkscape:window-maximized="0"
      inkscape:current-layer="svg825" />
   <path
      id="dummy-data-area"
      style="fill:none;stroke:#000000;stroke-width:5"
      d="M 494.83501,168.50766 H 373.54635 l -0.005,-80.272473 60.25944,-44.398855 c 6.12905,-4.512893 7.44484,-13.149049 2.92183,-19.277843 -4.52801,-6.144036 -13.14905,-7.464833 -19.28809,-2.92184 l -65.8682,48.532108 c -3.5273,2.601631 -5.60865,6.719386 -5.60865,11.09728 v 87.231253 l -140.78934,0.0103 c -22.76043,0 -41.38249,18.48245 -41.38249,41.38249 v 44.13885 c 0,7.72497 6.2091,13.79459 13.79459,13.79459 h 344.83912 c 7.72496,0 13.79459,-6.06898 13.79459,-13.79459 v -44.13891 c 0,-22.90517 -18.48245,-41.38249 -41.37737,-41.38249 z M 217.16285,567.55171 H 482.82076 L 505.54021,295.41276 H 194.55356 Z m 6.21205,73.78888 c 1.79112,22.20456 20.82893,39.72638 43.1731,39.72638 h 167.03364 c 22.34416,0 41.24159,-17.5167 43.17309,-39.72638 l 3.72236,-46.20994 H 219.50703 Z" />
   <rect
      style="opacity:0.985669;fill:#ececec;stroke:none;stroke-width:0.205481;stroke-linejoin:round;stroke-miterlimit:4;stroke-dasharray:none;stroke-opacity:1"
      id="qrcode-rect"
      width="228.20749"
      height="228.20749"
      x="236.36119"
      y="318.46017" />
</svg>