<?xml version="1.0" encoding="UTF-8" standalone="no"?>
<svg
   version="1.1"
   viewBox="0 0 700 700"
   width="700pt"
   height="700pt"
   id="svg825"
   sodipodi:docname="locksmith.svg"
   inkscape:version="1.1.2 (b8e25be8, 2022-02-05)"
   xmlns:inkscape="http://www.inkscape.org/namespaces/inkscape"
   xmlns:sodipodi="http://sodipodi.sourceforge.net/DTD/sodipodi-0.dtd"
   xmlns="http://www.w3.org/2000/svg"
   xmlns:svg="http://www.w3.org/2000/svg">
   <defs
      id="defs829" />
   <sodipodi:namedview
      id="namedview827"
      pagecolor="#ffffff"
      bordercolor="#666666"
      borderopacity="1.0"
      inkscape:pageshadow="2"
      inkscape:pageopacity="0.0"
      inkscape:pagecheckerboard="0"
      inkscape:document-units="pt"
      showgrid="false"
      inkscape:zoom="0.7060547"
      inkscape:cx="385.94743"
      inkscape:cy="534.66112"
      inkscape:window-width="1680"
      inkscape:window-height="925"
      inkscape:window-x="0"
      inkscape:window-y="23"
      inkscape:window-maximized="0"
      inkscape:current-layer="svg825" />
   <path
      id="dummy-data-area"
      style="fill:#999999;stroke:none;stroke-width:0.75"
      d="m 492.76611,33.807129 c -7.18643,0.07172 -14.40388,0.02427 -21.54288,0.962288 -7.0943,0.91006 -13.87169,3.319109 -20.56958,5.726406 -18.26404,6.716207 -35.35227,16.794258 -49.69804,29.979401 -13.61959,12.465048 -24.68675,27.678116 -32.46099,44.418336 -4.72051,10.13404 -8.2926,20.80257 -10.67128,31.72478 -2.08115,9.78475 -2.34025,19.82794 -2.58452,29.79259 -0.30196,16.12884 -0.18365,32.26148 -0.2105,48.3922 0,10.59687 0,21.19374 0,31.79062 20.32812,0 40.65625,0 60.98437,0 0.30595,-24.16997 0.56864,-48.34055 0.91082,-72.51003 0.14048,-7.79103 0.22865,-15.5512 0.6886,-23.31691 0.12591,-2.12564 0.33201,-4.42834 0.58466,-6.42794 0.43664,-3.5471 1.35962,-7.03647 2.8515,-10.28873 2.55801,-5.8644 5.65195,-11.50778 9.43176,-16.67764 8.67521,-11.98713 20.69471,-21.52755 34.36537,-27.19998 11.93573,-5.000415 25.06832,-7.018275 37.96148,-6.038333 15.45412,1.106843 30.61738,6.506533 43.13532,15.667623 1.33715,0.97378 2.75944,2.08821 3.95721,3.08344 10.33999,8.57694 18.43361,19.87811 23.01811,32.51974 1.35061,3.74276 2.47749,7.57546 3.20699,11.49003 0.0487,0.30314 0.1588,0.89338 0.20947,1.20577 1.01439,6.3301 1.21841,12.76699 1.40326,19.13907 0.33577,14.96064 0.22094,29.92641 0.24616,44.88964 0,11.48807 0,22.97616 0,34.46425 20.4165,0 40.83301,0 61.24951,0 -0.0106,-18.02557 0.022,-36.05123 -0.0177,-54.07674 -0.0962,-13.99997 -0.36351,-28.00366 -1.14046,-41.98376 -0.26648,-3.87449 -0.43661,-7.77048 -1.10015,-11.60275 -4.0687,-22.00291 -13.92955,-42.77867 -27.72227,-60.341407 -17.20851,-21.960491 -40.59185,-39.100887 -66.86338,-48.559607 -6.41716,-2.282099 -12.93192,-4.485751 -19.72387,-5.311224 -7.24529,-0.899122 -14.56233,-0.850807 -21.85078,-0.912268 -2.68273,-0.0079 -5.36542,-0.0051 -8.04815,0.0011 z M 311.40381,270.0249 c -48.40847,0.0857 -96.81668,0.27369 -145.22501,0.41008 -25.39782,0.0777 -50.79563,0.15482 -76.193447,0.23298 -3.402218,1.9698 -6.845948,3.8702 -10.220093,5.8871 -5.1514,3.30188 -9.539008,7.77217 -12.852239,12.90932 -2.081866,3.45132 -4.092299,6.94549 -6.145443,10.41404 0,112.75098 0,225.50195 0,338.25293 2.010061,3.46754 3.939916,6.98285 6.007463,10.41626 5.445367,8.60235 14.201132,14.9666 23.949661,17.80429 2.339888,0.37984 4.724003,0.38827 7.087748,0.51377 11.13723,0.40843 22.28308,0.5381 33.42637,0.69432 36.49344,0.44218 72.98994,0.55395 109.48569,0.62211 49.03983,0.0537 98.08038,-0.0267 147.11874,-0.43302 18.24648,-0.16807 36.49431,-0.33798 54.73591,-0.81006 4.15868,-0.14553 8.32801,-0.20101 12.47163,-0.60943 1.8615,-0.30834 3.61619,-1.07365 5.32952,-1.8403 5.39724,-2.56202 10.22527,-6.24505 14.37051,-10.52938 2.85366,-3.0048 5.46494,-6.34981 7.05257,-10.20737 0.56452,-2.01782 0.59435,-4.13838 0.78957,-6.21385 0.62943,-9.67764 0.84524,-19.37565 1.09552,-29.06896 0.62461,-28.15271 0.8623,-56.31236 1.02704,-84.47099 0.23255,-44.56161 0.19729,-89.12494 -0.16174,-133.68578 -0.20687,-22.85567 -0.45187,-45.71261 -1.06617,-68.56155 -0.23245,-7.52489 -0.42996,-15.05573 -0.99534,-22.56473 -0.17471,-1.71518 -0.20712,-3.48136 -0.76522,-5.12662 -2.04128,-4.71289 -5.45288,-8.69081 -9.17818,-12.16457 -4.42301,-4.02765 -9.47837,-7.47825 -15.12651,-9.53124 -1.46888,-0.54744 -3.00474,-0.89063 -4.57146,-0.97638 -6.37987,-0.50862 -12.78353,-0.60154 -19.17916,-0.76844 -20.18224,-0.3984 -40.36906,-0.4864 -60.55462,-0.5595 -20.57103,-0.066 -41.14221,-0.0588 -61.71331,-0.035 z" />
   <path
      id="frame-node"
      style="fill:#000000;stroke:#000000;stroke-width:4;"
      d="m 494.287,18.0713 c -6.59534,0.08576 -13.184,0.587682 -19.71703,1.495628 -2.64429,0.377328 -5.55188,0.853054 -8.27755,1.390704 -21.85859,4.240934 -42.98307,13.415256 -61.14378,26.490432 -24.43888,17.510522 -43.72749,42.130915 -54.75967,70.108376 -2.70231,6.84565 -4.92931,13.87922 -6.63946,21.03777 -0.60996,2.58781 -1.23506,5.4588 -1.72171,8.18393 -0.83416,4.57174 -1.46413,9.20812 -1.87542,13.70163 -0.26285,2.80339 -0.43099,5.5677 -0.52904,8.29387 -0.23224,6.08986 -0.0979,12.41177 -0.12979,18.59254 -1e-5,22.86261 0,45.72522 0,68.58783 -80.36069,10e-4 -160.72175,-0.0156 -241.082188,0.0243 -3.32662,0.0477 -6.89737,0.52981 -9.98193,1.21084 -1.26325,0.28764 -2.34619,0.57038 -3.65845,0.95802 -1.88586,0.57137 -3.64416,1.20627 -5.37745,1.93195 -13.87274,5.75861 -25.08815,17.54447 -30.11314,31.70348 -1.75449,4.87383 -2.8074,10.00492 -3.05344,15.18115 -0.046,0.88123 -0.0639,2.1887 -0.0591,3.24097 0.004,106.44513 -0.0124,212.89058 0.0207,319.3355 0.0825,4.69363 0.85399,9.36653 2.19717,13.86194 0.2142,0.67438 0.56566,1.79623 0.87207,2.63149 5.021,14.16302 16.21375,25.97595 30.09151,31.74158 7.06635,3.00587 14.78469,4.37503 22.453158,4.13999 115.17707,-0.008 230.35439,0.0124 345.53131,-0.0124 15.57164,-0.23003 30.71924,-7.89492 40.46501,-19.98465 4.27693,-5.21179 7.60507,-11.47934 9.59217,-17.75563 1.91545,-5.89023 2.63327,-12.11303 2.45435,-18.29124 0.003,-105.79981 0.0198,-211.5999 -0.0124,-317.39954 -0.22999,-15.5696 -7.89092,-30.71969 -19.9805,-40.46412 -2.38448,-1.95101 -4.94899,-3.67748 -7.62974,-5.19533 -0.65033,-0.35998 -1.69187,-0.92639 -2.52179,-1.32817 -4.52472,-2.24165 -9.36472,-3.8465 -14.33558,-4.73758 -1.08677,-0.18941 -2.5634,-0.40672 -3.81291,-0.53166 -1.8913,-0.18377 -3.4926,-0.25971 -5.40628,-0.25781 -5.70826,-8e-4 -11.41654,-0.003 -17.12481,-0.003 0.0172,-27.84832 -0.0472,-55.69769 0.0445,-83.54534 0.55134,-17.09966 8.08961,-33.78715 20.3689,-45.67129 11.96841,-11.71998 28.41811,-18.79534 45.19069,-19.13764 15.80635,-0.43296 31.66112,5.03451 43.89744,15.03935 13.2342,10.71507 22.27147,26.54662 24.44445,43.46455 0.95439,7.50369 0.43371,15.08372 0.56914,22.6239 0,27.09978 0,54.19955 0,81.29933 30.09694,10e-4 60.19388,0.004 90.29081,0.005 -0.0151,-32.83489 0.0437,-65.67053 -0.0428,-98.50494 -0.13529,-6.75966 -0.70483,-13.50999 -1.69971,-20.19743 -1.17536,-7.83847 -3.0072,-15.85721 -5.41695,-23.52049 -0.94193,-2.97806 -1.93061,-5.84015 -2.99265,-8.64216 C 638.94899,106.69611 632.4728,94.636809 624.63906,83.728589 613.68675,68.389731 599.71235,54.923201 583.93568,44.425913 581.76715,42.996807 579.62765,41.634571 577.47063,40.356041 563.44441,31.965769 548.09831,25.797971 532.17406,22.120382 519.87633,19.285345 506.99022,17.913427 494.2866,18.071177 Z m 2.7657,14.835448 c 26.81753,-0.06037 53.61356,7.668456 76.21197,22.124598 23.40015,14.861746 42.28104,36.728313 53.52094,62.072544 8.47097,18.98706 12.57693,39.8566 12.19865,60.63173 -8.4e-4,25.81592 -10e-4,51.63184 -0.003,77.44775 -19.94349,0 -39.88699,0 -59.83048,0 -0.0183,-27.67756 0.0499,-55.35608 -0.048,-83.03304 -0.0792,-3.08228 -0.36784,-6.17344 -0.78632,-9.12024 -2.40748,-16.90519 -10.24588,-32.98667 -22.14711,-45.24049 -15.8886,-16.63653 -38.95025,-25.921201 -61.9821,-24.998661 -2.06955,0.0646 -4.62975,0.26306 -6.78,0.51018 -17.69454,2.00049 -34.6345,10.006121 -47.39586,22.428121 -10.9388,10.49737 -18.85027,24.09642 -22.54689,38.80133 -0.28877,1.21099 -0.67323,2.79787 -0.93147,4.16811 -0.66817,3.30307 -1.12667,6.88503 -1.36433,10.09271 -0.11494,1.69628 -0.18398,3.20332 -0.20512,4.96194 -0.0243,27.14316 -0.006,54.28673 -0.0151,81.43004 -19.94349,0 -39.88699,0 -59.83048,0 0.0173,-27.95436 -0.0482,-55.90947 0.0468,-83.86337 0.57796,-26.65633 8.89868,-53.09277 23.74294,-75.246281 16.10021,-24.202521 39.81199,-43.260128 66.95544,-53.684899 16.28211,-6.284475 33.73897,-9.495651 51.18906,-9.482072 z M 447.08478,270.81095 c 12.08381,0.15097 23.90979,6.3875 30.82367,16.30749 5.01779,7.03551 7.4395,15.77834 7.09601,24.38915 -10e-4,106.03035 0.0137,212.0611 -0.02,318.09118 -0.29438,11.92628 -6.5013,23.53542 -16.28798,30.36852 -7.00081,4.98583 -15.68267,7.42917 -24.25183,7.10181 -115.32472,-0.005 -230.64984,0.0137 -345.974308,-0.0221 -11.97013,-0.2966 -23.61567,-6.55823 -30.43617,-16.40713 -4.96054,-7.01946 -7.35715,-15.7124 -7.01485,-24.2782 10e-4,-106.02944 -0.0138,-212.0593 0.02,-318.08848 0.29349,-11.95238 6.52613,-23.58363 16.34775,-30.41332 6.94743,-4.93038 15.54228,-7.35534 24.036928,-7.05973 115.22026,-0.005 230.44054,-10e-4 345.66082,0.011 z" />
   <rect
      style="opacity:0.985669;fill:#ececec;stroke:none;stroke-width:0.312607;stroke-linejoin:round;stroke-miterlimit:4;stroke-dasharray:none;stroke-opacity:1"
      id="qrcode-rect"
      width="347.17841"
      height="347.17841"
      x="94.69632"
      y="294.23926" />
</svg>