<?xml version="1.0" encoding="UTF-8" standalone="no"?>
<svg
   version="1.1"
   viewBox="0 0 700 700"
   width="700pt"
   height="700pt"
   id="svg825"
   sodipodi:docname="furniture.svg"
   inkscape:version="1.1.2 (b8e25be8, 2022-02-05)"
   xmlns:inkscape="http://www.inkscape.org/namespaces/inkscape"
   xmlns:sodipodi="http://sodipodi.sourceforge.net/DTD/sodipodi-0.dtd"
   xmlns="http://www.w3.org/2000/svg"
   xmlns:svg="http://www.w3.org/2000/svg">
   <defs
      id="defs829" />
   <sodipodi:namedview
      id="namedview827"
      pagecolor="#ffffff"
      bordercolor="#666666"
      borderopacity="1.0"
      inkscape:pageshadow="2"
      inkscape:pageopacity="0.0"
      inkscape:pagecheckerboard="0"
      inkscape:document-units="pt"
      showgrid="false"
      inkscape:zoom="0.7060547"
      inkscape:cx="385.94743"
      inkscape:cy="534.66112"
      inkscape:window-width="1680"
      inkscape:window-height="925"
      inkscape:window-x="0"
      inkscape:window-y="23"
      inkscape:window-maximized="0"
      inkscape:current-layer="svg825" />
   <path
      id="dummy-data-area"
      transform="scale(0.75)"
      style="fill:#999999;stroke:none;stroke-width:0.75"
      d="m 281.8747,443.90244 v -320.7078 h 184.79197 184.79196 v 320.7078 320.70779 H 466.66667 281.8747 Z" />
   <path
      id="frame-node"
      style="fill:#000000;stroke:#000000;stroke-width:4;"
      d="m 350,597.41186 c -18.71315,0 -33.89051,15.17736 -33.89051,33.89051 0,18.71315 15.17736,33.89051 33.89051,33.89051 18.71314,0 33.8905,-15.17736 33.8905,-33.89051 0,-18.71853 -15.17736,-33.89051 -33.8905,-33.89051 z m 0,54.22696 c -11.21632,0 -20.33645,-9.12013 -20.33645,-20.33645 0,-11.21633 9.12013,-20.33646 20.33645,-20.33646 11.21632,0 20.33646,9.12013 20.33646,20.33646 0,11.21632 -9.12014,20.33645 -20.33646,20.33645 z M 316.10814,44.973338 h 67.78102 V 58.527389 H 316.10814 Z M 197.48667,587.2443 h 305.02666 l -0.005,-508.377765 H 197.48129 Z M 211.04072,92.423279 H 488.95389 V 573.68756 H 211.04072 Z M 502.51333,11.082832 H 197.48667 c -18.71315,0 -33.89051,15.177363 -33.89051,33.890506 V 655.02666 c 0,18.71315 15.17736,33.89051 33.89051,33.89051 h 305.02666 c 18.71315,0 33.89051,-15.17736 33.89051,-33.89051 V 44.973338 c 0.005,-18.713143 -15.17199,-33.890506 -33.89051,-33.890506 z m 20.33646,643.945178 c 0,11.21631 -9.12014,20.33645 -20.33646,20.33645 H 197.48667 c -11.21632,0 -20.33646,-9.12014 -20.33646,-20.33645 V 44.974684 c 0,-11.216321 9.12014,-20.336457 20.33646,-20.336457 h 305.02666 c 11.21632,0 20.33646,9.120136 20.33646,20.336457 z" />
   <rect
      style="opacity:0.985669;fill:#ececec;stroke:none;stroke-width:0.200701;stroke-linejoin:round;stroke-miterlimit:4;stroke-dasharray:none;stroke-opacity:1"
      id="qrcode-rect"
      width="222.89627"
      height="222.89627"
      x="237.10625"
      y="121.78276" />
</svg>