<?xml version="1.0" encoding="UTF-8" standalone="no"?>
<svg
   version="1.1"
   viewBox="0 0 700 700"
   width="700pt"
   height="700pt"
   id="svg825"
   sodipodi:docname="pet.svg"
   inkscape:version="1.1.2 (b8e25be8, 2022-02-05)"
   xmlns:inkscape="http://www.inkscape.org/namespaces/inkscape"
   xmlns:sodipodi="http://sodipodi.sourceforge.net/DTD/sodipodi-0.dtd"
   xmlns="http://www.w3.org/2000/svg"
   xmlns:svg="http://www.w3.org/2000/svg">
   <defs
      id="defs829" />
   <sodipodi:namedview
      id="namedview827"
      pagecolor="#ffffff"
      bordercolor="#666666"
      borderopacity="1.0"
      inkscape:pageshadow="2"
      inkscape:pageopacity="0.0"
      inkscape:pagecheckerboard="0"
      inkscape:document-units="pt"
      showgrid="false"
      inkscape:zoom="0.35302735"
      inkscape:cx="355.49654"
      inkscape:cy="570.77731"
      inkscape:window-width="1312"
      inkscape:window-height="925"
      inkscape:window-x="0"
      inkscape:window-y="23"
      inkscape:window-maximized="0"
      inkscape:current-layer="svg825" />
   <path
      id="dummy-data-area"
      transform="scale(0.75)"
      style="fill:#999999;stroke:none;stroke-width:0.75"
      d="m 774.9976,478.6838 c -22.92974,-4.16696 -41.25688,-19.30145 -50.62582,-41.80666 -5.1896,-12.46598 -6.88734,-22.53861 -6.36656,-37.77268 0.55319,-16.18263 2.59491,-24.62135 9.16366,-37.87468 20.17899,-40.71384 63.36209,-58.01978 98.7837,-39.58829 4.83137,2.51399 9.33492,6.04914 15.46152,12.13683 7.57966,7.53152 9.2386,9.80969 13.46716,18.49398 7.70209,15.81798 10.69503,32.57735 8.70162,48.72589 -2.92741,23.71489 -12.31578,42.49906 -29.18013,58.38331 -11.09903,10.45399 -23.37442,16.843 -37.1407,19.33071 -8.62591,1.55879 -13.56519,1.55248 -22.26445,-0.0284 z M 588.47787,288.40193 c -3.12466,-0.7212 -8.60819,-2.41929 -12.18561,-3.77354 -25.84613,-9.78411 -46.53686,-35.91651 -54.05329,-68.26927 -12.54615,-54.00203 13.50875,-114.92177 58.51705,-136.820521 12.33488,-6.001524 18.69251,-7.498431 36.0929,-8.498095 12.77269,-0.7338 14.40462,-0.650591 16.57017,0.844873 1.32118,0.912361 5.38476,2.831774 9.0302,4.265362 9.69592,3.812973 17.03801,8.589807 25.225,16.41161 20.61127,19.691881 31.32464,46.776671 31.36471,79.294021 0.0343,27.85934 -6.94419,51.50379 -21.77706,73.78448 -14.03292,21.07911 -33.60166,35.74266 -55.78182,41.79932 -7.67011,2.09445 -25.80503,2.62295 -33.00225,0.96176 z m -294.47565,-0.0612 c -33.26014,-7.31833 -60.5969,-34.04478 -74.10956,-72.45502 -10.52491,-29.91744 -9.61891,-63.688 2.4603,-91.70597 9.56288,-22.1813 27.13481,-40.24506 46.44228,-47.742172 22.19516,-8.618408 44.00581,-6.946462 66.31896,5.083833 17.20546,9.276449 32.76673,26.113189 43.4079,46.965799 9.80434,19.21276 13.7363,35.83521 13.84239,58.51906 0.0789,16.87526 -1.01956,24.80331 -5.31335,38.34812 -5.53229,17.45171 -13.58614,30.75354 -25.60873,42.29571 -11.91497,11.43885 -23.11635,17.46642 -38.56075,20.74989 -7.64243,1.62478 -21.35377,1.59665 -28.87944,-0.0593 z M 113.48801,478.69499 C 99.699419,475.80738 88.63728,469.81532 77.164422,459.01947 60.308253,443.15796 50.91523,424.14069 48.277467,400.53446 c -4.406562,-39.43583 18.952009,-76.74288 53.037303,-84.70832 23.56265,-5.50639 51.09704,3.83972 68.58584,23.28038 29.543,32.84018 32.8064,81.70631 7.68806,115.12109 -14.02237,18.65388 -41.59852,29.17975 -64.10066,24.46738 z M 300.15685,886.6165 c -23.45226,-2.93656 -48.81993,-12.10613 -67.9032,-24.54475 -55.29602,-36.04237 -82.82193,-100.74784 -69.78187,-164.03704 2.61928,-12.71255 6.94002,-24.88054 13.68584,-38.54181 8.12644,-16.45722 17.84694,-29.6226 31.80941,-43.08245 11.56924,-11.15277 22.43459,-18.95268 38.32705,-27.51381 13.77375,-7.4198 20.59895,-12.33287 28.41146,-20.45176 14.60835,-15.18123 21.50203,-30.34226 25.97986,-57.13668 10.79727,-64.60841 59.80997,-115.48714 124.08433,-128.80851 19.67743,-4.07831 44.72677,-3.85901 64.44854,0.56422 43.13316,9.67398 79.04025,35.45944 101.7625,73.07729 10.40124,17.21977 16.34549,33.74625 20.7542,57.70167 5.0233,27.29496 11.41067,40.43308 27.30878,56.17109 9.09949,9.00786 11.0553,10.33724 33.70528,22.90987 18.17373,10.08794 38.74151,28.7589 51.46351,46.7174 7.20939,10.17686 17.02409,29.80719 20.90874,41.81948 23.83854,73.71461 -10.71569,154.34211 -81.27174,189.63632 -23.18845,11.59955 -48.47201,16.87743 -75.76096,15.8149 -29.33596,-1.14222 -54.70652,-9.51705 -81.55608,-26.92169 -18.52341,-12.0074 -30.53935,-15.75718 -50.61602,-15.79561 -20.52594,-0.0393 -30.6115,3.22297 -52.52665,16.99014 -19.21056,12.06814 -36.36708,19.14301 -56.41466,23.26383 -9.19046,1.88912 -38.28537,3.23635 -46.81832,2.1679 z" />
   <path
      id="frame-node"
      style="fill:#000000;stroke:#000000;stroke-width:0"
      d="m 475.24023,44.630859 c -1.47052,0.169098 -2.62932,1.190419 -3.78515,2.023438 -1.91658,-0.274726 -3.81817,-0.486309 -5.63603,-0.594138 -4.88532,-0.301378 -9.68175,-0.0558 -14.53975,0.707419 -2.1413,0.339167 -4.55764,0.839351 -6.79281,1.436823 -10.31856,2.705852 -19.96763,7.889383 -27.92876,14.989038 -12.36627,10.836759 -22.01495,24.749559 -27.77372,40.153531 -1.50472,3.98694 -2.73204,8.07708 -3.70589,12.2253 -0.13442,0.64295 -0.33887,1.49112 -0.47138,2.15976 -0.80776,3.84526 -1.46168,7.83484 -1.86568,11.72591 -1.80957,16.95841 0.33636,34.45736 7.08126,50.17868 5.62845,13.20592 14.52613,25.2237 26.35388,33.49614 7.3761,5.19924 15.86128,8.8337 24.74958,10.4356 1.79277,0.32289 3.80083,0.6058 5.69541,0.76751 10.7644,0.95185 21.72527,-0.99112 31.59998,-5.34703 10.10586,-4.39988 19.13259,-11.09579 26.64211,-19.13337 1.03816,-1.12332 2.20971,-2.43019 3.24805,-3.66992 15.51532,-18.56616 23.68019,-42.83756 23.60245,-66.95156 -0.005,-2.02854 -0.0681,-4.10925 -0.19316,-6.0446 -0.0682,-1.26127 -0.16847,-2.43042 -0.28998,-3.73973 C 529.54373,101.6235 523.0445,84.040475 511.5586,70.184712 503.61547,60.590841 493.15661,52.950969 481.29492,49 479.97295,47.279508 478.428,45.558929 476.375,44.736328 c -0.37111,-0.09565 -0.75272,-0.12136 -1.13477,-0.105469 z m -255.07617,1.357422 c -14.72949,0.319337 -29.11099,6.377475 -40.04434,16.175648 -4.84045,4.322026 -9.0903,9.290487 -12.70761,14.673962 -0.79584,1.190376 -1.68305,2.597581 -2.45796,3.907268 -9.07824,15.412276 -13.14582,33.496211 -12.73517,51.306171 0.009,0.8019 0.0543,1.78253 0.0818,2.52679 0.50632,10.2466 2.46197,20.42099 5.82227,30.11524 1.90318,5.47036 4.32211,10.96407 7.16112,16.09854 1.01735,1.83556 1.98787,3.48184 3.12527,5.27303 2.87369,4.52724 6.16852,8.85302 9.72871,12.77452 9.49083,10.46906 21.549,18.85345 35.15465,22.9389 1.75091,0.53313 3.49233,0.98143 5.16846,1.34155 5.49873,1.19801 11.15567,1.67275 16.77702,1.38987 1.04594,-0.06 2.40028,-0.15978 3.45812,-0.28034 12.78757,-1.38684 25.01904,-6.96072 34.64783,-15.45944 1.99047,-1.72837 4.03829,-3.73265 5.87675,-5.7462 7.0549,-7.70698 12.4668,-16.84938 16.18136,-26.59801 0.5332,-1.39505 1.0932,-2.97918 1.55708,-4.41533 0.74643,-2.27923 1.40931,-4.61703 1.99175,-6.98897 0.33974,-1.42926 0.7169,-3.08287 1.0027,-4.61367 0.92491,-4.76168 1.4817,-9.5915 1.72582,-14.43515 0.0227,-0.5963 0.0625,-1.6124 0.0804,-2.25428 0.22123,-8.3063 -0.55578,-16.62925 -2.20147,-24.77111 -0.44349,-2.18148 -1.0015,-4.53533 -1.60998,-6.75364 -2.04305,-7.49503 -5.01521,-14.941164 -8.7773,-21.826367 -4.6939,-8.626404 -10.84362,-16.602693 -17.90471,-23.516614 -4.53219,-4.413747 -9.44724,-8.319565 -14.87553,-11.593036 -10.89931,-6.381351 -23.60712,-9.599053 -36.22701,-9.269332 z m 251.78516,9.371094 c 1.87637,0.1642 2.89412,2.087591 4.66686,2.539585 1.95089,0.630682 3.92696,1.198474 5.78511,2.082523 10.29383,4.456594 19.11893,12.030255 25.42395,21.275619 8.65399,12.595748 13.18109,27.754188 13.95663,42.950218 1.06309,21.00445 -4.62992,42.42928 -16.5952,59.78656 -7.42674,10.77033 -17.43578,19.94935 -29.38514,25.43709 -8.95117,4.14995 -18.99108,6.05265 -28.83027,5.0394 -11.14585,-1.05352 -21.79705,-5.89691 -30.20948,-13.23474 -9.50526,-8.21411 -16.22372,-19.32031 -20.21559,-31.1589 -4.78891,-14.19301 -5.68031,-29.55172 -3.43689,-44.31587 2.3811,-15.59542 8.64791,-30.648664 18.45826,-43.040516 4.94728,-6.234876 10.67696,-11.902328 17.21965,-16.456672 5.84236,-4.036888 12.4158,-6.992263 19.31193,-8.686126 6.50333,-1.651285 13.24667,-2.177012 19.94041,-1.976316 1.31058,0.03675 2.60841,-0.191227 3.90977,-0.241855 z M 221.76367,55.75 c 15.99217,0.154164 31.69997,7.053675 42.90271,18.418069 12.84445,12.62033 21.75486,29.156391 25.28688,46.810161 2.32708,11.44996 2.65397,23.31857 0.88168,34.87066 -2.30812,14.75166 -8.3442,29.14236 -18.4365,40.2722 -7.19627,7.93871 -16.53222,14.06845 -26.93836,16.8174 -12.02669,3.30231 -25.1522,2.06234 -36.47968,-3.09021 -13.36622,-5.92891 -24.37443,-16.42084 -32.13526,-28.70416 -13.30206,-20.93184 -17.92807,-47.13684 -12.78655,-71.38243 2.91352,-13.615349 9.13853,-26.710727 18.85327,-36.792022 7.62536,-7.904901 17.49983,-13.75818 28.29467,-16.013243 3.46901,-0.741326 7.00612,-1.200211 10.55714,-1.206425 z m 373.85352,172.56055 c -14.82041,0.1657 -29.2676,6.54156 -39.96077,16.6969 -4.31969,3.94856 -8.16102,8.4133 -11.45915,13.24646 -0.45789,0.68189 -1.08174,1.60998 -1.57159,2.40671 -6.63703,10.54328 -10.79948,22.86765 -11.59626,35.41722 -0.93976,13.36349 1.61631,27.00097 7.60925,39.00224 0.3783,0.73221 0.88995,1.7294 1.35103,2.54449 7.5795,13.88468 21.2805,24.17202 36.63002,27.87005 5.41221,1.30189 11.02354,1.76517 16.57559,1.35694 9.58811,-0.69314 19.16342,-3.84205 27.36335,-8.99366 11.81053,-7.40703 21.27846,-18.37296 27.2672,-30.93305 6.38766,-13.4476 8.77196,-28.75026 6.84992,-43.50883 -0.0849,-0.55696 -0.16746,-1.24862 -0.26876,-1.83463 -0.90494,-5.71999 -2.49969,-11.33181 -4.76249,-16.66342 -0.47755,-1.09875 -1.0696,-2.41815 -1.64855,-3.57562 -6.03626,-12.20259 -16.04522,-22.63984 -28.56271,-28.20785 -1.04187,-0.46276 -2.10511,-0.89432 -3.08305,-1.25863 -2.11707,-0.79383 -4.3167,-1.46353 -6.43392,-1.9748 -4.67431,-1.12917 -9.49106,-1.66244 -14.29911,-1.59052 z m -509.578128,0.004 c -16.353205,0.26915 -32.3847,8.24972 -42.458823,21.13522 -2.900914,3.58411 -5.389639,7.49555 -7.466958,11.61088 -0.436885,0.8919 -0.988691,2.02235 -1.425735,3.02944 -4.794059,10.77945 -6.710546,22.75009 -5.904422,34.50009 0.223929,3.40251 0.668696,6.77347 1.320507,10.06656 0.847773,4.31307 2.079069,8.58331 3.60926,12.63633 2.753909,7.27481 6.647067,14.1969 11.533877,20.32192 2.218501,2.78326 4.553493,5.31611 7.152533,7.76527 1.477257,1.39208 3.144543,2.82763 4.735595,4.08374 7.799637,6.19084 17.02087,10.66868 26.832348,12.51178 1.834792,0.35202 3.747039,0.61808 5.512589,0.78059 1.704414,0.15285 3.211987,0.23096 4.917041,0.23752 9.490846,0.0601 18.966476,-2.41497 27.229626,-7.08035 10.73693,-5.99346 19.53754,-15.44531 24.58444,-26.67321 0.73092,-1.61622 1.48482,-3.44821 2.1175,-5.19141 1.06306,-2.90767 2.03773,-6.00363 2.72535,-9.02668 2.23807,-9.58655 2.61664,-19.54095 1.14257,-29.24049 -0.23617,-1.55108 -0.51155,-2.99256 -0.82331,-4.48087 -0.23269,-1.06513 -0.53889,-2.37817 -0.85171,-3.52807 -4.75527,-17.84622 -16.11715,-33.95115 -31.64243,-44.02857 -0.82577,-0.53376 -1.88831,-1.19036 -2.83135,-1.72793 -5.13182,-2.98149 -10.73497,-5.13313 -16.535841,-6.3834 -0.606077,-0.116 -1.534148,-0.32036 -2.270238,-0.43791 -3.693896,-0.6543 -7.452388,-0.93227 -11.202419,-0.88045 z m 1.275391,9.81641 c 13.167817,0.15894 25.977467,5.91479 35.396947,15.0158 10.2463,9.74408 17.13653,22.863 19.60138,36.76829 2.28637,12.69742 0.82441,26.08126 -4.41691,37.89082 -3.55369,8.1329 -9.0241,15.57192 -16.3608,20.66969 -10.96622,7.81092 -25.377851,10.76761 -38.46865,7.41646 -10.035681,-2.47687 -18.983711,-8.36179 -26.080071,-15.77856 -9.123823,-9.47647 -15.306704,-21.72815 -17.51174,-34.69734 -2.397739,-13.56716 -0.824223,-28.0091 5.474807,-40.35041 5.395534,-10.68622 14.567311,-19.63015 25.832399,-23.90833 5.261332,-2.01771 10.901332,-3.01516 16.532638,-3.02642 z m 509.972657,0.0117 c 12.44101,0.003 24.64739,5.58428 33.09615,14.66068 8.64503,9.18697 13.59356,21.47699 14.79962,33.9559 1.67276,16.98181 -3.20972,34.60618 -13.708,48.09841 -6.70575,8.52886 -15.48203,15.6173 -25.67263,19.50207 -14.71752,5.45765 -32.14683,2.88943 -44.58073,-6.72333 -8.62449,-6.57762 -14.68608,-16.18742 -17.63294,-26.57029 -3.27769,-10.7783 -3.77397,-22.37353 -1.45972,-33.39713 3.30487,-15.84206 12.5833,-30.42896 25.74028,-39.89545 6.67112,-4.78517 14.46447,-8.0579 22.62285,-9.13274 2.25085,-0.3175 4.52247,-0.4766 6.79512,-0.49812 z m -257.32813,39.29101 c -1.98888,0.0404 -3.91862,0.10618 -5.84536,0.23125 -9.94572,0.61588 -19.91825,2.47 -29.49965,5.44126 -4.06793,1.26081 -8.28561,2.8082 -12.29366,4.5189 -8.69046,3.70899 -17.11183,8.46241 -24.77734,14.0957 -1.52465,1.11731 -3.0299,2.2782 -4.53516,3.48828 -10.73474,8.64208 -20.06576,19.23134 -27.39258,30.96485 -1.17592,1.90368 -2.28026,3.77403 -3.38476,5.76172 -0.36162,0.66867 -0.87131,1.58911 -1.22719,2.28279 -6.50849,12.32463 -10.89915,25.75235 -12.97125,39.53391 -0.78805,5.18876 -1.57113,10.42599 -3.43139,15.36164 -4.00407,11.38992 -11.40976,21.56289 -21.07872,28.80458 -4.22934,3.23671 -8.91837,5.80165 -13.70778,8.10292 -3.1555,1.61254 -6.21159,3.37445 -9.16422,5.23647 -21.79265,13.69457 -39.20215,34.26327 -49.00154,58.07219 -1.60219,3.84965 -3.00648,7.82515 -4.19526,11.75784 -0.44235,1.4846 -0.92808,3.18466 -1.33129,4.76973 -0.76494,2.94599 -1.40883,5.87534 -1.94838,8.82203 -1.13087,6.12975 -1.80015,12.46756 -1.99376,18.61918 -0.10194,3.23537 -0.0701,6.4828 0.0742,9.65429 0.0575,0.83689 0.10685,1.98191 0.17766,2.8362 0.98622,13.82818 4.43939,27.5208 9.9239,40.27318 1.47159,3.40979 3.17748,6.93645 4.94726,10.22266 0.69322,1.26708 1.43351,2.60543 2.18578,3.88504 8.72304,14.95507 20.57092,28.06848 34.56963,38.25613 1.74928,1.27993 3.71061,2.63398 5.59616,3.86469 15.26888,9.95424 32.78398,16.6077 50.77343,19.21289 5.43654,0.79125 10.9746,1.22449 16.40467,1.27876 11.10379,0.12615 22.21832,-1.30807 32.94494,-4.17134 0.84089,-0.23906 1.79436,-0.48451 2.66072,-0.74668 6.96323,-2.02488 13.74489,-4.66785 20.25335,-7.86465 3.60011,-1.77369 7.28875,-3.81319 10.75802,-5.97825 5.50501,-3.46732 10.77476,-7.4402 16.87614,-9.83635 14.28917,-5.6931 30.91152,-5.63551 44.96205,0.76248 7.68844,3.4586 14.23921,8.9001 21.67116,12.82522 6.98265,3.82312 14.39246,6.93144 22.0356,9.32924 9.15814,2.85129 18.75591,4.66877 28.37671,5.34688 1.81129,0.12581 3.76233,0.22378 5.59239,0.26736 11.66584,0.30332 23.42631,-1.05844 34.73049,-4.14796 7.69452,-2.06859 15.10977,-4.80548 22.29071,-8.2687 2.24428,-1.07627 4.4394,-2.21744 6.562,-3.39372 15.16905,-8.40782 28.63087,-19.92052 39.15644,-33.71479 1.14584,-1.51224 2.39512,-3.19538 3.51351,-4.82389 1.43266,-2.0532 2.81595,-4.18841 4.07602,-6.25832 4.42258,-7.22398 8.15138,-15.04967 11.01008,-22.91584 5.87866,-16.19667 8.45523,-33.6165 7.21289,-50.81641 -0.27422,-3.8283 -0.75308,-7.87202 -1.39687,-11.66192 -0.86711,-5.19936 -2.1014,-10.40049 -3.59563,-15.38272 -3.34631,-11.10401 -8.21894,-21.74613 -14.44695,-31.52958 -0.51334,-0.77858 -1.05195,-1.63593 -1.60175,-2.4417 -12.34129,-18.43357 -29.75325,-33.35537 -49.68644,-43.04339 -5.83797,-2.85538 -11.27381,-6.55497 -15.94207,-11.08603 -9.99071,-9.6269 -16.69113,-22.65314 -18.47936,-36.43003 -1.04148,-7.10968 -2.38768,-14.19415 -4.54038,-21.05939 -2.31471,-7.4662 -5.36549,-14.8692 -9.06318,-21.82534 -1.34973,-2.5431 -2.76942,-5.00786 -4.23754,-7.37615 -1.36422,-2.19906 -2.72341,-4.24179 -4.17961,-6.3038 -9.40265,-13.33164 -21.42913,-24.8184 -35.26779,-33.47002 -4.47585,-2.81499 -9.13414,-5.33666 -13.92571,-7.57157 -1.13238,-0.50655 -2.48424,-1.13426 -3.71844,-1.6478 -7.25786,-3.08888 -14.68403,-5.45578 -22.37158,-7.15808 -6.57998,-1.45431 -13.45173,-2.40528 -20.18348,-2.77733 -2.94274,-0.16278 -5.93018,-0.22617 -8.91986,-0.17851 z m 2.08985,9.62891 c 28.80713,0.0342 57.4972,11.21807 78.54297,30.92188 18.80244,17.53291 31.63162,41.43353 35.49319,66.87734 0.86176,5.49207 1.73007,11.01347 3.47751,16.3082 0.34723,1.03824 0.79518,2.31606 1.24853,3.42301 0.7417,1.81151 1.45003,3.50514 2.32965,5.29067 7.12324,14.67137 19.37338,26.78164 34.14838,33.69648 7.70953,3.88649 15.11933,8.42739 21.77741,13.94367 19.3539,15.68646 33.56449,37.71646 39.46869,61.95086 4.85231,19.59762 4.51446,40.49714 -1.29168,59.85397 -6.95047,23.52401 -21.4484,44.79039 -40.98058,59.66015 -21.43219,16.38007 -48.66714,25.17782 -75.65524,23.8316 -20.89443,-0.99948 -41.45663,-7.89091 -58.77067,-19.62271 -4.32901,-2.87712 -8.71922,-5.73282 -13.55861,-7.68694 -9.79911,-4.17738 -20.60373,-5.93021 -31.22369,-5.17279 -0.48586,0.0409 -1.37338,0.10437 -1.83361,0.15629 -10.51102,1.00413 -20.7209,4.6414 -29.60171,10.33363 -3.25226,2.03869 -6.55229,4.39765 -9.93769,6.38832 -24.79276,14.61013 -55.24075,19.38381 -83.28126,12.8195 -26.92017,-6.23275 -51.52911,-22.25406 -67.82014,-44.61191 -15.19897,-20.76366 -23.47308,-46.64137 -22.50371,-72.40146 0.99072,-26.75465 11.55339,-53.09333 29.54217,-72.95125 10.27617,-11.44667 22.89915,-20.7191 36.74845,-27.38351 7.09193,-3.58199 13.656,-8.24778 19.17597,-13.97693 5.16991,-5.301 9.49395,-11.41465 12.82598,-18.02502 0.4441,-0.90603 1.00482,-2.05705 1.45224,-3.0776 0.8132,-1.83268 1.4872,-3.52603 2.15529,-5.41915 1.75484,-4.92669 2.85898,-10.06026 3.54582,-15.23838 1.01013,-6.67565 2.35621,-13.32058 4.50949,-19.72929 8.04183,-24.93113 24.72683,-47.05026 46.74246,-61.30518 18.20586,-11.86153 39.78013,-18.55174 61.52451,-18.81142 0.5833,-0.0138 1.16657,-0.0294 1.74988,-0.042 z" />
   <rect
      style="opacity:0.985669;fill:#ececec;stroke:none;stroke-width:0.191137;stroke-linejoin:round;stroke-miterlimit:4;stroke-dasharray:none;stroke-opacity:1"
      id="qrcode-rect"
      width="212.27386"
      height="212.27386"
      x="237.03941"
      y="399.37552" />
</svg>