<?xml version="1.0" encoding="UTF-8" standalone="no"?>
<svg
   version="1.1"
   x="0px"
   y="0px"
   viewBox="0 0 496.98261 444.45703"
   enable-background="new 0 0 512 512"
   xml:space="preserve"
   id="svg834"
   sodipodi:docname="piggy-bank.svg"
   width="496.9826"
   height="444.45703"
   inkscape:version="1.1.2 (b8e25be8, 2022-02-05)"
   xmlns:inkscape="http://www.inkscape.org/namespaces/inkscape"
   xmlns:sodipodi="http://sodipodi.sourceforge.net/DTD/sodipodi-0.dtd"
   xmlns="http://www.w3.org/2000/svg"
   xmlns:svg="http://www.w3.org/2000/svg"><defs
     id="defs838" /><sodipodi:namedview
     id="namedview836"
     pagecolor="#ffffff"
     bordercolor="#666666"
     borderopacity="1.0"
     inkscape:pageshadow="2"
     inkscape:pageopacity="0.0"
     inkscape:pagecheckerboard="0"
     showgrid="false"
     fit-margin-top="0"
     fit-margin-left="0"
     fit-margin-right="0"
     fit-margin-bottom="0"
     inkscape:snap-object-midpoints="false"
     inkscape:zoom="1.11875"
     inkscape:cx="446.48045"
     inkscape:cy="274.86034"
     inkscape:window-width="1680"
     inkscape:window-height="821"
     inkscape:window-x="0"
     inkscape:window-y="25"
     inkscape:window-maximized="0"
     inkscape:current-layer="svg834" /><path
     id="frame-node"
     d="m 259.75391,2.5 c -42.64856,0 -77.29469,34.171386 -78.10743,76.625 l -63.2871,-42.761719 c -2.29883,-1.553711 -5.26806,-1.710937 -7.71876,-0.410156 -2.4497,1.301758 -3.98046,3.848633 -3.98046,6.623047 V 102.95898 C 80.299313,117.23535 58.378906,139.2705 44.236328,165.70312 H 27.814453 C 13.855956,165.70312 2.5,177.05957 2.5,191.01758 v 93.625 c 0,13.95801 11.355956,25.3125 25.314453,25.3125 h 16.419922 c 12.194336,22.83008 29.979491,42.22851 51.726563,56.38672 l 37.964842,60.63086 c 5.875,9.38282 15.9917,14.98437 27.0625,14.98437 h 35.60547 c 17.60644,0 31.92969,-14.32324 31.92969,-31.92969 v -18.94531 h 61.55468 v 18.94531 c 0,17.60645 14.3252,31.92969 31.93165,31.92969 h 34.16211 c 12.06932,0 22.97021,-6.68067 28.44921,-17.43555 l 48.48633,-95.16406 c 19.84423,-26.60156 30.32813,-58.23535 30.32813,-91.52734 0,-21.77345 -4.57478,-42.4961 -12.79688,-61.27149 2.0224,0.32373 4.0459,0.49024 6.05664,0.49024 7.76612,0 15.32959,-2.39161 21.79688,-6.97071 8.2539,-5.84374 13.73779,-14.55078 15.4414,-24.51953 1.70411,-9.96777 -0.57617,-20.0039 -6.41992,-28.25781 -5.84326,-8.25391 -14.55078,-13.73731 -24.51953,-15.4414 -9.96777,-1.70508 -20.00195,0.57617 -28.25586,6.41992 -3.38086,2.39355 -4.18067,7.07422 -1.78711,10.45508 2.39404,3.38085 7.07373,4.18065 10.45313,1.7871 4.98388,-3.52735 11.04394,-4.90429 17.0625,-3.87695 6.01904,1.0293 11.27636,4.33984 14.80468,9.32422 3.52832,4.9834 4.90577,11.04395 3.87696,17.0625 -1.0293,6.01856 -4.34082,11.27637 -9.32422,14.80469 -4.9834,3.5293 -11.04053,4.90234 -17.06055,3.875 -6.01905,-1.02832 -11.27832,-4.33887 -14.80664,-9.32227 -0.52777,-0.74511 -1.17114,-1.35791 -1.88281,-1.8457 -22.72229,-32.67188 -57.81434,-56.123051 -98.44336,-63.500001 0.17138,-2.11132 0.26758,-4.243168 0.26758,-6.398438 C 337.89844,37.486816 302.91199,2.5 259.75391,2.5 Z m 0,25.242188 c 4.14209,0 7.5,3.357421 7.5,7.5 v 9.730468 h 21.87695 c 4.14209,0 7.5,3.357422 7.5,7.5 0,4.142578 -3.35791,7.5 -7.5,7.5 h -44.66992 c -3.63134,0 -6.58399,2.954108 -6.58399,6.585938 0,3.63184 2.95265,6.585937 6.58399,6.585937 h 30.58398 c 11.90235,0 21.58594,9.683598 21.58594,21.585938 0,11.902341 -9.68359,21.585941 -21.58594,21.585941 h -7.79101 v 9.72851 c 0,4.14258 -3.35791,7.5 -7.5,7.5 -4.14209,0 -7.5,-3.35742 -7.5,-7.5 v -9.72851 h -21.87696 c -4.14209,0 -7.5,-3.35742 -7.5,-7.5 0,-4.14258 3.35791,-7.5 7.5,-7.5 h 44.66797 c 3.63135,0 6.58594,-2.954101 6.58594,-6.585941 0,-3.63184 -2.95459,-6.585938 -6.58594,-6.585938 h -30.58398 c -11.90234,0 -21.58399,-9.683587 -21.58399,-21.585937 0,-11.902341 9.68165,-21.585938 21.58399,-21.585938 h 7.79297 v -9.730468 c 0,-4.142579 3.35791,-7.5 7.5,-7.5 z m -138.09375,28.953124 61.5625,41.597657 c 0.14727,0.0996 0.30767,0.175292 0.46093,0.263672 3.49079,14.863279 11.22205,28.087399 21.85352,38.332029 H 189.875 c -4.14209,0 -7.5,3.35742 -7.5,7.5 0,4.14258 3.35791,7.5 7.5,7.5 h 147.93945 c 4.14209,0 7.5,-3.35742 7.5,-7.5 0,-4.14258 -3.35791,-7.5 -7.5,-7.5 h -23.8457 c 9.84937,-9.49121 17.21533,-21.53856 21.02148,-35.07812 64.43475,11.72217 113.44532,68.25486 113.44532,136.01953 0,30.24121 -9.58741,58.96094 -27.72461,83.05469 -0.31787,0.42285 -0.58545,0.86913 -0.80274,1.33398 l -48.65234,95.49414 c -2.90528,5.70215 -8.68457,9.24414 -15.08398,9.24414 h -34.16211 c -9.33545,0 -16.93165,-7.59473 -16.93165,-16.92969 v -26.44531 c 0,-4.14258 -3.3579,-7.5 -7.5,-7.5 h -76.55468 c -4.14209,0 -7.5,3.35742 -7.5,7.5 v 26.44531 c 0,9.33496 -7.59424,16.92969 -16.92969,16.92969 h -35.60547 c -5.87012,0 -11.23486,-2.96973 -14.34961,-7.94531 l -38.85351,-62.05274 c -0.59326,-0.94726 -1.39209,-1.75 -2.33594,-2.3496 C 84.03662,341.00684 66.774902,321.82031 55.529297,299.125 54.263672,296.57129 51.65918,294.95508 48.808594,294.95508 H 27.814453 C 22.126953,294.95508 17.5,290.3291 17.5,284.64258 v -93.625 c 0,-5.6875 4.626953,-10.31445 10.314453,-10.31446 h 20.994141 c 2.850586,0 5.455078,-1.6162 6.720703,-4.16992 13.270507,-26.77929 35.287109,-48.91308 61.996093,-62.32617 2.53467,-1.27246 4.13477,-3.86718 4.13477,-6.70312 z m -1.04297,98.412108 a 15.57074,15.57074 0 0 0 -15.57031,15.57031 15.57074,15.57074 0 0 0 15.57031,15.57227 15.57074,15.57074 0 0 0 15.57226,-15.57227 15.57074,15.57074 0 0 0 -15.57226,-15.57031 z"
     style="fill:none;stroke:#000000;stroke-width:5;stroke-miterlimit:4;stroke-dasharray:none;stroke-opacity:1" /><path
     style="fill:#ffff00;fill-opacity:0.9;stroke-width:4.94928;stroke-linejoin:round"
     d="M 155.34916,425.2915 C 138.0899,411.19452 130.64107,389.08394 117.58455,371.55494 110.40491,353.39266 91.288331,346.51575 79.497867,332.15501 67.604831,321.66206 61.804555,304.6915 50.309439,295.15067 29.175807,298.94724 11.166887,290.1665 18.190673,266.425 c 0.06094,-26.57867 -0.685305,-53.18907 0.983406,-79.73633 15.691548,-10.39467 42.505836,-0.7115 46.639828,-26.30575 13.710481,-19.78225 32.589531,-35.68121 53.660573,-47.15315 5.62179,-17.255996 -0.80883,-39.437301 4.41146,-54.427571 19.73683,13.446516 39.67915,26.800836 59.4881,40.234114 -0.51861,12.979937 18.88778,29.949017 15.0972,35.936477 -17.89227,-4.16338 -19.96972,24.10921 -0.0205,17.21264 47.28855,-0.18176 94.59137,0.74383 141.86715,-0.75096 16.43855,-15.41201 -16.2198,-15.33745 -21.95359,-17.36931 10.33793,-13.1979 14.74733,-40.20476 35.15894,-26.96597 62.5604,20.14469 105.01656,89.05724 92.48586,154.0196 -6.00481,37.04126 -31.40647,66.11665 -46.24571,99.59969 -10.37361,20.42196 -20.64211,40.92151 -32.24335,60.68447 -15.33078,9.5676 -35.27947,4.33195 -52.01067,3.63204 -20.48225,-9.59633 3.55726,-47.93848 -24.34343,-50.69159 -24.0676,2.96063 -48.64881,0.57265 -72.93754,1.341 -13.05725,12.35778 3.55826,36.51385 -13.53775,48.21175 -14.51817,6.07898 -33.68803,1.85702 -49.34149,1.39535 z M 128.08659,184.80364 c 27.66414,-14.34441 -17.8103,-47.91564 -23.10741,-16.93071 -2.60589,12.48922 11.87051,23.60431 23.10741,16.93071 z"
     id="dummy-data-area" /><rect
     style="fill:#cccccc;fill-opacity:0.9;stroke:none;stroke-width:6.78128;stroke-linejoin:round"
     id="qrcode-rect"
     width="194.86034"
     height="194.86034"
     x="159.81845"
     y="162.5" /></svg>
