<?xml version="1.0" encoding="UTF-8" standalone="no"?>
<svg
   version="1.1"
   viewBox="0 0 700 700"
   width="700pt"
   height="700pt"
   id="svg825"
   sodipodi:docname="pizza.svg"
   inkscape:version="1.1.2 (b8e25be8, 2022-02-05)"
   xmlns:inkscape="http://www.inkscape.org/namespaces/inkscape"
   xmlns:sodipodi="http://sodipodi.sourceforge.net/DTD/sodipodi-0.dtd"
   xmlns="http://www.w3.org/2000/svg"
   xmlns:svg="http://www.w3.org/2000/svg">
  <defs
     id="defs829" />
  <sodipodi:namedview
     id="namedview827"
     pagecolor="#ffffff"
     bordercolor="#666666"
     borderopacity="1.0"
     inkscape:pageshadow="2"
     inkscape:pageopacity="0.0"
     inkscape:pagecheckerboard="0"
     inkscape:document-units="pt"
     showgrid="false"
     inkscape:zoom="0.7060547"
     inkscape:cx="385.94743"
     inkscape:cy="534.66112"
     inkscape:window-width="1680"
     inkscape:window-height="925"
     inkscape:window-x="0"
     inkscape:window-y="23"
     inkscape:window-maximized="0"
     inkscape:current-layer="svg825" />
  <path
     id="dummy-data-area"
     style="fill:#999999;stroke:#000000;stroke-width:5"
     d="m 569.32215,315.83581 -2.1701,-5.7886 -246.71146,72.34941 72.3494,-247.43496 -7.237,-2.17009 h -1.44841 v -0.72167 l -6.51029,-1.44841 c -23.1544,-6.51029 -47.75189,-9.40698 -71.62721,-9.40698 -150.48676,0 -273.480742,122.9927 -273.480742,273.48075 v 13.74767 13.74769 c 0,150.48676 122.992702,273.48075 273.480742,273.48075 150.48806,0 273.48076,-122.9927 273.48076,-273.48075 0,-4.34018 0,-7.9587 -0.72168,-11.57707 0,-5.06691 0.72168,-10.12866 0.72168,-15.19596 0.72671,-28.21627 -2.89179,-54.26205 -10.12362,-79.58176 z M 306.69122,654.43103 c -143.9753,0 -260.457845,-117.20474 -260.457845,-260.45786 0,-143.97532 117.204745,-260.45785 260.457845,-260.45785 20.97875,0 41.96266,2.17009 62.22049,7.237 l -9.40697,31.83503 c -17.36514,-4.34018 -35.4525,-6.51028 -53.53984,-6.51028 -125.88926,0 -228.624128,102.73615 -228.624128,228.62412 0,125.88926 102.736158,228.62412 228.624128,228.62412 125.88796,0 228.62411,-102.73616 228.62411,-228.62412 0,-20.25783 -2.89179,-40.51437 -7.95869,-59.3291 l 31.83503,-9.40697 c 5.7886,22.42703 9.40697,44.85533 9.40697,68.73065 0,143.25181 -117.20475,259.73435 -261.18135,259.73435 z M 686.52818,231.18701 c -2.17008,-6.51028 -4.34019,-12.29875 -6.51028,-18.80955 h 0.72167 l -2.17009,-6.51028 C 651.80149,116.14746 578.72601,44.528007 488.29054,19.929209 L 482.50194,18.4808 402.19411,293.40853 393.51373,323.79529 688.6993,237.6982 Z M 633.71312,212.37229 C 610.55872,141.47116 553.40528,85.760837 482.50286,64.779509 l 8.68038,-30.38675 c 81.75612,24.597506 146.8693,88.266271 173.63857,169.297601 z" />
  <rect
     style="opacity:0.985669;fill:#ececec;stroke:none;stroke-width:0.189223;stroke-linejoin:round;stroke-miterlimit:4;stroke-dasharray:none;stroke-opacity:1"
     id="qrcode-rect"
     width="210.14937"
     height="210.14937"
     x="111.19632"
     y="291.23926" />
</svg>
