<?xml version="1.0" encoding="UTF-8" standalone="no"?>
<svg
   version="1.1"
   x="0px"
   y="0px"
   viewBox="0 0 41.084998 44.199886"
   enable-background="new 0 0 48 48"
   xml:space="preserve"
   id="svg832"
   sodipodi:docname="realtor-sign.svg"
   width="41.084999"
   height="44.199886"
   inkscape:version="1.1.2 (b8e25be8, 2022-02-05)"
   xmlns:inkscape="http://www.inkscape.org/namespaces/inkscape"
   xmlns:sodipodi="http://sodipodi.sourceforge.net/DTD/sodipodi-0.dtd"
   xmlns="http://www.w3.org/2000/svg"
   xmlns:svg="http://www.w3.org/2000/svg"><defs
     id="defs836" /><sodipodi:namedview
     id="namedview834"
     pagecolor="#ffffff"
     bordercolor="#666666"
     borderopacity="1.0"
     inkscape:pageshadow="2"
     inkscape:pageopacity="0.0"
     inkscape:pagecheckerboard="0"
     showgrid="false"
     fit-margin-top="0"
     fit-margin-left="0"
     fit-margin-right="0"
     fit-margin-bottom="0"
     inkscape:zoom="11.933333"
     inkscape:cx="14.287709"
     inkscape:cy="21.452514"
     inkscape:window-width="1680"
     inkscape:window-height="912"
     inkscape:window-x="0"
     inkscape:window-y="25"
     inkscape:window-maximized="0"
     inkscape:current-layer="svg832" /><path
     d="M 40.484,43.099886 H 38.318 V 2.5868867 c 0,-0.171 -0.086,-0.33 -0.23,-0.422 L 34.965,0.17788669 c -0.162,-0.104 -0.371,-0.104 -0.537,0 L 31.305,2.1648867 c -0.146,0.092 -0.231,0.251 -0.231,0.422 v 1.438 H 0.6 c -0.276,0 -0.5,0.225 -0.5,0.5 v 4.971 c 0,0.276 0.224,0.5 0.5,0.5 H 6.08 V 12.045886 H 4.603 c -1.746,0 -3.166,1.421 -3.166,3.167 v 9.877 c 0,1.746 1.42,3.166 3.166,3.166 h 18.8 c 1.746,0 3.166,-1.42 3.166,-3.166 v -9.877 c 0,-1.746 -1.42,-3.167 -3.166,-3.167 H 21.924 V 9.9958867 h 9.149 V 43.099886 h -2.166 c -0.276,0 -0.5,0.224 -0.5,0.5 0,0.275 0.224,0.5 0.5,0.5 h 11.578 c 0.277,0 0.5,-0.225 0.5,-0.5 -10e-4,-0.276 -0.223,-0.5 -0.501,-0.5 z m -14.918,-27.887 v 9.877 c 0,1.194 -0.971,2.166 -2.166,2.166 H 4.602 c -1.194,0 -2.166,-0.972 -2.166,-2.166 v -9.877 c 0,-1.195 0.972,-2.167 2.166,-2.167 h 18.799 c 1.195,0 2.165,0.972 2.165,2.167 z m -4.643,-3.167 H 7.08 V 9.9958867 H 20.923 Z M 1.1,8.9968867 v -3.97 h 29.974 v 3.971 H 1.1 Z m 30.972,-6.135 2.624,-1.669 2.622,1.669 V 43.099886 h -5.246 z"
     id="frame-node"
     style="fill:none;stroke:#000000;stroke-width:0.2;stroke-miterlimit:4;stroke-dasharray:none;stroke-opacity:1" /><path
     id="dummy-data-area"
     style="fill:#ffff00;fill-opacity:0.9;stroke:none;stroke-width:0.418994;stroke-linejoin:round"
     d="m 34.633203,1.3049648 c -1.036711,0.7860471 -2.884283,1.160226 -2.438811,2.7729703 -0.01388,13.0034099 -0.02777,26.0068209 -0.04165,39.0102319 1.703776,0 3.407552,0 5.111328,0 0,-13.399088 0,-26.798177 0,-40.1972647 C 36.391363,2.3558221 35.566996,1.734553 34.633203,1.3049648 Z M 1.146875,5.0432461 c 0,1.313151 0,2.6263021 0,3.9394531 9.972005,0 19.944011,0 29.916016,0 0,-1.313151 0,-2.6263021 0,-3.9394531 -9.972005,0 -19.944011,0 -29.916016,0 z m 3.0800781,8.0429679 c -2.2044238,0.604753 -1.6818062,3.301722 -1.6985497,5.036633 0.00568,2.563616 -0.1539252,5.134392 0.093081,7.691883 1.0400228,2.214585 3.8576882,1.124872 5.7677849,1.39933 5.1698437,0.01804 10.3397077,-0.0024 15.5095587,-0.0048 1.96408,-0.653357 1.652197,-3.056498 1.615634,-4.69072 -0.01182,-2.644401 0.0495,-5.291361 -0.100939,-7.933111 -1.134967,-2.400274 -4.191594,-1.114897 -6.25342,-1.463086 -4.977702,-0.01753 -9.9554337,-0.02398 -14.9331499,-0.03608 z" /><rect
     style="fill:#b3b3b3;fill-opacity:0.9;stroke:none;stroke-width:0;stroke-linejoin:round;stroke-miterlimit:4;stroke-dasharray:none"
     id="qrcode-rect"
     width="12"
     height="12"
     x="8.3889999"
     y="14.299886" /></svg>
