<?xml version="1.0" encoding="UTF-8" standalone="no"?>
<svg
    version="1.1"
    viewBox="0 0 24 24"
    width="24pt"
    height="24pt"
    id="svg825"
    sodipodi:docname="shopping-cart.svg"
    inkscape:version="1.1.2 (b8e25be8, 2022-02-05)"
    xmlns:inkscape="http://www.inkscape.org/namespaces/inkscape"
    xmlns:sodipodi="http://sodipodi.sourceforge.net/DTD/sodipodi-0.dtd"
    xmlns="http://www.w3.org/2000/svg"
    xmlns:svg="http://www.w3.org/2000/svg">
    <defs
        id="defs829" />
    <sodipodi:namedview
        id="namedview827"
        pagecolor="#ffffff"
        bordercolor="#666666"
        borderopacity="1.0"
        inkscape:pageshadow="2"
        inkscape:pageopacity="0.0"
        inkscape:pagecheckerboard="0"
        inkscape:document-units="pt"
        showgrid="false"
        inkscape:zoom="22.59375"
        inkscape:cx="17.991701"
        inkscape:cy="16"
        inkscape:window-width="1312"
        inkscape:window-height="925"
        inkscape:window-x="0"
        inkscape:window-y="23"
        inkscape:window-maximized="0"
        inkscape:current-layer="svg825" />
    <path
        id="dummy-data-area"
        d="M17,18C15.89,18 15,18.89 15,20A2,2 0 0,0 17,22A2,2 0 0,0 19,20C19,18.89 18.1,18 17,18M1,2H4.4L1,2V4H3L6.6,11.59L5.24,14.04C5.09,14.32 5,14.65 5,15A2,2 0 0,0 7,17H19V15H7.42A0.25,0.25 0 0,1 7.17,14.75C7.17,14.7 7.18,14.66 7.2,14.63L8.1,13H15.55C16.3,13 16.96,12.58 17.3,11.97L20.88,5.5C20.95,5.34 21,5.17 21,5A1,1 0 0,0 20,4H5.21L4.27,2ZM7,18C5.89,18 5,18.89 5,20A2,2 0 0,0 7,22A2,2 0 0,0 9,20C9,18.89 8.1,18 7,18Z"
        style="fill:none;stroke:#000000;stroke-opacity:1;stroke-width:0.28346457;stroke-miterlimit:4;stroke-dasharray:none" />
    <rect
        style="opacity:0.985669;fill:#ececec;stroke:none;stroke-width:0.283465;stroke-linejoin:round;stroke-miterlimit:4;stroke-dasharray:none;stroke-opacity:1"
        id="qrcode-rect"
        width="7.4000001"
        height="7.4000001"
        x="8.3319502"
        y="4.7136931" />
</svg>