<?xml version="1.0" encoding="UTF-8" standalone="no"?>
<svg
   version="1.1"
   viewBox="0 0 24 24"
   width="24pt"
   height="24pt"
   id="svg825"
   sodipodi:docname="sun.svg"
   inkscape:version="1.1.2 (b8e25be8, 2022-02-05)"
   xmlns:inkscape="http://www.inkscape.org/namespaces/inkscape"
   xmlns:sodipodi="http://sodipodi.sourceforge.net/DTD/sodipodi-0.dtd"
   xmlns="http://www.w3.org/2000/svg"
   xmlns:svg="http://www.w3.org/2000/svg">
  <defs
     id="defs829" />
  <sodipodi:namedview
     id="namedview827"
     pagecolor="#ffffff"
     bordercolor="#666666"
     borderopacity="1.0"
     inkscape:pageshadow="2"
     inkscape:pageopacity="0.0"
     inkscape:pagecheckerboard="0"
     inkscape:document-units="pt"
     showgrid="false"
     inkscape:zoom="22.59375"
     inkscape:cx="14.096819"
     inkscape:cy="19.275242"
     inkscape:window-width="1312"
     inkscape:window-height="925"
     inkscape:window-x="0"
     inkscape:window-y="23"
     inkscape:window-maximized="0"
     inkscape:current-layer="svg825" />
  <path
     id="dummy-data-area"
     d="M3.55 19.09L4.96 20.5L6.76 18.71L5.34 17.29zM12 6C8.69 6 6 8.69 6 12S8.69 18 12 18 18 15.31 18 12C18 8.68 15.31 6 12 6zM20 13H23V11H20zM17.24 18.71L19.04 20.5L20.45 19.09L18.66 17.29zM20.45 5L19.04 3.6L17.24 5.39L18.66 6.81zM13 1H11V4H13zM6.76 5.39L4.96 3.6L3.55 5L5.34 6.81L6.76 5.39zM1 13H4V11H1zM13 20H11V23H13Z"
     style="fill:none;stroke:#000000;stroke-opacity:1;stroke-width:0.28346457;stroke-miterlimit:4;stroke-dasharray:none" />
  <rect
     style="opacity:0.985669;fill:#ececec;stroke:none;stroke-width:0.265492;stroke-linejoin:round;stroke-miterlimit:4;stroke-dasharray:none;stroke-opacity:1"
     id="qrcode-rect"
     width="7.4087138"
     height="7.4087138"
     x="8.2676363"
     y="8.1804991" />
</svg>
