<?xml version="1.0" encoding="UTF-8" standalone="no"?>
<svg
   viewBox="0 0 97.260002 54"
   x="0px"
   y="0px"
   version="1.1"
   id="svg830"
   sodipodi:docname="noun-ticket-4967496.svg"
   width="97.260002"
   height="54"
   inkscape:version="1.1.2 (b8e25be8, 2022-02-05)"
   xmlns:inkscape="http://www.inkscape.org/namespaces/inkscape"
   xmlns:sodipodi="http://sodipodi.sourceforge.net/DTD/sodipodi-0.dtd"
   xmlns="http://www.w3.org/2000/svg"
   xmlns:svg="http://www.w3.org/2000/svg">
  <defs
     id="defs834" />
  <sodipodi:namedview
     id="namedview832"
     pagecolor="#ffffff"
     bordercolor="#666666"
     borderopacity="1.0"
     inkscape:pageshadow="2"
     inkscape:pageopacity="0.0"
     inkscape:pagecheckerboard="0"
     showgrid="false"
     fit-margin-top="0"
     fit-margin-left="0"
     fit-margin-right="0"
     fit-margin-bottom="0"
     inkscape:zoom="5.728"
     inkscape:cx="35.352654"
     inkscape:cy="39.455307"
     inkscape:window-width="1680"
     inkscape:window-height="912"
     inkscape:window-x="0"
     inkscape:window-y="25"
     inkscape:window-maximized="0"
     inkscape:current-layer="svg830" />
  <path
     d="M 95.26,0.5 H 2 C 1.17,0.5 0.5,1.17 0.5,2 v 14.35 c 0,0.8 0.62,1.46 1.42,1.5 4.87,0.25 8.69,4.27 8.69,9.15 0,4.88 -3.82,8.89 -8.69,9.15 -0.8,0.04 -1.42,0.7 -1.42,1.5 V 52 c 0,0.83 0.67,1.5 1.5,1.5 h 93.26 c 0.83,0 1.5,-0.67 1.5,-1.5 V 2 c 0,-0.83 -0.67,-1.5 -1.5,-1.5 z M 28.07,18.67 c -0.83,0 -1.5,-0.67 -1.5,-1.5 v -4.68 c 0,-0.83 0.67,-1.5 1.5,-1.5 0.83,0 1.5,0.67 1.5,1.5 v 4.68 c 0,0.83 -0.67,1.5 -1.5,1.5 z m 1.5,5.99 v 4.68 c 0,0.83 -0.67,1.5 -1.5,1.5 -0.83,0 -1.5,-0.67 -1.5,-1.5 v -4.68 c 0,-0.83 0.67,-1.5 1.5,-1.5 0.83,0 1.5,0.67 1.5,1.5 z m -3,12.17 c 0,-0.83 0.67,-1.5 1.5,-1.5 0.83,0 1.5,0.67 1.5,1.5 v 4.68 c 0,0.83 -0.67,1.5 -1.5,1.5 -0.83,0 -1.5,-0.67 -1.5,-1.5 z M 28.07,1 c 0.65,0 1.2,0.42 1.41,1 0.06,0.16 0.09,0.32 0.09,0.5 V 5 c 0,0.83 -0.67,1.5 -1.5,1.5 -0.83,0 -1.5,-0.67 -1.5,-1.5 V 2.5 c 0,-0.18 0.04,-0.34 0.09,-0.5 0.21,-0.58 0.76,-1 1.41,-1 z m 0,52 c -0.65,0 -1.2,-0.42 -1.41,-1 -0.06,-0.16 -0.09,-0.32 -0.09,-0.5 V 49 c 0,-0.83 0.67,-1.5 1.5,-1.5 0.83,0 1.5,0.67 1.5,1.5 v 2.5 c 0,0.18 -0.04,0.34 -0.09,0.5 -0.21,0.58 -0.76,1 -1.41,1 z"
     id="dummy-data-area"
     sodipodi:nodetypes="sssscscssssssssssssssssssssssssssssscssssscsscssssscs"
     style="fill:none;stroke:#000000;stroke-opacity:1" />
  <rect
     style="fill:#b3b3b3;fill-opacity:0.9;stroke-width:4.35533;stroke-linejoin:round"
     id="qrcode-rect"
     width="45.041901"
     height="45.041901"
     x="48.495979"
     y="3.9678764" />
</svg>
