<?xml version="1.0" encoding="UTF-8" standalone="no"?>
<svg
   version="1.1"
   viewBox="0 0 24 24"
   width="24pt"
   height="24pt"
   id="svg825"
   sodipodi:docname="truck.svg"
   inkscape:version="1.1.2 (b8e25be8, 2022-02-05)"
   xmlns:inkscape="http://www.inkscape.org/namespaces/inkscape"
   xmlns:sodipodi="http://sodipodi.sourceforge.net/DTD/sodipodi-0.dtd"
   xmlns="http://www.w3.org/2000/svg"
   xmlns:svg="http://www.w3.org/2000/svg">
  <defs
     id="defs829" />
  <sodipodi:namedview
     id="namedview827"
     pagecolor="#ffffff"
     bordercolor="#666666"
     borderopacity="1.0"
     inkscape:pageshadow="2"
     inkscape:pageopacity="0.0"
     inkscape:pagecheckerboard="0"
     inkscape:document-units="pt"
     showgrid="false"
     inkscape:zoom="22.59375"
     inkscape:cx="15.91148"
     inkscape:cy="15.95574"
     inkscape:window-width="1312"
     inkscape:window-height="925"
     inkscape:window-x="0"
     inkscape:window-y="23"
     inkscape:window-maximized="0"
     inkscape:current-layer="svg825" />
  <path
     id="dummy-data-area"
     d="M18,18.5A1.5,1.5 0 0,1 16.5,17A1.5,1.5 0 0,1 18,15.5A1.5,1.5 0 0,1 19.5,17A1.5,1.5 0 0,1 18,18.5M19.5,9.5L21.46,12H17V9.5zM6,18.5A1.5,1.5 0 0,1 4.5,17A1.5,1.5 0 0,1 6,15.5A1.5,1.5 0 0,1 7.5,17A1.5,1.5 0 0,1 6,18.5M20,8H17V4H3C1.89,4 1,4.89 1,6V17H3A3,3 0 0,0 6,20A3,3 0 0,0 9,17H15A3,3 0 0,0 18,20A3,3 0 0,0 21,17H23V12L20,8Z"
     style="fill:none;stroke:#000000;stroke-opacity:1;stroke-width:0.28346457;stroke-miterlimit:4;stroke-dasharray:none" />
  <rect
     style="opacity:0.985669;fill:#ececec;stroke:none;stroke-width:0.370058;stroke-linejoin:round;stroke-miterlimit:4;stroke-dasharray:none;stroke-opacity:1"
     id="qrcode-rect"
     width="10"
     height="10"
     x="4.3381743"
     y="4.7759333" />
</svg>
