<?xml version="1.0" encoding="UTF-8" standalone="no"?>
<svg
   version="1.1"
   viewBox="0 0 700 700"
   width="700pt"
   height="700pt"
   id="svg825"
   sodipodi:docname="water-glass.svg"
   inkscape:version="1.1.2 (b8e25be8, 2022-02-05)"
   xmlns:inkscape="http://www.inkscape.org/namespaces/inkscape"
   xmlns:sodipodi="http://sodipodi.sourceforge.net/DTD/sodipodi-0.dtd"
   xmlns="http://www.w3.org/2000/svg"
   xmlns:svg="http://www.w3.org/2000/svg">
   <defs
      id="defs829" />
   <sodipodi:namedview
      id="namedview827"
      pagecolor="#ffffff"
      bordercolor="#666666"
      borderopacity="1.0"
      inkscape:pageshadow="2"
      inkscape:pageopacity="0.0"
      inkscape:pagecheckerboard="0"
      inkscape:document-units="pt"
      showgrid="false"
      inkscape:zoom="0.7060547"
      inkscape:cx="385.94743"
      inkscape:cy="534.66112"
      inkscape:window-width="1680"
      inkscape:window-height="925"
      inkscape:window-x="0"
      inkscape:window-y="23"
      inkscape:window-maximized="0"
      inkscape:current-layer="svg825" />
   <path
      transform="scale(0.75)"
      id="dummy-data-area"
      style="fill:none;stroke:#000000;stroke-width:0"
      d="m 623.33812,865.43863 c -2.57772,-0.28187 -14.28559,-2.05216 -26.01749,-3.93399 -16.76148,-2.68858 -24.87794,-3.32171 -37.89022,-2.95566 l -16.55947,0.46585 0.87566,-5.18135 c 0.50706,-3.0003 0.35513,-4.97315 -0.36094,-4.68675 -0.68013,0.27202 -5.14513,2.54829 -9.92224,5.05838 -10.6163,5.57823 -15.21659,5.15356 -16.98438,-1.56789 l -1.14014,-4.33497 -11.9497,0.16047 c -7.81587,0.10496 -14.49748,1.03143 -19.31459,2.67815 -7.22439,2.46963 -7.36198,2.61347 -7.21217,7.53919 0.17292,5.68455 -0.97408,6.11303 -8.23869,3.07768 -2.59089,-1.08254 -5.20148,-3.38838 -5.89177,-5.20399 -1.17485,-3.0901 -1.99509,-3.30797 -15.72558,-4.17711 -7.96734,-0.50433 -25.03127,-0.24052 -37.91984,0.58625 -48.97676,3.14172 -68.16246,3.7048 -87.03969,2.55453 -10.6791,-0.65072 -21.18171,-1.55743 -23.33913,-2.01491 l -3.92258,-0.83179 3.25304,-1.80583 c 10.188,-5.65558 34.03479,-14.53523 46.47541,-17.30571 26.41631,-5.88282 37.00442,-6.36909 118.13584,-5.42554 61.51721,0.71543 80.91329,0.49611 103.7781,-1.17348 28.5103,-2.08184 74.53667,-2.78453 82.18555,-1.25476 l 4.1846,0.83692 v 19.9187 19.9187 l -12.38641,-0.2143 c -6.81253,-0.11786 -14.49546,-0.44492 -17.07317,-0.72679 z m 22.76422,-63.61812 c -4.78718,-0.66793 -45.4615,-1.38317 -90.38737,-1.58941 -44.92587,-0.20624 -84.39503,-0.82905 -87.70923,-1.38403 -3.46466,-0.58018 -8.17974,-2.70616 -11.09349,-5.00194 l -5.06768,-3.9929 -8.32304,2.03087 c -13.06737,3.18851 -19.91179,3.81469 -26.18095,2.39522 -4.46439,-1.01083 -6.90205,-0.8568 -10.54778,0.66648 -6.96813,2.91148 -21.97174,-0.0427 -38.89294,-7.65782 l -8.37943,-3.77105 -5.97956,5.17527 c -3.28876,2.8464 -7.26611,5.58361 -8.83856,6.08268 -4.30372,1.36595 -17.35061,-0.61911 -18.17413,-2.76516 -0.45441,-1.18419 -2.46821,-1.74692 -5.60807,-1.56711 l -4.89907,0.28053 -3.0369,-12.05165 c -2.96684,-11.77362 -3.97698,-22.50727 -6.93105,-73.64897 -1.8001,-31.16376 -6.62108,-49.35718 -17.6214,-66.49972 -3.87949,-6.04564 -3.94495,-6.40751 -2.00094,-11.0602 2.10103,-5.02847 7.13813,-8.03814 10.9834,-6.56256 1.85297,0.71104 2.04971,0.0663 1.33951,-4.38956 C 293.21284,581.74573 283.60562,488.57991 273.15271,368.24486 262.16529,241.75651 256.00277,182.4426 246.9972,116.49928 c -2.16245,-15.83453 -3.9371,-29.241987 -3.94366,-29.794354 -0.007,-0.552367 10.68391,-1.006232 23.7566,-1.008589 27.65419,-0.005 97.40199,-1.844903 179.10091,-4.724609 77.78267,-2.741667 183.29031,-4.302323 228.98135,-3.387064 l 37.49402,0.751061 -0.35812,6.025824 c -0.19697,3.314204 -3.64419,46.097561 -7.66051,95.074131 -25.7712,314.26415 -47.92166,602.6292 -47.28985,615.64126 0.24529,5.05176 -0.12453,8.28991 -0.93256,8.16501 -0.73648,-0.11383 -5.25585,-0.7535 -10.04304,-1.42144 z m -15.49498,-200.0032 c 1.15735,-1.15733 2.10426,-2.33356 2.10426,-2.61383 0,-0.28025 1.22075,-9.12531 2.71277,-19.65566 2.06986,-14.60845 3.63303,-21.03241 6.59563,-27.10516 3.684,-7.55149 3.77699,-8.16372 1.8158,-11.95624 -3.96126,-7.66023 0.52147,-23.33097 8.8231,-30.84384 1.54931,-1.40211 2.81693,-3.26458 2.81693,-4.1388 0,-0.87424 -4.21808,-3.24443 -9.37351,-5.26708 -5.15542,-2.02267 -9.3735,-4.13101 -9.3735,-4.68523 0,-0.55421 3.34753,-1.75679 7.43895,-2.67241 4.50924,-1.00913 7.23757,-2.27964 6.92762,-3.226 -0.28125,-0.85868 -3.08242,-3.29594 -6.22487,-5.41613 l -5.71351,-3.8549 7.15511,-2.84046 c 5.99386,-2.37947 7.64409,-3.81016 10.16801,-8.81526 5.19811,-10.30815 3.59675,-35.8999 -3.58519,-57.29637 l -2.35974,-7.03013 h 4.20964 4.20964 l 1.58766,-27.11621 c 0.87322,-14.91392 3.52144,-45.79627 5.88494,-68.62745 3.81668,-36.86865 4.30572,-46.15383 4.37268,-83.02248 0.0637,-35.11664 -0.29685,-43.2646 -2.34113,-52.89335 -1.39861,-6.5876 -3.33961,-12.08719 -4.60792,-13.05596 -3.06669,-2.34241 -11.79021,-2.0851 -17.25692,0.50902 -5.13699,2.43766 -10.15195,10.05661 -12.51297,19.0103 -3.1449,11.92636 -3.86442,34.02383 -2.23125,68.52468 2.33922,49.41618 1.54911,63.93226 -9.25652,170.06217 -3.26189,32.0373 -6.83887,70 -7.94885,84.36155 -2.03632,26.34702 -2.74137,84.07147 -1.16714,95.55677 l 0.85156,6.21272 h 7.08724 c 4.6575,0 7.80864,-0.7214 9.19148,-2.10426 z" />
   <path
      id="frame-node"
      style="fill:#000000;stroke:#000000;stroke-width:0.283465;stroke-miterlimit:4;stroke-dasharray:none;stroke-opacity:1"
      d="m 212.75781,26.732422 c -7.08248,3.431915 -15.07693,4.606551 -22.89072,4.250037 -4.94903,-0.139027 -9.92596,-0.557124 -14.81625,-0.600282 -4.7706,-0.0152 -9.56697,0.321286 -14.24225,1.301417 -1.84416,1.702055 -2.00636,4.422018 -1.99353,6.771085 0.0215,3.190748 0.29387,6.413151 0.32931,9.652259 0.1073,3.445459 0.21437,6.890925 0.32047,10.336421 -3.0232,-3.904981 -6.04803,-7.808706 -9.07226,-11.71289 0,1.207031 0,2.414062 0,3.621093 2.90949,2.382834 4.10015,6.156187 4.68144,9.740432 0.87279,4.651503 0.8232,9.488653 2.64656,13.933125 0.49285,1.549314 1.92574,2.64263 3.50598,2.885037 2.38624,0.848267 3.77531,3.607251 3.22956,6.045272 -0.0371,3.003748 -0.45418,6.321502 -2.69038,8.543498 -1.91434,1.879038 -4.95115,2.291407 -7.40051,1.311621 6.42339,45.270623 11.45752,90.737613 15.12347,136.314233 1.51474,19.09894 2.6704,38.22474 3.53565,57.36384 0.75068,9.94345 3.76265,19.51387 6.39549,29.07591 2.05496,7.43385 4.02611,14.94777 4.73489,22.64866 0.18051,3.31582 -0.54211,6.63128 -0.89187,9.83806 -1.01589,7.93962 -2.30184,15.85752 -1.89705,23.90782 0.73839,10.20022 1.63713,20.39896 2.60294,30.59562 4.678,48.34159 11.07418,96.56171 17.18266,144.78451 1.90866,16.85766 0.68069,33.8421 -0.0361,50.73283 -0.50785,10.5066 -0.96294,21.08278 -0.59379,31.5725 0.0505,1.56088 0.13743,2.96836 0.23568,4.51598 0.14808,2.36797 0.39893,4.8393 0.69987,7.2516 0.21598,1.61527 0.49331,3.43775 0.82371,5.11945 0.37041,1.94039 0.85603,3.97885 1.38879,5.76266 1.71567,5.75414 4.463,11.46621 9.17975,15.35594 4.63522,3.91411 10.77458,5.50414 16.72232,5.86891 3.68935,0.22922 7.32574,-0.0566 11.00732,-0.14219 7.85947,-0.61891 15.71539,-1.28564 23.58221,-1.8122 54.70505,-3.80432 109.5563,-4.55767 164.35651,-6.09291 24.55112,-0.68008 49.06682,-1.50512 73.58783,-2.9581 6.54865,-95.71676 14.27906,-191.3484 22.08947,-286.9664 8.31961,-102.27574 16.65141,-204.55843 23.50348,-306.948032 0.54986,-8.113228 1.08191,-16.22766 1.62385,-24.341426 -6.48946,-2.120921 -13.22084,-3.568987 -19.92188,-4.568359 -1.17571,-0.155608 -2.52167,-0.366264 -3.68515,-0.5041 -4.83629,-0.612346 -9.69886,-1.014976 -14.51403,-1.297262 -24.38278,-1.374124 -48.93873,0.415431 -73.38565,-0.611112 -12.8196,-0.556648 -25.72729,-1.958925 -37.9972,-5.880495 -2.67318,2.639581 -6.5777,3.300043 -10.17215,3.601462 -5.56514,0.418594 -11.15035,-0.157609 -16.66591,-0.882476 -2.85733,-0.416344 -5.69839,-0.946003 -8.5096,-1.605704 -2.72867,1.865858 -6.08232,2.353297 -9.24161,3.049875 -5.09455,0.967574 -10.2805,1.317359 -15.40847,2.034813 -1.6284,0.514576 -3.18544,1.115634 -4.83234,1.661405 -0.58103,-1.930823 -1.32274,-3.806807 -1.94726,-5.722656 -4.30131,-0.85173 -8.32406,-3.392281 -10.6543,-7.146484 -2.29557,0 -4.59115,0 -6.88672,0 -1.51793,3.608055 -4.85377,6.272841 -8.61107,7.253116 -5.03398,1.507331 -10.3469,1.068554 -15.52913,1.214001 -1.44806,0.01044 -2.89611,0.02096 -4.34418,0.03093 0.15446,-1.485128 0.31611,-2.969486 0.44532,-4.457032 -4.50769,0.994721 -9.18612,0.786504 -13.69216,1.285598 -3.04533,0.320665 -6.20899,1.052439 -8.57192,3.122799 -2.62013,2.540466 -5.08449,5.244144 -7.65764,7.834879 -0.70832,0.898449 -1.76004,1.584582 -2.94856,1.443331 -0.50622,-0.06755 -1.1293,0.123783 -1.55107,-0.06799 -0.68846,-1.165301 -1.63375,-2.486587 -1.11499,-3.905991 0.75968,-3.787681 1.65732,-7.547892 2.34688,-11.349348 -2.1854,0.328912 -4.32654,0.908685 -6.5026,1.301082 -0.78434,0.160431 -1.56858,0.321412 -2.35286,0.482121 0,-1.397787 0,-2.795573 0,-4.19336 -10.653,0 -21.30599,0 -31.95899,0 -0.23307,0.117188 -0.46614,0.234375 -0.69922,0.351563 z m 263.24414,28.970703 c 20.26379,0.0477 40.52686,0.42557 60.77735,1.164063 -15.08991,178.965112 -29.25865,358.006452 -42.47598,537.121242 -0.0846,1.58596 -0.4323,3.22279 0.12905,4.75911 0.48968,1.95923 0.97882,3.9186 1.46997,5.87746 -9.76259,-1.03563 -19.50199,-1.99689 -29.31956,-2.45763 -28.84649,-1.49545 -57.7886,-0.0865 -86.67418,0.0404 -10.54031,0.008 -21.11256,-0.15246 -31.58547,-1.43109 -4.053,-0.72001 -7.59928,-3.24544 -10.13563,-6.41926 -5.04411,1.99108 -10.4049,3.11147 -15.78516,3.6943 -4.55575,0.43271 -9.2525,0.26548 -13.61914,-1.21188 -2.88841,2.3306 -6.82384,2.6357 -10.38672,2.32512 -5.98525,-0.49638 -11.76278,-2.322 -17.40254,-4.29651 -3.70192,-1.33592 -7.32593,-2.9242 -10.78691,-4.78642 -1.86499,1.18123 -3.02625,3.15068 -4.72628,4.53192 -3.0877,2.76246 -7.28134,4.31238 -11.43448,3.93014 -3.88653,-0.2334 -7.62441,-1.46041 -11.44698,-2.07129 -0.57933,-0.17793 -1.0655,-0.63891 -1.21062,-1.23452 -1.29512,0.21356 -2.61249,0.76401 -3.93164,0.48242 -1.55384,-0.41168 -2.41817,-1.97415 -2.64771,-3.46366 -4.11803,-12.27972 -5.47146,-25.27069 -6.00546,-38.14948 -0.39704,-8.92378 -0.47451,-17.88348 -0.99722,-26.74428 -0.39179,-6.13234 -0.98666,-12.40256 -2.13499,-18.51184 -0.39308,-2.0737 -0.89362,-4.3372 -1.44608,-6.45746 -2.2,-8.5233 -5.75629,-16.7187 -10.74849,-23.98368 -0.78032,-1.16878 -1.59055,-2.31726 -2.3931,-3.47085 0.95917,-3.32424 1.71628,-7.01626 4.40744,-9.43349 1.73655,-1.71183 4.27838,-2.37975 6.66483,-2.13487 -9.82642,-70.50095 -15.27208,-141.50372 -21.48119,-212.38871 -4.43431,-50.92276 -9.20571,-101.80771 -15.89594,-152.477547 -1.58059,-12.080847 -3.30523,-24.155827 -5.05842,-36.22163 41.21681,0.163315 82.42254,-1.047044 123.61076,-2.455878 57.54003,-1.948113 115.08716,-4.216289 172.67049,-4.1242 z m 14.87891,64.763675 c -3.69716,0.17754 -7.2542,2.17486 -9.26078,5.29803 -3.09791,4.41271 -4.33512,9.79233 -5.26844,15.01671 -0.94122,5.64965 -1.2919,11.38532 -1.37832,17.06069 -0.19147,12.3584 0.74344,24.66166 1.49543,36.99526 0.40906,6.80242 0.75044,13.61656 0.54664,20.43311 -0.73662,25.15536 -3.04963,50.23061 -5.61275,75.25585 -2.57773,25.07675 -5.41946,50.12346 -7.57938,75.22625 -1.74847,20.62228 -3.11854,41.30491 -2.79454,62.04431 0.10355,6.19617 0.35216,12.33118 0.87661,18.53514 0.13572,1.56614 0.26785,3.13278 0.44233,4.69519 3.16057,0.0575 6.40437,0.24003 9.46484,-0.70898 1.6567,-4.68288 1.98562,-9.68448 2.61305,-14.57512 0.85779,-7.35518 1.60042,-14.88749 4.55119,-21.76014 0.82396,-1.87234 1.84601,-3.66546 3.11896,-5.27021 -2.74643,-4.21747 -3.33049,-9.62623 -1.94481,-14.42518 1.52018,-5.78652 5.00308,-10.86941 9.16356,-15.09044 -3.47375,-0.8351 -6.60974,-2.61967 -9.92888,-3.88872 -3.3553,-1.40519 -6.73528,-2.79864 -10.10432,-4.19917 5.44499,-1.46183 10.89514,-2.90107 16.36328,-4.27344 -1.9351,-1.27891 -3.98127,-2.37939 -5.9506,-3.60682 -1.86653,-1.11577 -3.73321,-2.23128 -5.60018,-3.34631 4.17368,-1.67198 8.46103,-3.03635 12.64956,-4.66654 2.88195,-1.29556 4.37499,-4.3692 5.12718,-7.27806 1.34244,-5.23097 1.22221,-10.71316 0.72256,-16.05133 -0.13158,-1.34968 -0.32734,-2.90945 -0.48367,-4.11735 -0.87258,-5.82691 -2.10294,-11.71909 -3.93566,-17.38988 -1.02048,-3.08119 -2.18541,-6.11231 -3.25575,-9.17653 2.64482,0.15934 5.28791,0.35659 7.9375,0.41797 -0.31388,-18.03341 1.5146,-36.00672 3.23038,-53.93356 1.8625,-18.89915 3.97121,-37.74706 5.18173,-56.68948 0.24515,-4.2351 0.49508,-8.63242 0.63816,-12.87082 0.25806,-6.92771 0.31399,-13.96734 0.11965,-20.83231 -0.12667,-3.81882 -0.31659,-7.66488 -0.63181,-11.40772 -0.63203,-7.82897 -1.78346,-15.85964 -3.79827,-23.55293 -0.17656,-0.40108 -0.13002,-1.04938 -0.45664,-1.28739 -2.05241,-0.4445 -4.15682,-0.68024 -6.25781,-0.58008 z m -27.32031,495.82812 c 9.22566,-0.0563 18.44555,0.46911 27.62695,1.3457 0.001,11.2461 0.005,22.49219 0.006,33.73829 -11.65568,0.90576 -23.40107,0.15805 -34.91479,-1.79343 -10.03616,-1.59482 -19.92708,-3.73972 -30.10311,-4.18482 -2.76803,-0.11804 -5.59756,-0.0963 -8.27782,0.0892 -4.48808,0.27608 -8.92757,1.03041 -13.39178,1.53941 0.37449,-2.34718 0.81282,-4.68278 1.32422,-7.00391 -3.57285,1.93784 -6.92192,4.4133 -10.84961,5.60547 -2.09294,0.62503 -4.46427,0.58386 -6.3457,-0.62891 -2.04284,-1.19973 -3.34598,-3.39087 -3.67528,-5.71071 -0.1241,-0.64479 -0.19679,-1.29845 -0.24074,-1.95335 -6.73932,0.14262 -13.50986,0.77398 -20.05664,2.43555 -2.02156,0.58548 -4.10465,1.18003 -5.85352,2.39062 0.61931,2.96319 1.28153,5.9118 1.92188,8.875 -3.47681,-0.94879 -7.00069,-1.70769 -10.46291,-2.70077 -2.79216,-0.95714 -5.01123,-3.40588 -5.62108,-6.30313 -11.3075,-1.38802 -22.75532,-1.16051 -34.07691,-0.60114 -22.27889,1.17418 -44.62491,3.72722 -66.99102,2.51311 -7.67246,-0.41566 -15.30059,-1.37663 -22.94636,-2.11158 -2.77516,-0.28461 -5.55036,-0.56881 -8.32555,-0.85313 7.50997,-3.41645 14.91222,-7.06296 22.43535,-10.44859 11.86255,-5.33351 24.64911,-8.32958 37.49848,-10.07147 18.10687,-2.4402 36.42885,-2.45452 54.6627,-2.08493 22.22658,0.48597 44.44179,1.82177 66.68067,1.50526 20.46181,-0.41253 40.90918,-2.82775 61.42186,-3.43235 2.85123,-0.0775 5.70245,-0.14388 8.55485,-0.15542 z" />
   <rect
      style="opacity:0.985669;fill:#ececec;stroke:none;stroke-width:0.19496;stroke-linejoin:round;stroke-miterlimit:4;stroke-dasharray:none;stroke-opacity:1"
      id="qrcode-rect"
      width="216.52284"
      height="216.52284"
      x="232.17654"
      y="158.06184" />
</svg>