<?xml version="1.0" encoding="UTF-8" standalone="no"?>
<svg
   width="472.3616pt"
   height="532.28223pt"
   version="1.1"
   viewBox="0 0 472.3616 532.28223"
   id="svg1521"
   sodipodi:docname="logo.svg"
   inkscape:version="1.1.2 (b8e25be8, 2022-02-05)"
   xmlns:inkscape="http://www.inkscape.org/namespaces/inkscape"
   xmlns:sodipodi="http://sodipodi.sourceforge.net/DTD/sodipodi-0.dtd"
   xmlns="http://www.w3.org/2000/svg"
   xmlns:svg="http://www.w3.org/2000/svg">
  <sodipodi:namedview
     id="namedview1523"
     pagecolor="#ffffff"
     bordercolor="#666666"
     borderopacity="1.0"
     inkscape:pageshadow="2"
     inkscape:pageopacity="0.0"
     inkscape:pagecheckerboard="0"
     inkscape:document-units="pt"
     showgrid="false"
     fit-margin-top="0"
     fit-margin-left="0"
     fit-margin-right="0"
     fit-margin-bottom="0"
     inkscape:zoom="0.42107143"
     inkscape:cx="314.67345"
     inkscape:cy="447.66751"
     inkscape:window-width="1680"
     inkscape:window-height="925"
     inkscape:window-x="0"
     inkscape:window-y="23"
     inkscape:window-maximized="0"
     inkscape:current-layer="svg1521" />
  <defs
     id="defs1431" />
  <path
     d="m 407.6804,265.1646 c -10.641,0 -21.84,1.6797 -30.801,3.3594 l -10.641,-56.559 v -1.1211 c -1.1211,0.55859 -1.6797,0.55859 -2.8008,1.1211 l -33.602,9.5195 -8.3984,30.238 8.9609,49.84 c -77.281,17.359 -157.36,17.359 -234.64,0 l 14.559,-79.52 c 1.6797,-9.5195 10.078,-16.238 19.602,-16.238 h 73.922 c -6.1602,-5.6016 -10.078,-14 -10.078,-23.52 0,-12.32 6.7188,-22.961 17.359,-28 l -80.082,-0.004 c -34.719,0 -63.84,24.641 -70,58.238 l -10.641,56.559 c -8.9609,-1.6797 -20.16,-3.3594 -30.801,-3.3594 -6.1602,0 -11.199,1.6797 -14.559,5.0391 C 2.8008,272.9955 0,276.9174 0,283.6362 c 0,11.199 8.9609,28.559 19.602,28.559 h 6.1602 c -8.9609,9.5195 -15.121,22.398 -15.121,36.961 v 159.04 c 0,13.441 10.641,24.078 24.078,24.078 h 26.32 c 13.441,0 24.078,-10.641 24.078,-24.078 l 0.004,-35.273 c 42.559,4.4805 85.68,6.1602 128.8,6.1602 43.121,0 85.68,-2.2383 128.8,-6.1602 v 35.281 c 0,13.441 10.641,24.078 24.078,24.078 h 26.32 c 13.441,0 24.078,-10.641 24.078,-24.078 v -159.04 c 0,-14.559 -5.6016,-27.441 -15.121,-36.961 h 6.1602 c 10.641,0 19.602,-17.359 19.602,-28.559 0,-11.203 -7.8398,-18.48 -20.16,-18.48 z m -259.84,133.84 c 0,5.6016 -4.4805,10.078 -9.5195,10.078 -5.6016,0.55859 -12.879,0.55859 -20.719,0.55859 -14,0 -30.801,-0.55859 -44.238,-3.9219 -3.3594,-0.55859 -6.1602,-3.3594 -7.2812,-6.7188 -3.9219,-11.199 -2.2383,-26.879 -0.55859,-38.078 0.55859,-3.3594 2.8008,-5.6016 5.0391,-7.2812 2.8008,-1.6797 6.1602,-1.6797 8.9609,0 l 62.719,30.801 c 3.3594,1.6797 5.6016,5.0391 5.6016,8.9609 z m 214.48,0 c -1.1211,3.3594 -3.9219,6.1602 -7.2812,6.7188 -14,3.3594 -30.238,3.9219 -44.238,3.9219 -8.3984,0 -15.68,0 -20.719,-0.55859 -5.6016,0 -9.5195,-5.0391 -9.5195,-10.078 v -6.1602 c 0,-3.9219 2.2383,-7.2812 5.6016,-8.9609 l 62.16,-30.801 c 2.8008,-1.6797 6.1602,-1.1211 8.9609,0 2.8008,1.6797 5.0391,3.9219 5.0391,7.2812 2.2344,11.754 3.3555,27.996 -0.004,38.637 z"
     id="path1433" />
  <path
     d="m 224.0004,189.0046 42.559,11.762 c 2.2383,0.55859 4.4805,2.8008 5.0391,5.0391 l 11.762,42.559 c 2.2383,7.2812 12.32,7.2812 14.559,0 l 11.762,-42.559 c 0.55859,-2.2383 2.8008,-4.4805 5.0391,-5.0391 l 42.559,-11.762 c 7.2812,-2.2383 7.2812,-12.32 0,-14.559 l -42.559,-11.762 c -2.2383,-0.55859 -4.4805,-2.8008 -5.0391,-5.0391 l -11.758,-42.562 c -2.2383,-7.2812 -12.32,-7.2812 -14.559,0 l -11.762,42.559 c -0.55859,2.2383 -2.8008,4.4805 -5.0391,5.0391 l -42.559,11.762 c -7.2852,2.2422 -7.2852,12.32 -0.004,14.562 z"
     id="path1435" />
  <path
     d="m 282.2404,62.4436 33.602,9.5195 c 2.2383,0.55859 3.3594,2.2383 3.9219,3.9219 l 9.5195,33.602 c 1.6797,5.6016 9.5195,5.6016 11.199,0 l 9.5195,-33.602 c 0.55859,-2.2383 2.2383,-3.3594 3.9219,-3.9219 l 33.602,-9.5195 c 5.6016,-1.6797 5.6016,-9.5195 0,-11.199 l -33.602,-9.5195 c -2.2383,-0.55859 -3.3594,-2.2383 -3.9219,-3.9219 l -9.5195,-33.602 c -1.6797,-5.6016 -9.5195,-5.6016 -11.199,0 l -9.5195,33.602 c -0.55859,2.2383 -2.2383,3.3594 -3.9219,3.9219 l -33.602,9.5195 c -5.6016,1.6797 -5.6016,9.5195 0,11.199 z"
     id="path1437" />
  <path
     d="m 468.1604,133.5646 -35.84,-10.078 c -2.2383,-0.55859 -3.9219,-2.2383 -4.4805,-4.4805 l -10.078,-35.84 c -1.6797,-6.1602 -10.641,-6.1602 -12.32,0 l -10.078,35.84 c -0.55859,2.2383 -2.2383,3.9219 -4.4805,4.4805 l -35.84,10.078 c -6.1602,1.6797 -6.1602,10.641 0,12.32 l 35.84,10.078 c 2.2383,0.55859 3.9219,2.2383 4.4805,4.4805 l 10.078,35.84 c 1.6797,6.1602 10.641,6.1602 12.32,0 l 10.078,-35.84 c 0.55859,-2.2383 2.2383,-3.9219 4.4805,-4.4805 l 35.84,-10.078 c 5.6016,-2.2383 5.6016,-10.641 0,-12.32 z"
     id="path1439" />
</svg>
