<?xml version="1.0" encoding="UTF-8" standalone="no"?>
<svg
   width="525.00317pt"
   height="524.99689pt"
   version="1.1"
   viewBox="0 0 525.00317 524.99689"
   id="svg1709"
   sodipodi:docname="logo.svg"
   inkscape:version="1.1.2 (b8e25be8, 2022-02-05)"
   xmlns:inkscape="http://www.inkscape.org/namespaces/inkscape"
   xmlns:sodipodi="http://sodipodi.sourceforge.net/DTD/sodipodi-0.dtd"
   xmlns="http://www.w3.org/2000/svg"
   xmlns:svg="http://www.w3.org/2000/svg">
  <sodipodi:namedview
     id="namedview1711"
     pagecolor="#ffffff"
     bordercolor="#666666"
     borderopacity="1.0"
     inkscape:pageshadow="2"
     inkscape:pageopacity="0.0"
     inkscape:pagecheckerboard="0"
     inkscape:document-units="pt"
     showgrid="false"
     fit-margin-top="0"
     fit-margin-left="0"
     fit-margin-right="0"
     fit-margin-bottom="0"
     inkscape:zoom="0.74892857"
     inkscape:cx="350.50072"
     inkscape:cy="764.42537"
     inkscape:window-width="1680"
     inkscape:window-height="925"
     inkscape:window-x="0"
     inkscape:window-y="23"
     inkscape:window-maximized="0"
     inkscape:current-layer="svg1709" />
  <defs
     id="defs1657" />
  <path
     d="m 209.997,490.0008 c 6.9609,0 13.641,-2.7656 18.562,-7.6875 4.921,-4.9219 7.6875,-11.602 7.6875,-18.562 0,-6.96 -2.7656,-13.641 -7.6875,-18.562 -4.9219,-4.921 -11.602,-7.6875 -18.562,-7.6875 -6.96,0 -13.641,2.7656 -18.562,7.6875 -4.921,4.9219 -7.6875,11.602 -7.6875,18.562 0,6.96 2.7656,13.641 7.6875,18.562 4.9219,4.921 11.602,7.6875 18.562,7.6875 z m 0,-35 c 3.5391,0 6.7305,2.1328 8.082,5.4023 1.3555,3.2695 0.60938,7.0312 -1.8945,9.5352 -2.50388,2.504 -6.2656,3.25 -9.5352,1.8945 -3.2695,-1.3516 -5.4023,-4.543 -5.4023,-8.082 0,-4.832 3.918,-8.75 8.75,-8.75 z"
     id="path1659" />
  <path
     d="m 253.747,332.5008 h 17.5 v 17.5 h -17.5 z"
     id="path1661" />
  <path
     d="m 516.247,87.500803 h -43.75 c -40.891,-1.3398 -81.211,-9.9883 -119.05,-25.543 -17.684,-7.7031 -35.832,-14.289 -54.34,-19.723 L 297.4976,8.3398033 c -0.21875,-4.6719 -4.0742,-8.34380004 -8.75,-8.3398000350622 h -52.5 C 231.5718,-0.00389674 227.7164,3.6680033 227.4976,8.3398033 l -1.6172,33.8979997 v -0.0039 c -18.508,5.4336 -36.656,12.02 -54.34,19.723 -37.84,15.551 -78.156,24.203 -119.04,25.543 h -43.75 c -4.832,0 -8.75,3.918 -8.75,8.75 V 131.2499 c 0,2.3203 0.92188,4.5469 2.5625,6.1875 1.64062,1.6406 3.8672,2.5625 6.1875,2.5625 h 46.035 l -53.594,91.875 C 0.58202,233.2655 0.1797,234.7421 0,236.2499 v 70 c 0,2.3203 0.92188,4.5469 2.5625,6.1875 0.82422,0.8125 20.598,20.062 67.438,20.062 46.84,0 66.613,-19.25 67.438,-20.062 1.6406,-1.6406 2.5625,-3.8672 2.5625,-6.1875 v -70 c -0.17969,-1.5078 -0.58203,-2.9844 -1.1914,-4.375 l -54.895,-94.141 c 32.496,-3.7812 64.305,-12.094 94.5,-24.691 16.238,-6.9375 31.266,-12.555 44.887,-16.815997 L 210.4036,367.4969 h -26.652 c -4.832,0 -8.75,3.918 -8.75,8.75 v 26.25 h -122.5 c -4.832,0 -8.75,3.918 -8.75,8.75 v 105 c 0,2.3203 0.92188,4.5469 2.5625,6.1875 1.64062,1.6406 3.8672,2.5625 6.1875,2.5625 h 420 c 2.3203,0 4.5469,-0.92188 6.1875,-2.5625 1.6406,-1.64062 2.5625,-3.8672 2.5625,-6.1875 v -105 c 0,-2.3203 -0.92188,-4.5469 -2.5625,-6.1875 -1.64062,-1.6406 -3.8672,-2.5625 -6.1875,-2.5625 h -122.5 v -26.25 c 0,-2.3203 -0.92188,-4.5469 -2.5625,-6.1875 -1.64062,-1.6406 -3.8672,-2.5625 -6.1875,-2.5625 h -26.652 L 301.6736,96.246903 c 13.625,4.261697 28.641,9.878897 44.879,16.815997 30.195,12.602 62.004,20.91 94.5,24.695 l -54.859,94.113 c -0.60938,1.3906 -1.0117,2.8672 -1.1914,4.375 v 70 c 0,2.3203 0.92188,4.5469 2.5625,6.1875 0.82422,0.8125 20.598,20.062 67.438,20.062 46.84,0 66.613,-19.25 67.438,-20.062 1.6406,-1.6406 2.5625,-3.8672 2.5625,-6.1875 v -70 c -0.17969,-1.5078 -0.58203,-2.9844 -1.1914,-4.375 l -53.594,-91.875 h 46.035 c 2.3203,0 4.5469,-0.92188 6.1875,-2.5625 1.6406,-1.64062 2.5625,-3.8672 2.5625,-6.1875 V 96.245903 c 0,-2.3203 -0.92188,-4.5469 -2.5625,-6.1875 -1.64062,-1.6406 -3.8672,-2.5625 -6.1875,-2.5625 z M 501.013,227.5008 h -92.031 l 46.016,-78.883 z m -50.469,-106.4 c -2.6289,-1.5234 -4.2578,-4.3164 -4.2969,-7.3516 -0.004,-3.2227 1.7656,-6.1836 4.6016,-7.7109 2.8359,-1.5273 6.2812,-1.375 8.9688,0.39844 2.6875,1.7773 4.1836,4.8867 3.8945,8.0938 -0.29297,3.207 -2.3203,5.9961 -5.2852,7.2617 -2.3984,-0.16797 -4.9766,-0.39453 -7.8828,-0.69141 z m -334.53,106.4 H 23.983 l 46.016,-78.883 z m -41.562,-106.4 c -2.9062,0.29688 -5.4844,0.50781 -7.875,0.69141 -2.9648,-1.2617 -5,-4.0508 -5.293,-7.2578 -0.29297,-3.2109 1.2031,-6.3203 3.8906,-8.0977 2.6914,-1.7773 6.1367,-1.9297 8.9727,-0.40234 2.8398,1.5273 4.6055,4.4922 4.6016,7.7148 -0.0391,3.0352 -1.668,5.8281 -4.2969,7.3516 z m -56.953,-16.102 h 27.859 c -2.1445,5.6367 -2.1445,11.863 0,17.5 H 17.499 Z m 105,197.02 c -15.812,9.4688 -34.098,13.992 -52.5,12.984 -18.402,1.0078 -36.688,-3.5117 -52.5,-12.977 v -22.023 h 43.75 v -17.5 h -43.75 v -17.5 h 105 z M 171.55,96.968803 v -0.004 C 147.257,107.1208 121.816,114.2848 95.796,118.3088 c 0.27734,-1.5 0.42969,-3.0234 0.45312,-4.5508 -0.0273,-4.2812 -1.1133,-8.4922 -3.168,-12.25 29.344,-4.136697 58.035,-12.026997 85.367,-23.476994 15.203,-6.5977 30.746,-12.387 46.566,-17.344 l -0.8125,17.027 c -17.918,5.371097 -35.496,11.796997 -52.652,19.249997 z M 288.75,420.0088 v 87.5 h -122.5 v -87.5 z m -227.5,0 h 17.5 v 87.5 h -17.5 z m 35,87.5 v -87.5 h 52.5 v 87.5 z m 210,0 v -87.5 h 17.5 v 87.5 z m 52.5,-87.5 v 87.5 h -17.5 v -87.5 z m 105,87.5 h -17.5 v -87.5 h 17.5 z m -35,-87.5 v 87.5 h -52.5 v -87.5 z m -96.25,-17.5 h -140 v -17.5 h 140 z m -104.57,-35 16.668,-349.999997 h 35.805 L 297.071,367.5088 Z m 72.871,-289.769997 -0.8125,-17.027 h -0.004 c 15.82,4.9531 31.363,10.742 46.566,17.344 27.336,11.441 56.023,19.328 85.367,23.456997 -2.0547,3.7578 -3.1406,7.9688 -3.168,12.25 0.0234,1.5273 0.17578,3.0508 0.45312,4.5508 -26.023,-4.0273 -51.465,-11.191 -75.766,-21.343997 -17.148,-7.4453 -34.727,-13.871 -52.641,-19.23 z m 154.2,237.269997 c -18.402,1.0078 -36.688,-3.5117 -52.5,-12.977 v -57.023 h 105 v 17.5 h -43.75 v 17.5 h 43.75 v 22.016 c -15.812,9.4688 -34.098,13.992 -52.5,12.984 z m 52.5,-192.5 h -27.859 c 2.1445,-5.6367 2.1445,-11.863 0,-17.5 h 27.859 z"
     id="path1663" />
  <path
     d="m 78.747,262.5008 h 17.5 v 17.5 h -17.5 z"
     id="path1665" />
  <path
     d="m 253.747,280.0008 h 17.5 v 35 h -17.5 z"
     id="path1667" />
  <path
     d="m 253.747,245.0008 h 17.5 v 17.5 h -17.5 z"
     id="path1669" />
</svg>
