<?xml version="1.0" encoding="UTF-8" standalone="no"?>
<svg
   width="362.7775pt"
   height="476.51077pt"
   version="1.1"
   viewBox="0 0 362.7775 476.51077"
   id="svg979"
   sodipodi:docname="logo.svg"
   inkscape:version="1.1.2 (b8e25be8, 2022-02-05)"
   xmlns:inkscape="http://www.inkscape.org/namespaces/inkscape"
   xmlns:sodipodi="http://sodipodi.sourceforge.net/DTD/sodipodi-0.dtd"
   xmlns="http://www.w3.org/2000/svg"
   xmlns:svg="http://www.w3.org/2000/svg">
  <sodipodi:namedview
     id="namedview981"
     pagecolor="#ffffff"
     bordercolor="#666666"
     borderopacity="1.0"
     inkscape:pageshadow="2"
     inkscape:pageopacity="0.0"
     inkscape:pagecheckerboard="0"
     inkscape:document-units="pt"
     showgrid="false"
     fit-margin-top="0"
     fit-margin-left="0"
     fit-margin-right="0"
     fit-margin-bottom="0"
     inkscape:zoom="0.74678571"
     inkscape:cx="208.22573"
     inkscape:cy="421.13821"
     inkscape:window-width="1312"
     inkscape:window-height="925"
     inkscape:window-x="0"
     inkscape:window-y="23"
     inkscape:window-maximized="0"
     inkscape:current-layer="svg979" />
  <defs
     id="defs893">
    <symbol
       id="w"
       overflow="visible">
      <path
         d="m 18.766,-1.125 c -0.96875,0.5 -1.9805,0.875 -3.0312,1.125 -1.043,0.25781 -2.1367,0.39062 -3.2812,0.39062 -3.3984,0 -6.0898,-0.94531 -8.0781,-2.8438 -1.9922,-1.9062 -2.9844,-4.4844 -2.9844,-7.7344 0,-3.2578 0.99219,-5.8359 2.9844,-7.7344 1.9883,-1.9062 4.6797,-2.8594 8.0781,-2.8594 1.1445,0 2.2383,0.13281 3.2812,0.39062 1.0508,0.25 2.0625,0.625 3.0312,1.125 v 4.2188 c -0.98047,-0.65625 -1.9453,-1.1406 -2.8906,-1.4531 -0.94922,-0.3125 -1.9492,-0.46875 -3,-0.46875 -1.875,0 -3.3516,0.60547 -4.4219,1.8125 -1.0742,1.1992 -1.6094,2.8555 -1.6094,4.9688 0,2.1055 0.53516,3.7617 1.6094,4.9688 1.0703,1.1992 2.5469,1.7969 4.4219,1.7969 1.0508,0 2.0508,-0.14844 3,-0.45312 0.94531,-0.3125 1.9102,-0.80078 2.8906,-1.4688 z"
         id="path824" />
    </symbol>
    <symbol
       id="c"
       overflow="visible">
      <path
         d="m 13.734,-11.141 c -0.4375,-0.19531 -0.87109,-0.34375 -1.2969,-0.4375 -0.41797,-0.10156 -0.83984,-0.15625 -1.2656,-0.15625 -1.2617,0 -2.2305,0.40625 -2.9062,1.2188 -0.67969,0.80469 -1.0156,1.9531 -1.0156,3.4531 v 7.0625 H 2.3591 v -15.312 h 4.8906 v 2.5156 c 0.625,-1 1.3438,-1.7266 2.1562,-2.1875 0.82031,-0.46875 1.8008,-0.70312 2.9375,-0.70312 0.16406,0 0.34375,0.01172 0.53125,0.03125 0.19531,0.01172 0.47656,0.03906 0.84375,0.07813 z"
         id="path827" />
    </symbol>
    <symbol
       id="a"
       overflow="visible">
      <path
         d="m 17.641,-7.7031 v 1.4062 H 6.188 c 0.125,1.1484 0.53906,2.0078 1.25,2.5781 0.70703,0.57422 1.7031,0.85938 2.9844,0.85938 1.0312,0 2.082,-0.14844 3.1562,-0.45312 1.082,-0.3125 2.1914,-0.77344 3.3281,-1.3906 v 3.7656 c -1.1562,0.4375 -2.3125,0.76562 -3.4688,0.98438 -1.1562,0.22656 -2.3125,0.34375 -3.4688,0.34375 -2.7734,0 -4.9297,-0.70312 -6.4688,-2.1094 -1.5312,-1.4062 -2.2969,-3.3789 -2.2969,-5.9219 0,-2.5 0.75391,-4.4609 2.2656,-5.8906 1.5078,-1.4375 3.582,-2.1562 6.2188,-2.1562 2.4062,0 4.332,0.73047 5.7812,2.1875 1.4453,1.4492 2.1719,3.3828 2.1719,5.7969 z m -5.0312,-1.625 c 0,-0.92578 -0.27344,-1.6719 -0.8125,-2.2344 -0.54297,-0.57031 -1.25,-0.85938 -2.125,-0.85938 -0.94922,0 -1.7188,0.26562 -2.3125,0.79688 -0.5937,0.53126 -0.96484,1.2969 -1.1094,2.2969 z"
         id="path830" />
    </symbol>
    <symbol
       id="g"
       overflow="visible">
      <path
         d="m 9.2188,-6.8906 c -1.0234,0 -1.793,0.17188 -2.3125,0.51562 -0.51172,0.34375 -0.76562,0.85547 -0.76562,1.5312 0,0.625 0.20703,1.1172 0.625,1.4688 0.41406,0.34375 0.98828,0.51562 1.7188,0.51562 0.92578,0 1.7031,-0.32812 2.3281,-0.98438 0.63281,-0.66406 0.95312,-1.4922 0.95312,-2.4844 v -0.5625 z m 7.4688,-1.8438 V 0 h -4.9219 v -2.2656 c -0.65625,0.92969 -1.3984,1.6055 -2.2188,2.0312 -0.82422,0.41406 -1.8242,0.625 -3,0.625 -1.5859,0 -2.8711,-0.45703 -3.8594,-1.375 -0.99219,-0.92578 -1.4844,-2.1289 -1.4844,-3.6094 0,-1.7891 0.61328,-3.1016 1.8438,-3.9375 1.2383,-0.84375 3.1797,-1.2656 5.8281,-1.2656 h 2.8906 v -0.39062 c 0,-0.76953 -0.30859,-1.332 -0.92188,-1.6875 -0.61719,-0.36328 -1.5703,-0.54688 -2.8594,-0.54688 -1.0547,0 -2.0312,0.10547 -2.9375,0.3125 -0.89844,0.21094 -1.7305,0.52344 -2.5,0.9375 v -3.7344 c 1.0391,-0.25 2.0859,-0.44141 3.1406,-0.57812 1.0625,-0.13281 2.125,-0.20312 3.1875,-0.20312 2.7578,0 4.75,0.54688 5.9688,1.6406 1.2266,1.0859 1.8438,2.8555 1.8438,5.3125 z"
         id="path833" />
    </symbol>
    <symbol
       id="b"
       overflow="visible">
      <path
         d="m 7.7031,-19.656 v 4.3438 H 12.75 v 3.5 H 7.7031 v 6.5 c 0,0.71094 0.14062,1.1875 0.42188,1.4375 0.28126,0.25 0.83594,0.375 1.6719,0.375 h 2.5156 v 3.5 h -4.1875 c -1.9375,0 -3.3125,-0.39844 -4.125,-1.2031 -0.80469,-0.8125 -1.2031,-2.1797 -1.2031,-4.1094 v -6.5 h -2.4219 v -3.5 h 2.4219 v -4.3438 z"
         id="path836" />
    </symbol>
    <symbol
       id="f"
       overflow="visible">
      <path
         d="m 12.766,-13.078 v -8.2031 h 4.9219 V -10e-5 H 12.766 v -2.2188 c -0.66797,0.90625 -1.4062,1.5703 -2.2188,1.9844 -0.8126,0.4141 -1.7578,0.625 -2.8281,0.625 -1.8867,0 -3.4336,-0.75 -4.6406,-2.25 -1.2109,-1.5 -1.8125,-3.4258 -1.8125,-5.7812 0,-2.3633 0.60156,-4.2969 1.8125,-5.7969 1.207,-1.5 2.7539,-2.25 4.6406,-2.25 1.0625,0 2,0.21484 2.8125,0.64062 0.82031,0.42969 1.5664,1.0859 2.2344,1.9688 z m -3.2188,9.9219 c 1.0391,0 1.8359,-0.37891 2.3906,-1.1406 0.55078,-0.76953 0.82812,-1.8828 0.82812,-3.3438 0,-1.457 -0.27734,-2.5664 -0.82812,-3.3281 -0.55469,-0.76953 -1.3516,-1.1562 -2.3906,-1.1562 -1.043,0 -1.8398,0.38672 -2.3906,1.1562 -0.55469,0.76172 -0.82812,1.8711 -0.82812,3.3281 0,1.4609 0.27344,2.5742 0.82812,3.3438 0.55078,0.76172 1.3477,1.1406 2.3906,1.1406 z"
         id="path839" />
    </symbol>
    <symbol
       id="k"
       overflow="visible">
      <path
         d="m 10.5,-3.1562 c 1.0508,0 1.8516,-0.37891 2.4062,-1.1406 0.55078,-0.76953 0.82812,-1.8828 0.82812,-3.3438 0,-1.457 -0.27734,-2.5664 -0.82812,-3.3281 -0.55469,-0.76953 -1.3555,-1.1562 -2.4062,-1.1562 -1.0547,0 -1.8594,0.38672 -2.4219,1.1562 -0.55469,0.77344 -0.82812,1.8828 -0.82812,3.3281 0,1.4492 0.27344,2.5586 0.82812,3.3281 0.5625,0.77344 1.3672,1.1562 2.4219,1.1562 z m -3.25,-9.9219 c 0.67578,-0.88281 1.4219,-1.5391 2.2344,-1.9688 0.82031,-0.42578 1.7656,-0.64062 2.8281,-0.64062 1.8945,0 3.4453,0.75 4.6562,2.25 1.207,1.5 1.8125,3.4336 1.8125,5.7969 0,2.3555 -0.60547,4.2812 -1.8125,5.7812 -1.2109,1.5 -2.7617,2.25 -4.6562,2.25 -1.0625,0 -2.0078,-0.21094 -2.8281,-0.625 C 8.6719,-0.6602 7.9258,-1.32032 7.25,-2.21882 V -2e-5 H 2.3594 v -21.281 H 7.25 Z"
         id="path842" />
    </symbol>
    <symbol
       id="j"
       overflow="visible">
      <path
         d="m 0.34375,-15.312 h 4.8906 l 4.125,10.391 3.5,-10.391 h 4.8906 l -6.4375,16.766 c -0.64844,1.6953 -1.4023,2.8828 -2.2656,3.5625 -0.86719,0.6875 -2,1.0312 -3.4062,1.0312 H 2.79685 V 2.8289 h 1.5312 c 0.83203,0 1.4375,-0.13672 1.8125,-0.40625 C 6.52336,2.16093 6.82024,1.69218 7.03117,1.01645 L 7.17179,0.59457 Z"
         id="path845" />
    </symbol>
    <symbol
       id="i"
       overflow="visible">
      <path
         d="m 2.5781,-20.406 h 5.25 V -1.984 C 7.8281,0.5551 7.13279,2.4574 5.75,3.7191 4.375,4.9769 2.2891,5.6097 -0.5,5.6097 H -1.5781 V 1.6253 h 0.82812 c 1.0938,0 1.9219,-0.30859 2.4844,-0.92188 0.5625,-0.60547 0.84375,-1.5 0.84375,-2.6875 z"
         id="path848" />
    </symbol>
    <symbol
       id="h"
       overflow="visible">
      <path
         d="M 17.75,-9.3281 V 0 h -4.9219 v -7.1094 c 0,-1.3438 -0.03125,-2.2656 -0.09375,-2.7656 -0.0625,-0.5 -0.16797,-0.86719 -0.3125,-1.1094 -0.1875,-0.3125 -0.44922,-0.55469 -0.78125,-0.73438 -0.32422,-0.17578 -0.69531,-0.26562 -1.1094,-0.26562 -1.0234,0 -1.8242,0.39844 -2.4062,1.1875 -0.58594,0.78125 -0.875,1.8711 -0.875,3.2656 V -1e-4 H 2.3594 v -21.281 H 7.25 v 8.2031 c 0.73828,-0.88281 1.5195,-1.5391 2.3438,-1.9688 0.83203,-0.42578 1.75,-0.64062 2.75,-0.64062 1.7695,0 3.1133,0.54688 4.0312,1.6406 0.91406,1.0859 1.375,2.6562 1.375,4.7188 z"
         id="path851" />
    </symbol>
    <symbol
       id="e"
       overflow="visible">
      <path
         d="M 17.75,-9.3281 V 0 h -4.9219 v -7.1406 c 0,-1.3203 -0.03125,-2.2344 -0.09375,-2.7344 -0.0625,-0.5 -0.16797,-0.86719 -0.3125,-1.1094 -0.1875,-0.3125 -0.44922,-0.55469 -0.78125,-0.73438 -0.32422,-0.17578 -0.69531,-0.26562 -1.1094,-0.26562 -1.0234,0 -1.8242,0.39844 -2.4062,1.1875 -0.58594,0.78125 -0.875,1.8711 -0.875,3.2656 V -1e-4 H 2.3594 v -15.312 H 7.25 v 2.2344 c 0.73828,-0.88281 1.5195,-1.5391 2.3438,-1.9688 0.83203,-0.42578 1.75,-0.64062 2.75,-0.64062 1.7695,0 3.1133,0.54688 4.0312,1.6406 0.91406,1.0859 1.375,2.6562 1.375,4.7188 z"
         id="path854" />
    </symbol>
    <symbol
       id="v"
       overflow="visible">
      <path
         d="m 11.359,-7.375 c 0,1.125 0.23828,2.0117 0.71875,2.6562 0.47656,0.64844 1.1289,0.96875 1.9531,0.96875 0.8125,0 1.457,-0.32031 1.9375,-0.96875 0.47656,-0.65625 0.71875,-1.5391 0.71875,-2.6562 0,-1.1016 -0.24609,-1.9727 -0.73438,-2.6094 -0.48047,-0.64453 -1.1328,-0.96875 -1.9531,-0.96875 -0.80469,0 -1.4453,0.32422 -1.9219,0.96875 -0.48047,0.63672 -0.71875,1.5078 -0.71875,2.6094 z m 5.6094,4.125 c -0.27344,0.64844 -0.71484,1.1523 -1.3281,1.5156 -0.60547,0.35547 -1.3125,0.53125 -2.125,0.53125 -1.5625,0 -2.8359,-0.56641 -3.8125,-1.7031 -0.98047,-1.1328 -1.4688,-2.6133 -1.4688,-4.4375 0,-1.8203 0.48828,-3.3008 1.4688,-4.4375 0.98828,-1.1445 2.2578,-1.7188 3.8125,-1.7188 0.8125,0 1.5195,0.18359 2.125,0.54688 0.61328,0.36719 1.0547,0.87109 1.3281,1.5156 v -1.7812 h 2.8594 v 9.4688 c 1.125,-0.16406 2.0078,-0.70703 2.6562,-1.625 0.65625,-0.91406 0.98438,-2.0938 0.98438,-3.5312 0,-0.90625 -0.13672,-1.7539 -0.40625,-2.5469 -0.26172,-0.80078 -0.66406,-1.5352 -1.2031,-2.2031 -0.86719,-1.1133 -1.9492,-1.9688 -3.25,-2.5625 -1.293,-0.60156 -2.6992,-0.90625 -4.2188,-0.90625 -1.0547,0 -2.0625,0.14062 -3.0312,0.42188 -0.96875,0.27344 -1.8594,0.67969 -2.6719,1.2188 -1.3555,0.88672 -2.4062,2.0391 -3.1562,3.4531 -0.75,1.418 -1.125,2.9531 -1.125,4.6094 0,1.3555 0.23828,2.6328 0.71875,3.8281 0.48828,1.1875 1.1953,2.2344 2.125,3.1406 0.90625,0.89453 1.9453,1.5781 3.125,2.0469 1.1875,0.46875 2.4531,0.70312 3.7969,0.70312 1.1445,0 2.2891,-0.21484 3.4375,-0.64062 1.1445,-0.42969 2.125,-1.0078 2.9375,-1.7344 l 1.4688,2.2188 c -1.1484,0.875 -2.3906,1.5469 -3.7344,2.0156 -1.3438,0.47656 -2.7109,0.71875 -4.0938,0.71875 -1.6875,0 -3.2812,-0.30469 -4.7812,-0.90625 -1.4922,-0.59375 -2.8203,-1.4609 -3.9844,-2.5938 -1.168,-1.1484 -2.0586,-2.4688 -2.6719,-3.9688 -0.60547,-1.5 -0.90625,-3.1094 -0.90625,-4.8281 0,-1.6562 0.30469,-3.2344 0.92188,-4.7344 0.625,-1.5078 1.5078,-2.8359 2.6562,-3.9844 1.1562,-1.125 2.4922,-1.9922 4.0156,-2.6094 1.5312,-0.625 3.1133,-0.9375 4.75,-0.9375 2.0391,0 3.8945,0.39062 5.5625,1.1719 1.6758,0.78125 3.0703,1.9023 4.1875,3.3594 0.6875,0.89844 1.2031,1.8711 1.5469,2.9219 0.35156,1.043 0.53125,2.1367 0.53125,3.2812 0,2.4688 -0.74609,4.3867 -2.2344,5.75 -1.4805,1.3672 -3.5742,2.0469 -6.2812,2.0469 h -0.53125 z"
         id="path857" />
    </symbol>
    <symbol
       id="u"
       overflow="visible">
      <path
         d="m 14.312,-14.828 v 3.7188 c -1.043,-0.4375 -2.0547,-0.76562 -3.0312,-0.98438 -0.98047,-0.21875 -1.9023,-0.32812 -2.7656,-0.32812 -0.92969,0 -1.6211,0.11719 -2.0781,0.34375 -0.44922,0.23047 -0.67188,0.58984 -0.67188,1.0781 0,0.38672 0.17188,0.68359 0.51562,0.89062 0.34375,0.21094 0.95703,0.36719 1.8438,0.46875 l 0.85938,0.125 c 2.5078,0.32422 4.1953,0.85156 5.0625,1.5781 0.86328,0.73047 1.2969,1.8711 1.2969,3.4219 0,1.6367 -0.60547,2.8672 -1.8125,3.6875 -1.1992,0.8125 -2.9922,1.2188 -5.375,1.2188 -1.0234,0 -2.0742,-0.078125 -3.1562,-0.23438 -1.0742,-0.15625 -2.1797,-0.39453 -3.3125,-0.71875 v -3.7188 c 0.96875,0.48047 1.9609,0.83984 2.9844,1.0781 1.0312,0.23047 2.0781,0.34375 3.1406,0.34375 0.95703,0 1.6758,-0.12891 2.1562,-0.39062 0.47656,-0.26953 0.71875,-0.66406 0.71875,-1.1875 0,-0.4375 -0.16797,-0.75781 -0.5,-0.96875 -0.33594,-0.21875 -0.99609,-0.38281 -1.9844,-0.5 L 7.34339,-6.01551 c -2.1797,-0.26953 -3.7031,-0.77344 -4.5781,-1.5156 -0.875,-0.73828 -1.3125,-1.8594 -1.3125,-3.3594 0,-1.625 0.55078,-2.8281 1.6562,-3.6094 1.1133,-0.78906 2.8203,-1.1875 5.125,-1.1875 0.89453,0 1.8359,0.07422 2.8281,0.21875 1,0.13672 2.082,0.35156 3.25,0.64062 z"
         id="path860" />
    </symbol>
    <symbol
       id="t"
       overflow="visible">
      <path
         d="M 2.3594,-15.312 H 7.25 V 0 H 2.3594 Z m 0,-5.9688 H 7.25 v 4 H 2.3594 Z"
         id="path863" />
    </symbol>
    <symbol
       id="s"
       overflow="visible">
      <path
         d="m 12.766,-2.5938 c -0.66797,0.88672 -1.4062,1.543 -2.2188,1.9688 C 9.7347,-0.20703 8.7894,0 7.7191,0 5.8519,0 4.3129,-0.73438 3.0941,-2.2031 1.8753,-3.6797 1.266,-5.5547 1.266,-7.8281 c 0,-2.2891 0.60938,-4.1641 1.8281,-5.625 1.2188,-1.4688 2.7578,-2.2031 4.625,-2.2031 1.0703,0 2.0156,0.21484 2.8281,0.64062 0.8125,0.41797 1.5508,1.0742 2.2188,1.9688 v -2.2656 h 4.9219 v 13.766 c 0,2.457 -0.77734,4.3359 -2.3281,5.6406 -1.5547,1.3008 -3.8086,1.9531 -6.7656,1.9531 -0.94922,0 -1.8711,-0.074219 -2.7656,-0.21875 C 4.93016,5.68013 4.0317,5.45748 3.1255,5.15669 v -3.8125 c 0.86328,0.48828 1.7031,0.85156 2.5156,1.0938 0.82031,0.23828 1.6484,0.35938 2.4844,0.35938 1.6016,0 2.7734,-0.35156 3.5156,-1.0469 0.75,-0.69922 1.125,-1.7969 1.125,-3.2969 z M 9.5472,-12.125 c -1.0117,0 -1.8047,0.375 -2.375,1.125 -0.5625,0.74219 -0.84375,1.7969 -0.84375,3.1719 0,1.3984 0.26953,2.4609 0.8125,3.1875 0.55078,0.71875 1.3516,1.0781 2.4062,1.0781 1.0195,0 1.8125,-0.36719 2.375,-1.1094 0.5625,-0.75 0.84375,-1.8008 0.84375,-3.1562 0,-1.375 -0.28125,-2.4297 -0.84375,-3.1719 -0.5625,-0.75 -1.3555,-1.125 -2.375,-1.125 z"
         id="path866" />
    </symbol>
    <symbol
       id="r"
       overflow="visible">
      <path
         d="m 12.422,-21.281 v 3.2188 H 9.7189 c -0.6875,0 -1.1719,0.125 -1.4531,0.375 -0.27344,0.25 -0.40625,0.6875 -0.40625,1.3125 v 1.0625 h 4.1875 v 3.5 H 7.85955 V -2e-4 h -4.8906 v -11.812 h -2.4375 v -3.5 h 2.4375 v -1.0625 c 0,-1.6641 0.46094,-2.8984 1.3906,-3.7031 0.92578,-0.80078 2.3672,-1.2031 4.3281,-1.2031 z"
         id="path869" />
    </symbol>
    <symbol
       id="d"
       overflow="visible">
      <path
         d="m 9.6406,-12.188 c -1.0859,0 -1.9141,0.39062 -2.4844,1.1719 -0.57422,0.78125 -0.85938,1.9062 -0.85938,3.375 0,1.4688 0.28516,2.5938 0.85938,3.375 0.57031,0.77344 1.3984,1.1562 2.4844,1.1562 1.0625,0 1.875,-0.38281 2.4375,-1.1562 0.57031,-0.78125 0.85938,-1.9062 0.85938,-3.375 0,-1.4688 -0.28906,-2.5938 -0.85938,-3.375 -0.5625,-0.78125 -1.375,-1.1719 -2.4375,-1.1719 z m 0,-3.5 c 2.6328,0 4.6914,0.71484 6.1719,2.1406 1.4766,1.418 2.2188,3.3867 2.2188,5.9062 0,2.5117 -0.74219,4.4805 -2.2188,5.9062 C 14.332,-0.317 12.2734,0.39 9.6406,0.39 6.9922,0.39 4.9258,-0.31703 3.4375,-1.735 1.9453,-3.1608 1.2031,-5.1295 1.2031,-7.6412 c 0,-2.5195 0.74219,-4.4883 2.2344,-5.9062 1.4883,-1.4258 3.5547,-2.1406 6.2031,-2.1406 z"
         id="path872" />
    </symbol>
    <symbol
       id="q"
       overflow="visible">
      <path
         d="m 16.547,-12.766 c 0.61328,-0.94531 1.3477,-1.6719 2.2031,-2.1719 0.85156,-0.5 1.7891,-0.75 2.8125,-0.75 1.7578,0 3.0977,0.54688 4.0156,1.6406 0.92578,1.0859 1.3906,2.6562 1.3906,4.7188 V -4e-4 h -4.9219 v -7.9844 -0.35938 c 0.0078,-0.13281 0.01563,-0.32031 0.01563,-0.5625 0,-1.082 -0.16406,-1.8633 -0.48438,-2.3438 -0.3125,-0.48828 -0.82422,-0.73438 -1.5312,-0.73438 -0.92969,0 -1.6484,0.38672 -2.1562,1.1562 -0.51172,0.76172 -0.77344,1.8672 -0.78125,3.3125 v 7.5156 h -4.9219 v -7.9844 c 0,-1.6953 -0.14844,-2.7852 -0.4375,-3.2656 -0.29297,-0.48828 -0.8125,-0.73438 -1.5625,-0.73438 -0.9375,0 -1.6641,0.38672 -2.1719,1.1562 -0.51172,0.76172 -0.76562,1.8594 -0.76562,3.2969 v 7.5312 h -4.9219 v -15.312 h 4.9219 v 2.2344 c 0.60156,-0.86328 1.2891,-1.5156 2.0625,-1.9531 0.78125,-0.4375 1.6406,-0.65625 2.5781,-0.65625 1.0625,0 2,0.25781 2.8125,0.76562 0.8125,0.51172 1.4258,1.2305 1.8438,2.1562 z"
         id="path875" />
    </symbol>
    <symbol
       id="p"
       overflow="visible">
      <path
         d="m 2.5781,-20.406 h 5.875 l 7.4219,14 v -14 h 4.9844 V 0 h -5.875 L 7.5625,-14 V 0 H 2.5781 Z"
         id="path878" />
    </symbol>
    <symbol
       id="o"
       overflow="visible">
      <path
         d="m 2.1875,-5.9688 v -9.3438 h 4.9219 v 1.5312 c 0,0.83594 -0.00781,1.875 -0.015625,3.125 -0.011719,1.25 -0.015625,2.0859 -0.015625,2.5 0,1.2422 0.03125,2.1328 0.09375,2.6719 0.070313,0.54297 0.17969,0.93359 0.32812,1.1719 0.20703,0.32422 0.47266,0.57422 0.79688,0.75 0.32031,0.16797 0.69141,0.25 1.1094,0.25 1.0195,0 1.8203,-0.39062 2.4062,-1.1719 0.58203,-0.78125 0.875,-1.8672 0.875,-3.2656 v -7.5625 h 4.8906 V -6e-4 H 12.6875 V -2.2194 C 11.94531,-1.32096 11.1641,-0.6608 10.3437,-0.235 9.51948,0.17906 8.6093,0.39 7.6093,0.39 5.8476,0.39 4.5038,-0.14906 3.5781,-1.235 2.64841,-2.317 2.1875,-3.8952 2.1875,-5.9694 Z"
         id="path881" />
    </symbol>
    <symbol
       id="n"
       overflow="visible">
      <path
         d="m 2.5781,-20.406 h 8.7344 c 2.5938,0 4.582,0.57812 5.9688,1.7344 1.3945,1.1484 2.0938,2.7891 2.0938,4.9219 0,2.1367 -0.69922,3.7812 -2.0938,4.9375 -1.3867,1.1562 -3.375,1.7344 -5.9688,1.7344 H 7.8281 V 3e-4 h -5.25 z m 5.25,3.8125 v 5.7031 H 10.75 c 1.0195,0 1.8047,-0.25 2.3594,-0.75 0.5625,-0.5 0.84375,-1.2031 0.84375,-2.1094 0,-0.91406 -0.28125,-1.6172 -0.84375,-2.1094 -0.55469,-0.48828 -1.3398,-0.73438 -2.3594,-0.73438 z"
         id="path884" />
    </symbol>
    <symbol
       id="m"
       overflow="visible">
      <path
         d="M 2.3594,-15.312 H 7.25 v 15.031 c 0,2.0508 -0.49609,3.6172 -1.4844,4.7031 -0.98047,1.082 -2.4062,1.625 -4.2812,1.625 H -0.9375 V 2.8283 h 0.85938 c 0.92578,0 1.5625,-0.21094 1.9062,-0.625 0.35156,-0.41797 0.53125,-1.2461 0.53125,-2.4844 z m 0,-5.9688 H 7.25 v 4 H 2.3594 Z"
         id="path887" />
    </symbol>
    <symbol
       id="l"
       overflow="visible">
      <path
         d="m 14.719,-14.828 v 3.9844 c -0.65625,-0.45703 -1.3242,-0.79688 -2,-1.0156 -0.66797,-0.21875 -1.3594,-0.32812 -2.0781,-0.32812 -1.3672,0 -2.4336,0.40234 -3.2031,1.2031 -0.76172,0.79297 -1.1406,1.9062 -1.1406,3.3438 0,1.4297 0.37891,2.543 1.1406,3.3438 0.76953,0.79297 1.8359,1.1875 3.2031,1.1875 0.75781,0 1.4844,-0.10938 2.1719,-0.32812 0.6875,-0.22656 1.3203,-0.56641 1.9062,-1.0156 v 4 c -0.76172,0.28125 -1.5391,0.48828 -2.3281,0.625 -0.78125,0.14453 -1.5742,0.21875 -2.375,0.21875 -2.7617,0 -4.9219,-0.70703 -6.4844,-2.125 -1.5547,-1.4141 -2.3281,-3.3828 -2.3281,-5.9062 0,-2.5312 0.77344,-4.5039 2.3281,-5.9219 1.5625,-1.4141 3.7227,-2.125 6.4844,-2.125 0.80078,0 1.5938,0.07422 2.375,0.21875 0.78125,0.13672 1.5547,0.35156 2.3281,0.64062 z"
         id="path890" />
    </symbol>
  </defs>
  <path
     d="m 56.531901,0.03725342 c -2,0.13281 -4.0664,0.69141 -5.9492,1.74999998 -18.066,10.1559996 -25.73,20.8159996 -25.551,28.1759996 -4.9414,3.1797 -10.715,6.3281 -15.5740003,10.148 -3,2.3594 -5.7109,5.0312 -7.5234,8.3984 -1.76169999,3.2695 -2.40619999,7.2305 -1.57419999,11.375 0.0117,0.11328 -0.0117,0.23828 0,0.35156 C 6.2312007,112.20121 10.598101,169.30621 28.536101,214.58621 c 13.32,33.625 34.832,60.703 69.473,73.152 v 4.375 c 0,9.9141 8.105499,18.023 18.022999,18.023 h 6.6484 v 12.773 c 0,7.8008 5.3906,14.383 12.602,16.273 v 57.055 c 0,31.16 9.1406,53.109 23.625,66.148 14.484,13.043 33.934,16.699 53.199,12.426 25.078,-5.5664 36.328,-23.609 40.074,-41.824 3.7461,-18.215 0.85547,-36.844 -0.875,-46.199 -3.3164,-17.934 5.1523,-28.402 16.273,-30.625 10.691,-2.1367 24.965,3.7656 34.824,23.273 -12.48,6.9375 -21,20.27 -21,35.523 0,22.398 18.352,40.602 40.773,40.602 22.426,0 40.602,-18.199 40.602,-40.602 0,-22.398 -18.176,-40.602 -40.602,-40.602 -4.2031,0 -8.2578,0.5625 -12.074,1.75 -11.098,-22.301 -29.004,-31.191 -44.102,-28.176 -15.582,3.1133 -26.859,18.977 -22.926,40.25 1.668,9.0078 4.2109,26.824 0.875,43.051 -3.3359,16.227 -11.633,30.652 -33.602,35.523 -17.137,3.8047 -33.543,0.41016 -45.852,-10.676 -12.309,-11.082 -20.824,-30.32 -20.824,-59.852 v -57.055 c 7.2695,-1.875 12.773,-8.4609 12.773,-16.273 v -12.773 h 6.4766 c 9.918,0 18.023,-8.1094 18.023,-18.023 v -4.8984 c 10.16,-4.1328 19.184,-9.7188 26.949,-16.625 16.988,-15.102 28.535,-35.887 36.75,-59.328 16.375,-46.711 19.691,-104.07 24.852,-150.149997 0.004,-0.0547 -0.004,-0.12109 0,-0.17578 0.0273,-0.125 -0.0273,-0.22656 0,-0.35156 0.89844,-4.043 0.37109,-8.0195 -1.3984,-11.199 -1.8516,-3.3281 -4.7383,-5.9648 -7.875,-8.2266 -5.1211,-3.6914 -11.25,-6.6797 -16.977,-10.148 -0.31641,-7.3477 -8.3594,-17.445 -26.773,-26.6019996 -2.5781,-1.2812 -5.4102,-1.7617 -8.0508,-1.3984 -4.3984,0.60547 -8.3633,3.4062 -10.5,7.6991996 l -2.1016,4.0234 c -3.4219,6.8672 -0.57422,15.133 6.3008,18.551 18.137,9.3047 31.336,9.6055 37.449,5.25 5.8867,3.582 11.668,6.5078 15.75,9.4492 2.6094,1.8789 4.4922,3.7539 5.4258,5.4258 0.92969,1.6719 1.1484,3.168 0.52344,5.6016 -0.0117,0.17578 -0.0117,0.35156 0,0.52344 -5.2305,46.530997 -8.8438,103.769997 -24.676,148.929997 -7.918,22.578 -18.77,42.02 -34.301,55.824 -6.7969,6.0391 -14.527,10.973 -23.273,14.699 -2.9609,-5.9375 -9.043,-10.148 -16.102,-10.148 h -46.898 c -7.3359,0 -13.633,4.5273 -16.448999,10.852 -31.676,-11.477 -50.523,-36.137 -63.172,-68.074 -17.246,-43.539 -21.734,-100.51 -27.6480003,-152.769997 -0.0508,-0.12109 -0.11328,-0.23438 -0.17578,-0.35156 -0.54297,-2.4414 -0.125,-4.0938 0.875,-5.9492 1.0000003,-1.8555 2.7617003,-3.8164 5.2500003,-5.7734 3.9688,-3.1211 9.293,-6.2109 14.523,-9.625 6.3594,3.9766 19.539,2.9922 37.102,-7.1758 6.6914,-3.7617 9.0156,-12.215 5.25,-18.898 l -2.1016,-3.8515996 c -2.3516,-4.1797 -6.5938,-6.81639998 -11.023,-7.17579998 -0.66406,-0.05469 -1.2578,-0.04297 -1.9258,0 z m 36.398,69.30099958 c -23.203,0.62891 -47.352,16.746 -50.051,43.925997 -2.0234,20.41 0.60156,41.363 13.477,61.254 12.871,19.887 35.848,38.641 74.026999,55.648 1.0625,0.45703 2.2656,0.45703 3.3281,0 49.973,-22.266 73.902,-47.527 83.125,-74.199 h 6.6484 c 1.125,0.0156 2.2109,-0.42187 3.0117,-1.2109 0.8008,-0.78903 1.25,-1.8672 1.25,-2.9922 0,-1.125 -0.44922,-2.1992 -1.25,-2.9922 -0.80078,-0.78906 -1.8867,-1.2227 -3.0117,-1.207 h -56.172 l -11.551,-26.426 c -0.67969,-1.6211 -2.3008,-2.6484 -4.0586,-2.5703 -1.7578,0.0781 -3.2812,1.2461 -3.8164,2.9219 l -15.574,46.898 -14.523,-52.852 v 0.004 c -0.47656,-1.8398 -2.1289,-3.1328 -4.0273,-3.1523 -1.8516,-0.004 -3.4844,1.207 -4.0234,2.9766 l -11.198999,32.199 h -28.527 c -1.125,-0.0156 -2.207,0.41797 -3.0078,1.207 -0.80469,0.78906 -1.2539,1.8672 -1.2539,2.9922 0,1.125 0.44922,2.2031 1.2539,2.9922 0.80078,0.78906 1.8828,1.2266 3.0078,1.207 H 101.5127 c 1.7383,-0.043 3.2695,-1.1562 3.8516,-2.7969 l 7.875,-22.398 14.699,53.023 c 0.49219,1.793 2.1016,3.0469 3.9609,3.0898 1.8555,0.0391 3.5195,-1.1484 4.0898,-2.918 l 16.449,-49.352 8.2266,18.727 -0.004,0.004 c 0.63672,1.5703 2.1562,2.6055 3.8516,2.625 h 43.398 c -8.8828,22.789 -30.348,44.973 -75.945,65.625 -36.042999,-16.34 -57.108999,-33.871 -68.601999,-51.625 -11.699,-18.07 -13.98,-36.621 -12.074,-55.824 2.2422,-22.612997 22.312,-35.870997 41.824,-36.397997 15.175999,-0.41016 29.394999,6.5586 34.999999,23.272997 l 0.004,-0.004 c 0.60938,1.6484 2.1797,2.7383 3.9336,2.7383 1.7578,0 3.3281,-1.0898 3.9375,-2.7383 6.4062,-19.104997 24.133,-25.561997 41.477,-22.573997 17.34,2.9883 33.18,15.602 35.176,35.698997 0.63281,6.3867 0.83594,12.824 0.35156,19.074 l -0.004,0.004 c -0.0703,1.1133 0.30859,2.207 1.0469,3.0469 0.73828,0.83594 1.7773,1.3438 2.8906,1.4141 2.3203,0.14453 4.3203,-1.6172 4.4648,-3.9375 0.53125,-6.8359 0.32422,-13.688 -0.35156,-20.477 -2.3984,-24.159997 -21.711,-39.522997 -42.176,-43.050997 -17.965,-3.0977 -36.969,3.8008 -46.727,21 -8.3711,-14.871 -23.621,-22.297 -39.198999,-21.875 z M 116.0319,277.23825 h 46.898 c 5.3906,0 9.625,4.3711 9.625,9.8008 v 5.0742 c 0,5.4297 -4.1797,9.625 -9.625,9.625 h -10.676 0.004 c -2.3203,0 -4.1992,1.8828 -4.1992,4.1992 v 16.977 c 0,4.75 -3.8125,8.3984 -8.5742,8.3984 -4.7656,0 -8.3984,-3.6523 -8.3984,-8.3984 v -16.977 h -0.004 c 0,-2.3164 -1.8789,-4.1992 -4.1992,-4.1992 h -10.852 c -5.4453,0 -9.625,-4.1953 -9.625,-9.625 v -5.0742 c 0,-5.4297 4.2344,-9.8008 9.625,-9.8008 z m 206.15,105.35 c 17.883,0 32.199,14.516 32.199,32.375 0,17.863 -14.316,32.199 -32.199,32.199 -17.883,0 -32.375,-14.34 -32.375,-32.199 0,-17.859 14.492,-32.375 32.375,-32.375 z m 0,14.176 c -10.066,0 -18.375,8.1484 -18.375,18.199 0,10.0506 8.3086,18.199 18.375,18.199 10.066,0 18.199,-8.1484 18.199,-18.199 0,-10.0506 -8.1367,-18.199 -18.199,-18.199 z"
     id="path895" />
</svg>
