<?xml version="1.0" encoding="UTF-8" standalone="no"?>
<svg
   width="292.67963pt"
   height="461.40295pt"
   version="1.1"
   viewBox="0 0 292.67963 461.40295"
   id="svg3032"
   sodipodi:docname="logo.svg"
   inkscape:version="1.1.2 (b8e25be8, 2022-02-05)"
   xmlns:inkscape="http://www.inkscape.org/namespaces/inkscape"
   xmlns:sodipodi="http://sodipodi.sourceforge.net/DTD/sodipodi-0.dtd"
   xmlns="http://www.w3.org/2000/svg"
   xmlns:svg="http://www.w3.org/2000/svg">
  <sodipodi:namedview
     id="namedview3034"
     pagecolor="#ffffff"
     bordercolor="#666666"
     borderopacity="1.0"
     inkscape:pageshadow="2"
     inkscape:pageopacity="0.0"
     inkscape:pagecheckerboard="0"
     inkscape:document-units="pt"
     showgrid="false"
     fit-margin-top="0"
     fit-margin-left="0"
     fit-margin-right="0"
     fit-margin-bottom="0"
     inkscape:zoom="0.74892857"
     inkscape:cx="195.61278"
     inkscape:cy="401.23987"
     inkscape:window-width="1680"
     inkscape:window-height="925"
     inkscape:window-x="0"
     inkscape:window-y="23"
     inkscape:window-maximized="0"
     inkscape:current-layer="svg3032" />
  <defs
     id="defs2960" />
  <path
     d="m 241.80307,130.00686 c 1.5703,-6.7305 9.793,-13.359 18.496,-20.375 10.898,-8.7852 23.25,-18.741998 29.074,-33.292998 6.7695,-16.926 3.168,-36.246 -11.02,-59.066 l -0.004,0.0039 c -0.23828,-0.37891 -0.51953,-0.74609 -0.85547,-1.0703 -2.2227,-2.1523 -5.7695,-2.0898 -7.918,0.13281 -8.5547,8.8398 -11.586,19.867 -14.262,29.602 -1.9727,7.1719 -3.6719,13.363 -7.043,16.742 -2.1289,2.1328 -6.3242,4.6523 -18.086,1.9141 h -0.004 c -11.77,-2.7422 -14.41,-6.8594 -15.379,-9.7188 -1.5273,-4.5195 -0.3125,-10.828 1.0938,-18.129 1.9062,-9.9102 4.0703,-21.145 0.3125,-32.8590003 -0.94531,-2.94529997 -4.0977,-4.56639997 -7.043,-3.62109997 -0.44922,0.14453 -0.85938,0.34375 -1.2422,0.57812 l -0.004,-0.0039 c -22.82,14.18400027 -34.602,29.91800027 -36.02,48.09000027 -1.2188,15.625 5.4531,30.023 11.336,42.723 4.7031,10.144998 9.1406,19.729998 7.5703,26.460998 l -4.9727,21.312 c -9.9844,-6.6055 -20.941,-9.9531 -32.664,-9.9688 h -0.0703 c -11.672,0 -23.742,3.4062 -34.926,9.8516 -19.719,10.867 -29.57,20.891 -38.266,29.734 -6.7188,6.832 -12.664,12.879 -22.328,18.375 -2.9453,-5.6133 -8.832,-9.4531 -15.598,-9.4531 H 17.648 c -9.707,0 -17.605,7.8984 -17.605,17.605 v 107.79 C 0.0196,303.57823 0,303.79698 0,304.01964 c 0,9.6445 7.793,17.496 17.41,17.602 0.0625,0.004 0.12891,0.0117 0.19531,0.0117 h 24.414 c 0.0664,0 0.13281,-0.008 0.19531,-0.0117 5.3828,-0.0586 10.191,-2.5391 13.383,-6.4062 6.5117,7.1719 14.895,13.199 25.035,17.977 11.641,5.4805 25.938,9.4688 42.496,11.844 4.7227,0.67578 9.5195,1.207 14.352,1.6172 l -2.5859,11.074 c -8.375,2.4805 -16.004,6.9883 -22.234,13.172 -7.0664,7.0117 -11.996,15.844 -14.258,25.539 -6.6289,28.418 11.098,56.934 39.516,63.562 4.0273,0.9375 8.0898,1.4023 12.125,1.4023 9.7578,0 19.348,-2.7148 27.84,-7.9961 12.008,-7.4609 20.387,-19.156 23.598,-32.922 2.2656,-9.707 1.7461,-19.82 -1.4961,-29.25 -2.8516,-8.2891 -7.6953,-15.695 -14.094,-21.617 l 5.2266,-22.391 c 7.25,-0.33203 14.188,-0.76953 20.633,-1.2305 l 17.113,-1.2188 c 13.457,-0.12891 24.367,-11.117 24.367,-24.605 0,-4.8242 -1.3867,-9.4492 -3.9688,-13.41 h 0.0781 c 0.20703,0 0.41016,-0.0156 0.61328,-0.0352 13.996,-0.32812 25.277,-11.812 25.277,-25.887 0,-6.42579 -2.3398,-12.516 -6.6055,-17.273 8.7695,-4.1484 14.848,-13.086 14.848,-23.41 0,-6.7969 -2.6133,-13.223 -7.3672,-18.086 -1.9258,-1.9727 -4.1211,-3.5938 -6.5,-4.8438 4.8828,-4.9766 7.9023,-11.789 7.9023,-19.297 0,-7.2383 -2.7852,-14.078 -7.8438,-19.258 -5.0586,-5.1797 -11.828,-8.125 -19.066,-8.3008 -0.043,0 -0.0859,-0.004 -0.13281,-0.004 h -0.004 -0.043 l -18.082,0.15234 9.4531,-40.512 z m -224.16,59.148 h 24.332 c 3.5312,0 6.4023,2.8711 6.4062,6.4023 v 0.008 108.45 c 0,0.15625 0.0117,0.3125 0.0234,0.46484 -0.24219,3.3164 -3.0117,5.9375 -6.3867,5.9375 -0.0352,0 -0.0625,0.004 -0.0977,0.004 h -24.223 c -0.0352,0 -0.0625,-0.004 -0.0977,-0.004 -3.375,0 -6.1484,-2.625 -6.3867,-5.9453 0.0117,-0.15234 0.0234,-0.30469 0.0234,-0.46094 v -108.44 c 0,-3.5352 2.875,-6.4102 6.4062,-6.4102 z m 158.5,186.8 -0.008,0.0117 c 12.391,9.9922 18.059,26.461 14.441,41.961 -2.5312,10.852 -9.1406,20.07 -18.602,25.953 -9.4648,5.8828 -20.652,7.7305 -31.504,5.1953 -22.406,-5.2266 -36.379,-27.707 -31.152,-50.113 3.5859,-15.371 15.797,-27.562 31.156,-31.148 2.1758,-0.35156 4.0312,-1.9766 4.5625,-4.2578 l 3.7734,-16.18 c 6.1133,0.29297 12.227,0.42188 18.262,0.42188 4.1953,0 8.3477,-0.0625 12.441,-0.16797 l -5.2969,22.707 c -0.50391,2.1562 0.31641,4.3086 1.9258,5.6172 z m 90.168,-178.03 c 0,8.9883 -7.2812,16.305 -16.258,16.363 h -40.512 c -3.0938,0 -5.6016,2.5078 -5.6016,5.6016 0,3.0938 2.5078,5.6016 5.6016,5.6016 h 40.352 c 0.0195,0 0.0352,0.004 0.0547,0.004 0.0742,0 0.14453,-0.004 0.21484,-0.004 h 8.1914 c 7.8398,0.40234 13.922,6.7617 13.922,14.664 0,8.0977 -6.5898,14.688 -14.688,14.688 h -47.266 c -3.0938,0 -5.6016,2.5078 -5.6016,5.6016 0,3.0938 2.5078,5.6016 5.6016,5.6016 h 38.426 c 0.30469,0.0586 0.61719,0.10156 0.94141,0.10547 8.043,0.19141 14.344,6.6445 14.344,14.688 0,8.1016 -6.5898,14.695 -14.691,14.695 -0.18359,0 -0.36328,0.0117 -0.53906,0.0273 h -55.273 c -3.0938,0 -5.6016,2.5078 -5.6016,5.6016 0,3.0938 2.5078,5.6016 5.6016,5.6016 h 35.34 c 0.0234,0 0.0508,0.004 0.0781,0.004 7.3398,0.17188 13.086,6.0625 13.086,13.402 0,7.3906 -6.0156,13.406 -13.406,13.406 -0.0625,0 -0.125,0.008 -0.1875,0.008 -0.0703,0.004 -0.13672,0 -0.20703,0.004 l -17.27,1.2305 c -24.934,1.7734 -57.27,3.2773 -86.23,-0.87891 -31.895,-4.5742 -53.797,-15.234 -65.137,-31.691 l -0.004,-103.2 c 13.148,-6.7461 20.531,-14.254 28.305,-22.16 8.5625,-8.707 17.414,-17.711 35.73,-27.801 0.0352,-0.0195 0.0625,-0.0352 0.0977,-0.0547 9.8633,-5.6914 35.02,-16.594 59.355,2.1914 l -4.6055,19.746 -8.6562,0.0742 c -3.0938,0.0234 -5.5781,2.5547 -5.5508,5.6484 0.0234,3.0781 2.5273,5.5508 5.6016,5.5508 h 0.0469 l 12.977,-0.10938 h 0.043 c 0.0156,0 0.0312,-0.004 0.043,-0.004 l 42.258,-0.35156 h 0.043 c 0.0156,0 0.0312,-0.004 0.0469,-0.004 l 25.07,-0.20703 c 8.7734,0.23438 15.914,7.5625 15.914,16.355 z m -76.32,-27.055 11.715,-50.219 c 2.4453,-10.484 -2.7812,-21.765998 -8.3164,-33.710998 -10.66,-23.004 -21.656,-46.746 13.57,-72.02 0.45703,6.5664 -0.82422,13.215 -2.0703,19.699 -1.6367,8.4922 -3.1797,16.516 -0.70312,23.832 2.8555,8.4492 10.523,14.023 23.438,17.035 0.004,0 0.004,0.004 0.008,0.004 4.2031,0.98047 8.0234,1.4727 11.488,1.4727 7.1836,0 12.824,-2.1172 17.078,-6.3789 5.4609,-5.4727 7.625,-13.348 9.918,-21.688004 1.75,-6.3711 3.543,-12.895 6.8594,-18.582 20.41,38.254004 0.0391,54.680004 -19.699,70.590002 -10.062,8.1133 -19.574,15.785 -22.23,25.988 -0.0625,0.17969 -0.11328,0.36719 -0.16016,0.55469 l -10.07,43.156 z"
     id="path2962" />
  <path
     d="m 169.16307,382.72686 c -2.8516,-1.2188 -3.0039,-1.3086 -5.3984,-3.2578 -0.55078,-0.44922 -1.0078,-0.83594 -1.3945,-1.1602 -1.7461,-1.4766 -3.5547,-3 -6.5195,-3 -1.2422,0 -2.3398,0.27344 -3.7305,0.61719 -0.48828,0.12109 -1.0586,0.26172 -1.7422,0.41797 -2.2969,0.52734 -2.9297,0.625 -3.9844,0.625 -0.59766,0 -1.3516,-0.0352 -2.2969,-0.0859 -0.71094,-0.0391 -1.3047,-0.082 -1.8125,-0.12109 -0.81641,-0.0586 -1.4648,-0.10547 -2.1094,-0.10547 -4.043,0 -5.8438,2.1367 -7.5859,4.1992 -0.32422,0.38281 -0.70312,0.83594 -1.1602,1.3594 -2.043,2.3398 -2.1758,2.457 -4.7656,4.1289 -0.59766,0.38672 -1.1016,0.69922 -1.5352,0.96484 -1.6562,1.0273 -3.0898,1.9141 -4.1367,3.6523 -1.043,1.7344 -1.1641,3.4141 -1.3086,5.3594 -0.0352,0.5 -0.0781,1.0898 -0.14062,1.7852 -0.27734,3.0898 -0.31641,3.2617 -1.4297,6.1367 -0.25781,0.66406 -0.48047,1.2148 -0.67188,1.6875 -0.73828,1.8047 -1.3711,3.3672 -1.1992,5.3867 0.17188,2.0156 1.0625,3.4453 2.0938,5.1055 0.26562,0.42578 0.57812,0.92578 0.93359,1.5273 1.5938,2.6641 1.6602,2.8242 2.4531,5.8086 0.18359,0.6875 0.32422,1.2656 0.44531,1.7578 0.46484,1.8945 0.86719,3.5273 2.1992,5.0625 1.3242,1.5273 2.8867,2.1602 4.6914,2.8984 0.46484,0.1875 1.0117,0.41016 1.6562,0.6875 2.8516,1.2188 3,1.3086 5.3945,3.2578 0.55078,0.44922 1.0078,0.83594 1.3945,1.1602 1.7461,1.4766 3.5547,3 6.5195,3 1.2422,0 2.3398,-0.27344 3.7305,-0.61719 0.48828,-0.12109 1.0586,-0.26172 1.7422,-0.41797 2.2969,-0.52734 2.9297,-0.625 3.9883,-0.625 0.59766,0 1.3477,0.0352 2.2969,0.0859 0.71094,0.0391 1.3047,0.082 1.8125,0.12109 0.81641,0.0586 1.4648,0.10547 2.1133,0.10547 4.043,0 5.8438,-2.1367 7.5859,-4.1992 0.32422,-0.38281 0.70312,-0.83594 1.1602,-1.3594 2.043,-2.3398 2.1758,-2.4531 4.7656,-4.1289 0.59766,-0.38672 1.1055,-0.69922 1.5391,-0.96875 1.6562,-1.0273 3.0859,-1.9141 4.1328,-3.6523 1.043,-1.7305 1.1641,-3.4141 1.3047,-5.3594 0.0352,-0.5 0.0781,-1.0859 0.14062,-1.7852 0.27734,-3.0898 0.31641,-3.2617 1.4297,-6.1406 0.25781,-0.66406 0.48047,-1.2148 0.67188,-1.6875 0.73828,-1.8047 1.3711,-3.3672 1.1992,-5.3867 -0.17188,-2.0117 -1.0625,-3.4453 -2.0938,-5.1055 -0.26563,-0.42578 -0.57813,-0.92578 -0.93359,-1.5273 -1.5898,-2.6602 -1.6602,-2.8242 -2.4492,-5.8086 -0.18359,-0.6875 -0.32422,-1.2656 -0.44531,-1.7578 -0.46484,-1.8945 -0.86719,-3.5273 -2.1992,-5.0586 -1.3242,-1.5273 -2.8828,-2.1602 -4.6914,-2.8984 -0.47266,-0.18359 -1.0156,-0.41016 -1.6602,-0.68359 z m 2.8672,23.652 c 0.0352,0.0547 0.0703,0.11328 0.10547,0.17188 -0.0234,0.0586 -0.0469,0.11719 -0.0703,0.17187 -0.21094,0.51953 -0.46094,1.1367 -0.74609,1.8711 -1.4883,3.8516 -1.7695,5.0547 -2.1406,9.1797 -0.0703,0.77344 -0.11719,1.4219 -0.15625,1.9766 -0.004,0.0664 -0.0117,0.13281 -0.0156,0.20312 -0.0547,0.0352 -0.10547,0.0664 -0.16016,0.0977 -0.48047,0.29687 -1.043,0.64844 -1.707,1.0742 -3.4688,2.2383 -4.4023,3.0469 -7.125,6.1719 -0.50781,0.58594 -0.92969,1.082 -1.2891,1.5078 -0.043,0.0508 -0.0859,0.10547 -0.13281,0.15625 -0.0625,-0.004 -0.125,-0.008 -0.1875,-0.0156 -0.5625,-0.043 -1.2227,-0.0898 -2.0117,-0.13281 -1.1289,-0.0625 -2.0547,-0.10547 -2.9102,-0.10547 -2.2695,0 -3.7891,0.29297 -6.4805,0.90625 -0.75781,0.17187 -1.3906,0.33203 -1.9297,0.46094 -0.0625,0.0156 -0.13281,0.0352 -0.19922,0.0469 -0.0469,-0.0391 -0.0937,-0.082 -0.14453,-0.12109 -0.42969,-0.36328 -0.9375,-0.79297 -1.5508,-1.2891 -3.2031,-2.6055 -4.2578,-3.2461 -8.0703,-4.8711 -0.71484,-0.30469 -1.3203,-0.55078 -1.8359,-0.76172 -0.0625,-0.0234 -0.125,-0.0508 -0.1875,-0.0742 -0.0156,-0.0625 -0.0312,-0.125 -0.043,-0.18359 -0.13281,-0.54688 -0.29297,-1.1914 -0.49609,-1.9531 -1.0586,-3.9922 -1.5391,-5.125 -3.6641,-8.6875 -0.39844,-0.66797 -0.74219,-1.2227 -1.0352,-1.6953 -0.0351,-0.0547 -0.0703,-0.11328 -0.10547,-0.17188 0.0234,-0.0586 0.0469,-0.11719 0.0703,-0.17188 0.21094,-0.51953 0.46094,-1.1328 0.74609,-1.8711 1.4883,-3.8516 1.7695,-5.0547 2.1406,-9.1797 0.0703,-0.77344 0.11719,-1.4258 0.15625,-1.9805 0.004,-0.0664 0.008,-0.13281 0.0156,-0.20312 0.0547,-0.0352 0.10938,-0.0664 0.16406,-0.10156 0.48047,-0.29688 1.043,-0.64844 1.707,-1.0742 3.4648,-2.2383 4.3984,-3.0469 7.125,-6.168 0.50781,-0.58203 0.92969,-1.082 1.2891,-1.5078 0.043,-0.0508 0.0859,-0.10547 0.13281,-0.15625 0.0625,0.004 0.125,0.008 0.1875,0.0156 0.5625,0.043 1.2227,0.0899 2.0117,0.13281 1.1289,0.0625 2.0586,0.10547 2.9102,0.10547 2.2695,0 3.7891,-0.29297 6.4805,-0.90625 0.75781,-0.17188 1.3906,-0.32812 1.9297,-0.46094 0.0625,-0.0156 0.13281,-0.0351 0.19922,-0.0469 0.0469,0.043 0.0937,0.082 0.14453,0.12109 0.42969,0.36328 0.9375,0.79297 1.5508,1.2891 3.2031,2.6055 4.2578,3.2461 8.0703,4.8711 0.71484,0.30469 1.3203,0.55078 1.8359,0.76172 0.0625,0.0234 0.125,0.0508 0.1875,0.0742 0.0156,0.0625 0.0312,0.125 0.043,0.18359 0.13281,0.54688 0.29297,1.1914 0.49609,1.9531 1.0586,3.9961 1.5391,5.1328 3.6641,8.6875 0.39062,0.67188 0.73828,1.2266 1.0312,1.6992 z"
     id="path2964" />
</svg>
