<?xml version="1.0" encoding="UTF-8" standalone="no"?>
<svg
   width="371.23895pt"
   height="498.4071pt"
   version="1.1"
   viewBox="0 0 371.23895 498.4071"
   id="svg979"
   sodipodi:docname="bg.svg"
   inkscape:version="1.1.2 (b8e25be8, 2022-02-05)"
   xmlns:inkscape="http://www.inkscape.org/namespaces/inkscape"
   xmlns:sodipodi="http://sodipodi.sourceforge.net/DTD/sodipodi-0.dtd"
   xmlns="http://www.w3.org/2000/svg"
   xmlns:svg="http://www.w3.org/2000/svg">
  <sodipodi:namedview
     id="namedview981"
     pagecolor="#ffffff"
     bordercolor="#666666"
     borderopacity="1.0"
     inkscape:pageshadow="2"
     inkscape:pageopacity="0.0"
     inkscape:pagecheckerboard="0"
     inkscape:document-units="pt"
     showgrid="false"
     fit-margin-top="0"
     fit-margin-left="0"
     fit-margin-right="0"
     fit-margin-bottom="0"
     inkscape:zoom="0.74678571"
     inkscape:cx="10.043042"
     inkscape:cy="425.15543"
     inkscape:window-width="1312"
     inkscape:window-height="925"
     inkscape:window-x="0"
     inkscape:window-y="23"
     inkscape:window-maximized="0"
     inkscape:current-layer="svg979" />
  <defs
     id="defs887" />
  <path
     d="m 228.01345,120.6932 c 5.1211,0 10.137,1.4961 14.422,4.3047 4.2852,2.8086 7.6602,6.8047 9.7031,11.504 0.89062,2.0469 2.9102,3.3672 5.1406,3.3672 0.76953,0 1.5312,-0.16016 2.2344,-0.47266 1.3594,-0.58984 2.4336,-1.6992 2.9766,-3.082 0.543,-1.3828 0.51562,-2.9258 -0.0781,-4.2852 -2.918,-6.6992 -7.7266,-12.398 -13.84,-16.398 -6.1094,-4.0039 -13.254,-6.1367 -20.559,-6.1367 -3.0938,0 -5.6016,2.5078 -5.6016,5.6016 0,3.0938 2.50779,5.5977 5.6016,5.5977 z"
     id="path889" />
  <path
     d="m 305.31345,109.5932 c 11.785,0 23.09,-4.6797 31.422,-13.016 8.3359,-8.332 13.016,-19.633 13.016,-31.418 0.004,-11.789 -4.6797,-23.09 -13.012,-31.422 -8.3359,-8.3359 -19.637,-13.02 -31.422,-13.02 -11.785,0 -23.09,4.6836 -31.422,13.016 -8.332,8.3359 -13.016,19.637 -13.016,31.422 0.0117,11.781 4.6992,23.074 13.027,31.406 8.332,8.332 19.625,13.016 31.406,13.031 z m 0,-77.672 c 8.8164,-0.0039 17.27,3.5 23.504,9.7305 6.2344,6.2344 9.7344,14.688 9.7344,23.504 0,8.8125 -3.5,17.27 -9.7344,23.5 -6.2305,6.2344 -14.684,9.7383 -23.5,9.7383 -8.816,0 -17.27,-3.5039 -23.504,-9.7344 -6.2305,-6.2344 -9.7344,-14.688 -9.7344,-23.504 0.0117,-8.8125 3.5156,-17.258 9.7461,-23.488 6.2305,-6.2305 14.676,-9.7344 23.488,-9.7461 z"
     id="path891" />
  <path
     d="m 301.76345,48.1952 c 4.0469,0.0078 8.0156,1.0898 11.508,3.1328 3.4883,2.0469 6.375,4.9805 8.3633,8.5039 1.5195,2.6953 4.9336,3.6445 7.6289,2.125 2.6914,-1.5156 3.6445,-4.9336 2.125,-7.6289 -2.9609,-5.25 -7.2656,-9.6211 -12.469,-12.668 -5.207,-3.043 -11.125,-4.6523 -17.156,-4.6641 -3.0898,0 -5.5977,2.5078 -5.5977,5.6016 0,3.0938 2.5078,5.5977 5.5977,5.5977 z"
     id="path893" />
  <path
     d="m 244.98345,22.5902 c 0,-5.9922 -2.3789,-11.738 -6.6133,-15.973 C 234.13185,2.3828 228.38965,0 222.39715,0 c -5.9883,0 -11.734,2.3789 -15.969,6.6133 -4.2383,4.2383 -6.6172,9.9805 -6.6172,15.973 0,5.9883 2.3789,11.734 6.6133,15.973 4.2383,4.2344 9.9805,6.6133 15.973,6.6133 5.9883,-0.0078 11.727,-2.3867 15.961,-6.6211 4.234,-4.2344 6.6172,-9.9727 6.625,-15.961 z m -33.973,0 c 0,-4.6055 2.7734,-8.7578 7.0273,-10.523 4.2539,-1.7617 9.1523,-0.78906 12.41,2.4688 3.2539,3.2539 4.2305,8.1523 2.4688,12.406 -1.7617,4.2578 -5.9141,7.0312 -10.52,7.0312 -6.2852,-0.0078 -11.379,-5.0977 -11.387,-11.383 z"
     id="path895" />
  <path
     d="m 146.16345,118.5232 c 9.1992,0 18.023,-3.6562 24.527,-10.164 6.5039,-6.5039 10.156,-15.328 10.156,-24.527 0,-9.1992 -3.6562,-18.023 -10.16,-24.527 -6.5039,-6.5078 -15.328,-10.16 -24.527,-10.16 -9.2031,0 -18.023,3.6523 -24.531,10.16 -6.5039,6.5039 -10.16,15.328 -10.16,24.527 0.0117,9.1992 3.668,18.016 10.172,24.52 6.504,6.504 15.324,10.164 24.523,10.172 z m 0,-58.18 c 6.2305,0 12.203,2.4766 16.605,6.8828 4.4062,4.4062 6.8789,10.379 6.8789,16.609 0,6.23 -2.4766,12.203 -6.8828,16.609 -4.4023,4.4062 -10.379,6.8789 -16.609,6.8789 -6.23,0 -12.203,-2.4766 -16.609,-6.8828 -4.4023,-4.4062 -6.8789,-10.379 -6.8789,-16.609 0.008,-6.2266 2.4883,-12.199 6.8906,-16.602 4.4062,-4.4062 10.375,-6.8789 16.605,-6.8867 z"
     id="path897" />
  <path
     d="m 142.98345,74.4832 c 4.3398,0.004 8.3906,2.1641 10.812,5.7617 0.83203,1.2344 2.1172,2.0898 3.5781,2.3711 1.4609,0.28516 2.9727,-0.0234 4.2031,-0.85547 1.2344,-0.83203 2.082,-2.125 2.3633,-3.5859 0.2813,-1.4609 -0.0312,-2.9727 -0.86719,-4.1992 -4.5039,-6.6836 -12.031,-10.691 -20.09,-10.691 -3.0898,0 -5.5977,2.5078 -5.5977,5.6016 0,3.0938 2.5078,5.5977 5.5977,5.5977 z"
     id="path899" />
  <path
     d="m 213.06345,465.3832 h -57.559 c -3.7617,-0.082 -7.4492,1.0977 -10.469,3.3438 -3.0195,2.25 -5.207,5.4414 -6.2148,9.0703 -1.2734,4.9414 -0.19141,10.195 2.9375,14.227 3.1289,4.0352 7.9492,6.3906 13.055,6.3828 h 199.91 c 4.3789,-0.004 8.5742,-1.7422 11.672,-4.8398 3.0977,-3.0938 4.8398,-7.293 4.8438,-11.668 v -1.5508 c -0.004,-4.375 -1.7461,-8.5742 -4.8438,-11.668 -3.0977,-3.0977 -7.293,-4.8359 -11.672,-4.8398 h -58.219 c -1.6172,0.004 -3.1719,-0.63672 -4.3164,-1.7773 -1.1484,-1.1406 -1.7891,-2.6914 -1.7891,-4.3086 0,-1.6172 0.64062,-3.1719 1.7891,-4.3125 1.1445,-1.1406 2.6992,-1.7812 4.3164,-1.7773 l 20.398,0.0312 h 0.082 v 0.004 c 12.84,-0.0156 24.699,-6.8789 31.117,-18 6.418,-11.125 6.418,-24.828 0,-35.953 -6.418,-11.125 -18.277,-17.984 -31.117,-18 h -4.332 l 7.5352,-90.93 c 7.6367,-10.203 12.797,-22.043 15.078,-34.582 l 9.5312,-51.539 c 0.30078,-1.6367 -0.14062,-3.3203 -1.2031,-4.5977 -1.0625,-1.2812 -2.6406,-2.0195 -4.3047,-2.0195 h -6.5781 c -0.19141,-0.69922 -0.42969,-1.3867 -0.71484,-2.0547 -1.0195,-2.2812 -2.4883,-4.332 -4.3164,-6.0352 3.207,-14.078 -0.96094,-28.828 -11.062,-39.148 -10.102,-10.32 -24.758,-14.805 -38.902,-11.902 -3.1016,-15.367 -13.141,-28.434 -27.191,-35.391 -14.047,-6.9609 -30.527,-7.0273 -44.629,-0.17969 -14.105,6.8477 -24.246,19.832 -27.473,35.176 -5.9961,-1.4844 -12.324,-0.82813 -17.891,1.8555 -5.567,2.68363 -10.02,7.2305 -12.59,12.852 -8.8711,0.90234 -17.164,4.8242 -23.484,11.117 -6.3203,6.2891 -10.289,14.559 -11.234,23.426 -1.1406,0.71094 -2.1992,1.543 -3.1562,2.4805 -1.1875,1.168 -2.2109,2.4922 -3.0391,3.9336 -0.71484,1.2188 -1.2812,2.5195 -1.6836,3.8711 h -6.480504 c -1.6641,0 -3.2422,0.73828 -4.3047,2.0156 -1.0664,1.2773 -1.5039,2.9609 -1.2031,4.5977 l 9.476604,51.551 c 2.3203,12.461 7.4531,24.23 15.012,34.406 l 5.8594,70.699 H 47.977206 c -5.1172,0.004 -10.023,2.0391 -13.645,5.6602 -3.6172,3.6172 -5.6562,8.5234 -5.6602,13.641 v 0.79688 c 0.004,5.1172 2.043,10.023 5.6602,13.645 3.6172,3.6172 8.5273,5.6523 13.645,5.6602 h 35.824 c 2.2227,0 4.3164,1.0312 5.6758,2.7852 1.3555,1.7578 1.8242,4.0469 1.2656,6.1953 -0.97266,3.2812 -4.0391,5.4961 -7.4609,5.3789 h -64.008 c -5.1133,0.004 -10.0200004,2.0352 -13.6370004,5.6562 -3.6133,3.6211 -5.64059998,8.5312 -5.6366999834678,13.648 C 0.00800562,437.53349 2.0469056,442.43629 5.6719056,446.04529 c 3.625,3.6133 8.5352004,5.6367 13.6520004,5.6211 H 213.01391 c 3.7734,0.004 6.8359,3.0586 6.8516,6.8359 0.0117,3.7734 -3.0273,6.8516 -6.8047,6.8828 z m 113.11,-248.77 v -0.004 c 0.73438,-0.51953 1.4336,-1.0898 2.0938,-1.707 0.86328,-0.88281 1.6367,-1.8516 2.3086,-2.8906 0.17578,-0.27344 0.28906,-0.58203 0.45313,-0.86328 0.46875,-0.77344 0.88672,-1.5742 1.2461,-2.4062 l 0.0234,-0.043 -8.0508,43.52 c -0.39453,2.1797 -0.97266,4.2891 -1.5547,6.3984 z m -4.3164,-17.832 c 0.42188,0.90625 0.63281,1.8984 0.61328,2.8984 0,1.9414 -0.73438,3.8125 -2.0508,5.2383 -0.67187,0.61719 -1.4375,1.1211 -2.2695,1.5 -1.0039,0.54297 -2.1289,0.8125 -3.2656,0.78906 h -70.242 v -15.113 h 70.242 c 3.0547,0.0195 5.8008,1.8633 6.9727,4.6875 z m -176.57,-35.664 c 0.0234,2.9648 0.53516,5.9062 1.5195,8.707 1.0312,2.9141 4.2344,4.4414 7.1484,3.4062 1.3984,-0.49609 2.543,-1.5273 3.1836,-2.8672 0.63672,-1.3398 0.71875,-2.8789 0.22266,-4.2812 -1.7031,-4.7812 -1.0078,-10.094 1.875,-14.277 2.8828,-4.1836 7.5977,-6.7266 12.676,-6.8359 5.0783,-0.1093 9.8984,2.2266 12.961,6.2812 -3.2539,2.9883 -5.4922,6.918 -6.4023,11.242 -0.29688,1.457 -0.008,2.9688 0.8125,4.2109 0.82031,1.2383 2.0977,2.1016 3.5508,2.3984 0.37109,0.0781 0.75,0.11719 1.1289,0.11719 2.6562,-0.004 4.9453,-1.875 5.4766,-4.4766 0.73828,-3.5703 3.3281,-6.4727 6.793,-7.6094 3.4648,-1.1328 7.2695,-0.32812 9.9766,2.1133 2.2969,2.0664 5.8359,1.8828 7.9062,-0.41406 2.0703,-2.293 1.8906,-5.832 -0.40234,-7.9062 -3.9258,-3.543 -9.0273,-5.5039 -14.312,-5.4961 -1.5352,0.0156 -3.0664,0.20312 -4.5586,0.55078 -1.6172,-2.4531 -3.6289,-4.6289 -5.9492,-6.4336 1.5898,-11.328 8.0117,-21.41 17.605,-27.641 9.5933,-6.231 21.418,-7.9961 32.414,-4.8438 10.992,3.1562 20.082,10.918 24.918,21.285 4.832,10.367 4.9336,22.32 0.28125,32.77 -0.61719,1.3594 -0.66797,2.9062 -0.14062,4.3008 0.53125,1.3945 1.5938,2.5234 2.957,3.1328 1.3594,0.60547 2.9102,0.64453 4.3008,0.10938 1.3906,-0.53906 2.5117,-1.6094 3.1094,-2.9766 2.7188,-6.1133 4.1875,-12.707 4.3242,-19.398 9.375,-2.457 19.363,-0.39844 27,5.5703 7.6367,5.9688 12.047,15.164 11.93,24.855 -0.004,1.457 -0.10938,2.9141 -0.3125,4.3594 -0.79297,-0.10938 -1.5898,-0.16797 -2.3906,-0.17578 h -75.84 c -1.4844,0 -2.9102,0.58984 -3.9609,1.6367 -1.0508,1.0508 -1.6406,2.4766 -1.6406,3.9609 v 21.031 c 0.0156,1.0938 -0.17969,2.1797 -0.57422,3.1992 l -0.004,0.0117 -0.0117,0.0234 c -1.3672,3.418 -4.6758,5.6562 -8.3555,5.6562 -3.6758,0 -6.9844,-2.2383 -8.3516,-5.6562 l -0.0117,-0.0234 -0.004,-0.0117 c -0.39453,-1.0195 -0.59375,-2.1055 -0.58203,-3.1992 v -21.031 c 0,-1.4844 -0.58984,-2.9102 -1.6367,-3.9609 -1.0508,-1.0469 -2.4766,-1.6406 -3.9609,-1.6367 h -34.707 c -1.4844,-0.004 -2.9102,0.58984 -3.957,1.6367 -1.0508,1.0508 -1.6406,2.4766 -1.6406,3.9609 v 36.34 c 0.004,2.3789 -0.93359,4.6602 -2.6133,6.3398 -1.6797,1.6836 -3.957,2.6289 -6.3359,2.6289 -2.375,0 -4.6523,-0.94531 -6.332,-2.6289 -1.6797,-1.6797 -2.6211,-3.9609 -2.6133,-6.3398 v -36.34 c 0,-1.4844 -0.58984,-2.9102 -1.6406,-3.9609 -1.0508,-1.0469 -2.4727,-1.6406 -3.9609,-1.6367 h -21.039 c 1.2695,-4.8086 3.8125,-9.1836 7.3633,-12.668 3.5508,-3.4805 7.9766,-5.9375 12.809,-7.1094 z m 59.066,30.977 v 15.117 l -23.504,-0.004 v -15.113 z m -90.5,58.113 -7.9727,-43.379 c 0.0234,0.0547 0.0586,0.10156 0.0781,0.15625 v -0.004 c 0.37891,0.91797 0.83203,1.8008 1.3516,2.6445 0.10547,0.16797 0.23047,0.32031 0.33984,0.48438 0.43359,0.65234 0.91016,1.2773 1.4219,1.8711 0.21094,0.24219 0.42969,0.46875 0.65234,0.69531 0.48827,0.50391 1.00389,0.97656 1.54689,1.4141 0.20703,0.16797 0.39453,0.34766 0.60938,0.50781 l 3.4414,41.543 c -0.53906,-1.9648 -1.0977,-3.9219 -1.4688,-5.9336 z m 5.8789,-43.875 c -2.5039,-1.2695 -4.0742,-3.8477 -4.043,-6.6523 -0.0273,-1.2852 0.29297,-2.5508 0.91797,-3.668 0.35156,-0.60938 0.76953,-1.1758 1.2539,-1.6875 1.3945,-1.4297 3.3086,-2.2344 5.3047,-2.2305 h 17.391 v 15.117 l -17.391,-0.004 c -1.2031,0.0117 -2.3867,-0.29297 -3.4336,-0.875 z m 3.707,12.078 h 17.117 v 4.4258 -0.004 c -0.008,5.3477 2.1094,10.484 5.8867,14.27 3.7812,3.7852 8.9102,5.9102 14.258,5.9102 5.3516,0 10.48,-2.125 14.258,-5.9102 3.7812,-3.7852 5.8984,-8.9219 5.8906,-14.27 v -4.4258 l 26.711,0.004 c 3.7227,5.7383 10.102,9.2031 16.941,9.2031 6.8438,0 13.223,-3.4648 16.945,-9.2031 h 73.18 l -5.3203,64.211 v -0.004 c -11.809,14.59 -28.852,23.984 -47.492,26.18 -0.16406,-0.55469 -0.41016,-1.0664 -0.61719,-1.6016 -0.0859,-0.22656 -0.12891,-0.47656 -0.22266,-0.69922 -0.0781,-0.18359 -0.17188,-0.35547 -0.25391,-0.53516 l 0.004,-0.004 c -0.41406,-0.89453 -0.88672,-1.7578 -1.418,-2.5859 -0.17188,-0.27734 -0.30859,-0.57812 -0.49219,-0.84766 -0.69922,-1 -1.4805,-1.9453 -2.3359,-2.8164 -0.41406,-0.42578 -0.87891,-0.79297 -1.3281,-1.1875 -0.5,-0.4375 -0.99609,-0.875 -1.5391,-1.2656 -0.53906,-0.39062 -1.0977,-0.73438 -1.6719,-1.0781 -0.51953,-0.30859 -1.043,-0.59766 -1.5898,-0.86328 -0.62109,-0.30469 -1.2422,-0.58594 -1.8945,-0.82812 -0.5625,-0.21094 -1.1406,-0.37109 -1.7266,-0.53516 -0.67188,-0.19141 -1.332,-0.39453 -2.0312,-0.51563 -0.69141,-0.125 -1.4102,-0.16016 -2.125,-0.21484 -0.57031,-0.0469 -1.1172,-0.17188 -1.6953,-0.17188 h -43.594 c -0.5,0 -0.96875,0.11328 -1.457,0.14844 -0.81641,0.0352 -1.6328,0.11719 -2.4375,0.24609 -0.60938,0.10938 -1.1836,0.29297 -1.7734,0.45312 -0.69141,0.1875 -1.375,0.38281 -2.0391,0.63281 -0.55859,0.21484 -1.0898,0.45703 -1.625,0.71484 -0.66016,0.31641 -1.3086,0.66797 -1.9336,1.0508 -0.46094,0.28125 -0.91797,0.55859 -1.3555,0.875 l -0.004,0.004 c -0.70313,0.51562 -1.3789,1.0703 -2.0195,1.668 -0.28906,0.26563 -0.59766,0.5 -0.87109,0.78125 -0.92578,0.93359 -1.7617,1.9492 -2.5039,3.0312 l -0.0195,0.0352 -0.004,0.004 c -0.72656,1.0898 -1.3555,2.2461 -1.8789,3.4492 -0.10937,0.25391 -0.19531,0.51562 -0.29687,0.77344 -0.25,0.62891 -0.53125,1.2383 -0.72266,1.8945 v -0.004 c -18.707,-2.1641 -35.809,-11.617 -47.594,-26.305 z m 73.82,118.22 h 43.621 c 4.8789,-0.0469 9.6094,-1.7148 13.438,-4.7422 3.832,-3.0273 6.5469,-7.2383 7.7227,-11.977 16.941,-1.7344 32.934,-8.6406 45.812,-19.777 l -9.0664,109.42 -159.51,-0.004 -9.0703,-109.48 c 12.883,11.211 28.926,18.145 45.918,19.848 1.1367,4.7539 3.8398,8.9883 7.6719,12.02 3.8359,3.0312 8.5781,4.6836 13.465,4.6914 z m -10.574,-21.809 c 0.0312,-5.8242 4.75,-10.535 10.574,-10.551 h 43.586 c 5.8477,-0.0156 10.598,4.7031 10.629,10.551 h 0.0117 v 0.0625 h -0.0117 c -0.0117,2.9844 -1.293,5.8203 -3.5273,7.7969 -1.9453,1.7617 -4.4727,2.7422 -7.1016,2.75 h -43.562 c -2.8125,0 -5.5117,-1.1172 -7.5,-3.1094 -1.9883,-1.9883 -3.1016,-4.6875 -3.0977,-7.5 z m 26.332,123.64 -193.690004,-0.004 c -4.4609,0.0156 -8.0898,-3.5898 -8.1016,-8.0508 -0.0156,-4.4609 3.5898,-8.0898 8.0508,-8.1016 h 64.008 c 4.1797,0.0391 8.2539,-1.3164 11.574,-3.8477 3.3242,-2.5352 5.710904,-6.1016 6.777304,-10.145 1.3555,-5.4805 0.10938,-11.281 -3.371104,-15.727 -3.4805,-4.4453 -8.8125,-7.043 -14.461,-7.043 h -35.824 c -4.4766,-0.008 -8.1016,-3.6328 -8.1055,-8.1055 v -0.79688 c 0.004,-4.4727 3.6328,-8.0977 8.1055,-8.1016 h 76.652004 l 3.8984,47.062 0.004,0.004 c 0.23828,2.9023 2.668,5.1406 5.582,5.1406 h 169.82 c 2.9141,0 5.3398,-2.2344 5.5781,-5.1367 l 2.2109,-26.672 h 5.2617 c 6.5742,-0.008 12.887,2.5977 17.543,7.2461 4.6523,4.6445 7.2695,10.953 7.2695,17.531 0,6.578 -2.6172,12.887 -7.2695,17.531 -4.6562,4.6484 -10.969,7.2539 -17.543,7.2461 h -0.0547 l -20.426,-0.0312 v -0.004 c -4.5898,-0.008 -8.9961,1.8086 -12.246,5.0547 -3.2461,3.2422 -5.0742,7.6445 -5.0742,12.234 0,4.5895 1.8281,8.9922 5.0742,12.234 3.25,3.2422 7.6562,5.0586 12.246,5.0508 h 58.219 c 2.9336,0.004 5.3086,2.3789 5.3164,5.3086 v 1.5508 c -0.008,2.9297 -2.3828,5.3047 -5.3164,5.3086 h -199.91 c -1.6484,0.008 -3.2031,-0.75 -4.2109,-2.0547 -1.0078,-1.3008 -1.3516,-2.9961 -0.92969,-4.5898 0.83594,-2.4805 3.2188,-4.1055 5.832,-3.9805 h 57.559 c 6.4453,-0.0234 12.387,-3.4766 15.598,-9.0625 3.207,-5.5859 3.1992,-12.457 -0.0274,-18.035 -3.2227,-5.5781 -9.1758,-9.0156 -15.617,-9.0195 z"
     id="path901" />
</svg>
