<?xml version="1.0" encoding="UTF-8" standalone="no"?>
<svg
   width="700pt"
   height="700pt"
   version="1.1"
   viewBox="0 0 700 700"
   id="svg985"
   sodipodi:docname="logo.svg"
   inkscape:version="1.1.2 (b8e25be8, 2022-02-05)"
   xmlns:inkscape="http://www.inkscape.org/namespaces/inkscape"
   xmlns:sodipodi="http://sodipodi.sourceforge.net/DTD/sodipodi-0.dtd"
   xmlns="http://www.w3.org/2000/svg"
   xmlns:svg="http://www.w3.org/2000/svg">
  <sodipodi:namedview
     id="namedview987"
     pagecolor="#ffffff"
     bordercolor="#666666"
     borderopacity="1.0"
     inkscape:pageshadow="2"
     inkscape:pageopacity="0.0"
     inkscape:pagecheckerboard="0"
     inkscape:document-units="pt"
     showgrid="false"
     inkscape:zoom="0.74678571"
     inkscape:cx="859.01483"
     inkscape:cy="466.66667"
     inkscape:window-width="1680"
     inkscape:window-height="925"
     inkscape:window-x="0"
     inkscape:window-y="23"
     inkscape:window-maximized="0"
     inkscape:current-layer="svg985" />
  <defs
     id="defs887">
    <symbol
       id="h"
       overflow="visible">
      <path
         d="m18.766-1.125c-0.96875 0.5-1.9805 0.875-3.0312 1.125-1.043 0.25781-2.1367 0.39062-3.2812 0.39062-3.3984 0-6.0898-0.94531-8.0781-2.8438-1.9922-1.9062-2.9844-4.4844-2.9844-7.7344 0-3.2578 0.99219-5.8359 2.9844-7.7344 1.9883-1.9062 4.6797-2.8594 8.0781-2.8594 1.1445 0 2.2383 0.13281 3.2812 0.39062 1.0508 0.25 2.0625 0.625 3.0312 1.125v4.2188c-0.98047-0.65625-1.9453-1.1406-2.8906-1.4531-0.94922-0.3125-1.9492-0.46875-3-0.46875-1.875 0-3.3516 0.60547-4.4219 1.8125-1.0742 1.1992-1.6094 2.8555-1.6094 4.9688 0 2.1055 0.53516 3.7617 1.6094 4.9688 1.0703 1.1992 2.5469 1.7969 4.4219 1.7969 1.0508 0 2.0508-0.14844 3-0.45312 0.94531-0.3125 1.9102-0.80078 2.8906-1.4688z"
         id="path824" />
    </symbol>
    <symbol
       id="d"
       overflow="visible">
      <path
         d="m13.734-11.141c-0.4375-0.19531-0.87109-0.34375-1.2969-0.4375-0.41797-0.10156-0.83984-0.15625-1.2656-0.15625-1.2617 0-2.2305 0.40625-2.9062 1.2188-0.67969 0.80469-1.0156 1.9531-1.0156 3.4531v7.0625h-4.8906v-15.312h4.8906v2.5156c0.625-1 1.3438-1.7266 2.1562-2.1875 0.82031-0.46875 1.8008-0.70312 2.9375-0.70312 0.16406 0 0.34375 0.011719 0.53125 0.03125 0.19531 0.011719 0.47656 0.039062 0.84375 0.078125z"
         id="path827" />
    </symbol>
    <symbol
       id="a"
       overflow="visible">
      <path
         d="m17.641-7.7031v1.4062h-11.453c0.125 1.1484 0.53906 2.0078 1.25 2.5781 0.70703 0.57422 1.7031 0.85938 2.9844 0.85938 1.0312 0 2.082-0.14844 3.1562-0.45312 1.082-0.3125 2.1914-0.77344 3.3281-1.3906v3.7656c-1.1562 0.4375-2.3125 0.76562-3.4688 0.98438-1.1562 0.22656-2.3125 0.34375-3.4688 0.34375-2.7734 0-4.9297-0.70312-6.4688-2.1094-1.5312-1.4062-2.2969-3.3789-2.2969-5.9219 0-2.5 0.75391-4.4609 2.2656-5.8906 1.5078-1.4375 3.582-2.1562 6.2188-2.1562 2.4062 0 4.332 0.73047 5.7812 2.1875 1.4453 1.4492 2.1719 3.3828 2.1719 5.7969zm-5.0312-1.625c0-0.92578-0.27344-1.6719-0.8125-2.2344-0.54297-0.57031-1.25-0.85938-2.125-0.85938-0.94922 0-1.7188 0.26562-2.3125 0.79688s-0.96484 1.2969-1.1094 2.2969z"
         id="path830" />
    </symbol>
    <symbol
       id="c"
       overflow="visible">
      <path
         d="m9.2188-6.8906c-1.0234 0-1.793 0.17188-2.3125 0.51562-0.51172 0.34375-0.76562 0.85547-0.76562 1.5312 0 0.625 0.20703 1.1172 0.625 1.4688 0.41406 0.34375 0.98828 0.51562 1.7188 0.51562 0.92578 0 1.7031-0.32812 2.3281-0.98438 0.63281-0.66406 0.95312-1.4922 0.95312-2.4844v-0.5625zm7.4688-1.8438v8.7344h-4.9219v-2.2656c-0.65625 0.92969-1.3984 1.6055-2.2188 2.0312-0.82422 0.41406-1.8242 0.625-3 0.625-1.5859 0-2.8711-0.45703-3.8594-1.375-0.99219-0.92578-1.4844-2.1289-1.4844-3.6094 0-1.7891 0.61328-3.1016 1.8438-3.9375 1.2383-0.84375 3.1797-1.2656 5.8281-1.2656h2.8906v-0.39062c0-0.76953-0.30859-1.332-0.92188-1.6875-0.61719-0.36328-1.5703-0.54688-2.8594-0.54688-1.0547 0-2.0312 0.10547-2.9375 0.3125-0.89844 0.21094-1.7305 0.52344-2.5 0.9375v-3.7344c1.0391-0.25 2.0859-0.44141 3.1406-0.57812 1.0625-0.13281 2.125-0.20312 3.1875-0.20312 2.7578 0 4.75 0.54688 5.9688 1.6406 1.2266 1.0859 1.8438 2.8555 1.8438 5.3125z"
         id="path833" />
    </symbol>
    <symbol
       id="b"
       overflow="visible">
      <path
         d="m7.7031-19.656v4.3438h5.0469v3.5h-5.0469v6.5c0 0.71094 0.14062 1.1875 0.42188 1.4375s0.83594 0.375 1.6719 0.375h2.5156v3.5h-4.1875c-1.9375 0-3.3125-0.39844-4.125-1.2031-0.80469-0.8125-1.2031-2.1797-1.2031-4.1094v-6.5h-2.4219v-3.5h2.4219v-4.3438z"
         id="path836" />
    </symbol>
    <symbol
       id="k"
       overflow="visible">
      <path
         d="m12.766-13.078v-8.2031h4.9219v21.281h-4.9219v-2.2188c-0.66797 0.90625-1.4062 1.5703-2.2188 1.9844s-1.7578 0.625-2.8281 0.625c-1.8867 0-3.4336-0.75-4.6406-2.25-1.2109-1.5-1.8125-3.4258-1.8125-5.7812 0-2.3633 0.60156-4.2969 1.8125-5.7969 1.207-1.5 2.7539-2.25 4.6406-2.25 1.0625 0 2 0.21484 2.8125 0.64062 0.82031 0.42969 1.5664 1.0859 2.2344 1.9688zm-3.2188 9.9219c1.0391 0 1.8359-0.37891 2.3906-1.1406 0.55078-0.76953 0.82812-1.8828 0.82812-3.3438 0-1.457-0.27734-2.5664-0.82812-3.3281-0.55469-0.76953-1.3516-1.1562-2.3906-1.1562-1.043 0-1.8398 0.38672-2.3906 1.1562-0.55469 0.76172-0.82812 1.8711-0.82812 3.3281 0 1.4609 0.27344 2.5742 0.82812 3.3438 0.55078 0.76172 1.3477 1.1406 2.3906 1.1406z"
         id="path839" />
    </symbol>
    <symbol
       id="j"
       overflow="visible">
      <path
         d="m10.5-3.1562c1.0508 0 1.8516-0.37891 2.4062-1.1406 0.55078-0.76953 0.82812-1.8828 0.82812-3.3438 0-1.457-0.27734-2.5664-0.82812-3.3281-0.55469-0.76953-1.3555-1.1562-2.4062-1.1562-1.0547 0-1.8594 0.38672-2.4219 1.1562-0.55469 0.77344-0.82812 1.8828-0.82812 3.3281 0 1.4492 0.27344 2.5586 0.82812 3.3281 0.5625 0.77344 1.3672 1.1562 2.4219 1.1562zm-3.25-9.9219c0.67578-0.88281 1.4219-1.5391 2.2344-1.9688 0.82031-0.42578 1.7656-0.64062 2.8281-0.64062 1.8945 0 3.4453 0.75 4.6562 2.25 1.207 1.5 1.8125 3.4336 1.8125 5.7969 0 2.3555-0.60547 4.2812-1.8125 5.7812-1.2109 1.5-2.7617 2.25-4.6562 2.25-1.0625 0-2.0078-0.21094-2.8281-0.625-0.8125-0.42578-1.5586-1.0859-2.2344-1.9844v2.2188h-4.8906v-21.281h4.8906z"
         id="path842" />
    </symbol>
    <symbol
       id="i"
       overflow="visible">
      <path
         d="m0.34375-15.312h4.8906l4.125 10.391 3.5-10.391h4.8906l-6.4375 16.766c-0.64844 1.6953-1.4023 2.8828-2.2656 3.5625-0.86719 0.6875-2 1.0312-3.4062 1.0312h-2.8438v-3.2188h1.5312c0.83203 0 1.4375-0.13672 1.8125-0.40625 0.38281-0.26172 0.67969-0.73047 0.89062-1.4062l0.14062-0.42188z"
         id="path845" />
    </symbol>
    <symbol
       id="f"
       overflow="visible">
      <path
         d="m2.3594-15.312h4.8906v15.312h-4.8906zm0-5.9688h4.8906v4h-4.8906z"
         id="path848" />
    </symbol>
    <symbol
       id="u"
       overflow="visible">
      <path
         d="m0.42188-15.312h4.8906l3.8281 10.578 3.7969-10.578h4.9062l-6.0312 15.312h-5.375z"
         id="path851" />
    </symbol>
    <symbol
       id="t"
       overflow="visible">
      <path
         d="m2.5781-20.406h6.6875l4.6562 10.922 4.6719-10.922h6.6875v20.406h-4.9844v-14.938l-4.7031 11.016h-3.3281l-4.7031-11.016v14.938h-4.9844z"
         id="path854" />
    </symbol>
    <symbol
       id="g"
       overflow="visible">
      <path
         d="m17.75-9.3281v9.3281h-4.9219v-7.1406c0-1.3203-0.03125-2.2344-0.09375-2.7344s-0.16797-0.86719-0.3125-1.1094c-0.1875-0.3125-0.44922-0.55469-0.78125-0.73438-0.32422-0.17578-0.69531-0.26562-1.1094-0.26562-1.0234 0-1.8242 0.39844-2.4062 1.1875-0.58594 0.78125-0.875 1.8711-0.875 3.2656v7.5312h-4.8906v-15.312h4.8906v2.2344c0.73828-0.88281 1.5195-1.5391 2.3438-1.9688 0.83203-0.42578 1.75-0.64062 2.75-0.64062 1.7695 0 3.1133 0.54688 4.0312 1.6406 0.91406 1.0859 1.375 2.6562 1.375 4.7188z"
         id="path857" />
    </symbol>
    <symbol
       id="s"
       overflow="visible">
      <path
         d="m12.422-21.281v3.2188h-2.7031c-0.6875 0-1.1719 0.125-1.4531 0.375-0.27344 0.25-0.40625 0.6875-0.40625 1.3125v1.0625h4.1875v3.5h-4.1875v11.812h-4.8906v-11.812h-2.4375v-3.5h2.4375v-1.0625c0-1.6641 0.46094-2.8984 1.3906-3.7031 0.92578-0.80078 2.3672-1.2031 4.3281-1.2031z"
         id="path860" />
    </symbol>
    <symbol
       id="e"
       overflow="visible">
      <path
         d="m9.6406-12.188c-1.0859 0-1.9141 0.39062-2.4844 1.1719-0.57422 0.78125-0.85938 1.9062-0.85938 3.375s0.28516 2.5938 0.85938 3.375c0.57031 0.77344 1.3984 1.1562 2.4844 1.1562 1.0625 0 1.875-0.38281 2.4375-1.1562 0.57031-0.78125 0.85938-1.9062 0.85938-3.375s-0.28906-2.5938-0.85938-3.375c-0.5625-0.78125-1.375-1.1719-2.4375-1.1719zm0-3.5c2.6328 0 4.6914 0.71484 6.1719 2.1406 1.4766 1.418 2.2188 3.3867 2.2188 5.9062 0 2.5117-0.74219 4.4805-2.2188 5.9062-1.4805 1.418-3.5391 2.125-6.1719 2.125-2.6484 0-4.7148-0.70703-6.2031-2.125-1.4922-1.4258-2.2344-3.3945-2.2344-5.9062 0-2.5195 0.74219-4.4883 2.2344-5.9062 1.4883-1.4258 3.5547-2.1406 6.2031-2.1406z"
         id="path863" />
    </symbol>
    <symbol
       id="r"
       overflow="visible">
      <path
         d="m16.547-12.766c0.61328-0.94531 1.3477-1.6719 2.2031-2.1719 0.85156-0.5 1.7891-0.75 2.8125-0.75 1.7578 0 3.0977 0.54688 4.0156 1.6406 0.92578 1.0859 1.3906 2.6562 1.3906 4.7188v9.3281h-4.9219v-7.9844-0.35938c0.007813-0.13281 0.015625-0.32031 0.015625-0.5625 0-1.082-0.16406-1.8633-0.48438-2.3438-0.3125-0.48828-0.82422-0.73438-1.5312-0.73438-0.92969 0-1.6484 0.38672-2.1562 1.1562-0.51172 0.76172-0.77344 1.8672-0.78125 3.3125v7.5156h-4.9219v-7.9844c0-1.6953-0.14844-2.7852-0.4375-3.2656-0.29297-0.48828-0.8125-0.73438-1.5625-0.73438-0.9375 0-1.6641 0.38672-2.1719 1.1562-0.51172 0.76172-0.76562 1.8594-0.76562 3.2969v7.5312h-4.9219v-15.312h4.9219v2.2344c0.60156-0.86328 1.2891-1.5156 2.0625-1.9531 0.78125-0.4375 1.6406-0.65625 2.5781-0.65625 1.0625 0 2 0.25781 2.8125 0.76562 0.8125 0.51172 1.4258 1.2305 1.8438 2.1562z"
         id="path866" />
    </symbol>
    <symbol
       id="q"
       overflow="visible">
      <path
         d="m17.75-9.3281v9.3281h-4.9219v-7.1094c0-1.3438-0.03125-2.2656-0.09375-2.7656s-0.16797-0.86719-0.3125-1.1094c-0.1875-0.3125-0.44922-0.55469-0.78125-0.73438-0.32422-0.17578-0.69531-0.26562-1.1094-0.26562-1.0234 0-1.8242 0.39844-2.4062 1.1875-0.58594 0.78125-0.875 1.8711-0.875 3.2656v7.5312h-4.8906v-21.281h4.8906v8.2031c0.73828-0.88281 1.5195-1.5391 2.3438-1.9688 0.83203-0.42578 1.75-0.64062 2.75-0.64062 1.7695 0 3.1133 0.54688 4.0312 1.6406 0.91406 1.0859 1.375 2.6562 1.375 4.7188z"
         id="path869" />
    </symbol>
    <symbol
       id="p"
       overflow="visible">
      <path
         d="m2.5781-20.406h5.875l7.4219 14v-14h4.9844v20.406h-5.875l-7.4219-14v14h-4.9844z"
         id="path872" />
    </symbol>
    <symbol
       id="o"
       overflow="visible">
      <path
         d="m2.1875-5.9688v-9.3438h4.9219v1.5312c0 0.83594-0.007813 1.875-0.015625 3.125-0.011719 1.25-0.015625 2.0859-0.015625 2.5 0 1.2422 0.03125 2.1328 0.09375 2.6719 0.070313 0.54297 0.17969 0.93359 0.32812 1.1719 0.20703 0.32422 0.47266 0.57422 0.79688 0.75 0.32031 0.16797 0.69141 0.25 1.1094 0.25 1.0195 0 1.8203-0.39062 2.4062-1.1719 0.58203-0.78125 0.875-1.8672 0.875-3.2656v-7.5625h4.8906v15.312h-4.8906v-2.2188c-0.74219 0.89844-1.5234 1.5586-2.3438 1.9844-0.82422 0.41406-1.7344 0.625-2.7344 0.625-1.7617 0-3.1055-0.53906-4.0312-1.625-0.92969-1.082-1.3906-2.6602-1.3906-4.7344z"
         id="path875" />
    </symbol>
    <symbol
       id="n"
       overflow="visible">
      <path
         d="m2.5781-20.406h8.7344c2.5938 0 4.582 0.57812 5.9688 1.7344 1.3945 1.1484 2.0938 2.7891 2.0938 4.9219 0 2.1367-0.69922 3.7812-2.0938 4.9375-1.3867 1.1562-3.375 1.7344-5.9688 1.7344h-3.4844v7.0781h-5.25zm5.25 3.8125v5.7031h2.9219c1.0195 0 1.8047-0.25 2.3594-0.75 0.5625-0.5 0.84375-1.2031 0.84375-2.1094 0-0.91406-0.28125-1.6172-0.84375-2.1094-0.55469-0.48828-1.3398-0.73438-2.3594-0.73438z"
         id="path878" />
    </symbol>
    <symbol
       id="m"
       overflow="visible">
      <path
         d="m2.3594-15.312h4.8906v15.031c0 2.0508-0.49609 3.6172-1.4844 4.7031-0.98047 1.082-2.4062 1.625-4.2812 1.625h-2.4219v-3.2188h0.85938c0.92578 0 1.5625-0.21094 1.9062-0.625 0.35156-0.41797 0.53125-1.2461 0.53125-2.4844zm0-5.9688h4.8906v4h-4.8906z"
         id="path881" />
    </symbol>
    <symbol
       id="l"
       overflow="visible">
      <path
         d="m14.719-14.828v3.9844c-0.65625-0.45703-1.3242-0.79688-2-1.0156-0.66797-0.21875-1.3594-0.32812-2.0781-0.32812-1.3672 0-2.4336 0.40234-3.2031 1.2031-0.76172 0.79297-1.1406 1.9062-1.1406 3.3438 0 1.4297 0.37891 2.543 1.1406 3.3438 0.76953 0.79297 1.8359 1.1875 3.2031 1.1875 0.75781 0 1.4844-0.10938 2.1719-0.32812 0.6875-0.22656 1.3203-0.56641 1.9062-1.0156v4c-0.76172 0.28125-1.5391 0.48828-2.3281 0.625-0.78125 0.14453-1.5742 0.21875-2.375 0.21875-2.7617 0-4.9219-0.70703-6.4844-2.125-1.5547-1.4141-2.3281-3.3828-2.3281-5.9062 0-2.5312 0.77344-4.5039 2.3281-5.9219 1.5625-1.4141 3.7227-2.125 6.4844-2.125 0.80078 0 1.5938 0.074219 2.375 0.21875 0.78125 0.13672 1.5547 0.35156 2.3281 0.64062z"
         id="path884" />
    </symbol>
  </defs>
  <g
     id="g1203"
     transform="translate(-1.869499,78.518664)">
    <path
       d="M 283.7117,529.8694 H 579.01798 V 419.88465 H 283.7117 Z m 14.34517,-95.63958 h 266.61338 v 81.29441 H 298.05687 Z"
       id="path889"
       style="stroke-width:1.28093" />
    <path
       d="m 183.29937,427.04891 h 14.34517 v 31.08312 h -14.34517 z"
       id="path891"
       style="stroke-width:1.28093" />
    <path
       d="M 662.71413,483.06411 V 468.71894 H 614.28846 V 351.88889 c 10.12731,-2.01644 17.78832,-10.96799 17.78832,-21.67595 V 260.60192 L 548.69061,164.03623 H 510.5124 v -46.62852 h -62.55564 l 12.04372,-24.513209 h 10.69284 c 14.1748,0 25.7032,-11.528396 25.7032,-25.7032 0,-11.053042 -7.05013,-20.415509 -16.87245,-24.037987 2.12148,-3.677687 3.42752,-7.88568 3.42752,-12.424025 0,-13.845604 -11.26324,-25.108847 -25.10884,-25.108847 h -75.96573 c 2.6669,-4.1480451 4.26807,-9.0515844 4.26807,-14.3451677 0,-14.6602773 -11.92869,-26.5998533 -26.59986,-26.5998533 -14.66027,0 -26.59985,11.938679 -26.59985,26.5998533 0,5.2938395 1.59118,10.2023745 4.26807,14.3451677 l -77.24154,0.005 c -13.8456,0 -25.10884,11.263243 -25.10884,25.108847 0,4.538345 1.30591,8.746338 3.42252,12.419029 -9.8122,3.622606 -16.87245,12.98994 -16.87245,24.043111 0,14.174803 11.5284,25.7032 25.7032,25.7032 h 14.67053 l 12.89899,24.508081 h -67.47954 v 46.6234 h -37.48266 l -84.006146,96.5452 v 69.6251 c 0,8.56624 4.948628,15.93609 12.098796,19.60468 v 23.44748 H 68.9697 v 95.45896 l -27.944832,0.005 V 483.0627 H 68.9697 v 40.82973 h 28.84661 v 40.04965 H 41.024868 v 14.34517 H 662.71285 V 563.94221 H 614.28718 V 483.06283 Z M 359.54293,-20.970188 c 6.74987,0 12.25392,5.494049 12.25392,12.2539164 0,6.7548717 -5.50405,12.2539167 -12.25392,12.2539167 -6.74988,0 -12.25392,-5.4940494 -12.25392,-12.2539167 0.005,-6.7598674 5.50404,-12.2539164 12.25392,-12.2539164 z M 617.72777,330.19757 c 0,4.28818 -3.4876,7.77565 -7.77565,7.77565 -4.28318,0 -7.76066,-3.4876 -7.76066,-7.77565 v -45.42316 h -34.67485 v 45.42316 c 0,4.28818 -3.4876,7.77565 -7.77565,7.77565 -4.28318,0 -7.76066,-3.4876 -7.76066,-7.77565 v -45.42316 h -34.67485 v 45.42316 c 0,4.28818 -3.4876,7.77565 -7.77565,7.77565 -4.28319,0 -7.76066,-3.4876 -7.76066,-7.77565 v -45.42316 h -34.67486 v 45.42316 c 0,4.28818 -3.48759,7.77565 -7.77564,7.77565 -4.28319,0 -7.76066,-3.4876 -7.76066,-7.77565 v -45.42316 h -34.67486 v 45.42316 c 0,4.28818 -3.48759,7.77565 -7.77564,7.77565 -4.28319,0 -7.76067,-3.4876 -7.76067,-7.77565 v -45.42316 h -34.67485 v 45.42316 c 0,4.28818 -3.47748,7.77565 -7.77065,7.77565 -4.28818,0 -7.77065,-3.4876 -7.77065,-7.77565 v -45.42316 h -34.66973 v 45.42316 c 0,4.28818 -3.4876,7.77565 -7.77065,7.77565 -4.28306,0 -7.77066,-3.4876 -7.77066,-7.77565 v -45.42316 h -34.66973 v 45.42316 c 0,4.28818 -3.48759,7.77565 -7.77065,7.77565 -4.28305,0 -7.77065,-3.4876 -7.77065,-7.77565 v -45.42316 h -34.66973 v 45.42316 c 0,4.28818 -3.4876,7.77565 -7.77065,7.77565 -4.28306,0 -7.77065,-3.4876 -7.77065,-7.77565 v -45.42316 h -34.66973 v 45.42316 c 0,4.28818 -3.4876,7.77565 -7.77065,7.77565 -4.28306,0 -7.77066,-3.4876 -7.77066,-7.77565 v -45.42316 h -34.66973 v 45.42316 c 0,4.28818 -3.48759,7.77565 -7.77065,7.77565 -4.28305,0 -7.77065,-3.4876 -7.77065,-7.77565 v -64.25672 l 0.51537,-0.59543 h 516.65149 l 0.49536,0.58043 0.03,64.27209 z m -455.34604,21.6862 c 10.12732,-2.01645 17.78832,-10.963 17.78832,-21.67595 v -31.07287 h 5.9744 v 31.07287 c 0,12.19384 9.92223,22.12171 22.11659,22.12171 12.19435,0 22.11658,-9.92723 22.11658,-22.12171 v -31.07287 h 5.9744 v 31.07287 c 0,8.56624 4.94863,15.93609 12.0988,19.60468 l 0.005,214.12074 H 162.37853 V 351.8748 Z M 424.52466,251.00517 H 293.29308 v -33.1736 H 424.52466 Z M 420.817,140.11994 h -10.55271 l 15.63122,-47.219034 h 18.11367 z m -95.9944,0 -15.63122,-47.219034 h 21.32497 l 4.53834,47.219034 z m 24.65796,0 -4.53835,-47.219034 h 29.1361 l -4.53834,47.219034 z m 38.998,-47.224158 h 22.30617 L 395.1535,140.11481 H 383.93535 Z M 259.97537,19.972271 h 197.86571 c 5.93431,0 10.75779,4.828476 10.75779,10.757787 0,5.934306 -4.82848,10.757787 -10.75779,10.757787 H 259.97537 c -5.9343,0 -10.75778,-4.828477 -10.75778,-10.757787 -0.005,-5.934306 4.82348,-10.757787 10.75778,-10.757787 z m -24.20323,47.21903 c 0,-6.264531 5.09376,-11.353293 11.3533,-11.353293 h 223.57403 c 6.26453,0 11.35329,5.093758 11.35329,11.353293 0,6.26453 -5.09376,11.353293 -11.35329,11.353293 H 247.12544 c -6.26453,0 -11.3533,-5.088763 -11.3533,-11.353293 z m 58.30295,25.7032 15.63122,47.219029 h -6.85004 L 278.00873,92.894501 Z m -72.51233,38.853259 h 60.67907 l 11.95866,22.71606 135.54832,0.005 11.16308,-22.72119 h 55.25048 v 32.27823 l -274.6064,0.005 z m -45.29251,46.62852 H 542.1175 l 62.73113,72.62761 H 438.86534 V 203.47872 H 278.94087 v 47.52517 H 113.06005 Z M 83.327037,387.60386 H 126.66868 V 509.54739 H 83.327037 Z m 28.841483,136.29126 h 28.84661 V 373.25741 h -28.84661 v -21.37108 c 10.12731,-2.01645 17.78832,-10.96299 17.78832,-21.67595 v -31.07287 h 5.9744 v 31.07287 c 0,8.56624 4.94863,15.93609 12.09879,19.60468 l 0.005,214.13356 h -35.86612 z m 150.63771,40.04965 V 351.88633 c 10.12732,-2.01645 17.78832,-10.96299 17.78832,-21.67595 v -31.07287 h 5.9744 v 31.07287 c 0,12.19384 9.92223,22.12171 22.11659,22.12171 12.19384,0 22.11658,-9.92723 22.11658,-22.12171 v -31.07287 h 5.9744 v 31.07287 c 0,12.19384 9.92224,22.12171 22.11659,22.12171 12.19384,0 22.11659,-9.92723 22.11659,-22.12171 v -31.07287 h 5.98439 v 31.07287 c 0,12.19384 9.92223,22.12171 22.10634,22.12171 12.19384,0 22.12171,-9.92723 22.12171,-22.12171 v -31.07287 h 5.98439 v 31.07287 c 0,12.19384 9.92224,22.12171 22.10634,22.12171 12.19384,0 22.12171,-9.92723 22.12171,-22.12171 v -31.07287 h 5.98439 v 31.07287 c 0,12.19384 9.92224,22.12171 22.10634,22.12171 12.19385,0 22.12172,-9.92723 22.12172,-22.12171 v -31.07287 h 5.98439 v 31.07287 c 0,12.19384 9.92223,22.12171 22.10634,22.12171 12.19384,0 22.12171,-9.92723 22.12171,-22.12171 v -31.07287 h 5.98439 v 31.07287 c 0,8.66628 5.04867,16.10133 12.32398,19.73405 h -0.23017 v 213.99266 z"
       id="path893"
       style="stroke-width:1.28093" />
    <path
       d="m 424.51185,452.168 h 14.34516 v 45.42829 h -14.34516 z"
       id="path895"
       style="stroke-width:1.28093" />
    <path
       d="m 388.64572,462.8766 h 14.34517 v 24.39793 h -14.34517 z"
       id="path897"
       style="stroke-width:1.28093" />
    <path
       d="m 460.37797,462.8766 h 14.34517 v 24.39793 h -14.34517 z"
       id="path899"
       style="stroke-width:1.28093" />
    <path
       d="M 283.7117,412.70246 H 579.01798 V 364.87755 H 283.7117 Z m 14.34517,-33.47462 h 266.61338 v 19.12945 H 298.05687 Z"
       id="path901"
       style="stroke-width:1.28093" />
  </g>
</svg>
