<?xml version="1.0" encoding="UTF-8" standalone="no"?>
<svg
   width="490.0007pt"
   height="385.03732pt"
   version="1.1"
   viewBox="0 0 490.0007 385.03732"
   id="svg1201"
   sodipodi:docname="logo.svg"
   inkscape:version="1.1.2 (b8e25be8, 2022-02-05)"
   xmlns:inkscape="http://www.inkscape.org/namespaces/inkscape"
   xmlns:sodipodi="http://sodipodi.sourceforge.net/DTD/sodipodi-0.dtd"
   xmlns="http://www.w3.org/2000/svg"
   xmlns:svg="http://www.w3.org/2000/svg">
  <defs
     id="defs1205" />
  <sodipodi:namedview
     id="namedview1203"
     pagecolor="#ffffff"
     bordercolor="#666666"
     borderopacity="1.0"
     inkscape:pageshadow="2"
     inkscape:pageopacity="0.0"
     inkscape:pagecheckerboard="0"
     inkscape:document-units="pt"
     showgrid="false"
     fit-margin-top="0"
     fit-margin-left="0"
     fit-margin-right="0"
     fit-margin-bottom="0"
     inkscape:zoom="0.74678571"
     inkscape:cx="267.14491"
     inkscape:cy="350.16738"
     inkscape:window-width="1296"
     inkscape:window-height="925"
     inkscape:window-x="0"
     inkscape:window-y="23"
     inkscape:window-maximized="0"
     inkscape:current-layer="svg1201" />
  <path
     d="m 431.0721,191.64731 c -11.34,-0.25781 -22.109,4.9727 -28.918,14.043 -6.8086,9.0742 -8.8164,20.875 -5.3984,31.691 l 13.465,42.656 h -252.72 v 105 h 332.5 v -140 h -59.746 c -4.8398,0 -9.4805,-1.9219 -12.902,-5.3477 -3.4219,-3.4219 -5.3438,-8.0625 -5.3438,-12.902 0,-4.8395 1.9219,-9.4805 5.3438,-12.902 3.4219,-3.4219 8.0625,-5.3477 12.902,-5.3477 4.8395,0 9.4844,1.9219 12.906,5.3438 3.4216,3.4219 5.3438,8.0664 5.3438,12.902 0,4.6758 3.7891,8.4609 8.4609,8.4609 4.6718,0 8.4609,-3.7852 8.4609,-8.4609 0,-9.1797 -3.5938,-18 -10.016,-24.566 -6.418,-6.5664 -15.156,-10.359 -24.336,-10.57 z m -8.2734,70.105 c 2.4531,0.51953 4.9492,0.78516 7.4531,0.78516 h 42.246 v 4.168 c -34.574,45.055 -80.711,79.902 -133.5,100.83 h -164 v -63.711 c 27.852,26.816 65.34,41.266 103.98,40.082 38.641,-1.1836 75.176,-17.902 101.33,-46.371 h 41.836 c 2.793,0.008 5.4219,-1.3164 7.0781,-3.5664 1.6562,-2.2461 2.1367,-5.1523 1.2969,-7.8164 z m 49.699,32.539 v 73.246 h -92.082 c 34.812,-18.734 65.996,-43.539 92.082,-73.246 z m -278.26,3.2461 h 160.71 c -22.605,18.695 -51.023,28.926 -80.359,28.926 -29.332,0 -57.75,-10.23 -80.355,-28.926 z"
     id="path1185" />
  <path
     d="m 192.7121,191.41731 -6.3633,44.5 c -0.5625,4.7266 2.7539,9.0352 7.4648,9.6992 4.7109,0.66406 9.0898,-2.5547 9.8594,-7.25 l 6.3633,-44.508 c 0.5625,-4.7266 -2.7539,-9.0352 -7.4648,-9.6992 -4.7148,-0.66406 -9.0938,2.5547 -9.8594,7.25 z"
     id="path1187" />
  <path
     d="m 147.6121,198.02731 30.086,-18.492 v -0.004 c 4.0977,-2.5352 5.3711,-7.9141 2.8477,-12.02 -2.5234,-4.1094 -7.8984,-5.3984 -12.012,-2.8867 l -30.086,18.492 c -4.1016,2.5391 -5.375,7.9141 -2.8477,12.023 2.5234,4.1055 7.8945,5.3984 12.012,2.8867 z"
     id="path1189" />
  <path
     d="m 358.1221,69.957312 c 4.2891,-2.2305 5.957,-7.5117 3.7344,-11.797 -2.2266,-4.2891 -7.5078,-5.9648 -11.797,-3.7422 l -59.016,30.637 h 0.004 c -4.2109,2.2656 -5.8242,7.4922 -3.6211,11.738 2.2031,4.242198 7.4062,5.933598 11.684,3.792998 z"
     id="path1191" />
  <path
     d="m 292.4121,33.017312 c 1.4844,-4.4844 -0.85938,-9.3398 -5.2969,-10.965 -4.4336,-1.625 -9.3594,0.5625 -11.125,4.9453 l -14.465,39.301 c -1.4844,4.4883 0.85938,9.3398 5.2969,10.965 4.4336,1.625 9.3594,-0.5625 11.125,-4.9453 z"
     id="path1193" />
  <path
     d="m 158.9021,0.00231203 c -6.4805,-0.08594 -12.762,2.22659997 -17.637,6.49609997 l -24.746,21.668 c -5.2461,4.582 -8.457,11.059 -8.9258,18.008 -0.4688,6.949 1.8438,13.801 6.4297,19.043 l 14.117,16.098 L 0,193.42541 l 32.914,37.598 128.14,-112.04 14.082,16.098 c 4.5898,5.2383 11.074,8.4336 18.023,8.8906 6.9492,0.45312 13.793,-1.8711 19.027,-6.4648 l 24.746,-21.668 c 5.1016,-4.4648 8.2773,-10.73 8.8633,-17.483998 0.58594,-6.75 -1.4648,-13.469 -5.7188,-18.746 l -62.445,-71.402 c -4.8789,-5.1523 -11.637,-8.11329997 -18.73,-8.20309997 z M 158.49194,17.400312 c 2.3633,0.0195 4.6211,0.99219 6.2539,2.6992 l 61.867,70.48 c 2.793,3.6602 2.2695,8.8633 -1.1992,11.894998 l -24.777,21.668 c -3.6445,3.168 -9.168,2.7891 -12.34,-0.85547 l -61.078,-69.827998 c -1.5391,-1.7461 -2.3164,-4.0352 -2.1602,-6.3555 0.15234,-2.3242 1.2266,-4.4883 2.9805,-6.0156 l 24.746,-21.672 c 1.6016,-1.3281 3.625,-2.043 5.707,-2.0156 z m -18.832,77.109 9.8438,11.276998 -114.95,100.59 -9.875,-11.281 z"
     id="path1195" />
  <path
     d="m 274.1221,116.62731 c -2.0703,0.082 -4.043,0.89062 -5.5703,2.2891 l -50.793,48.469 c -3.2109,3.3828 -3.207,8.6914 0.0156,12.066 3.2188,3.375 8.5195,3.6289 12.051,0.57812 l 7.0742,-6.7305 79.535,83.398 85.008,15.688 -127.87,-134.05 7.0742,-6.7305 c 2.5781,-2.543 3.3242,-6.4102 1.875,-9.7266 -1.4453,-3.3203 -4.7852,-5.4023 -8.4023,-5.2461 z m -13.195,33.77 90.578,94.984 -26.32,-4.8164 -75.602,-79.297 z"
     id="path1197" />
</svg>
