<?xml version="1.0" encoding="UTF-8" standalone="no"?>
<svg
   width="478.85779pt"
   height="507.56491pt"
   version="1.1"
   viewBox="0 0 478.85779 507.56491"
   id="svg2090"
   sodipodi:docname="logo.svg"
   inkscape:version="1.1.2 (b8e25be8, 2022-02-05)"
   xmlns:inkscape="http://www.inkscape.org/namespaces/inkscape"
   xmlns:sodipodi="http://sodipodi.sourceforge.net/DTD/sodipodi-0.dtd"
   xmlns="http://www.w3.org/2000/svg"
   xmlns:svg="http://www.w3.org/2000/svg">
  <sodipodi:namedview
     id="namedview2092"
     pagecolor="#ffffff"
     bordercolor="#666666"
     borderopacity="1.0"
     inkscape:pageshadow="2"
     inkscape:pageopacity="0.0"
     inkscape:pagecheckerboard="0"
     inkscape:document-units="pt"
     showgrid="false"
     fit-margin-top="0"
     fit-margin-left="0"
     fit-margin-right="0"
     fit-margin-bottom="0"
     inkscape:zoom="0.74892857"
     inkscape:cx="361.18264"
     inkscape:cy="218.31187"
     inkscape:window-width="1680"
     inkscape:window-height="925"
     inkscape:window-x="0"
     inkscape:window-y="23"
     inkscape:window-maximized="0"
     inkscape:current-layer="svg2090" />
  <defs
     id="defs2046" />
  <path
     d="M 218.76807,0.004 H 8.7680668 c -2.457,-0.01563 -4.8047,1 -6.4766,2.8008 -1.60940002,1.8281 -2.42580002,4.2188 -2.27340002,6.6484 l 17.50000022,210 c 0.36719,4.5586 4.1797,8.0664 8.75,8.0508 h 78.750003 v 35 H 87.518067 c -4.832,0 -8.75,3.918 -8.75,8.75 v 227.5 c 0,2.3203 0.92188,4.5469 2.5625,6.1875 1.64062,1.6406 3.8672,2.5625 6.1875,2.5625 h 52.500003 c 2.3203,0 4.5469,-0.92188 6.1875,-2.5625 1.6406,-1.64062 2.5625,-3.8672 2.5625,-6.1875 v -227.5 c 0,-2.3203 -0.92188,-4.5469 -2.5625,-6.1875 -1.64062,-1.6406 -3.8672,-2.5625 -6.1875,-2.5625 h -17.5 v -35 h 78.75 c 4.5703,0.0156 8.3828,-3.4922 8.75,-8.0508 l 17.5,-210 c 0.15234,-2.4297 -0.66406,-4.8203 -2.2734,-6.6484 -1.6719,-1.8008 -4.0195,-2.8164 -6.4766,-2.8008 z m -91.875,420 c 2.4492,0 4.375,3.9375 4.375,8.75 0,4.8125 -1.9258,8.75 -4.375,8.75 h -26.25 c -2.449203,0 -4.375003,-3.9375 -4.375003,-8.75 0,-4.8125 1.9258,-8.75 4.375003,-8.75 z m 13.125,-367.5 H 52.518067 c -4.832,0 -8.75,-3.918 -8.75,-8.75 0,-4.832 3.918,-8.75 8.75,-8.75 h 87.500003 c 4.832,0 8.75,3.918 8.75,8.75 0,4.832 -3.918,8.75 -8.75,8.75 z m 335.56,295.57 -90.562,-72.363 V 245 h 17.5 c 2.3203,0 4.5469,-0.92188 6.1875,-2.5625 1.6406,-1.64062 2.5625,-3.8672 2.5625,-6.1875 V 8.75 c 0,-2.3203 -0.92188,-4.5469 -2.5625,-6.1875 C 407.06295,0.9219 404.83637,0 402.51607,0 h -52.5 c -4.832,0 -8.75,3.918 -8.75,8.75 v 227.5 c 0,2.3203 0.92188,4.5469 2.5625,6.1875 1.64062,1.6406 3.8672,2.5625 6.1875,2.5625 h 17.5 v 30.711 l -90.562,72.363 c -3.5234,2.8242 -4.3203,7.8672 -1.8359,11.637 l 93.797,143.85 c 1.6133,2.4961 4.3828,4.0039 7.3516,4.0039 2.9688,0 5.7383,-1.5078 7.3516,-4.0039 l 93.797,-143.85 c 2.4844,-3.7695 1.6875,-8.8125 -1.8359,-11.637 z m -112.44,-260.57 c -2.4492,0 -4.375,-3.9375 -4.375,-8.75 0,-4.8125 1.9258,-8.75 4.375,-8.75 h 26.25 c 2.4492,0 4.375,3.9375 4.375,8.75 0,4.8125 -1.9258,8.75 -4.375,8.75 z m 72.625,316.75 -42,56 c -2.8984,3.8672 -8.3828,4.6484 -12.25,1.75 -3.8672,-2.8984 -4.6484,-8.3828 -1.75,-12.25 l 42,-56 c 2.8984,-3.8672 8.3828,-4.6484 12.25,-1.75 3.8672,2.8984 4.6484,8.3828 1.75,12.25 z"
     id="path2048" />
</svg>
