<?xml version="1.0" encoding="UTF-8" standalone="no"?>
<!-- Created with Inkscape (http://www.inkscape.org/) -->

<svg
   width="1122.5197"
   height="793.70081"
   viewBox="0 0 1122.5196 793.70081"
   version="1.1"
   id="svg5"
   inkscape:version="1.1.2 (b8e25be8, 2022-02-05)"
   sodipodi:docname="coupon.svg"
   xmlns:inkscape="http://www.inkscape.org/namespaces/inkscape"
   xmlns:sodipodi="http://sodipodi.sourceforge.net/DTD/sodipodi-0.dtd"
   xmlns="http://www.w3.org/2000/svg"
   xmlns:svg="http://www.w3.org/2000/svg">
  <sodipodi:namedview
     id="namedview7"
     pagecolor="#ffffff"
     bordercolor="#666666"
     borderopacity="1.0"
     inkscape:pageshadow="2"
     inkscape:pageopacity="0.0"
     inkscape:pagecheckerboard="0"
     inkscape:document-units="mm"
     showgrid="false"
     units="px"
     showguides="true"
     inkscape:guide-bbox="true"
     inkscape:zoom="0.62092452"
     inkscape:cx="577.36486"
     inkscape:cy="477.51376"
     inkscape:window-width="1680"
     inkscape:window-height="925"
     inkscape:window-x="0"
     inkscape:window-y="23"
     inkscape:window-maximized="0"
     inkscape:current-layer="layer1">
    <inkscape:grid
       type="xygrid"
       id="grid2475" />
  </sodipodi:namedview>
  <defs
     id="defs2" />
  <g
     inkscape:label="Layer 1"
     inkscape:groupmode="layer"
     id="layer1">
    <path
       id="rect1027"
       style="display:none;fill:#e6e6e6;stroke-width:3.77953;stroke-linejoin:round"
       d="m 65.978516,99.712891 c -16.789478,0 -30.94597,10.841619 -35.900391,25.931639 a 29.79428,29.79428 0 0 1 29.509766,29.76953 29.79428,29.79428 0 0 1 -29.792969,29.79297 29.79428,29.79428 0 0 1 -1.611328,-0.43164 v 36.93945 a 29.79428,29.79428 0 0 1 1.611328,-0.43164 29.79428,29.79428 0 0 1 29.792969,29.79492 29.79428,29.79428 0 0 1 -29.792969,29.79297 29.79428,29.79428 0 0 1 -1.611328,-0.43164 v 36.93946 a 29.79428,29.79428 0 0 1 1.611328,-0.43164 29.79428,29.79428 0 0 1 29.792969,29.79296 29.79428,29.79428 0 0 1 -29.792969,29.79493 29.79428,29.79428 0 0 1 -1.611328,-0.43164 v 36.93945 a 29.79428,29.79428 0 0 1 1.611328,-0.43164 29.79428,29.79428 0 0 1 29.792969,29.79297 29.79428,29.79428 0 0 1 -29.792969,29.79492 29.79428,29.79428 0 0 1 -1.611328,-0.43164 v 36.9375 a 29.79428,29.79428 0 0 1 1.611328,-0.43164 29.79428,29.79428 0 0 1 29.792969,29.79492 29.79428,29.79428 0 0 1 -29.792969,29.79492 29.79428,29.79428 0 0 1 -1.611328,-0.43164 v 36.9375 a 29.79428,29.79428 0 0 1 1.611328,-0.43164 29.79428,29.79428 0 0 1 29.792969,29.79492 29.79428,29.79428 0 0 1 -29.792969,29.79492 29.79428,29.79428 0 0 1 -0.945313,-0.2539 c 3.297926,17.52958 18.61281,30.71484 37.128907,30.71484 H 1056.541 c 18.4692,0 33.7532,-13.1188 37.1035,-30.58203 a 29.79428,29.79428 0 0 1 -0.9199,0.12109 29.79428,29.79428 0 0 1 -29.793,-29.79492 29.79428,29.79428 0 0 1 29.793,-29.79492 29.79428,29.79428 0 0 1 1.6113,0.0801 v -36.36719 a 29.79428,29.79428 0 0 1 -1.6113,0.21289 29.79428,29.79428 0 0 1 -29.793,-29.79492 29.79428,29.79428 0 0 1 29.793,-29.79492 29.79428,29.79428 0 0 1 1.6113,0.0801 v -36.36719 a 29.79428,29.79428 0 0 1 -1.6113,0.21289 29.79428,29.79428 0 0 1 -29.793,-29.79492 29.79428,29.79428 0 0 1 29.793,-29.79297 29.79428,29.79428 0 0 1 1.6113,0.0781 v -36.36718 a 29.79428,29.79428 0 0 1 -1.6113,0.21289 29.79428,29.79428 0 0 1 -29.793,-29.79493 29.79428,29.79428 0 0 1 29.793,-29.79296 29.79428,29.79428 0 0 1 1.6113,0.0781 V 280.6582 a 29.79428,29.79428 0 0 1 -1.6113,0.21289 29.79428,29.79428 0 0 1 -29.793,-29.79297 29.79428,29.79428 0 0 1 29.793,-29.79492 29.79428,29.79428 0 0 1 1.6113,0.0781 v -36.36524 a 29.79428,29.79428 0 0 1 -1.6113,0.21094 29.79428,29.79428 0 0 1 -29.793,-29.79297 29.79428,29.79428 0 0 1 29.5118,-29.75781 c -4.9512,-15.09604 -19.1087,-25.943359 -35.9024,-25.943359 z"
       transform="scale(0.26458333)" />
    <path
       id="path2481"
       style="display:none;stroke-linejoin:round"
       d="m -19.814207,78.003103 a 2.9827833,2.9827833 0 0 1 -2.98278,2.98278 2.9827833,2.9827833 0 0 1 -2.98278,-2.98278 2.9827833,2.9827833 0 0 1 2.98278,-2.98278 2.9827833,2.9827833 0 0 1 2.98278,2.98278 z m 0,7.84882 a 2.9827833,2.9827833 0 0 1 -2.98278,2.98279 2.9827833,2.9827833 0 0 1 -2.98278,-2.98279 2.9827833,2.9827833 0 0 1 2.98278,-2.98278 2.9827833,2.9827833 0 0 1 2.98278,2.98278 z m 0,47.092987 a 2.9827833,2.9827833 0 0 1 -2.98278,2.98279 2.9827833,2.9827833 0 0 1 -2.98278,-2.98279 2.9827833,2.9827833 0 0 1 2.98278,-2.98278 2.9827833,2.9827833 0 0 1 2.98278,2.98278 z m 0,-39.244147 a 2.9827833,2.9827833 0 0 1 -2.98278,2.98279 2.9827833,2.9827833 0 0 1 -2.98278,-2.98279 2.9827833,2.9827833 0 0 1 2.98278,-2.98278 2.9827833,2.9827833 0 0 1 2.98278,2.98278 z m 0,15.697657 a 2.9827833,2.9827833 0 0 1 -2.98278,2.98278 2.9827833,2.9827833 0 0 1 -2.98278,-2.98278 2.9827833,2.9827833 0 0 1 2.98278,-2.98278 2.9827833,2.9827833 0 0 1 2.98278,2.98278 z m 0,7.84883 a 2.9827833,2.9827833 0 0 1 -2.98278,2.98278 2.9827833,2.9827833 0 0 1 -2.98278,-2.98278 2.9827833,2.9827833 0 0 1 2.98278,-2.98278 2.9827833,2.9827833 0 0 1 2.98278,2.98278 z m 0,-15.69766 a 2.9827833,2.9827833 0 0 1 -2.98278,2.98278 2.9827833,2.9827833 0 0 1 -2.98278,-2.98278 2.9827833,2.9827833 0 0 1 2.98278,-2.982797 2.9827833,2.9827833 0 0 1 2.98278,2.982797 z m 0,23.54649 a 2.9827833,2.9827833 0 0 1 -2.98278,2.98278 2.9827833,2.9827833 0 0 1 -2.98278,-2.98278 2.9827833,2.9827833 0 0 1 2.98278,-2.98278 2.9827833,2.9827833 0 0 1 2.98278,2.98278 z m 0,-54.941817 a 2.9827833,2.9827833 0 0 1 -2.98278,2.98278 2.9827833,2.9827833 0 0 1 -2.98278,-2.98278 2.9827833,2.9827833 0 0 1 2.98278,-2.98278 2.9827833,2.9827833 0 0 1 2.98278,2.98278 z m 0,-7.84882 a 2.9827833,2.9827833 0 0 1 -2.98278,2.98278 2.9827833,2.9827833 0 0 1 -2.98278,-2.98278 2.9827833,2.9827833 0 0 1 2.98278,-2.98279 2.9827833,2.9827833 0 0 1 2.98278,2.98279 z m 0,78.488297 a 2.9827833,2.9827833 0 0 1 -2.98278,2.98279 2.9827833,2.9827833 0 0 1 -2.98278,-2.98279 2.9827833,2.9827833 0 0 1 2.98278,-2.98278 2.9827833,2.9827833 0 0 1 2.98278,2.98278 z m 0,-109.883609 a 2.9827833,2.9827833 0 0 1 -2.98278,2.982783 2.9827833,2.9827833 0 0 1 -2.98278,-2.982783 2.9827833,2.9827833 0 0 1 2.98278,-2.982783 2.9827833,2.9827833 0 0 1 2.98278,2.982783 z m 0,7.848823 a 2.9827833,2.9827833 0 0 1 -2.98278,2.982784 2.9827833,2.9827833 0 0 1 -2.98278,-2.982784 2.9827833,2.9827833 0 0 1 2.98278,-2.982783 2.9827833,2.9827833 0 0 1 2.98278,2.982783 z m 0,7.848832 a 2.9827833,2.9827833 0 0 1 -2.98278,2.982783 2.9827833,2.9827833 0 0 1 -2.98278,-2.982783 2.9827833,2.9827833 0 0 1 2.98278,-2.982784 2.9827833,2.9827833 0 0 1 2.98278,2.982784 z m 0,7.848831 a 2.9827833,2.9827833 0 0 1 -2.98278,2.982783 2.9827833,2.9827833 0 0 1 -2.98278,-2.982783 2.9827833,2.9827833 0 0 1 2.98278,-2.982784 2.9827833,2.9827833 0 0 1 2.98278,2.982784 z m 0,-70.639466 a 2.9827833,2.9827833 0 0 1 -2.98278,2.982784 2.9827833,2.9827833 0 0 1 -2.98278,-2.982784 2.9827833,2.9827833 0 0 1 2.98278,-2.982783 2.9827833,2.9827833 0 0 1 2.98278,2.982783 z m 0,23.54649 a 2.9827833,2.9827833 0 0 1 -2.98278,2.982784 2.9827833,2.9827833 0 0 1 -2.98278,-2.982784 2.9827833,2.9827833 0 0 1 2.98278,-2.982783 2.9827833,2.9827833 0 0 1 2.98278,2.982783 z m 0,-7.84883098 a 2.9827833,2.9827833 0 0 1 -2.98278,2.98278298 2.9827833,2.9827833 0 0 1 -2.98278,-2.98278298 2.9827833,2.9827833 0 0 1 2.98278,-2.98278302 2.9827833,2.9827833 0 0 1 2.98278,2.98278302 z m 0,23.54648198 a 2.9827833,2.9827833 0 0 1 -2.98278,2.982783 2.9827833,2.9827833 0 0 1 -2.98278,-2.982783 2.9827833,2.9827833 0 0 1 2.98278,-2.982783 2.9827833,2.9827833 0 0 1 2.98278,2.982783 z m 0,-7.848823 a 2.9827833,2.9827833 0 0 1 -2.98278,2.982783 2.9827833,2.9827833 0 0 1 -2.98278,-2.982783 2.9827833,2.9827833 0 0 1 2.98278,-2.982784 2.9827833,2.9827833 0 0 1 2.98278,2.982784 z m 0,-23.54649 a 2.9827833,2.9827833 0 0 1 -2.98278,2.982783 2.9827833,2.9827833 0 0 1 -2.98278,-2.982783 2.9827833,2.9827833 0 0 1 2.98278,-2.982783 2.9827833,2.9827833 0 0 1 2.98278,2.982783 z" />
    <g
       id="g1005" />
    <path
       id="coupon_left"
       style="fill:#f2f2f2;stroke-width:3.70217;stroke-linejoin:round"
       d="m 76.116527,105.79488 c -16.445828,0 -30.312534,10.6197 -35.165542,25.40085 a 29.184419,29.184419 0 0 1 28.90573,29.16021 29.184419,29.184419 0 0 1 -29.183136,29.18312 29.184419,29.184419 0 0 1 -1.578346,-0.42282 v 36.18336 a 29.184419,29.184419 0 0 1 1.578346,-0.42279 29.184419,29.184419 0 0 1 29.183136,29.18505 29.184419,29.184419 0 0 1 -29.183136,29.18305 29.184419,29.184419 0 0 1 -1.578346,-0.42275 v 36.18337 a 29.184419,29.184419 0 0 1 1.578346,-0.42286 29.184419,29.184419 0 0 1 29.183136,29.18315 29.184419,29.184419 0 0 1 -29.183136,29.18505 29.184419,29.184419 0 0 1 -1.578346,-0.42278 v 36.18329 a 29.184419,29.184419 0 0 1 1.578346,-0.42276 29.184419,29.184419 0 0 1 29.183136,29.18317 29.184419,29.184419 0 0 1 -29.183136,29.18501 29.184419,29.184419 0 0 1 -1.578346,-0.42286 v 36.18143 a 29.184419,29.184419 0 0 1 1.578346,-0.42275 29.184419,29.184419 0 0 1 29.183136,29.18502 29.184419,29.184419 0 0 1 -29.183136,29.18501 29.184419,29.184419 0 0 1 -1.578346,-0.42275 v 36.18144 a 29.184419,29.184419 0 0 1 1.578346,-0.42279 29.184419,29.184419 0 0 1 29.183136,29.18505 29.184419,29.184419 0 0 1 -29.183136,29.18502 29.184419,29.184419 0 0 1 -0.925963,-0.24879 c 3.230405,17.17079 18.231824,30.08612 36.368911,30.08612 H 571.47603 a 11.042754,11.042754 0 0 0 0.82647,-3.94303 11.042754,11.042754 0 0 0 -11.04266,-11.04263 v -6.97151 a 11.042754,11.042754 0 0 0 11.04266,-11.04267 11.042754,11.042754 0 0 0 -11.04266,-11.04274 v -6.97336 A 11.042754,11.042754 0 0 0 572.3025,625.84735 11.042754,11.042754 0 0 0 561.25984,614.8046 v -6.9715 a 11.042754,11.042754 0 0 0 11.04266,-11.04264 11.042754,11.042754 0 0 0 -11.04266,-11.04267 v -6.97347 a 11.042754,11.042754 0 0 0 11.04266,-11.04263 11.042754,11.042754 0 0 0 -11.04266,-11.04267 v -6.9715 a 11.042754,11.042754 0 0 0 11.04266,-11.04275 11.042754,11.042754 0 0 0 -11.04266,-11.04262 v -6.97152 a 11.042754,11.042754 0 0 0 11.04266,-11.04266 11.042754,11.042754 0 0 0 -11.04266,-11.04274 v -6.97337 a 11.042754,11.042754 0 0 0 11.04266,-11.04273 11.042754,11.042754 0 0 0 -11.04266,-11.04267 v -6.97151 a 11.042754,11.042754 0 0 0 11.04266,-11.04263 11.042754,11.042754 0 0 0 -11.04266,-11.04275 v -6.97339 A 11.042754,11.042754 0 0 0 572.3025,422.44355 11.042754,11.042754 0 0 0 561.25984,411.40081 V 404.4293 A 11.042754,11.042754 0 0 0 572.3025,393.38664 11.042754,11.042754 0 0 0 561.25984,382.344 v -6.97154 a 11.042754,11.042754 0 0 0 11.04266,-11.04275 11.042754,11.042754 0 0 0 -11.04266,-11.04448 v -6.97154 a 11.042754,11.042754 0 0 0 11.04266,-11.04275 11.042754,11.042754 0 0 0 -11.04266,-11.04263 v -6.97143 a 11.042754,11.042754 0 0 0 11.04266,-11.04267 11.042754,11.042754 0 0 0 -11.04266,-11.04274 v -6.97336 a 11.042754,11.042754 0 0 0 11.04266,-11.04263 11.042754,11.042754 0 0 0 -11.04266,-11.04275 v -6.97154 a 11.042754,11.042754 0 0 0 11.04266,-11.04263 11.042754,11.042754 0 0 0 -11.04266,-11.04274 v -6.9734 a 11.042754,11.042754 0 0 0 11.04266,-11.04266 11.042754,11.042754 0 0 0 -11.04266,-11.04267 v -6.97151 a 11.042754,11.042754 0 0 0 11.04266,-11.04267 11.042754,11.042754 0 0 0 -11.04266,-11.0427 v -6.97151 a 11.042754,11.042754 0 0 0 11.04266,-11.04267 11.042754,11.042754 0 0 0 -11.04266,-11.04266 v -6.97344 a 11.042754,11.042754 0 0 0 11.04266,-11.04267 11.042754,11.042754 0 0 0 -11.04266,-11.0427 v -6.97151 a 11.042754,11.042754 0 0 0 10.61414,-8.05817 z"
       inkscape:label="coupon_left" />
    <path
       id="coupon_right"
       style="fill:#008080;stroke-width:3.70217;stroke-linejoin:round"
       d="m 571.87398,105.79494 a 11.042754,11.042754 0 0 1 -10.61414,8.05817 v 6.9715 a 11.042754,11.042754 0 0 1 11.04266,11.04267 11.042754,11.042754 0 0 1 -11.04266,11.04271 v 6.97339 a 11.042754,11.042754 0 0 1 11.04266,11.04271 11.042754,11.042754 0 0 1 -11.04266,11.04267 v 6.97151 a 11.042754,11.042754 0 0 1 11.04266,11.04266 11.042754,11.042754 0 0 1 -11.04266,11.0427 v 6.97152 a 11.042754,11.042754 0 0 1 11.04266,11.04266 11.042754,11.042754 0 0 1 -11.04266,11.04271 v 6.9734 a 11.042754,11.042754 0 0 1 11.04266,11.04266 11.042754,11.042754 0 0 1 -11.04266,11.04271 v 6.9715 a 11.042754,11.042754 0 0 1 11.04266,11.04267 11.042754,11.042754 0 0 1 -11.04266,11.04267 v 6.97343 a 11.042754,11.042754 0 0 1 11.04266,11.04267 11.042754,11.042754 0 0 1 -11.04266,11.0427 v 6.97152 a 11.042754,11.042754 0 0 1 11.04266,11.04267 11.042754,11.042754 0 0 1 -11.04266,11.04266 v 6.97151 a 11.042754,11.042754 0 0 1 11.04266,11.04459 11.042754,11.042754 0 0 1 -11.04266,11.04271 v 6.97156 a 11.042754,11.042754 0 0 1 11.04266,11.04267 11.042754,11.042754 0 0 1 -11.04266,11.04267 v 6.9715 a 11.042754,11.042754 0 0 1 11.04266,11.04271 11.042754,11.042754 0 0 1 -11.04266,11.04266 v 6.9734 a 11.042754,11.042754 0 0 1 11.04266,11.0427 11.042754,11.042754 0 0 1 -11.04266,11.04267 v 6.97151 a 11.042754,11.042754 0 0 1 11.04266,11.04267 11.042754,11.042754 0 0 1 -11.04266,11.04271 v 6.97339 a 11.042754,11.042754 0 0 1 11.04266,11.04271 11.042754,11.042754 0 0 1 -11.04266,11.04267 v 6.9715 a 11.042754,11.042754 0 0 1 11.04266,11.04267 11.042754,11.042754 0 0 1 -11.04266,11.0427 v 6.97152 a 11.042754,11.042754 0 0 1 11.04266,11.04267 11.042754,11.042754 0 0 1 -11.04266,11.04266 v 6.97344 a 11.042754,11.042754 0 0 1 11.04266,11.04266 11.042754,11.042754 0 0 1 -11.04266,11.04271 v 6.9715 a 11.042754,11.042754 0 0 1 11.04266,11.04267 11.042754,11.042754 0 0 1 -11.04266,11.04267 v 6.97343 a 11.042754,11.042754 0 0 1 11.04266,11.04267 11.042754,11.042754 0 0 1 -11.04266,11.04271 v 6.97151 a 11.042754,11.042754 0 0 1 11.04266,11.04267 11.042754,11.042754 0 0 1 -0.82647,3.94298 h 474.92707 c 18.0912,0 33.0624,-12.85028 36.3441,-29.95603 a 29.184419,29.184419 0 0 1 -0.9011,0.11848 29.184419,29.184419 0 0 1 -29.1832,-29.18505 29.184419,29.184419 0 0 1 29.1832,-29.18505 29.184419,29.184419 0 0 1 1.5783,0.0785 V 564.1542 a 29.184419,29.184419 0 0 1 -1.5783,0.20843 29.184419,29.184419 0 0 1 -29.1832,-29.18505 29.184419,29.184419 0 0 1 29.1832,-29.18505 29.184419,29.184419 0 0 1 1.5783,0.0785 v -35.62281 a 29.184419,29.184419 0 0 1 -1.5783,0.20843 29.184419,29.184419 0 0 1 -29.1832,-29.18501 29.184419,29.184419 0 0 1 29.1832,-29.18316 29.184419,29.184419 0 0 1 1.5783,0.0766 V 376.7422 a 29.184419,29.184419 0 0 1 -1.5783,0.20843 29.184419,29.184419 0 0 1 -29.1832,-29.18505 29.184419,29.184419 0 0 1 29.1832,-29.18313 29.184419,29.184419 0 0 1 1.5783,0.0766 v -35.62277 a 29.184419,29.184419 0 0 1 -1.5783,0.20842 29.184419,29.184419 0 0 1 -29.1832,-29.18315 29.184419,29.184419 0 0 1 29.1832,-29.18505 29.184419,29.184419 0 0 1 1.5783,0.0766 v -35.62085 a 29.184419,29.184419 0 0 1 -1.5783,0.20658 29.184419,29.184419 0 0 1 -29.1832,-29.18312 29.184419,29.184419 0 0 1 28.9078,-29.14873 c -4.8499,-14.78704 -18.7177,-25.41232 -35.1676,-25.41232 z"
       inkscape:label="coupon_right" />
    <rect
       style="fill:#cccccc;fill-opacity:1;stroke-width:2.85696;stroke-linejoin:round"
       id="coupon_text_line_1"
       width="381.32294"
       height="92.554108"
       x="121.91598"
       y="178.4971"
       inkscape:label="coupon_text_line_1">
      <title
         id="title3694">coupon_text_line_1</title>
    </rect>
    <rect
       style="fill:#666666;stroke-width:2.85696;stroke-linejoin:round"
       id="coupon_text_line_2"
       width="381.32294"
       height="92.554108"
       x="121.91598"
       y="271.05121"
       inkscape:label="coupon_text_line_2">
      <title
         id="title3692">coupon_text_line_2</title>
    </rect>
    <rect
       style="fill:#b3b3b3;stroke-width:2.85696;stroke-linejoin:round"
       id="coupon_text_line_3"
       width="381.32294"
       height="92.554108"
       x="121.91598"
       y="547.4137"
       inkscape:label="coupon_text_line_3">
      <title
         id="title3696">coupon_text_line_3</title>
    </rect>
    <rect
       style="fill:#ffffff;stroke-width:3.1326;stroke-linejoin:round"
       id="qrcode_placeholder_background"
       width="381.76373"
       height="381.76373"
       x="630.67139"
       y="205.96854"
       inkscape:label="qrcode_placeholder_background">
      <title
         id="title957">qrcode_placeholder_background</title>
    </rect>
    <rect
       style="fill:#333333;stroke-width:2.61482;stroke-linejoin:round"
       id="qrcode_placeholder"
       width="318.66229"
       height="318.66229"
       x="662.22217"
       y="237.51927"
       inkscape:label="qrcode_placeholder">
      <title
         id="title959">qrcode_placeholder</title>
    </rect>
  </g>
</svg>
