<?xml version="1.0" encoding="UTF-8" standalone="no"?>
<svg
   width="1200.4973"
   height="1200.4973"
   viewBox="0 0 1200.4973 1200.4973"
   version="1.1"
   id="svg827"
   sodipodi:docname="review-collector.svg"
   inkscape:version="1.1.2 (b8e25be8, 2022-02-05)"
   xmlns:inkscape="http://www.inkscape.org/namespaces/inkscape"
   xmlns:sodipodi="http://sodipodi.sourceforge.net/DTD/sodipodi-0.dtd"
   xmlns="http://www.w3.org/2000/svg"
   xmlns:svg="http://www.w3.org/2000/svg"
   xmlns:rdf="http://www.w3.org/1999/02/22-rdf-syntax-ns#"
   xmlns:x="adobe:ns:meta/">
  <defs
     id="defs831" />
  <sodipodi:namedview
     id="namedview829"
     pagecolor="#ffffff"
     bordercolor="#666666"
     borderopacity="1.0"
     inkscape:pageshadow="2"
     inkscape:pageopacity="0.0"
     inkscape:pagecheckerboard="0"
     showgrid="false"
     inkscape:zoom="0.51099707"
     inkscape:cx="1053.8221"
     inkscape:cy="498.04591"
     inkscape:window-width="1680"
     inkscape:window-height="925"
     inkscape:window-x="0"
     inkscape:window-y="23"
     inkscape:window-maximized="0"
     inkscape:current-layer="svg827"
     fit-margin-top="0"
     fit-margin-left="0"
     fit-margin-right="0"
     fit-margin-bottom="0" />
  <metadata
     id="metadata824">
<?xpacket begin="﻿" id="W5M0MpCehiHzreSzNTczkc9d"?>    <x:xmpmeta
       x:xmptk="Adobe XMP Core 5.6-c138 79.159824, 2016/09/14-01:09:01        ">
      <rdf:RDF>
        <rdf:Description
           rdf:about="" />
      </rdf:RDF>
    </x:xmpmeta>
<?xpacket end="w"?>  </metadata>
  <circle
     style="fill:#ffffff;stroke:#000000;stroke-width:35.7078;stroke-linejoin:round;stroke-miterlimit:4;stroke-dasharray:none"
     id="circle"
     cx="600.24866"
     cy="600.24866"
     r="582.39478" />
  <g
     id="stars-group"
     transform="matrix(0.74756638,0,0,0.74756638,197.9813,187.91553)">
    <path
       d="m 830.12971,1001.7423 -32.68186,-4.52874 -13.90361,-30.40144 c -0.49844,-0.94804 -1.48234,-1.54112 -2.5524,-1.54112 -1.0717,0 -2.05491,0.59386 -2.5532,1.54112 l -14.48006,30.08488 -32.73852,4.3273 c -1.09459,0.1496 -2.00741,0.9106 -2.35094,1.9601 -0.34349,1.0511 -0.058,2.2044 0.73658,2.9724 l 23.82601,23.2476 -6.20105,32.971 c -0.18931,1.0725 0.24044,2.161 1.11289,2.8135 0.8717,0.6518 2.03732,0.7587 3.01357,0.2732 l 29.07464,-15.8647 28.84405,16.1524 c 0.94268,0.4686 2.06545,0.3877 2.92955,-0.2138 0.8656,-0.5999 1.33426,-1.6235 1.22358,-2.6708 l -5.769,-33.0277 24.05657,-23.0756 c 0.84881,-0.7557 1.17473,-1.9396 0.83201,-3.0236 -0.34273,-1.0831 -1.28925,-1.8647 -2.41817,-1.9961 z"
       id="path1486-4-53"
       style="stroke-width:0.195407" />
    <path
       d="m 708.82878,1001.7423 -32.68186,-4.52874 -13.90361,-30.40144 c -0.49844,-0.94804 -1.48234,-1.54112 -2.5524,-1.54112 -1.0717,0 -2.05491,0.59386 -2.5532,1.54112 l -14.48006,30.08488 -32.73852,4.3273 c -1.09459,0.1496 -2.00741,0.9106 -2.35094,1.9601 -0.34349,1.0511 -0.058,2.2044 0.73658,2.9724 l 23.82601,23.2476 -6.20105,32.971 c -0.18931,1.0725 0.24044,2.161 1.11289,2.8135 0.8717,0.6518 2.03732,0.7587 3.01357,0.2732 l 29.07464,-15.8647 28.84405,16.1524 c 0.94268,0.4686 2.06545,0.3877 2.92955,-0.2138 0.8656,-0.5999 1.33426,-1.6235 1.22358,-2.6708 l -5.769,-33.0277 24.05657,-23.0756 c 0.84881,-0.7557 1.17473,-1.9396 0.83201,-3.0236 -0.34273,-1.0831 -1.28925,-1.8647 -2.41817,-1.9961 z"
       id="path1486-4-53-4"
       style="stroke-width:0.195407" />
    <path
       d="m 587.52784,1001.7423 -32.68186,-4.52874 -13.90361,-30.40144 c -0.49844,-0.94804 -1.48234,-1.54112 -2.5524,-1.54112 -1.0717,0 -2.05491,0.59386 -2.5532,1.54112 l -14.48006,30.08488 -32.73852,4.3273 c -1.09459,0.1496 -2.00741,0.9106 -2.35094,1.9601 -0.34349,1.0511 -0.058,2.2044 0.73658,2.9724 l 23.82601,23.2476 -6.20105,32.971 c -0.18931,1.0725 0.24044,2.161 1.11289,2.8135 0.8717,0.6518 2.03732,0.7587 3.01357,0.2732 l 29.07464,-15.8647 28.84405,16.1524 c 0.94268,0.4686 2.06545,0.3877 2.92955,-0.2138 0.8656,-0.5999 1.33426,-1.6235 1.22358,-2.6708 l -5.769,-33.0277 24.05657,-23.0756 c 0.84881,-0.7557 1.17473,-1.9396 0.83201,-3.0236 -0.34273,-1.0831 -1.28925,-1.8647 -2.41817,-1.9961 z"
       id="path1486-4-53-46"
       style="stroke-width:0.195407" />
    <path
       d="m 466.22694,1001.7423 -32.68186,-4.52874 -13.90361,-30.40144 c -0.49844,-0.94804 -1.48234,-1.54112 -2.5524,-1.54112 -1.0717,0 -2.05491,0.59386 -2.5532,1.54112 l -14.48006,30.08488 -32.73852,4.3273 c -1.09459,0.1496 -2.00741,0.9106 -2.35094,1.9601 -0.34349,1.0511 -0.058,2.2044 0.73658,2.9724 l 23.82601,23.2476 -6.20105,32.971 c -0.18931,1.0725 0.24044,2.161 1.11289,2.8135 0.8717,0.6518 2.03732,0.7587 3.01357,0.2732 l 29.07464,-15.8647 28.84405,16.1524 c 0.94268,0.4686 2.06545,0.3877 2.92955,-0.2138 0.8656,-0.5999 1.33426,-1.6235 1.22358,-2.6708 l -5.769,-33.0277 24.05657,-23.0756 c 0.84881,-0.7557 1.17473,-1.9396 0.83201,-3.0236 -0.34273,-1.0831 -1.28925,-1.8647 -2.41817,-1.9961 z"
       id="path1486-4-53-5"
       style="stroke-width:0.195407" />
    <path
       d="m 344.92604,1001.7423 -32.68186,-4.52874 -13.90361,-30.40144 c -0.49844,-0.94804 -1.48234,-1.54112 -2.5524,-1.54112 -1.0717,0 -2.05491,0.59386 -2.5532,1.54112 l -14.48006,30.08488 -32.73852,4.3273 c -1.09459,0.1496 -2.00741,0.9106 -2.35094,1.9601 -0.34349,1.0511 -0.058,2.2044 0.73658,2.9724 l 23.82601,23.2476 -6.20105,32.971 c -0.18931,1.0725 0.24044,2.161 1.11289,2.8135 0.8717,0.6518 2.03732,0.7587 3.01357,0.2732 l 29.07464,-15.8647 28.84405,16.1524 c 0.94268,0.4686 2.06545,0.3877 2.92955,-0.2138 0.8656,-0.5999 1.33426,-1.6235 1.22358,-2.6708 l -5.769,-33.0277 24.05657,-23.0756 c 0.84881,-0.7557 1.17473,-1.9396 0.83201,-3.0236 -0.34273,-1.0831 -1.28925,-1.8647 -2.41817,-1.9961 z"
       id="path1486-4-53-0"
       style="stroke-width:0.195407" />
  </g>
  <rect
     style="fill:#ffffff;stroke:#000000;stroke-width:0;stroke-linejoin:round;stroke-miterlimit:4;stroke-dasharray:none"
     id="logo_placeholder"
     width="749.51508"
     height="142.85793"
     x="225.49113"
     y="758.38635" />
  <rect
     style="fill:#cccccc;stroke:#000000;stroke-width:0;stroke-linejoin:round;stroke-miterlimit:4;stroke-dasharray:none"
     id="qrcode_placeholder"
     width="570"
     height="570"
     x="315.24866"
     y="145.83546" />
</svg>
