<?xml version="1.0" encoding="UTF-8" standalone="no"?>
<svg
   width="492.78134pt"
   height="461.16229pt"
   version="1.1"
   viewBox="0 0 492.78134 461.16229"
   id="svg2599"
   sodipodi:docname="noun-cafe-1236928.svg"
   inkscape:version="1.1.2 (b8e25be8, 2022-02-05)"
   xmlns:inkscape="http://www.inkscape.org/namespaces/inkscape"
   xmlns:sodipodi="http://sodipodi.sourceforge.net/DTD/sodipodi-0.dtd"
   xmlns="http://www.w3.org/2000/svg"
   xmlns:svg="http://www.w3.org/2000/svg">
  <sodipodi:namedview
     id="namedview2601"
     pagecolor="#ffffff"
     bordercolor="#666666"
     borderopacity="1.0"
     inkscape:pageshadow="2"
     inkscape:pageopacity="0.0"
     inkscape:pagecheckerboard="0"
     inkscape:document-units="pt"
     showgrid="false"
     fit-margin-top="0"
     fit-margin-left="0"
     fit-margin-right="0"
     fit-margin-bottom="0"
     inkscape:zoom="0.74892857"
     inkscape:cx="329.13686"
     inkscape:cy="415.92752"
     inkscape:window-width="1680"
     inkscape:window-height="925"
     inkscape:window-x="0"
     inkscape:window-y="23"
     inkscape:window-maximized="0"
     inkscape:current-layer="svg2599" />
  <defs
     id="defs2509" />
  <path
     d="m 471.25814,140.3921 c 4.3906,0.47656 8.0938,3.4922 9.4492,7.6992 7.8359,23.918 12.074,49.449 12.074,76.125 0,73.043 -31.969,138.57 -82.25,181.65 4.0195,1.6172 7.6602,3.3789 10.852,5.9492 3.4219,2.7578 7.1758,7.375 7.1758,13.648 0,6.2773 -3.7539,10.891 -7.1758,13.648 -3.4219,2.7578 -7.332,4.5859 -11.727,6.3008 -8.7852,3.4297 -20.082,6.1094 -33.949,8.3984 -27.73,4.582 -65.289,7.3516 -106.75,7.3516 -41.43,0 -78.836,-2.7695 -106.57,-7.3516 -13.871,-2.2891 -25.336,-4.9727 -34.125,-8.3984 -4.3945,-1.7148 -8.125,-3.543 -11.551,-6.3008 -3.4258,-2.7578 -7.1758,-7.3711 -7.1758,-13.648 0,-6.2812 3.75,-10.891 7.1758,-13.648 2.9297,-2.3594 6.1875,-4.0898 9.8008,-5.6016 -9.1992,-7.8438 -17.828,-16.477 -25.727,-25.727 -10.172003,1.7734 -24.539003,1.8711 -40.426003,-2.4492 -19.77,-5.375 -41.406,-19.23 -50.926,-46.727 -9.07810003,-26.223 -10.38300003,-57.742 -8.92580003,-83.301 0.73047003,-12.781 2.14840003,-23.957 4.02340003,-32.551 0.9375,-4.2969 1.9375,-7.9258 3.3242,-11.199 0.69531,-1.6367 1.5312,-3.2344 2.9766,-5.0742 1.4453,-1.8398 3.9453,-4.7344 9.2734,-5.0742 l 0.004,0.004 h 0.17578 c 5.3867,-0.34375 17.258,-1.0977 25.551,-1.5742 1.9922,-15.344 5.2852,-30.16 9.9766,-44.449 1.5156,-4.6094 5.8242,-7.7148 10.672,-7.6992 H 470.03432 c 0.41016,-0.0234 0.81641,-0.0234 1.2266,0 z m -9.4492,22.398 H 74.878937 c -4.2695,14.82 -7.1367,30.262 -8.2266,46.199 -0.32422,5.125 -0.52344,10.145 -0.52344,15.227 0,46.031 13.816,88.613 37.449003,123.38 h 0.17578 c 1.6797,2.4961 3.5234,4.9688 5.4258,7.5234 12.52,16.762 27.305,31.469 43.926,43.574 2.9492,-0.57812 6.0547,-1.043 9.2734,-1.5742 27.738,-4.582 65.145,-7.3516 106.57,-7.3516 41.461,0 79.02,2.7656 106.75,7.3516 2.8047,0.46484 5.4492,0.90234 8.0508,1.3984 52.262,-38.246 86.625,-101.98 86.625,-174.3 0,-21.438 -2.9805,-41.953 -8.5742,-61.426 z m -417.900003,52.324 c -6.0898,0.35547 -11.082,0.72266 -16.449,1.0508 -0.33594,1.1758 -0.70312,2.4297 -1.0508,4.0234 -1.5156,6.9375 -2.8281,17.434 -3.5,29.227 -1.3438,23.582 0.27344,53.094 7.6992,74.551 6.9883,20.18 20.855,28.516 35.699,32.551 6.0898,1.6562 12.402,2.3398 18.023,2.4492 -25.613,-38.176 -40.602,-84.727 -40.602,-134.75 0,-3.1055 0.0547,-6.0859 0.17578,-9.1016 z"
     fill-rule="evenodd"
     id="path2511" />
  <path
     d="m 266.91814,1.04e-4 c 3.3008,-0.0078 6.4375,1.4375 8.5703,3.957 12.414,14.223 17.609,27.34 16.141,39.312 -1.4688,11.977 -8.5664,20.098 -13.984,26.531 -5.4219,6.4336 -9.2734,11.453 -10.207,15.668 -0.93359,4.2188 -0.59375,9.5703 7.9727,20.655996 v 0.004 c 1.8672,2.3438 2.7148,5.3398 2.3516,8.3164 -0.35938,2.9766 -1.8984,5.6836 -4.2695,7.5156 -2.3711,1.8359 -5.3789,2.6406 -8.3516,2.2383 -2.9688,-0.40234 -5.6562,-1.9805 -7.457,-4.375 -10.949,-14.172 -14.664,-27.694996 -12.117,-39.198996 2.5508,-11.5 9.7227,-19.051 14.945,-25.254 5.2227,-6.203104 8.3906,-10.789004 8.8867,-14.828004 0.49609,-4.0352 -0.64062,-10.234 -10.785,-21.859 -2.9531,-3.2852 -3.6953,-8 -1.9023,-12.035 1.793,-4.0352 5.7891,-6.6367 10.207,-6.6484 z"
     fill-rule="evenodd"
     id="path2513" />
  <path
     d="m 320.65814,46.078104 c 2.9102,-0.09375 5.7422,0.94922 7.8945,2.9062 8.3242,7.3516 13.133,16.109 12.57,24.754 -0.5625,8.6406 -5.1484,14.266 -8.3047,18.441 -3.1602,4.1758 -5.1914,7.2891 -5.5273,8.562496 -0.33984,1.2734 -1.0273,1.4141 2.5234,5.6953 1.9531,2.2773 2.9141,5.2461 2.6602,8.2383 -0.25391,2.9922 -1.6953,5.7578 -4.0078,7.6758 -2.3086,1.918 -5.293,2.8242 -8.2812,2.5234 -2.9882,-0.3008 -5.7305,-1.793 -7.6094,-4.1328 -6.6523,-8.0156 -8.9961,-17.996 -6.9375,-25.749996 2.0586,-7.754 6.4766,-12.574 9.3125,-16.324 2.8359,-3.75 3.793,-6.043 3.8164,-6.3867 0.0234,-0.34375 0.46094,-1.6445 -5.0469,-6.5039 l 0.004,-0.004 c -3.5039,-3.0078 -4.8047,-7.8594 -3.2695,-12.219 1.5352,-4.355496 5.5859,-7.324196 10.203,-7.476596 z"
     fill-rule="evenodd"
     id="path2515" />
  <path
     d="m 211.30814,46.078104 c 2.9102,-0.09375 5.7383,0.94922 7.8945,2.9062 8.3242,7.3516 13.133,16.109 12.57,24.754 -0.5625,8.6406 -5.1484,14.266 -8.3047,18.441 -3.1602,4.1758 -5.1914,7.2891 -5.5273,8.562496 -0.33984,1.2734 -1.0273,1.4141 2.5234,5.6953 h -0.004 c 1.9414,2.2773 2.8906,5.2422 2.6328,8.2266 -0.2578,2.9844 -1.7031,5.7383 -4.0078,7.6523 -2.3047,1.9141 -5.2773,2.8242 -8.2578,2.5273 -2.9805,-0.2969 -5.7188,-1.7734 -7.6016,-4.1016 -6.6523,-8.0156 -8.9961,-17.996 -6.9336,-25.749996 2.0586,-7.7539 6.4766,-12.574 9.3125,-16.324 2.8359,-3.75 3.793,-6.043 3.8164,-6.3867 0.0234,-0.3437 0.46094,-1.6445 -5.0469,-6.5039 v -0.004 c -3.5039,-3.0078 -4.8047,-7.8594 -3.2695,-12.219 1.5352,-4.355496 5.5859,-7.324196 10.203,-7.476596 z"
     fill-rule="evenodd"
     id="path2517" />
</svg>
