<?xml version="1.0" encoding="UTF-8" standalone="no"?>
<svg
   width="492.79257pt"
   height="492.79236pt"
   version="1.1"
   viewBox="0 0 492.79257 492.79236"
   id="svg977"
   sodipodi:docname="logo.svg"
   inkscape:version="1.1.2 (b8e25be8, 2022-02-05)"
   xmlns:inkscape="http://www.inkscape.org/namespaces/inkscape"
   xmlns:sodipodi="http://sodipodi.sourceforge.net/DTD/sodipodi-0.dtd"
   xmlns="http://www.w3.org/2000/svg"
   xmlns:svg="http://www.w3.org/2000/svg">
  <sodipodi:namedview
     id="namedview979"
     pagecolor="#ffffff"
     bordercolor="#666666"
     borderopacity="1.0"
     inkscape:pageshadow="2"
     inkscape:pageopacity="0.0"
     inkscape:pagecheckerboard="0"
     inkscape:document-units="pt"
     showgrid="false"
     fit-margin-top="0"
     fit-margin-left="0"
     fit-margin-right="0"
     fit-margin-bottom="0"
     inkscape:zoom="0.74678571"
     inkscape:cx="226.97274"
     inkscape:cy="422.47728"
     inkscape:window-width="1312"
     inkscape:window-height="925"
     inkscape:window-x="0"
     inkscape:window-y="23"
     inkscape:window-maximized="0"
     inkscape:current-layer="svg977" />
  <defs
     id="defs893" />
  <path
     d="m 245.00109,0.08816224 c -1.6875,0.21484 -3.3047,0.81641 -4.7266,1.74999996 L 5.0744903,153.00816 c -3.1875,2.082 -5.10160005,5.6406 -5.0742000468,9.4492 v 50.391 c 0,6.1836 5.0117000468,11.195 11.1989997468,11.199 h 33.602 v 257.55 h -0.004 c 0.004,6.1836 5.0156,11.195 11.203,11.195 h 380.8 -0.008 c 6.1875,0 11.199,-5.0117 11.203,-11.195 v -257.55 h 33.602 -0.004 c 6.1875,-0.004 11.199,-5.0156 11.199,-11.199 v -50.391 c 0.0273,-3.8086 -1.8867,-7.3672 -5.0742,-9.4492 l -235.2,-151.1699978 v -0.0039 c -2.2227,-1.45699996 -4.8867,-2.07419996 -7.5234,-1.74999996 z m 1.3984,24.49599976 224,143.819998 v 33.246 h -22.398 v -11.199 c 0.0234,-3.8086 -1.8867,-7.3672 -5.0781,-9.4492 l -190.4,-123.179998 c -2.2227,-1.457 -4.8867,-2.0781 -7.5234,-1.75 -1.6875,0.21875 -3.3047,0.81641 -4.7266,1.75 l -190.4,123.179998 c -3.1914,2.082 -5.1016,5.6406 -5.0781,9.4453 v 11.199 h -22.398 v -33.246 l 224,-143.819998 z m 0,55.992 179.2,115.829998 v 274 h -22.398 v -190.37 c 0,-6.1875 -5.0156,-11.199 -11.199,-11.199 h -291.2 c -6.1836,0 -11.199,5.0117 -11.199,11.199 v 190.37 h -22.398 v -274 z m 0,65.089998 c -21.516,0 -39.199,17.68 -39.199,39.191 0,21.511 17.684,39.191 39.199,39.191 21.515,0 39.199,-17.68 39.199,-39.191 0,-21.511 -17.684,-39.191 -39.199,-39.191 z m 0,22.395 c 9.4102,0 16.801,7.3867 16.801,16.797 0,9.4102 -7.3906,16.797 -16.801,16.797 -9.4104,0 -16.801,-7.3867 -16.801,-16.797 0,-9.4102 7.3906,-16.797 16.801,-16.797 z m -134.4,123.18 h 268.8 v 27.996 h -268.8 z m 0,50.391 h 268.8 v 27.996 h -268.8 z m 0,50.391 h 268.8 v 27.996 h -268.8 z m 0,50.391 h 268.8 v 27.996 h -268.8 z"
     id="path895" />
</svg>
