<?xml version="1.0" encoding="utf-8"?><svg xmlns="http://www.w3.org/2000/svg" xmlns:xlink="http://www.w3.org/1999/xlink" class="qr-svg qrcode" viewBox="-1600 -1600 4000 4000" preserveAspectRatio="xMinYMin"><rect x="-1600" y="-1600" width="4000" height="4000" fill="#ffffff" /><defs><style type="text/css"><![CDATA[.light { fill: none; } 
                .dark.type-data {fill: #104cff;}
                .dark.type-finder { fill: #000000; }
                .dark.type-finder-dot { fill: #000000; }
                .dark.type-alignment { fill: #000000; }
            ]]></style><symbol id="symbol-van" viewBox="0 0 24 24"><path d="M3,7C1.89,7 1,7.89 1,9V17H3A3,3 0 0,0 6,20A3,3 0 0,0 9,17H15A3,3 0 0,0 18,20A3,3 0 0,0 21,17H23V13C23,11.89 22.11,11 21,11L18,7H3M3,8.5H7V11H3V8.5zM9,8.5H13V11H9V8.5zM15,8.5H17.5L19.46,11H15V8.5zM6,15.5A1.5,1.5 0 0,1 7.5,17A1.5,1.5 0 0,1 6,18.5A1.5,1.5 0 0,1 4.5,17A1.5,1.5 0 0,1 6,15.5M18,15.5A1.5,1.5 0 0,1 19.5,17A1.5,1.5 0 0,1 18,18.5A1.5,1.5 0 0,1 16.5,17A1.5,1.5 0 0,1 18,15.5Z" transform="" /></symbol><style type="text/css"><![CDATA[.foreground-0 {
            transform: translate(-4%, 9%) scale(1.8);
        }
        .foreground-1 {
            mask: url(#mask-van);
        }]]></style>
</defs><symbol id="symbol-data" class="qrcode-symbol data"><path class="" d="M110.34482758621 0 h13.793103448276 v13.793103448276 h-13.793103448276Z  M137.93103448276 0 h13.793103448276 v13.793103448276 h-13.793103448276Z  M165.51724137931 0 h13.793103448276 v13.793103448276 h-13.793103448276Z  M179.31034482759 0 h13.793103448276 v13.793103448276 h-13.793103448276Z  M193.10344827586 0 h13.793103448276 v13.793103448276 h-13.793103448276Z  M206.89655172414 0 h13.793103448276 v13.793103448276 h-13.793103448276Z  M220.68965517241 0 h13.793103448276 v13.793103448276 h-13.793103448276Z  M275.86206896552 0 h13.793103448276 v13.793103448276 h-13.793103448276Z  M110.34482758621 13.793103448276 h13.793103448276 v13.793103448276 h-13.793103448276Z  M124.13793103448 13.793103448276 h13.793103448276 v13.793103448276 h-13.793103448276Z  M137.93103448276 13.793103448276 h13.793103448276 v13.793103448276 h-13.793103448276Z  M165.51724137931 13.793103448276 h13.793103448276 v13.793103448276 h-13.793103448276Z  M206.89655172414 13.793103448276 h13.793103448276 v13.793103448276 h-13.793103448276Z  M220.68965517241 13.793103448276 h13.793103448276 v13.793103448276 h-13.793103448276Z  M234.48275862069 13.793103448276 h13.793103448276 v13.793103448276 h-13.793103448276Z  M275.86206896552 13.793103448276 h13.793103448276 v13.793103448276 h-13.793103448276Z  M137.93103448276 27.586206896552 h13.793103448276 v13.793103448276 h-13.793103448276Z  M234.48275862069 27.586206896552 h13.793103448276 v13.793103448276 h-13.793103448276Z  M110.34482758621 41.379310344828 h13.793103448276 v13.793103448276 h-13.793103448276Z  M137.93103448276 41.379310344828 h13.793103448276 v13.793103448276 h-13.793103448276Z  M179.31034482759 41.379310344828 h13.793103448276 v13.793103448276 h-13.793103448276Z  M193.10344827586 41.379310344828 h13.793103448276 v13.793103448276 h-13.793103448276Z  M206.89655172414 41.379310344828 h13.793103448276 v13.793103448276 h-13.793103448276Z  M262.06896551724 41.379310344828 h13.793103448276 v13.793103448276 h-13.793103448276Z  M275.86206896552 41.379310344828 h13.793103448276 v13.793103448276 h-13.793103448276Z  M110.34482758621 55.172413793103 h13.793103448276 v13.793103448276 h-13.793103448276Z  M124.13793103448 55.172413793103 h13.793103448276 v13.793103448276 h-13.793103448276Z  M137.93103448276 55.172413793103 h13.793103448276 v13.793103448276 h-13.793103448276Z  M193.10344827586 55.172413793103 h13.793103448276 v13.793103448276 h-13.793103448276Z  M206.89655172414 55.172413793103 h13.793103448276 v13.793103448276 h-13.793103448276Z  M220.68965517241 55.172413793103 h13.793103448276 v13.793103448276 h-13.793103448276Z  M234.48275862069 55.172413793103 h13.793103448276 v13.793103448276 h-13.793103448276Z  M275.86206896552 55.172413793103 h13.793103448276 v13.793103448276 h-13.793103448276Z  M110.34482758621 68.965517241379 h13.793103448276 v13.793103448276 h-13.793103448276Z  M124.13793103448 68.965517241379 h13.793103448276 v13.793103448276 h-13.793103448276Z  M165.51724137931 68.965517241379 h13.793103448276 v13.793103448276 h-13.793103448276Z  M179.31034482759 68.965517241379 h13.793103448276 v13.793103448276 h-13.793103448276Z  M234.48275862069 68.965517241379 h13.793103448276 v13.793103448276 h-13.793103448276Z  M248.27586206897 68.965517241379 h13.793103448276 v13.793103448276 h-13.793103448276Z  M262.06896551724 68.965517241379 h13.793103448276 v13.793103448276 h-13.793103448276Z  M275.86206896552 68.965517241379 h13.793103448276 v13.793103448276 h-13.793103448276Z  M110.34482758621 82.758620689655 h13.793103448276 v13.793103448276 h-13.793103448276Z  M137.93103448276 82.758620689655 h13.793103448276 v13.793103448276 h-13.793103448276Z  M165.51724137931 82.758620689655 h13.793103448276 v13.793103448276 h-13.793103448276Z  M193.10344827586 82.758620689655 h13.793103448276 v13.793103448276 h-13.793103448276Z  M220.68965517241 82.758620689655 h13.793103448276 v13.793103448276 h-13.793103448276Z  M248.27586206897 82.758620689655 h13.793103448276 v13.793103448276 h-13.793103448276Z  M275.86206896552 82.758620689655 h13.793103448276 v13.793103448276 h-13.793103448276Z  M137.93103448276 96.551724137931 h13.793103448276 v13.793103448276 h-13.793103448276Z  M151.72413793103 96.551724137931 h13.793103448276 v13.793103448276 h-13.793103448276Z  M206.89655172414 96.551724137931 h13.793103448276 v13.793103448276 h-13.793103448276Z  M220.68965517241 96.551724137931 h13.793103448276 v13.793103448276 h-13.793103448276Z  M262.06896551724 96.551724137931 h13.793103448276 v13.793103448276 h-13.793103448276Z  M41.379310344828 110.34482758621 h13.793103448276 v13.793103448276 h-13.793103448276Z  M82.758620689655 110.34482758621 h13.793103448276 v13.793103448276 h-13.793103448276Z  M124.13793103448 110.34482758621 h13.793103448276 v13.793103448276 h-13.793103448276Z  M137.93103448276 110.34482758621 h13.793103448276 v13.793103448276 h-13.793103448276Z  M193.10344827586 110.34482758621 h13.793103448276 v13.793103448276 h-13.793103448276Z  M234.48275862069 110.34482758621 h13.793103448276 v13.793103448276 h-13.793103448276Z  M317.24137931034 110.34482758621 h13.793103448276 v13.793103448276 h-13.793103448276Z  M331.03448275862 110.34482758621 h13.793103448276 v13.793103448276 h-13.793103448276Z  M344.8275862069 110.34482758621 h13.793103448276 v13.793103448276 h-13.793103448276Z  M372.41379310345 110.34482758621 h13.793103448276 v13.793103448276 h-13.793103448276Z  M386.20689655172 110.34482758621 h13.793103448276 v13.793103448276 h-13.793103448276Z  M0 124.13793103448 h13.793103448276 v13.793103448276 h-13.793103448276Z  M41.379310344828 124.13793103448 h13.793103448276 v13.793103448276 h-13.793103448276Z  M110.34482758621 124.13793103448 h13.793103448276 v13.793103448276 h-13.793103448276Z  M124.13793103448 124.13793103448 h13.793103448276 v13.793103448276 h-13.793103448276Z  M151.72413793103 124.13793103448 h13.793103448276 v13.793103448276 h-13.793103448276Z  M165.51724137931 124.13793103448 h13.793103448276 v13.793103448276 h-13.793103448276Z  M206.89655172414 124.13793103448 h13.793103448276 v13.793103448276 h-13.793103448276Z  M234.48275862069 124.13793103448 h13.793103448276 v13.793103448276 h-13.793103448276Z  M262.06896551724 124.13793103448 h13.793103448276 v13.793103448276 h-13.793103448276Z  M275.86206896552 124.13793103448 h13.793103448276 v13.793103448276 h-13.793103448276Z  M289.65517241379 124.13793103448 h13.793103448276 v13.793103448276 h-13.793103448276Z  M303.44827586207 124.13793103448 h13.793103448276 v13.793103448276 h-13.793103448276Z  M372.41379310345 124.13793103448 h13.793103448276 v13.793103448276 h-13.793103448276Z  M0 137.93103448276 h13.793103448276 v13.793103448276 h-13.793103448276Z  M27.586206896552 137.93103448276 h13.793103448276 v13.793103448276 h-13.793103448276Z  M55.172413793103 137.93103448276 h13.793103448276 v13.793103448276 h-13.793103448276Z  M68.965517241379 137.93103448276 h13.793103448276 v13.793103448276 h-13.793103448276Z  M82.758620689655 137.93103448276 h13.793103448276 v13.793103448276 h-13.793103448276Z  M110.34482758621 137.93103448276 h13.793103448276 v13.793103448276 h-13.793103448276Z  M124.13793103448 137.93103448276 h13.793103448276 v13.793103448276 h-13.793103448276Z  M151.72413793103 137.93103448276 h13.793103448276 v13.793103448276 h-13.793103448276Z  M179.31034482759 137.93103448276 h13.793103448276 v13.793103448276 h-13.793103448276Z  M193.10344827586 137.93103448276 h13.793103448276 v13.793103448276 h-13.793103448276Z  M206.89655172414 137.93103448276 h13.793103448276 v13.793103448276 h-13.793103448276Z  M220.68965517241 137.93103448276 h13.793103448276 v13.793103448276 h-13.793103448276Z  M234.48275862069 137.93103448276 h13.793103448276 v13.793103448276 h-13.793103448276Z  M248.27586206897 137.93103448276 h13.793103448276 v13.793103448276 h-13.793103448276Z  M275.86206896552 137.93103448276 h13.793103448276 v13.793103448276 h-13.793103448276Z  M303.44827586207 137.93103448276 h13.793103448276 v13.793103448276 h-13.793103448276Z  M317.24137931034 137.93103448276 h13.793103448276 v13.793103448276 h-13.793103448276Z  M344.8275862069 137.93103448276 h13.793103448276 v13.793103448276 h-13.793103448276Z  M358.62068965517 137.93103448276 h13.793103448276 v13.793103448276 h-13.793103448276Z  M372.41379310345 137.93103448276 h13.793103448276 v13.793103448276 h-13.793103448276Z  M41.379310344828 151.72413793103 h13.793103448276 v13.793103448276 h-13.793103448276Z  M96.551724137931 151.72413793103 h13.793103448276 v13.793103448276 h-13.793103448276Z  M124.13793103448 151.72413793103 h13.793103448276 v13.793103448276 h-13.793103448276Z  M137.93103448276 151.72413793103 h13.793103448276 v13.793103448276 h-13.793103448276Z  M151.72413793103 151.72413793103 h13.793103448276 v13.793103448276 h-13.793103448276Z  M206.89655172414 151.72413793103 h13.793103448276 v13.793103448276 h-13.793103448276Z  M234.48275862069 151.72413793103 h13.793103448276 v13.793103448276 h-13.793103448276Z  M248.27586206897 151.72413793103 h13.793103448276 v13.793103448276 h-13.793103448276Z  M289.65517241379 151.72413793103 h13.793103448276 v13.793103448276 h-13.793103448276Z  M303.44827586207 151.72413793103 h13.793103448276 v13.793103448276 h-13.793103448276Z  M344.8275862069 151.72413793103 h13.793103448276 v13.793103448276 h-13.793103448276Z  M358.62068965517 151.72413793103 h13.793103448276 v13.793103448276 h-13.793103448276Z  M386.20689655172 151.72413793103 h13.793103448276 v13.793103448276 h-13.793103448276Z  M13.793103448276 165.51724137931 h13.793103448276 v13.793103448276 h-13.793103448276Z  M27.586206896552 165.51724137931 h13.793103448276 v13.793103448276 h-13.793103448276Z  M41.379310344828 165.51724137931 h13.793103448276 v13.793103448276 h-13.793103448276Z  M55.172413793103 165.51724137931 h13.793103448276 v13.793103448276 h-13.793103448276Z  M82.758620689655 165.51724137931 h13.793103448276 v13.793103448276 h-13.793103448276Z  M124.13793103448 165.51724137931 h13.793103448276 v13.793103448276 h-13.793103448276Z  M137.93103448276 165.51724137931 h13.793103448276 v13.793103448276 h-13.793103448276Z  M179.31034482759 165.51724137931 h13.793103448276 v13.793103448276 h-13.793103448276Z  M206.89655172414 165.51724137931 h13.793103448276 v13.793103448276 h-13.793103448276Z  M220.68965517241 165.51724137931 h13.793103448276 v13.793103448276 h-13.793103448276Z  M248.27586206897 165.51724137931 h13.793103448276 v13.793103448276 h-13.793103448276Z  M262.06896551724 165.51724137931 h13.793103448276 v13.793103448276 h-13.793103448276Z  M303.44827586207 165.51724137931 h13.793103448276 v13.793103448276 h-13.793103448276Z  M317.24137931034 165.51724137931 h13.793103448276 v13.793103448276 h-13.793103448276Z  M344.8275862069 165.51724137931 h13.793103448276 v13.793103448276 h-13.793103448276Z  M386.20689655172 165.51724137931 h13.793103448276 v13.793103448276 h-13.793103448276Z  M0 179.31034482759 h13.793103448276 v13.793103448276 h-13.793103448276Z  M55.172413793103 179.31034482759 h13.793103448276 v13.793103448276 h-13.793103448276Z  M68.965517241379 179.31034482759 h13.793103448276 v13.793103448276 h-13.793103448276Z  M96.551724137931 179.31034482759 h13.793103448276 v13.793103448276 h-13.793103448276Z  M137.93103448276 179.31034482759 h13.793103448276 v13.793103448276 h-13.793103448276Z  M151.72413793103 179.31034482759 h13.793103448276 v13.793103448276 h-13.793103448276Z  M165.51724137931 179.31034482759 h13.793103448276 v13.793103448276 h-13.793103448276Z  M193.10344827586 179.31034482759 h13.793103448276 v13.793103448276 h-13.793103448276Z  M206.89655172414 179.31034482759 h13.793103448276 v13.793103448276 h-13.793103448276Z  M220.68965517241 179.31034482759 h13.793103448276 v13.793103448276 h-13.793103448276Z  M234.48275862069 179.31034482759 h13.793103448276 v13.793103448276 h-13.793103448276Z  M248.27586206897 179.31034482759 h13.793103448276 v13.793103448276 h-13.793103448276Z  M262.06896551724 179.31034482759 h13.793103448276 v13.793103448276 h-13.793103448276Z  M317.24137931034 179.31034482759 h13.793103448276 v13.793103448276 h-13.793103448276Z  M344.8275862069 179.31034482759 h13.793103448276 v13.793103448276 h-13.793103448276Z  M358.62068965517 179.31034482759 h13.793103448276 v13.793103448276 h-13.793103448276Z  M41.379310344828 193.10344827586 h13.793103448276 v13.793103448276 h-13.793103448276Z  M55.172413793103 193.10344827586 h13.793103448276 v13.793103448276 h-13.793103448276Z  M68.965517241379 193.10344827586 h13.793103448276 v13.793103448276 h-13.793103448276Z  M82.758620689655 193.10344827586 h13.793103448276 v13.793103448276 h-13.793103448276Z  M110.34482758621 193.10344827586 h13.793103448276 v13.793103448276 h-13.793103448276Z  M124.13793103448 193.10344827586 h13.793103448276 v13.793103448276 h-13.793103448276Z  M151.72413793103 193.10344827586 h13.793103448276 v13.793103448276 h-13.793103448276Z  M220.68965517241 193.10344827586 h13.793103448276 v13.793103448276 h-13.793103448276Z  M275.86206896552 193.10344827586 h13.793103448276 v13.793103448276 h-13.793103448276Z  M303.44827586207 193.10344827586 h13.793103448276 v13.793103448276 h-13.793103448276Z  M344.8275862069 193.10344827586 h13.793103448276 v13.793103448276 h-13.793103448276Z  M386.20689655172 193.10344827586 h13.793103448276 v13.793103448276 h-13.793103448276Z  M41.379310344828 206.89655172414 h13.793103448276 v13.793103448276 h-13.793103448276Z  M68.965517241379 206.89655172414 h13.793103448276 v13.793103448276 h-13.793103448276Z  M96.551724137931 206.89655172414 h13.793103448276 v13.793103448276 h-13.793103448276Z  M124.13793103448 206.89655172414 h13.793103448276 v13.793103448276 h-13.793103448276Z  M137.93103448276 206.89655172414 h13.793103448276 v13.793103448276 h-13.793103448276Z  M179.31034482759 206.89655172414 h13.793103448276 v13.793103448276 h-13.793103448276Z  M193.10344827586 206.89655172414 h13.793103448276 v13.793103448276 h-13.793103448276Z  M220.68965517241 206.89655172414 h13.793103448276 v13.793103448276 h-13.793103448276Z  M303.44827586207 206.89655172414 h13.793103448276 v13.793103448276 h-13.793103448276Z  M331.03448275862 206.89655172414 h13.793103448276 v13.793103448276 h-13.793103448276Z  M0 220.68965517241 h13.793103448276 v13.793103448276 h-13.793103448276Z  M13.793103448276 220.68965517241 h13.793103448276 v13.793103448276 h-13.793103448276Z  M27.586206896552 220.68965517241 h13.793103448276 v13.793103448276 h-13.793103448276Z  M41.379310344828 220.68965517241 h13.793103448276 v13.793103448276 h-13.793103448276Z  M82.758620689655 220.68965517241 h13.793103448276 v13.793103448276 h-13.793103448276Z  M96.551724137931 220.68965517241 h13.793103448276 v13.793103448276 h-13.793103448276Z  M110.34482758621 220.68965517241 h13.793103448276 v13.793103448276 h-13.793103448276Z  M151.72413793103 220.68965517241 h13.793103448276 v13.793103448276 h-13.793103448276Z  M206.89655172414 220.68965517241 h13.793103448276 v13.793103448276 h-13.793103448276Z  M248.27586206897 220.68965517241 h13.793103448276 v13.793103448276 h-13.793103448276Z  M262.06896551724 220.68965517241 h13.793103448276 v13.793103448276 h-13.793103448276Z  M275.86206896552 220.68965517241 h13.793103448276 v13.793103448276 h-13.793103448276Z  M289.65517241379 220.68965517241 h13.793103448276 v13.793103448276 h-13.793103448276Z  M358.62068965517 220.68965517241 h13.793103448276 v13.793103448276 h-13.793103448276Z  M372.41379310345 220.68965517241 h13.793103448276 v13.793103448276 h-13.793103448276Z  M27.586206896552 234.48275862069 h13.793103448276 v13.793103448276 h-13.793103448276Z  M41.379310344828 234.48275862069 h13.793103448276 v13.793103448276 h-13.793103448276Z  M55.172413793103 234.48275862069 h13.793103448276 v13.793103448276 h-13.793103448276Z  M110.34482758621 234.48275862069 h13.793103448276 v13.793103448276 h-13.793103448276Z  M124.13793103448 234.48275862069 h13.793103448276 v13.793103448276 h-13.793103448276Z  M137.93103448276 234.48275862069 h13.793103448276 v13.793103448276 h-13.793103448276Z  M151.72413793103 234.48275862069 h13.793103448276 v13.793103448276 h-13.793103448276Z  M165.51724137931 234.48275862069 h13.793103448276 v13.793103448276 h-13.793103448276Z  M179.31034482759 234.48275862069 h13.793103448276 v13.793103448276 h-13.793103448276Z  M206.89655172414 234.48275862069 h13.793103448276 v13.793103448276 h-13.793103448276Z  M220.68965517241 234.48275862069 h13.793103448276 v13.793103448276 h-13.793103448276Z  M234.48275862069 234.48275862069 h13.793103448276 v13.793103448276 h-13.793103448276Z  M248.27586206897 234.48275862069 h13.793103448276 v13.793103448276 h-13.793103448276Z  M262.06896551724 234.48275862069 h13.793103448276 v13.793103448276 h-13.793103448276Z  M275.86206896552 234.48275862069 h13.793103448276 v13.793103448276 h-13.793103448276Z  M303.44827586207 234.48275862069 h13.793103448276 v13.793103448276 h-13.793103448276Z  M317.24137931034 234.48275862069 h13.793103448276 v13.793103448276 h-13.793103448276Z  M344.8275862069 234.48275862069 h13.793103448276 v13.793103448276 h-13.793103448276Z  M0 248.27586206897 h13.793103448276 v13.793103448276 h-13.793103448276Z  M27.586206896552 248.27586206897 h13.793103448276 v13.793103448276 h-13.793103448276Z  M55.172413793103 248.27586206897 h13.793103448276 v13.793103448276 h-13.793103448276Z  M82.758620689655 248.27586206897 h13.793103448276 v13.793103448276 h-13.793103448276Z  M96.551724137931 248.27586206897 h13.793103448276 v13.793103448276 h-13.793103448276Z  M124.13793103448 248.27586206897 h13.793103448276 v13.793103448276 h-13.793103448276Z  M151.72413793103 248.27586206897 h13.793103448276 v13.793103448276 h-13.793103448276Z  M165.51724137931 248.27586206897 h13.793103448276 v13.793103448276 h-13.793103448276Z  M206.89655172414 248.27586206897 h13.793103448276 v13.793103448276 h-13.793103448276Z  M248.27586206897 248.27586206897 h13.793103448276 v13.793103448276 h-13.793103448276Z  M303.44827586207 248.27586206897 h13.793103448276 v13.793103448276 h-13.793103448276Z  M331.03448275862 248.27586206897 h13.793103448276 v13.793103448276 h-13.793103448276Z  M372.41379310345 248.27586206897 h13.793103448276 v13.793103448276 h-13.793103448276Z  M386.20689655172 248.27586206897 h13.793103448276 v13.793103448276 h-13.793103448276Z  M27.586206896552 262.06896551724 h13.793103448276 v13.793103448276 h-13.793103448276Z  M55.172413793103 262.06896551724 h13.793103448276 v13.793103448276 h-13.793103448276Z  M68.965517241379 262.06896551724 h13.793103448276 v13.793103448276 h-13.793103448276Z  M96.551724137931 262.06896551724 h13.793103448276 v13.793103448276 h-13.793103448276Z  M110.34482758621 262.06896551724 h13.793103448276 v13.793103448276 h-13.793103448276Z  M137.93103448276 262.06896551724 h13.793103448276 v13.793103448276 h-13.793103448276Z  M151.72413793103 262.06896551724 h13.793103448276 v13.793103448276 h-13.793103448276Z  M165.51724137931 262.06896551724 h13.793103448276 v13.793103448276 h-13.793103448276Z  M179.31034482759 262.06896551724 h13.793103448276 v13.793103448276 h-13.793103448276Z  M193.10344827586 262.06896551724 h13.793103448276 v13.793103448276 h-13.793103448276Z  M234.48275862069 262.06896551724 h13.793103448276 v13.793103448276 h-13.793103448276Z  M262.06896551724 262.06896551724 h13.793103448276 v13.793103448276 h-13.793103448276Z  M289.65517241379 262.06896551724 h13.793103448276 v13.793103448276 h-13.793103448276Z  M317.24137931034 262.06896551724 h13.793103448276 v13.793103448276 h-13.793103448276Z  M331.03448275862 262.06896551724 h13.793103448276 v13.793103448276 h-13.793103448276Z  M344.8275862069 262.06896551724 h13.793103448276 v13.793103448276 h-13.793103448276Z  M386.20689655172 262.06896551724 h13.793103448276 v13.793103448276 h-13.793103448276Z  M0 275.86206896552 h13.793103448276 v13.793103448276 h-13.793103448276Z  M27.586206896552 275.86206896552 h13.793103448276 v13.793103448276 h-13.793103448276Z  M55.172413793103 275.86206896552 h13.793103448276 v13.793103448276 h-13.793103448276Z  M68.965517241379 275.86206896552 h13.793103448276 v13.793103448276 h-13.793103448276Z  M82.758620689655 275.86206896552 h13.793103448276 v13.793103448276 h-13.793103448276Z  M96.551724137931 275.86206896552 h13.793103448276 v13.793103448276 h-13.793103448276Z  M179.31034482759 275.86206896552 h13.793103448276 v13.793103448276 h-13.793103448276Z  M193.10344827586 275.86206896552 h13.793103448276 v13.793103448276 h-13.793103448276Z  M206.89655172414 275.86206896552 h13.793103448276 v13.793103448276 h-13.793103448276Z  M220.68965517241 275.86206896552 h13.793103448276 v13.793103448276 h-13.793103448276Z  M248.27586206897 275.86206896552 h13.793103448276 v13.793103448276 h-13.793103448276Z  M344.8275862069 275.86206896552 h13.793103448276 v13.793103448276 h-13.793103448276Z  M358.62068965517 275.86206896552 h13.793103448276 v13.793103448276 h-13.793103448276Z  M372.41379310345 275.86206896552 h13.793103448276 v13.793103448276 h-13.793103448276Z  M386.20689655172 275.86206896552 h13.793103448276 v13.793103448276 h-13.793103448276Z  M110.34482758621 289.65517241379 h13.793103448276 v13.793103448276 h-13.793103448276Z  M124.13793103448 289.65517241379 h13.793103448276 v13.793103448276 h-13.793103448276Z  M137.93103448276 289.65517241379 h13.793103448276 v13.793103448276 h-13.793103448276Z  M206.89655172414 289.65517241379 h13.793103448276 v13.793103448276 h-13.793103448276Z  M220.68965517241 289.65517241379 h13.793103448276 v13.793103448276 h-13.793103448276Z  M234.48275862069 289.65517241379 h13.793103448276 v13.793103448276 h-13.793103448276Z  M248.27586206897 289.65517241379 h13.793103448276 v13.793103448276 h-13.793103448276Z  M344.8275862069 289.65517241379 h13.793103448276 v13.793103448276 h-13.793103448276Z  M386.20689655172 289.65517241379 h13.793103448276 v13.793103448276 h-13.793103448276Z  M165.51724137931 303.44827586207 h13.793103448276 v13.793103448276 h-13.793103448276Z  M179.31034482759 303.44827586207 h13.793103448276 v13.793103448276 h-13.793103448276Z  M220.68965517241 303.44827586207 h13.793103448276 v13.793103448276 h-13.793103448276Z  M137.93103448276 317.24137931034 h13.793103448276 v13.793103448276 h-13.793103448276Z  M165.51724137931 317.24137931034 h13.793103448276 v13.793103448276 h-13.793103448276Z  M179.31034482759 317.24137931034 h13.793103448276 v13.793103448276 h-13.793103448276Z  M220.68965517241 317.24137931034 h13.793103448276 v13.793103448276 h-13.793103448276Z  M234.48275862069 317.24137931034 h13.793103448276 v13.793103448276 h-13.793103448276Z  M248.27586206897 317.24137931034 h13.793103448276 v13.793103448276 h-13.793103448276Z  M262.06896551724 317.24137931034 h13.793103448276 v13.793103448276 h-13.793103448276Z  M358.62068965517 317.24137931034 h13.793103448276 v13.793103448276 h-13.793103448276Z  M372.41379310345 317.24137931034 h13.793103448276 v13.793103448276 h-13.793103448276Z  M386.20689655172 317.24137931034 h13.793103448276 v13.793103448276 h-13.793103448276Z  M137.93103448276 331.03448275862 h13.793103448276 v13.793103448276 h-13.793103448276Z  M165.51724137931 331.03448275862 h13.793103448276 v13.793103448276 h-13.793103448276Z  M179.31034482759 331.03448275862 h13.793103448276 v13.793103448276 h-13.793103448276Z  M206.89655172414 331.03448275862 h13.793103448276 v13.793103448276 h-13.793103448276Z  M234.48275862069 331.03448275862 h13.793103448276 v13.793103448276 h-13.793103448276Z  M344.8275862069 331.03448275862 h13.793103448276 v13.793103448276 h-13.793103448276Z  M358.62068965517 331.03448275862 h13.793103448276 v13.793103448276 h-13.793103448276Z  M372.41379310345 331.03448275862 h13.793103448276 v13.793103448276 h-13.793103448276Z  M386.20689655172 331.03448275862 h13.793103448276 v13.793103448276 h-13.793103448276Z  M110.34482758621 344.8275862069 h13.793103448276 v13.793103448276 h-13.793103448276Z  M137.93103448276 344.8275862069 h13.793103448276 v13.793103448276 h-13.793103448276Z  M206.89655172414 344.8275862069 h13.793103448276 v13.793103448276 h-13.793103448276Z  M220.68965517241 344.8275862069 h13.793103448276 v13.793103448276 h-13.793103448276Z  M289.65517241379 344.8275862069 h13.793103448276 v13.793103448276 h-13.793103448276Z  M303.44827586207 344.8275862069 h13.793103448276 v13.793103448276 h-13.793103448276Z  M317.24137931034 344.8275862069 h13.793103448276 v13.793103448276 h-13.793103448276Z  M344.8275862069 344.8275862069 h13.793103448276 v13.793103448276 h-13.793103448276Z  M386.20689655172 344.8275862069 h13.793103448276 v13.793103448276 h-13.793103448276Z  M137.93103448276 358.62068965517 h13.793103448276 v13.793103448276 h-13.793103448276Z  M165.51724137931 358.62068965517 h13.793103448276 v13.793103448276 h-13.793103448276Z  M193.10344827586 358.62068965517 h13.793103448276 v13.793103448276 h-13.793103448276Z  M220.68965517241 358.62068965517 h13.793103448276 v13.793103448276 h-13.793103448276Z  M234.48275862069 358.62068965517 h13.793103448276 v13.793103448276 h-13.793103448276Z  M248.27586206897 358.62068965517 h13.793103448276 v13.793103448276 h-13.793103448276Z  M262.06896551724 358.62068965517 h13.793103448276 v13.793103448276 h-13.793103448276Z  M289.65517241379 358.62068965517 h13.793103448276 v13.793103448276 h-13.793103448276Z  M331.03448275862 358.62068965517 h13.793103448276 v13.793103448276 h-13.793103448276Z  M358.62068965517 358.62068965517 h13.793103448276 v13.793103448276 h-13.793103448276Z  M386.20689655172 358.62068965517 h13.793103448276 v13.793103448276 h-13.793103448276Z  M137.93103448276 372.41379310345 h13.793103448276 v13.793103448276 h-13.793103448276Z  M151.72413793103 372.41379310345 h13.793103448276 v13.793103448276 h-13.793103448276Z  M179.31034482759 372.41379310345 h13.793103448276 v13.793103448276 h-13.793103448276Z  M206.89655172414 372.41379310345 h13.793103448276 v13.793103448276 h-13.793103448276Z  M220.68965517241 372.41379310345 h13.793103448276 v13.793103448276 h-13.793103448276Z  M234.48275862069 372.41379310345 h13.793103448276 v13.793103448276 h-13.793103448276Z  M262.06896551724 372.41379310345 h13.793103448276 v13.793103448276 h-13.793103448276Z  M275.86206896552 372.41379310345 h13.793103448276 v13.793103448276 h-13.793103448276Z  M317.24137931034 372.41379310345 h13.793103448276 v13.793103448276 h-13.793103448276Z  M372.41379310345 372.41379310345 h13.793103448276 v13.793103448276 h-13.793103448276Z  M124.13793103448 386.20689655172 h13.793103448276 v13.793103448276 h-13.793103448276Z  M151.72413793103 386.20689655172 h13.793103448276 v13.793103448276 h-13.793103448276Z  M165.51724137931 386.20689655172 h13.793103448276 v13.793103448276 h-13.793103448276Z  M179.31034482759 386.20689655172 h13.793103448276 v13.793103448276 h-13.793103448276Z  M193.10344827586 386.20689655172 h13.793103448276 v13.793103448276 h-13.793103448276Z  M234.48275862069 386.20689655172 h13.793103448276 v13.793103448276 h-13.793103448276Z  M248.27586206897 386.20689655172 h13.793103448276 v13.793103448276 h-13.793103448276Z  M275.86206896552 386.20689655172 h13.793103448276 v13.793103448276 h-13.793103448276Z  M303.44827586207 386.20689655172 h13.793103448276 v13.793103448276 h-13.793103448276Z  M317.24137931034 386.20689655172 h13.793103448276 v13.793103448276 h-13.793103448276Z  M331.03448275862 386.20689655172 h13.793103448276 v13.793103448276 h-13.793103448276Z  M372.41379310345 386.20689655172 h13.793103448276 v13.793103448276 h-13.793103448276Z" /></symbol><symbol id="symbol-finder" class="qrcode-symbol finder"><g transform="translate(0, 0)"><g transform="translate(0, 0)"><use x="0" y="0" href="#symbol-finder-unit" width="96.551724137931" height="96.551724137931" fill="white" transform="scale(1, 1)" transform-origin="48.275862068966 48.275862068966" /></g></g><g transform="translate(400, 0)"><g transform="translate(-96.551724137931, 0)"><use x="0" y="0" href="#symbol-finder-unit" width="96.551724137931" height="96.551724137931" fill="white" transform="scale(1, 1)" transform-origin="48.275862068966 48.275862068966" /></g></g><g transform="translate(0, 400)"><g transform="translate(0, -96.551724137931)"><use x="0" y="0" href="#symbol-finder-unit" width="96.551724137931" height="96.551724137931" fill="white" transform="scale(1, 1)" transform-origin="48.275862068966 48.275862068966" /></g></g></symbol><symbol id="symbol-alignment" class="qrcode-symbol alignment"><g transform="translate(275.86206896552, 275.86206896552)"><g><use x="0" y="0" href="#symbol-alignment-unit" width="68.965517241379" height="68.965517241379" fill="white" transform-origin="34.48275862069 34.48275862069" /></g></g></symbol><symbol id="symbol-finder-dot" class="qrcode-symbol finder-dot"><g transform="translate(0, 0)"><g transform="translate(0, 0)"><use x="0" y="0" href="#symbol-finder-dot-unit" width="96.551724137931" height="96.551724137931" fill="white" transform="scale(1, 1)" transform-origin="48.275862068966 48.275862068966" /></g></g><g transform="translate(400, 0)"><g transform="translate(-96.551724137931, 0)"><use x="0" y="0" href="#symbol-finder-dot-unit" width="96.551724137931" height="96.551724137931" fill="white" transform="scale(1, 1)" transform-origin="48.275862068966 48.275862068966" /></g></g><g transform="translate(0, 400)"><g transform="translate(0, -96.551724137931)"><use x="0" y="0" href="#symbol-finder-dot-unit" width="96.551724137931" height="96.551724137931" fill="white" transform="scale(1, 1)" transform-origin="48.275862068966 48.275862068966" /></g></g></symbol><mask id="mask-data"><use x="0" y="0" href="#symbol-data" fill="white" /></mask><mask id="mask-finder"><use x="0" y="0" href="#symbol-finder" /></mask><mask id="mask-alignment"><use x="0" y="0" href="#symbol-alignment" fill="white" /></mask><mask id="mask-finder-dot"><use x="0" y="0" href="#symbol-finder-dot" /></mask><mask id="dark-mask"><use x="0" y="0" href="#symbol-data" width="400" height="400" fill="white" /><use x="0" y="0" href="#symbol-finder" width="400" height="400" fill="white" /><use x="0" y="0" href="#symbol-alignment" width="400" height="400" fill="white" /><use x="0" y="0" href="#symbol-finder-dot" width="400" height="400" fill="white" /></mask><g class="foreground-5"><g class="foreground-4"><g class="foreground-3"><g class="foreground-2"><g class="foreground-1"><g class="foreground-0"><rect x="0" y="0" width="400" height="400" class="dark type-data" mask="url(#mask-data)" /><rect x="0" y="0" width="400" height="400" class="dark type-finder" mask="url(#mask-finder)" /><rect x="0" y="0" width="400" height="400" class="dark type-alignment" mask="url(#mask-alignment)" /><rect x="0" y="0" width="400" height="400" class="dark type-finder-dot" mask="url(#mask-finder-dot)" /><rect x="-1600" y="-1600" width="4000" height="4000" mask="url(#dummy-mask)" class="dark type-data" /></g></g></g></g></g></g><symbol id="symbol-finder-unit" viewBox="0 0 700 700"><path d="M 0 0 L 0 933.33398 L 933.33398 933.33398 L 933.33398 0 L 0 0 z M 133.33398 133.33398 L 800 133.33398 L 800 800 L 133.33398 800 L 133.33398 133.33398 z" transform="scale(0.75)" /></symbol><symbol id="symbol-finder-dot-unit" viewBox="0 0 700 700"><path d="M 200,200 H 500 V 500 H 200 Z" transform="scale(1)" /></symbol><symbol id="symbol-alignment-unit" viewBox="0 0 700 700"><g transform="scale(0.9)" transform-origin="350 350" class="alignment-outer"><path d="M 0 0 L 0 933.33398 L 933.33398 933.33398 L 933.33398 0 L 0 0 z M 133.33398 133.33398 L 800 133.33398 L 800 800 L 133.33398 800 L 133.33398 133.33398 z" transform="scale(0.75)" stroke="white" stroke-width="70" /></g><g transform="scale(0.4)" transform-origin="350 350"><path d="M 200,200 H 500 V 500 H 200 Z" transform="scale(1)" /></g></symbol><mask id="mask-van"><use x="-1600" y="-1600" href="#symbol-van" fill="white" /></mask><symbol id="dummy-segment"><rect x="133.33333333333" y="0" width="133.33333333333" height="400" mask="url(#dark-mask)" /></symbol><symbol id="dummy-qrcode"><use x="-133.33333333333" y="0" href="#dummy-segment" /><use x="0" y="0" href="#dummy-segment" /><use x="133.33333333333" y="0" href="#dummy-segment" /></symbol><mask id="dummy-mask"><use x="-400" y="-400" href="#dummy-qrcode" fill="white" /><use x="0" y="-400" href="#dummy-qrcode" fill="white" /><use x="400" y="-400" href="#dummy-qrcode" fill="white" /><use x="400" y="0" href="#dummy-qrcode" fill="white" /><use x="400" y="400" href="#dummy-qrcode" fill="white" /><use x="0" y="400" href="#dummy-qrcode" fill="white" /><use x="-400" y="400" href="#dummy-qrcode" fill="white" /><use x="-400" y="0" href="#dummy-qrcode" fill="white" /><use x="-800" y="800" href="#dummy-qrcode" fill="white" /><use x="-400" y="800" href="#dummy-qrcode" fill="white" /><use x="0" y="800" href="#dummy-qrcode" fill="white" /><use x="400" y="800" href="#dummy-qrcode" fill="white" /><use x="800" y="800" href="#dummy-qrcode" fill="white" /><use x="800" y="400" href="#dummy-qrcode" fill="white" /><use x="800" y="0" href="#dummy-qrcode" fill="white" /><use x="800" y="-400" href="#dummy-qrcode" fill="white" /><use x="800" y="-800" href="#dummy-qrcode" fill="white" /><use x="400" y="-800" href="#dummy-qrcode" fill="white" /><use x="0" y="-800" href="#dummy-qrcode" fill="white" /><use x="-400" y="-800" href="#dummy-qrcode" fill="white" /><use x="-800" y="-800" href="#dummy-qrcode" fill="white" /><use x="-800" y="-400" href="#dummy-qrcode" fill="white" /><use x="-800" y="0" href="#dummy-qrcode" fill="white" /><use x="-800" y="400" href="#dummy-qrcode" fill="white" /><use x="-800" y="1200" href="#dummy-qrcode" fill="white" /><use x="-400" y="1200" href="#dummy-qrcode" fill="white" /><use x="0" y="1200" href="#dummy-qrcode" fill="white" /><use x="400" y="1200" href="#dummy-qrcode" fill="white" /><use x="800" y="1200" href="#dummy-qrcode" fill="white" /><use x="-800" y="1600" href="#dummy-qrcode" fill="white" /><use x="-400" y="1600" href="#dummy-qrcode" fill="white" /><use x="0" y="1600" href="#dummy-qrcode" fill="white" /><use x="400" y="1600" href="#dummy-qrcode" fill="white" /><use x="800" y="1600" href="#dummy-qrcode" fill="white" /><use x="1200" y="-800" href="#dummy-qrcode" fill="white" /><use x="1200" y="-400" href="#dummy-qrcode" fill="white" /><use x="1200" y="0" href="#dummy-qrcode" fill="white" /><use x="1200" y="400" href="#dummy-qrcode" fill="white" /><use x="1200" y="800" href="#dummy-qrcode" fill="white" /><use x="1200" y="1200" href="#dummy-qrcode" fill="white" /><use x="-1200" y="-800" href="#dummy-qrcode" fill="white" /><use x="-1200" y="-400" href="#dummy-qrcode" fill="white" /><use x="-1200" y="0" href="#dummy-qrcode" fill="white" /><use x="-1200" y="400" href="#dummy-qrcode" fill="white" /><use x="-1200" y="800" href="#dummy-qrcode" fill="white" /><use x="-1200" y="1200" href="#dummy-qrcode" fill="white" /><rect x="-6.8965517241379" y="-6.8965517241379" width="413.79310344828" height="413.79310344828" style="fill: none; stroke: #000000; stroke-width: 13.793103448276" /></mask><use x="-1600" y="-1600" href="#symbol-van" id="frame-van" stroke-width="0.5" fill="none" stroke="#000000" /></svg>