<?xml version="1.0" encoding="utf-8"?><svg xmlns="http://www.w3.org/2000/svg" xmlns:xlink="http://www.w3.org/1999/xlink" class="qr-svg qrcode" viewBox="0 0 400 400" preserveAspectRatio="xMinYMin"><rect x="0" y="0" width="400" height="400" fill="#ffffff" /><defs><style type="text/css"><![CDATA[.light { fill: none; } 
                .dark.type-data {fill: #000000;}
                .dark.type-finder { fill: #000000; }
                .dark.type-finder-dot { fill: #000000; }
                .dark.type-alignment { fill: #000000; }
            ]]></style>
</defs><symbol id="symbol-data" class="qrcode-symbol data"><path class="" d="M96.969696969697 0 h12.121212121212 v12.121212121212 h-12.121212121212Z  M109.09090909091 0 h12.121212121212 v12.121212121212 h-12.121212121212Z  M145.45454545455 0 h12.121212121212 v12.121212121212 h-12.121212121212Z  M157.57575757576 0 h12.121212121212 v12.121212121212 h-12.121212121212Z  M169.69696969697 0 h12.121212121212 v12.121212121212 h-12.121212121212Z  M254.54545454545 0 h12.121212121212 v12.121212121212 h-12.121212121212Z  M266.66666666667 0 h12.121212121212 v12.121212121212 h-12.121212121212Z  M278.78787878788 0 h12.121212121212 v12.121212121212 h-12.121212121212Z  M290.90909090909 0 h12.121212121212 v12.121212121212 h-12.121212121212Z  M96.969696969697 12.121212121212 h12.121212121212 v12.121212121212 h-12.121212121212Z  M109.09090909091 12.121212121212 h12.121212121212 v12.121212121212 h-12.121212121212Z  M121.21212121212 12.121212121212 h12.121212121212 v12.121212121212 h-12.121212121212Z  M133.33333333333 12.121212121212 h12.121212121212 v12.121212121212 h-12.121212121212Z  M157.57575757576 12.121212121212 h12.121212121212 v12.121212121212 h-12.121212121212Z  M181.81818181818 12.121212121212 h12.121212121212 v12.121212121212 h-12.121212121212Z  M206.06060606061 12.121212121212 h12.121212121212 v12.121212121212 h-12.121212121212Z  M218.18181818182 12.121212121212 h12.121212121212 v12.121212121212 h-12.121212121212Z  M278.78787878788 12.121212121212 h12.121212121212 v12.121212121212 h-12.121212121212Z  M290.90909090909 12.121212121212 h12.121212121212 v12.121212121212 h-12.121212121212Z  M121.21212121212 24.242424242424 h12.121212121212 v12.121212121212 h-12.121212121212Z  M133.33333333333 24.242424242424 h12.121212121212 v12.121212121212 h-12.121212121212Z  M145.45454545455 24.242424242424 h12.121212121212 v12.121212121212 h-12.121212121212Z  M157.57575757576 24.242424242424 h12.121212121212 v12.121212121212 h-12.121212121212Z  M181.81818181818 24.242424242424 h12.121212121212 v12.121212121212 h-12.121212121212Z  M193.93939393939 24.242424242424 h12.121212121212 v12.121212121212 h-12.121212121212Z  M206.06060606061 24.242424242424 h12.121212121212 v12.121212121212 h-12.121212121212Z  M218.18181818182 24.242424242424 h12.121212121212 v12.121212121212 h-12.121212121212Z  M242.42424242424 24.242424242424 h12.121212121212 v12.121212121212 h-12.121212121212Z  M266.66666666667 24.242424242424 h12.121212121212 v12.121212121212 h-12.121212121212Z  M96.969696969697 36.363636363636 h12.121212121212 v12.121212121212 h-12.121212121212Z  M109.09090909091 36.363636363636 h12.121212121212 v12.121212121212 h-12.121212121212Z  M145.45454545455 36.363636363636 h12.121212121212 v12.121212121212 h-12.121212121212Z  M193.93939393939 36.363636363636 h12.121212121212 v12.121212121212 h-12.121212121212Z  M206.06060606061 36.363636363636 h12.121212121212 v12.121212121212 h-12.121212121212Z  M230.30303030303 36.363636363636 h12.121212121212 v12.121212121212 h-12.121212121212Z  M290.90909090909 36.363636363636 h12.121212121212 v12.121212121212 h-12.121212121212Z  M96.969696969697 48.484848484848 h12.121212121212 v12.121212121212 h-12.121212121212Z  M133.33333333333 48.484848484848 h12.121212121212 v12.121212121212 h-12.121212121212Z  M145.45454545455 48.484848484848 h12.121212121212 v12.121212121212 h-12.121212121212Z  M157.57575757576 48.484848484848 h12.121212121212 v12.121212121212 h-12.121212121212Z  M181.81818181818 48.484848484848 h12.121212121212 v12.121212121212 h-12.121212121212Z  M230.30303030303 48.484848484848 h12.121212121212 v12.121212121212 h-12.121212121212Z  M242.42424242424 48.484848484848 h12.121212121212 v12.121212121212 h-12.121212121212Z  M266.66666666667 48.484848484848 h12.121212121212 v12.121212121212 h-12.121212121212Z  M290.90909090909 48.484848484848 h12.121212121212 v12.121212121212 h-12.121212121212Z  M96.969696969697 60.606060606061 h12.121212121212 v12.121212121212 h-12.121212121212Z  M157.57575757576 60.606060606061 h12.121212121212 v12.121212121212 h-12.121212121212Z  M169.69696969697 60.606060606061 h12.121212121212 v12.121212121212 h-12.121212121212Z  M218.18181818182 60.606060606061 h12.121212121212 v12.121212121212 h-12.121212121212Z  M290.90909090909 60.606060606061 h12.121212121212 v12.121212121212 h-12.121212121212Z  M96.969696969697 72.727272727273 h12.121212121212 v12.121212121212 h-12.121212121212Z  M121.21212121212 72.727272727273 h12.121212121212 v12.121212121212 h-12.121212121212Z  M145.45454545455 72.727272727273 h12.121212121212 v12.121212121212 h-12.121212121212Z  M169.69696969697 72.727272727273 h12.121212121212 v12.121212121212 h-12.121212121212Z  M193.93939393939 72.727272727273 h12.121212121212 v12.121212121212 h-12.121212121212Z  M218.18181818182 72.727272727273 h12.121212121212 v12.121212121212 h-12.121212121212Z  M242.42424242424 72.727272727273 h12.121212121212 v12.121212121212 h-12.121212121212Z  M266.66666666667 72.727272727273 h12.121212121212 v12.121212121212 h-12.121212121212Z  M290.90909090909 72.727272727273 h12.121212121212 v12.121212121212 h-12.121212121212Z  M121.21212121212 84.848484848485 h12.121212121212 v12.121212121212 h-12.121212121212Z  M157.57575757576 84.848484848485 h12.121212121212 v12.121212121212 h-12.121212121212Z  M169.69696969697 84.848484848485 h12.121212121212 v12.121212121212 h-12.121212121212Z  M181.81818181818 84.848484848485 h12.121212121212 v12.121212121212 h-12.121212121212Z  M206.06060606061 84.848484848485 h12.121212121212 v12.121212121212 h-12.121212121212Z  M242.42424242424 84.848484848485 h12.121212121212 v12.121212121212 h-12.121212121212Z  M254.54545454545 84.848484848485 h12.121212121212 v12.121212121212 h-12.121212121212Z  M278.78787878788 84.848484848485 h12.121212121212 v12.121212121212 h-12.121212121212Z  M36.363636363636 96.969696969697 h12.121212121212 v12.121212121212 h-12.121212121212Z  M72.727272727273 96.969696969697 h12.121212121212 v12.121212121212 h-12.121212121212Z  M109.09090909091 96.969696969697 h12.121212121212 v12.121212121212 h-12.121212121212Z  M157.57575757576 96.969696969697 h12.121212121212 v12.121212121212 h-12.121212121212Z  M181.81818181818 96.969696969697 h12.121212121212 v12.121212121212 h-12.121212121212Z  M193.93939393939 96.969696969697 h12.121212121212 v12.121212121212 h-12.121212121212Z  M242.42424242424 96.969696969697 h12.121212121212 v12.121212121212 h-12.121212121212Z  M254.54545454545 96.969696969697 h12.121212121212 v12.121212121212 h-12.121212121212Z  M278.78787878788 96.969696969697 h12.121212121212 v12.121212121212 h-12.121212121212Z  M290.90909090909 96.969696969697 h12.121212121212 v12.121212121212 h-12.121212121212Z  M327.27272727273 96.969696969697 h12.121212121212 v12.121212121212 h-12.121212121212Z  M339.39393939394 96.969696969697 h12.121212121212 v12.121212121212 h-12.121212121212Z  M351.51515151515 96.969696969697 h12.121212121212 v12.121212121212 h-12.121212121212Z  M375.75757575758 96.969696969697 h12.121212121212 v12.121212121212 h-12.121212121212Z  M387.87878787879 96.969696969697 h12.121212121212 v12.121212121212 h-12.121212121212Z  M12.121212121212 109.09090909091 h12.121212121212 v12.121212121212 h-12.121212121212Z  M24.242424242424 109.09090909091 h12.121212121212 v12.121212121212 h-12.121212121212Z  M60.606060606061 109.09090909091 h12.121212121212 v12.121212121212 h-12.121212121212Z  M84.848484848485 109.09090909091 h12.121212121212 v12.121212121212 h-12.121212121212Z  M96.969696969697 109.09090909091 h12.121212121212 v12.121212121212 h-12.121212121212Z  M109.09090909091 109.09090909091 h12.121212121212 v12.121212121212 h-12.121212121212Z  M145.45454545455 109.09090909091 h12.121212121212 v12.121212121212 h-12.121212121212Z  M157.57575757576 109.09090909091 h12.121212121212 v12.121212121212 h-12.121212121212Z  M169.69696969697 109.09090909091 h12.121212121212 v12.121212121212 h-12.121212121212Z  M181.81818181818 109.09090909091 h12.121212121212 v12.121212121212 h-12.121212121212Z  M206.06060606061 109.09090909091 h12.121212121212 v12.121212121212 h-12.121212121212Z  M218.18181818182 109.09090909091 h12.121212121212 v12.121212121212 h-12.121212121212Z  M290.90909090909 109.09090909091 h12.121212121212 v12.121212121212 h-12.121212121212Z  M315.15151515152 109.09090909091 h12.121212121212 v12.121212121212 h-12.121212121212Z  M351.51515151515 109.09090909091 h12.121212121212 v12.121212121212 h-12.121212121212Z  M363.63636363636 109.09090909091 h12.121212121212 v12.121212121212 h-12.121212121212Z  M387.87878787879 109.09090909091 h12.121212121212 v12.121212121212 h-12.121212121212Z  M48.484848484848 121.21212121212 h12.121212121212 v12.121212121212 h-12.121212121212Z  M60.606060606061 121.21212121212 h12.121212121212 v12.121212121212 h-12.121212121212Z  M72.727272727273 121.21212121212 h12.121212121212 v12.121212121212 h-12.121212121212Z  M84.848484848485 121.21212121212 h12.121212121212 v12.121212121212 h-12.121212121212Z  M109.09090909091 121.21212121212 h12.121212121212 v12.121212121212 h-12.121212121212Z  M133.33333333333 121.21212121212 h12.121212121212 v12.121212121212 h-12.121212121212Z  M145.45454545455 121.21212121212 h12.121212121212 v12.121212121212 h-12.121212121212Z  M169.69696969697 121.21212121212 h12.121212121212 v12.121212121212 h-12.121212121212Z  M193.93939393939 121.21212121212 h12.121212121212 v12.121212121212 h-12.121212121212Z  M206.06060606061 121.21212121212 h12.121212121212 v12.121212121212 h-12.121212121212Z  M218.18181818182 121.21212121212 h12.121212121212 v12.121212121212 h-12.121212121212Z  M242.42424242424 121.21212121212 h12.121212121212 v12.121212121212 h-12.121212121212Z  M254.54545454545 121.21212121212 h12.121212121212 v12.121212121212 h-12.121212121212Z  M266.66666666667 121.21212121212 h12.121212121212 v12.121212121212 h-12.121212121212Z  M290.90909090909 121.21212121212 h12.121212121212 v12.121212121212 h-12.121212121212Z  M303.0303030303 121.21212121212 h12.121212121212 v12.121212121212 h-12.121212121212Z  M315.15151515152 121.21212121212 h12.121212121212 v12.121212121212 h-12.121212121212Z  M363.63636363636 121.21212121212 h12.121212121212 v12.121212121212 h-12.121212121212Z  M375.75757575758 121.21212121212 h12.121212121212 v12.121212121212 h-12.121212121212Z  M387.87878787879 121.21212121212 h12.121212121212 v12.121212121212 h-12.121212121212Z  M12.121212121212 133.33333333333 h12.121212121212 v12.121212121212 h-12.121212121212Z  M24.242424242424 133.33333333333 h12.121212121212 v12.121212121212 h-12.121212121212Z  M48.484848484848 133.33333333333 h12.121212121212 v12.121212121212 h-12.121212121212Z  M60.606060606061 133.33333333333 h12.121212121212 v12.121212121212 h-12.121212121212Z  M84.848484848485 133.33333333333 h12.121212121212 v12.121212121212 h-12.121212121212Z  M121.21212121212 133.33333333333 h12.121212121212 v12.121212121212 h-12.121212121212Z  M133.33333333333 133.33333333333 h12.121212121212 v12.121212121212 h-12.121212121212Z  M145.45454545455 133.33333333333 h12.121212121212 v12.121212121212 h-12.121212121212Z  M206.06060606061 133.33333333333 h12.121212121212 v12.121212121212 h-12.121212121212Z  M218.18181818182 133.33333333333 h12.121212121212 v12.121212121212 h-12.121212121212Z  M242.42424242424 133.33333333333 h12.121212121212 v12.121212121212 h-12.121212121212Z  M278.78787878788 133.33333333333 h12.121212121212 v12.121212121212 h-12.121212121212Z  M303.0303030303 133.33333333333 h12.121212121212 v12.121212121212 h-12.121212121212Z  M315.15151515152 133.33333333333 h12.121212121212 v12.121212121212 h-12.121212121212Z  M375.75757575758 133.33333333333 h12.121212121212 v12.121212121212 h-12.121212121212Z  M0 145.45454545455 h12.121212121212 v12.121212121212 h-12.121212121212Z  M24.242424242424 145.45454545455 h12.121212121212 v12.121212121212 h-12.121212121212Z  M36.363636363636 145.45454545455 h12.121212121212 v12.121212121212 h-12.121212121212Z  M72.727272727273 145.45454545455 h12.121212121212 v12.121212121212 h-12.121212121212Z  M96.969696969697 145.45454545455 h12.121212121212 v12.121212121212 h-12.121212121212Z  M109.09090909091 145.45454545455 h12.121212121212 v12.121212121212 h-12.121212121212Z  M121.21212121212 145.45454545455 h12.121212121212 v12.121212121212 h-12.121212121212Z  M133.33333333333 145.45454545455 h12.121212121212 v12.121212121212 h-12.121212121212Z  M145.45454545455 145.45454545455 h12.121212121212 v12.121212121212 h-12.121212121212Z  M157.57575757576 145.45454545455 h12.121212121212 v12.121212121212 h-12.121212121212Z  M169.69696969697 145.45454545455 h12.121212121212 v12.121212121212 h-12.121212121212Z  M181.81818181818 145.45454545455 h12.121212121212 v12.121212121212 h-12.121212121212Z  M193.93939393939 145.45454545455 h12.121212121212 v12.121212121212 h-12.121212121212Z  M230.30303030303 145.45454545455 h12.121212121212 v12.121212121212 h-12.121212121212Z  M242.42424242424 145.45454545455 h12.121212121212 v12.121212121212 h-12.121212121212Z  M278.78787878788 145.45454545455 h12.121212121212 v12.121212121212 h-12.121212121212Z  M290.90909090909 145.45454545455 h12.121212121212 v12.121212121212 h-12.121212121212Z  M315.15151515152 145.45454545455 h12.121212121212 v12.121212121212 h-12.121212121212Z  M339.39393939394 145.45454545455 h12.121212121212 v12.121212121212 h-12.121212121212Z  M351.51515151515 145.45454545455 h12.121212121212 v12.121212121212 h-12.121212121212Z  M387.87878787879 145.45454545455 h12.121212121212 v12.121212121212 h-12.121212121212Z  M0 157.57575757576 h12.121212121212 v12.121212121212 h-12.121212121212Z  M12.121212121212 157.57575757576 h12.121212121212 v12.121212121212 h-12.121212121212Z  M24.242424242424 157.57575757576 h12.121212121212 v12.121212121212 h-12.121212121212Z  M36.363636363636 157.57575757576 h12.121212121212 v12.121212121212 h-12.121212121212Z  M48.484848484848 157.57575757576 h12.121212121212 v12.121212121212 h-12.121212121212Z  M109.09090909091 157.57575757576 h12.121212121212 v12.121212121212 h-12.121212121212Z  M133.33333333333 157.57575757576 h12.121212121212 v12.121212121212 h-12.121212121212Z  M157.57575757576 157.57575757576 h12.121212121212 v12.121212121212 h-12.121212121212Z  M169.69696969697 157.57575757576 h12.121212121212 v12.121212121212 h-12.121212121212Z  M181.81818181818 157.57575757576 h12.121212121212 v12.121212121212 h-12.121212121212Z  M230.30303030303 157.57575757576 h12.121212121212 v12.121212121212 h-12.121212121212Z  M266.66666666667 157.57575757576 h12.121212121212 v12.121212121212 h-12.121212121212Z  M315.15151515152 157.57575757576 h12.121212121212 v12.121212121212 h-12.121212121212Z  M363.63636363636 157.57575757576 h12.121212121212 v12.121212121212 h-12.121212121212Z  M387.87878787879 157.57575757576 h12.121212121212 v12.121212121212 h-12.121212121212Z  M60.606060606061 169.69696969697 h12.121212121212 v12.121212121212 h-12.121212121212Z  M72.727272727273 169.69696969697 h12.121212121212 v12.121212121212 h-12.121212121212Z  M109.09090909091 169.69696969697 h12.121212121212 v12.121212121212 h-12.121212121212Z  M133.33333333333 169.69696969697 h12.121212121212 v12.121212121212 h-12.121212121212Z  M181.81818181818 169.69696969697 h12.121212121212 v12.121212121212 h-12.121212121212Z  M242.42424242424 169.69696969697 h12.121212121212 v12.121212121212 h-12.121212121212Z  M254.54545454545 169.69696969697 h12.121212121212 v12.121212121212 h-12.121212121212Z  M278.78787878788 169.69696969697 h12.121212121212 v12.121212121212 h-12.121212121212Z  M290.90909090909 169.69696969697 h12.121212121212 v12.121212121212 h-12.121212121212Z  M351.51515151515 169.69696969697 h12.121212121212 v12.121212121212 h-12.121212121212Z  M375.75757575758 169.69696969697 h12.121212121212 v12.121212121212 h-12.121212121212Z  M60.606060606061 181.81818181818 h12.121212121212 v12.121212121212 h-12.121212121212Z  M84.848484848485 181.81818181818 h12.121212121212 v12.121212121212 h-12.121212121212Z  M96.969696969697 181.81818181818 h12.121212121212 v12.121212121212 h-12.121212121212Z  M109.09090909091 181.81818181818 h12.121212121212 v12.121212121212 h-12.121212121212Z  M133.33333333333 181.81818181818 h12.121212121212 v12.121212121212 h-12.121212121212Z  M145.45454545455 181.81818181818 h12.121212121212 v12.121212121212 h-12.121212121212Z  M169.69696969697 181.81818181818 h12.121212121212 v12.121212121212 h-12.121212121212Z  M181.81818181818 181.81818181818 h12.121212121212 v12.121212121212 h-12.121212121212Z  M218.18181818182 181.81818181818 h12.121212121212 v12.121212121212 h-12.121212121212Z  M254.54545454545 181.81818181818 h12.121212121212 v12.121212121212 h-12.121212121212Z  M266.66666666667 181.81818181818 h12.121212121212 v12.121212121212 h-12.121212121212Z  M278.78787878788 181.81818181818 h12.121212121212 v12.121212121212 h-12.121212121212Z  M303.0303030303 181.81818181818 h12.121212121212 v12.121212121212 h-12.121212121212Z  M339.39393939394 181.81818181818 h12.121212121212 v12.121212121212 h-12.121212121212Z  M375.75757575758 181.81818181818 h12.121212121212 v12.121212121212 h-12.121212121212Z  M36.363636363636 193.93939393939 h12.121212121212 v12.121212121212 h-12.121212121212Z  M48.484848484848 193.93939393939 h12.121212121212 v12.121212121212 h-12.121212121212Z  M72.727272727273 193.93939393939 h12.121212121212 v12.121212121212 h-12.121212121212Z  M109.09090909091 193.93939393939 h12.121212121212 v12.121212121212 h-12.121212121212Z  M121.21212121212 193.93939393939 h12.121212121212 v12.121212121212 h-12.121212121212Z  M169.69696969697 193.93939393939 h12.121212121212 v12.121212121212 h-12.121212121212Z  M193.93939393939 193.93939393939 h12.121212121212 v12.121212121212 h-12.121212121212Z  M206.06060606061 193.93939393939 h12.121212121212 v12.121212121212 h-12.121212121212Z  M254.54545454545 193.93939393939 h12.121212121212 v12.121212121212 h-12.121212121212Z  M290.90909090909 193.93939393939 h12.121212121212 v12.121212121212 h-12.121212121212Z  M303.0303030303 193.93939393939 h12.121212121212 v12.121212121212 h-12.121212121212Z  M315.15151515152 193.93939393939 h12.121212121212 v12.121212121212 h-12.121212121212Z  M327.27272727273 193.93939393939 h12.121212121212 v12.121212121212 h-12.121212121212Z  M339.39393939394 193.93939393939 h12.121212121212 v12.121212121212 h-12.121212121212Z  M36.363636363636 206.06060606061 h12.121212121212 v12.121212121212 h-12.121212121212Z  M48.484848484848 206.06060606061 h12.121212121212 v12.121212121212 h-12.121212121212Z  M60.606060606061 206.06060606061 h12.121212121212 v12.121212121212 h-12.121212121212Z  M96.969696969697 206.06060606061 h12.121212121212 v12.121212121212 h-12.121212121212Z  M133.33333333333 206.06060606061 h12.121212121212 v12.121212121212 h-12.121212121212Z  M169.69696969697 206.06060606061 h12.121212121212 v12.121212121212 h-12.121212121212Z  M181.81818181818 206.06060606061 h12.121212121212 v12.121212121212 h-12.121212121212Z  M193.93939393939 206.06060606061 h12.121212121212 v12.121212121212 h-12.121212121212Z  M218.18181818182 206.06060606061 h12.121212121212 v12.121212121212 h-12.121212121212Z  M230.30303030303 206.06060606061 h12.121212121212 v12.121212121212 h-12.121212121212Z  M254.54545454545 206.06060606061 h12.121212121212 v12.121212121212 h-12.121212121212Z  M266.66666666667 206.06060606061 h12.121212121212 v12.121212121212 h-12.121212121212Z  M278.78787878788 206.06060606061 h12.121212121212 v12.121212121212 h-12.121212121212Z  M303.0303030303 206.06060606061 h12.121212121212 v12.121212121212 h-12.121212121212Z  M327.27272727273 206.06060606061 h12.121212121212 v12.121212121212 h-12.121212121212Z  M363.63636363636 206.06060606061 h12.121212121212 v12.121212121212 h-12.121212121212Z  M375.75757575758 206.06060606061 h12.121212121212 v12.121212121212 h-12.121212121212Z  M12.121212121212 218.18181818182 h12.121212121212 v12.121212121212 h-12.121212121212Z  M24.242424242424 218.18181818182 h12.121212121212 v12.121212121212 h-12.121212121212Z  M60.606060606061 218.18181818182 h12.121212121212 v12.121212121212 h-12.121212121212Z  M72.727272727273 218.18181818182 h12.121212121212 v12.121212121212 h-12.121212121212Z  M84.848484848485 218.18181818182 h12.121212121212 v12.121212121212 h-12.121212121212Z  M109.09090909091 218.18181818182 h12.121212121212 v12.121212121212 h-12.121212121212Z  M121.21212121212 218.18181818182 h12.121212121212 v12.121212121212 h-12.121212121212Z  M133.33333333333 218.18181818182 h12.121212121212 v12.121212121212 h-12.121212121212Z  M145.45454545455 218.18181818182 h12.121212121212 v12.121212121212 h-12.121212121212Z  M157.57575757576 218.18181818182 h12.121212121212 v12.121212121212 h-12.121212121212Z  M193.93939393939 218.18181818182 h12.121212121212 v12.121212121212 h-12.121212121212Z  M206.06060606061 218.18181818182 h12.121212121212 v12.121212121212 h-12.121212121212Z  M230.30303030303 218.18181818182 h12.121212121212 v12.121212121212 h-12.121212121212Z  M266.66666666667 218.18181818182 h12.121212121212 v12.121212121212 h-12.121212121212Z  M290.90909090909 218.18181818182 h12.121212121212 v12.121212121212 h-12.121212121212Z  M315.15151515152 218.18181818182 h12.121212121212 v12.121212121212 h-12.121212121212Z  M339.39393939394 218.18181818182 h12.121212121212 v12.121212121212 h-12.121212121212Z  M363.63636363636 218.18181818182 h12.121212121212 v12.121212121212 h-12.121212121212Z  M375.75757575758 218.18181818182 h12.121212121212 v12.121212121212 h-12.121212121212Z  M387.87878787879 218.18181818182 h12.121212121212 v12.121212121212 h-12.121212121212Z  M12.121212121212 230.30303030303 h12.121212121212 v12.121212121212 h-12.121212121212Z  M24.242424242424 230.30303030303 h12.121212121212 v12.121212121212 h-12.121212121212Z  M48.484848484848 230.30303030303 h12.121212121212 v12.121212121212 h-12.121212121212Z  M60.606060606061 230.30303030303 h12.121212121212 v12.121212121212 h-12.121212121212Z  M84.848484848485 230.30303030303 h12.121212121212 v12.121212121212 h-12.121212121212Z  M96.969696969697 230.30303030303 h12.121212121212 v12.121212121212 h-12.121212121212Z  M133.33333333333 230.30303030303 h12.121212121212 v12.121212121212 h-12.121212121212Z  M157.57575757576 230.30303030303 h12.121212121212 v12.121212121212 h-12.121212121212Z  M169.69696969697 230.30303030303 h12.121212121212 v12.121212121212 h-12.121212121212Z  M193.93939393939 230.30303030303 h12.121212121212 v12.121212121212 h-12.121212121212Z  M218.18181818182 230.30303030303 h12.121212121212 v12.121212121212 h-12.121212121212Z  M230.30303030303 230.30303030303 h12.121212121212 v12.121212121212 h-12.121212121212Z  M254.54545454545 230.30303030303 h12.121212121212 v12.121212121212 h-12.121212121212Z  M303.0303030303 230.30303030303 h12.121212121212 v12.121212121212 h-12.121212121212Z  M327.27272727273 230.30303030303 h12.121212121212 v12.121212121212 h-12.121212121212Z  M339.39393939394 230.30303030303 h12.121212121212 v12.121212121212 h-12.121212121212Z  M387.87878787879 230.30303030303 h12.121212121212 v12.121212121212 h-12.121212121212Z  M0 242.42424242424 h12.121212121212 v12.121212121212 h-12.121212121212Z  M12.121212121212 242.42424242424 h12.121212121212 v12.121212121212 h-12.121212121212Z  M24.242424242424 242.42424242424 h12.121212121212 v12.121212121212 h-12.121212121212Z  M48.484848484848 242.42424242424 h12.121212121212 v12.121212121212 h-12.121212121212Z  M72.727272727273 242.42424242424 h12.121212121212 v12.121212121212 h-12.121212121212Z  M96.969696969697 242.42424242424 h12.121212121212 v12.121212121212 h-12.121212121212Z  M109.09090909091 242.42424242424 h12.121212121212 v12.121212121212 h-12.121212121212Z  M133.33333333333 242.42424242424 h12.121212121212 v12.121212121212 h-12.121212121212Z  M218.18181818182 242.42424242424 h12.121212121212 v12.121212121212 h-12.121212121212Z  M242.42424242424 242.42424242424 h12.121212121212 v12.121212121212 h-12.121212121212Z  M254.54545454545 242.42424242424 h12.121212121212 v12.121212121212 h-12.121212121212Z  M266.66666666667 242.42424242424 h12.121212121212 v12.121212121212 h-12.121212121212Z  M290.90909090909 242.42424242424 h12.121212121212 v12.121212121212 h-12.121212121212Z  M327.27272727273 242.42424242424 h12.121212121212 v12.121212121212 h-12.121212121212Z  M375.75757575758 242.42424242424 h12.121212121212 v12.121212121212 h-12.121212121212Z  M12.121212121212 254.54545454545 h12.121212121212 v12.121212121212 h-12.121212121212Z  M24.242424242424 254.54545454545 h12.121212121212 v12.121212121212 h-12.121212121212Z  M60.606060606061 254.54545454545 h12.121212121212 v12.121212121212 h-12.121212121212Z  M84.848484848485 254.54545454545 h12.121212121212 v12.121212121212 h-12.121212121212Z  M96.969696969697 254.54545454545 h12.121212121212 v12.121212121212 h-12.121212121212Z  M133.33333333333 254.54545454545 h12.121212121212 v12.121212121212 h-12.121212121212Z  M169.69696969697 254.54545454545 h12.121212121212 v12.121212121212 h-12.121212121212Z  M206.06060606061 254.54545454545 h12.121212121212 v12.121212121212 h-12.121212121212Z  M254.54545454545 254.54545454545 h12.121212121212 v12.121212121212 h-12.121212121212Z  M266.66666666667 254.54545454545 h12.121212121212 v12.121212121212 h-12.121212121212Z  M278.78787878788 254.54545454545 h12.121212121212 v12.121212121212 h-12.121212121212Z  M290.90909090909 254.54545454545 h12.121212121212 v12.121212121212 h-12.121212121212Z  M327.27272727273 254.54545454545 h12.121212121212 v12.121212121212 h-12.121212121212Z  M387.87878787879 254.54545454545 h12.121212121212 v12.121212121212 h-12.121212121212Z  M0 266.66666666667 h12.121212121212 v12.121212121212 h-12.121212121212Z  M12.121212121212 266.66666666667 h12.121212121212 v12.121212121212 h-12.121212121212Z  M36.363636363636 266.66666666667 h12.121212121212 v12.121212121212 h-12.121212121212Z  M48.484848484848 266.66666666667 h12.121212121212 v12.121212121212 h-12.121212121212Z  M60.606060606061 266.66666666667 h12.121212121212 v12.121212121212 h-12.121212121212Z  M72.727272727273 266.66666666667 h12.121212121212 v12.121212121212 h-12.121212121212Z  M109.09090909091 266.66666666667 h12.121212121212 v12.121212121212 h-12.121212121212Z  M121.21212121212 266.66666666667 h12.121212121212 v12.121212121212 h-12.121212121212Z  M133.33333333333 266.66666666667 h12.121212121212 v12.121212121212 h-12.121212121212Z  M145.45454545455 266.66666666667 h12.121212121212 v12.121212121212 h-12.121212121212Z  M193.93939393939 266.66666666667 h12.121212121212 v12.121212121212 h-12.121212121212Z  M218.18181818182 266.66666666667 h12.121212121212 v12.121212121212 h-12.121212121212Z  M230.30303030303 266.66666666667 h12.121212121212 v12.121212121212 h-12.121212121212Z  M242.42424242424 266.66666666667 h12.121212121212 v12.121212121212 h-12.121212121212Z  M254.54545454545 266.66666666667 h12.121212121212 v12.121212121212 h-12.121212121212Z  M266.66666666667 266.66666666667 h12.121212121212 v12.121212121212 h-12.121212121212Z  M278.78787878788 266.66666666667 h12.121212121212 v12.121212121212 h-12.121212121212Z  M290.90909090909 266.66666666667 h12.121212121212 v12.121212121212 h-12.121212121212Z  M303.0303030303 266.66666666667 h12.121212121212 v12.121212121212 h-12.121212121212Z  M315.15151515152 266.66666666667 h12.121212121212 v12.121212121212 h-12.121212121212Z  M339.39393939394 266.66666666667 h12.121212121212 v12.121212121212 h-12.121212121212Z  M351.51515151515 266.66666666667 h12.121212121212 v12.121212121212 h-12.121212121212Z  M375.75757575758 266.66666666667 h12.121212121212 v12.121212121212 h-12.121212121212Z  M387.87878787879 266.66666666667 h12.121212121212 v12.121212121212 h-12.121212121212Z  M12.121212121212 278.78787878788 h12.121212121212 v12.121212121212 h-12.121212121212Z  M24.242424242424 278.78787878788 h12.121212121212 v12.121212121212 h-12.121212121212Z  M36.363636363636 278.78787878788 h12.121212121212 v12.121212121212 h-12.121212121212Z  M48.484848484848 278.78787878788 h12.121212121212 v12.121212121212 h-12.121212121212Z  M96.969696969697 278.78787878788 h12.121212121212 v12.121212121212 h-12.121212121212Z  M133.33333333333 278.78787878788 h12.121212121212 v12.121212121212 h-12.121212121212Z  M157.57575757576 278.78787878788 h12.121212121212 v12.121212121212 h-12.121212121212Z  M169.69696969697 278.78787878788 h12.121212121212 v12.121212121212 h-12.121212121212Z  M181.81818181818 278.78787878788 h12.121212121212 v12.121212121212 h-12.121212121212Z  M206.06060606061 278.78787878788 h12.121212121212 v12.121212121212 h-12.121212121212Z  M218.18181818182 278.78787878788 h12.121212121212 v12.121212121212 h-12.121212121212Z  M254.54545454545 278.78787878788 h12.121212121212 v12.121212121212 h-12.121212121212Z  M266.66666666667 278.78787878788 h12.121212121212 v12.121212121212 h-12.121212121212Z  M278.78787878788 278.78787878788 h12.121212121212 v12.121212121212 h-12.121212121212Z  M290.90909090909 278.78787878788 h12.121212121212 v12.121212121212 h-12.121212121212Z  M303.0303030303 278.78787878788 h12.121212121212 v12.121212121212 h-12.121212121212Z  M315.15151515152 278.78787878788 h12.121212121212 v12.121212121212 h-12.121212121212Z  M339.39393939394 278.78787878788 h12.121212121212 v12.121212121212 h-12.121212121212Z  M375.75757575758 278.78787878788 h12.121212121212 v12.121212121212 h-12.121212121212Z  M0 290.90909090909 h12.121212121212 v12.121212121212 h-12.121212121212Z  M36.363636363636 290.90909090909 h12.121212121212 v12.121212121212 h-12.121212121212Z  M48.484848484848 290.90909090909 h12.121212121212 v12.121212121212 h-12.121212121212Z  M72.727272727273 290.90909090909 h12.121212121212 v12.121212121212 h-12.121212121212Z  M96.969696969697 290.90909090909 h12.121212121212 v12.121212121212 h-12.121212121212Z  M109.09090909091 290.90909090909 h12.121212121212 v12.121212121212 h-12.121212121212Z  M157.57575757576 290.90909090909 h12.121212121212 v12.121212121212 h-12.121212121212Z  M206.06060606061 290.90909090909 h12.121212121212 v12.121212121212 h-12.121212121212Z  M254.54545454545 290.90909090909 h12.121212121212 v12.121212121212 h-12.121212121212Z  M278.78787878788 290.90909090909 h12.121212121212 v12.121212121212 h-12.121212121212Z  M96.969696969697 303.0303030303 h12.121212121212 v12.121212121212 h-12.121212121212Z  M109.09090909091 303.0303030303 h12.121212121212 v12.121212121212 h-12.121212121212Z  M121.21212121212 303.0303030303 h12.121212121212 v12.121212121212 h-12.121212121212Z  M145.45454545455 303.0303030303 h12.121212121212 v12.121212121212 h-12.121212121212Z  M157.57575757576 303.0303030303 h12.121212121212 v12.121212121212 h-12.121212121212Z  M169.69696969697 303.0303030303 h12.121212121212 v12.121212121212 h-12.121212121212Z  M193.93939393939 303.0303030303 h12.121212121212 v12.121212121212 h-12.121212121212Z  M218.18181818182 303.0303030303 h12.121212121212 v12.121212121212 h-12.121212121212Z  M230.30303030303 303.0303030303 h12.121212121212 v12.121212121212 h-12.121212121212Z  M254.54545454545 303.0303030303 h12.121212121212 v12.121212121212 h-12.121212121212Z  M278.78787878788 303.0303030303 h12.121212121212 v12.121212121212 h-12.121212121212Z  M351.51515151515 303.0303030303 h12.121212121212 v12.121212121212 h-12.121212121212Z  M375.75757575758 303.0303030303 h12.121212121212 v12.121212121212 h-12.121212121212Z  M387.87878787879 303.0303030303 h12.121212121212 v12.121212121212 h-12.121212121212Z  M109.09090909091 315.15151515152 h12.121212121212 v12.121212121212 h-12.121212121212Z  M133.33333333333 315.15151515152 h12.121212121212 v12.121212121212 h-12.121212121212Z  M145.45454545455 315.15151515152 h12.121212121212 v12.121212121212 h-12.121212121212Z  M157.57575757576 315.15151515152 h12.121212121212 v12.121212121212 h-12.121212121212Z  M169.69696969697 315.15151515152 h12.121212121212 v12.121212121212 h-12.121212121212Z  M181.81818181818 315.15151515152 h12.121212121212 v12.121212121212 h-12.121212121212Z  M206.06060606061 315.15151515152 h12.121212121212 v12.121212121212 h-12.121212121212Z  M218.18181818182 315.15151515152 h12.121212121212 v12.121212121212 h-12.121212121212Z  M242.42424242424 315.15151515152 h12.121212121212 v12.121212121212 h-12.121212121212Z  M266.66666666667 315.15151515152 h12.121212121212 v12.121212121212 h-12.121212121212Z  M351.51515151515 315.15151515152 h12.121212121212 v12.121212121212 h-12.121212121212Z  M363.63636363636 315.15151515152 h12.121212121212 v12.121212121212 h-12.121212121212Z  M121.21212121212 327.27272727273 h12.121212121212 v12.121212121212 h-12.121212121212Z  M145.45454545455 327.27272727273 h12.121212121212 v12.121212121212 h-12.121212121212Z  M169.69696969697 327.27272727273 h12.121212121212 v12.121212121212 h-12.121212121212Z  M181.81818181818 327.27272727273 h12.121212121212 v12.121212121212 h-12.121212121212Z  M218.18181818182 327.27272727273 h12.121212121212 v12.121212121212 h-12.121212121212Z  M230.30303030303 327.27272727273 h12.121212121212 v12.121212121212 h-12.121212121212Z  M242.42424242424 327.27272727273 h12.121212121212 v12.121212121212 h-12.121212121212Z  M254.54545454545 327.27272727273 h12.121212121212 v12.121212121212 h-12.121212121212Z  M266.66666666667 327.27272727273 h12.121212121212 v12.121212121212 h-12.121212121212Z  M351.51515151515 327.27272727273 h12.121212121212 v12.121212121212 h-12.121212121212Z  M121.21212121212 339.39393939394 h12.121212121212 v12.121212121212 h-12.121212121212Z  M133.33333333333 339.39393939394 h12.121212121212 v12.121212121212 h-12.121212121212Z  M145.45454545455 339.39393939394 h12.121212121212 v12.121212121212 h-12.121212121212Z  M193.93939393939 339.39393939394 h12.121212121212 v12.121212121212 h-12.121212121212Z  M218.18181818182 339.39393939394 h12.121212121212 v12.121212121212 h-12.121212121212Z  M230.30303030303 339.39393939394 h12.121212121212 v12.121212121212 h-12.121212121212Z  M351.51515151515 339.39393939394 h12.121212121212 v12.121212121212 h-12.121212121212Z  M375.75757575758 339.39393939394 h12.121212121212 v12.121212121212 h-12.121212121212Z  M387.87878787879 339.39393939394 h12.121212121212 v12.121212121212 h-12.121212121212Z  M96.969696969697 351.51515151515 h12.121212121212 v12.121212121212 h-12.121212121212Z  M109.09090909091 351.51515151515 h12.121212121212 v12.121212121212 h-12.121212121212Z  M133.33333333333 351.51515151515 h12.121212121212 v12.121212121212 h-12.121212121212Z  M169.69696969697 351.51515151515 h12.121212121212 v12.121212121212 h-12.121212121212Z  M193.93939393939 351.51515151515 h12.121212121212 v12.121212121212 h-12.121212121212Z  M218.18181818182 351.51515151515 h12.121212121212 v12.121212121212 h-12.121212121212Z  M254.54545454545 351.51515151515 h12.121212121212 v12.121212121212 h-12.121212121212Z  M266.66666666667 351.51515151515 h12.121212121212 v12.121212121212 h-12.121212121212Z  M278.78787878788 351.51515151515 h12.121212121212 v12.121212121212 h-12.121212121212Z  M290.90909090909 351.51515151515 h12.121212121212 v12.121212121212 h-12.121212121212Z  M303.0303030303 351.51515151515 h12.121212121212 v12.121212121212 h-12.121212121212Z  M315.15151515152 351.51515151515 h12.121212121212 v12.121212121212 h-12.121212121212Z  M339.39393939394 351.51515151515 h12.121212121212 v12.121212121212 h-12.121212121212Z  M363.63636363636 351.51515151515 h12.121212121212 v12.121212121212 h-12.121212121212Z  M387.87878787879 351.51515151515 h12.121212121212 v12.121212121212 h-12.121212121212Z  M109.09090909091 363.63636363636 h12.121212121212 v12.121212121212 h-12.121212121212Z  M157.57575757576 363.63636363636 h12.121212121212 v12.121212121212 h-12.121212121212Z  M169.69696969697 363.63636363636 h12.121212121212 v12.121212121212 h-12.121212121212Z  M193.93939393939 363.63636363636 h12.121212121212 v12.121212121212 h-12.121212121212Z  M206.06060606061 363.63636363636 h12.121212121212 v12.121212121212 h-12.121212121212Z  M266.66666666667 363.63636363636 h12.121212121212 v12.121212121212 h-12.121212121212Z  M278.78787878788 363.63636363636 h12.121212121212 v12.121212121212 h-12.121212121212Z  M303.0303030303 363.63636363636 h12.121212121212 v12.121212121212 h-12.121212121212Z  M327.27272727273 363.63636363636 h12.121212121212 v12.121212121212 h-12.121212121212Z  M339.39393939394 363.63636363636 h12.121212121212 v12.121212121212 h-12.121212121212Z  M387.87878787879 363.63636363636 h12.121212121212 v12.121212121212 h-12.121212121212Z  M109.09090909091 375.75757575758 h12.121212121212 v12.121212121212 h-12.121212121212Z  M121.21212121212 375.75757575758 h12.121212121212 v12.121212121212 h-12.121212121212Z  M157.57575757576 375.75757575758 h12.121212121212 v12.121212121212 h-12.121212121212Z  M169.69696969697 375.75757575758 h12.121212121212 v12.121212121212 h-12.121212121212Z  M181.81818181818 375.75757575758 h12.121212121212 v12.121212121212 h-12.121212121212Z  M193.93939393939 375.75757575758 h12.121212121212 v12.121212121212 h-12.121212121212Z  M218.18181818182 375.75757575758 h12.121212121212 v12.121212121212 h-12.121212121212Z  M254.54545454545 375.75757575758 h12.121212121212 v12.121212121212 h-12.121212121212Z  M290.90909090909 375.75757575758 h12.121212121212 v12.121212121212 h-12.121212121212Z  M303.0303030303 375.75757575758 h12.121212121212 v12.121212121212 h-12.121212121212Z  M315.15151515152 375.75757575758 h12.121212121212 v12.121212121212 h-12.121212121212Z  M327.27272727273 375.75757575758 h12.121212121212 v12.121212121212 h-12.121212121212Z  M339.39393939394 375.75757575758 h12.121212121212 v12.121212121212 h-12.121212121212Z  M351.51515151515 375.75757575758 h12.121212121212 v12.121212121212 h-12.121212121212Z  M133.33333333333 387.87878787879 h12.121212121212 v12.121212121212 h-12.121212121212Z  M145.45454545455 387.87878787879 h12.121212121212 v12.121212121212 h-12.121212121212Z  M181.81818181818 387.87878787879 h12.121212121212 v12.121212121212 h-12.121212121212Z  M193.93939393939 387.87878787879 h12.121212121212 v12.121212121212 h-12.121212121212Z  M218.18181818182 387.87878787879 h12.121212121212 v12.121212121212 h-12.121212121212Z  M242.42424242424 387.87878787879 h12.121212121212 v12.121212121212 h-12.121212121212Z  M278.78787878788 387.87878787879 h12.121212121212 v12.121212121212 h-12.121212121212Z  M290.90909090909 387.87878787879 h12.121212121212 v12.121212121212 h-12.121212121212Z  M315.15151515152 387.87878787879 h12.121212121212 v12.121212121212 h-12.121212121212Z  M327.27272727273 387.87878787879 h12.121212121212 v12.121212121212 h-12.121212121212Z  M339.39393939394 387.87878787879 h12.121212121212 v12.121212121212 h-12.121212121212Z  M351.51515151515 387.87878787879 h12.121212121212 v12.121212121212 h-12.121212121212Z  M363.63636363636 387.87878787879 h12.121212121212 v12.121212121212 h-12.121212121212Z  M375.75757575758 387.87878787879 h12.121212121212 v12.121212121212 h-12.121212121212Z" /></symbol><symbol id="symbol-finder" class="qrcode-symbol finder"><g transform="translate(0, 0)"><g transform="translate(0, 0)"><use x="0" y="0" href="#symbol-finder-unit" width="84.848484848485" height="84.848484848485" fill="white" transform="scale(1, 1)" transform-origin="42.424242424242 42.424242424242" /></g></g><g transform="translate(400, 0)"><g transform="translate(-84.848484848485, 0)"><use x="0" y="0" href="#symbol-finder-unit" width="84.848484848485" height="84.848484848485" fill="white" transform="scale(1, 1)" transform-origin="42.424242424242 42.424242424242" /></g></g><g transform="translate(0, 400)"><g transform="translate(0, -84.848484848485)"><use x="0" y="0" href="#symbol-finder-unit" width="84.848484848485" height="84.848484848485" fill="white" transform="scale(1, 1)" transform-origin="42.424242424242 42.424242424242" /></g></g></symbol><symbol id="symbol-alignment" class="qrcode-symbol alignment"><g transform="translate(290.90909090909, 290.90909090909)"><g><use x="0" y="0" href="#symbol-alignment-unit" width="60.606060606061" height="60.606060606061" fill="white" transform-origin="30.30303030303 30.30303030303" /></g></g></symbol><symbol id="symbol-finder-dot" class="qrcode-symbol finder-dot"><g transform="translate(0, 0)"><g transform="translate(0, 0)"><use x="0" y="0" href="#symbol-finder-dot-unit" width="84.848484848485" height="84.848484848485" fill="white" transform="scale(1, 1)" transform-origin="42.424242424242 42.424242424242" /></g></g><g transform="translate(400, 0)"><g transform="translate(-84.848484848485, 0)"><use x="0" y="0" href="#symbol-finder-dot-unit" width="84.848484848485" height="84.848484848485" fill="white" transform="scale(1, 1)" transform-origin="42.424242424242 42.424242424242" /></g></g><g transform="translate(0, 400)"><g transform="translate(0, -84.848484848485)"><use x="0" y="0" href="#symbol-finder-dot-unit" width="84.848484848485" height="84.848484848485" fill="white" transform="scale(1, 1)" transform-origin="42.424242424242 42.424242424242" /></g></g></symbol><mask id="mask-data"><use x="0" y="0" href="#symbol-data" fill="white" /></mask><mask id="mask-finder"><use x="0" y="0" href="#symbol-finder" /></mask><mask id="mask-alignment"><use x="0" y="0" href="#symbol-alignment" fill="white" /></mask><mask id="mask-finder-dot"><use x="0" y="0" href="#symbol-finder-dot" /></mask><mask id="dark-mask"><use x="0" y="0" href="#symbol-data" width="400" height="400" fill="white" /><use x="0" y="0" href="#symbol-finder" width="400" height="400" fill="white" /><use x="0" y="0" href="#symbol-alignment" width="400" height="400" fill="white" /><use x="0" y="0" href="#symbol-finder-dot" width="400" height="400" fill="white" /></mask><g class="foreground-5"><g class="foreground-4"><g class="foreground-3"><g class="foreground-2"><g class="foreground-1"><g class="foreground-0"><rect x="0" y="0" width="400" height="400" class="dark type-data" mask="url(#mask-data)" /><rect x="0" y="0" width="400" height="400" class="dark type-finder" mask="url(#mask-finder)" /><rect x="0" y="0" width="400" height="400" class="dark type-alignment" mask="url(#mask-alignment)" /><rect x="0" y="0" width="400" height="400" class="dark type-finder-dot" mask="url(#mask-finder-dot)" /></g></g></g></g></g></g><symbol id="symbol-finder-unit" viewBox="0 0 700 700"><path d="M 0 0 L 0 933.33398 L 933.33398 933.33398 L 933.33398 0 L 0 0 z M 133.33398 133.33398 L 800 133.33398 L 800 800 L 133.33398 800 L 133.33398 133.33398 z" transform="scale(0.75)" /></symbol><symbol id="symbol-finder-dot-unit" viewBox="0 0 700 700"><path d="M 200,200 H 500 V 500 H 200 Z" transform="scale(1)" /></symbol><symbol id="symbol-alignment-unit" viewBox="0 0 700 700"><g transform="scale(0.9)" transform-origin="350 350" class="alignment-outer"><path d="M 0 0 L 0 933.33398 L 933.33398 933.33398 L 933.33398 0 L 0 0 z M 133.33398 133.33398 L 800 133.33398 L 800 800 L 133.33398 800 L 133.33398 133.33398 z" transform="scale(0.75)" stroke="white" stroke-width="70" /></g><g transform="scale(0.4)" transform-origin="350 350"><path d="M 200,200 H 500 V 500 H 200 Z" transform="scale(1)" /></g></symbol></svg>