<?xml version="1.0" encoding="UTF-8" standalone="no"?>
<svg
   width="440.12222pt"
   height="463.33896pt"
   version="1.1"
   viewBox="0 0 440.12222 463.33896"
   id="svg2130"
   sodipodi:docname="noun-gardener-1706569.svg"
   inkscape:version="1.1.2 (b8e25be8, 2022-02-05)"
   xmlns:inkscape="http://www.inkscape.org/namespaces/inkscape"
   xmlns:sodipodi="http://sodipodi.sourceforge.net/DTD/sodipodi-0.dtd"
   xmlns="http://www.w3.org/2000/svg"
   xmlns:svg="http://www.w3.org/2000/svg">
  <sodipodi:namedview
     id="namedview2132"
     pagecolor="#ffffff"
     bordercolor="#666666"
     borderopacity="1.0"
     inkscape:pageshadow="2"
     inkscape:pageopacity="0.0"
     inkscape:pagecheckerboard="0"
     inkscape:document-units="pt"
     showgrid="false"
     fit-margin-top="0"
     fit-margin-left="0"
     fit-margin-right="0"
     fit-margin-bottom="0"
     inkscape:zoom="0.74892857"
     inkscape:cx="293.08536"
     inkscape:cy="407.91607"
     inkscape:window-width="1680"
     inkscape:window-height="925"
     inkscape:window-x="0"
     inkscape:window-y="23"
     inkscape:window-maximized="0"
     inkscape:current-layer="svg2130" />
  <defs
     id="defs2032" />
  <path
     d="m 319.61732,384.54777 c -8.5,0.55859 8.3711,-1.2812 9.4258,-1.4062 -0.0273,0 -0.0625,0 -0.0898,0.004 0.19531,-0.0156 0.17969,-0.0156 0.0898,-0.004 3.5273,-0.35156 7.0391,-0.46484 10.574,-0.20313 0.95703,-0.0937 1.8945,-0.28125 2.8711,-0.25781 6.1758,0.11719 12.258,1.043 18.328,2.0781 24.344,-23.824 51.301,-104.8 50.199,-113.25 -1.8047,-13.832 -23.969,-26.848 -34.457,-33.957 l -0.14062,-0.0352 2.6836,-9.2188 -23.895,-5.2422 -1.5781,9.8008 c -13.574,2.2773 -38.336,5.5156 -45.012,17.953 -5.1758,9.6367 -14.105,103.86 5.8008,134.52 1.6875,-0.38281 3.4219,-0.66016 5.1992,-0.78125 z m 52.281,-129.35 -18.891,88.883 c -0.28125,1.3164 -1.4453,2.2188 -2.7344,2.2188 -0.19531,0 -0.39062,-0.0156 -0.58203,-0.0625 -1.5195,-0.32422 -2.4805,-1.8086 -2.1602,-3.3203 l 18.891,-88.883 c 0.32422,-1.5195 1.8828,-2.4688 3.3203,-2.1562 1.5117,0.32422 2.4805,1.8086 2.1562,3.3203 z m -22.172,-2.0664 c 0.24609,-1.5273 1.7188,-2.5703 3.207,-2.3242 1.5234,0.24219 2.5664,1.6797 2.3242,3.207 l -18.641,116.4 c -0.22266,1.3789 -1.4102,2.3594 -2.7617,2.3594 -0.14453,0 -0.30078,-0.0117 -0.44922,-0.0352 -1.5234,-0.24219 -2.5664,-1.6797 -2.3242,-3.207 z"
     id="path2034" />
  <path
     d="m 380.69732,370.18777 -3.2148,-1.0234 c -2.8008,4.1992 -7.7188,11.445 -12.414,16.441 1.2812,0.15625 0,0 1.3164,0.14062 3.0742,0.33594 5.293,3.1016 4.9609,6.1758 -0.33203,3.0742 -3.1016,5.2578 -6.1758,4.9609 -3.5508,-0.38672 -6.9375,-0.82422 -10.219,-1.25 -16.121,-2.0898 -28.852,-3.7305 -44.906,2.7422 -0.6875,0.28125 -1.3945,0.41016 -2.0938,0.41016 -2.2188,0 -4.3164,-1.3281 -5.1953,-3.5039 -1.1523,-2.8672 0.23438,-6.1328 3.1016,-7.2852 6.2812,-2.5352 2.7734,-1.457 4.8477,-1.8945 -3.4219,-3.6953 -6.9883,-14.559 -7.0234,-18.574 l -9.6836,-0.33594 c -33.84,10.566 -55.613,34.965 -66.426,68.777 4.0312,25.531 186.87,43.941 212.55,4.6523 -6.0391,-36.27 -35.25,-61.957 -59.43,-70.434 z m 9.9961,48.086 c -1.8984,0 -3.7539,-0.96484 -4.8008,-2.7109 -2.3633,-3.9219 -7.9336,-7.4531 -9.8828,-8.4844 -2.7266,-1.4453 -3.7812,-4.8281 -2.3398,-7.5664 1.4336,-2.7344 4.8203,-3.7812 7.5469,-2.3516 1.0039,0.51953 9.8672,5.3125 14.27,12.617 1.5977,2.6484 0.74609,6.0859 -1.9023,7.6875 -0.91016,0.55078 -1.9062,0.80859 -2.8906,0.80859 z m 12.914,13.934 c -0.94531,0.61719 -2.0039,0.91406 -3.0586,0.91406 -1.8242,0 -3.6172,-0.89062 -4.6914,-2.5352 l -1.0938,-1.6758 c -1.6953,-2.5859 -0.96875,-6.0586 1.625,-7.75 2.59375,-1.6914 6.0586,-0.96875 7.75,1.625 l 1.0938,1.6758 c 1.6953,2.582 0.96484,6.0469 -1.625,7.7461 z"
     id="path2036" />
  <path
     d="m 423.39732,76.047771 c 0,0 -5.875,-15.758 -18.648,-19.609 -12.773,-3.8516 -24.367,10.695 -24.367,10.695 l -20.871,129.249999 27.137,5.9453 z m -32.016,5.7461 c 1.5078,-6.8594 6.0547,-11.676 10.164,-10.773 4.1172,0.90234 6.2344,7.1719 4.7305,14.039 -1.5078,6.8477 -6.0547,11.676 -10.164,10.77 -4.1094,-0.91016 -6.2266,-7.1875 -4.7305,-14.035 z"
     id="path2038" />
  <path
     d="m 344.32732,216.37777 11.547,2.5312 36,7.8945 c 1.2891,0.28516 2.6836,0.0352 3.8086,-0.67578 1.1133,-0.71875 1.9219,-1.875 2.207,-3.168 l 1.8125,-8.293 c 0.58984,-2.7148 -1.1367,-5.4141 -3.8516,-6.0156 l -47.543,-10.422 c -0.34766,-0.0742 -0.70703,-0.11328 -1.0625,-0.11328 -0.98047,0 -1.9258,0.27344 -2.7383,0.79688 -1.1133,0.71875 -1.9219,1.8711 -2.207,3.168 l -1.8125,8.2891 c -0.29297,1.3164 -0.043,2.6719 0.67578,3.8086 0.72266,1.125 1.8477,1.9102 3.1641,2.1992 z"
     id="path2040" />
  <path
     d="m 238.86732,273.28777 c -41.883,6.8867 -80.566,10.344 -116.46,10.344 -36.664,0 -70.402,-3.6406 -101.76,-10.84 l 19.863,105.5 c 0,0 34.934,17.902 88.301,17.926 53.367,-0.0234 90.281,-17.926 90.281,-17.926 z"
     id="path2042" />
  <path
     d="m 243.62732,224.18777 c 1.5625,-0.64844 3.1484,-1.1016 4.7617,-1.4297 l 10.797,-57.344 c -6.5508,11.465 -61.918,20.41 -129.26,20.41 -69.109,0 -125.59,-9.4297 -129.66,-21.324 l 10.91,57.938 c 0.49219,0.004 0.98047,-0.0391 1.4766,0.10156 67.863,18.305 151.93,18.887 230.97,1.6484 z"
     id="path2044" />
  <path
     d="m 236.97732,261.28777 c 0.28516,-0.043 0.55469,0.0273 0.82812,0.0273 1.1328,-0.23438 2.2578,-0.44141 3.4062,-0.53906 l 4.6367,-24.652 c -39.531,8.6016 -79.516,12.918 -118.25,12.918 -39.977,0 -78.578,-4.6211 -114.02,-13.758 l 4.6016,24.445 c 61.703,15.109 133.3,15.637 218.8,1.5586 z"
     id="path2046" />
  <path
     d="m 151.78732,172.68777 30.129,-1.6797 -0.24219,-7.5898 c -3.6914,-33.137 10.07,-60.867 24.629,-90.214999 1.9219,-3.8594 3.8477,-7.7461 5.7383,-11.66 -34.535,28.684 -55.832,62.370999 -60.262,95.620999 v 15.523 z"
     id="path2048" />
  <path
     d="m 82.72732,158.50777 -0.66016,12.797 40.426,1.9023 -0.0898,-15.391 c 1.1406,-16.492 -9.0273,-38.445 -27.199,-58.890999 -19.605,-22.055 -43.559,-37.391 -62.445,-40.297 2.6367,3.7031 5.2539,7.3203 7.8281,10.871 20.441,28.219 38.098,52.589999 42.141,89.007999 z"
     id="path2050" />
  <path
     d="m 187.74732,130.82777 c -2.2578,10.359 -3.1484,21.043 -1.8867,32.344 l 0.004,7.8242 c 43.746,-3.6523 73.965,-11.453 73.965,-20.484 0,-8.418 -26.23,-15.766 -65.184,-19.68 z"
     id="path2052" />
  <path
     d="m 77.86732,171.30777 0.67578,-12.68 c -1.1328,-10.129 -3.5,-19.266 -6.625,-27.898 l -5.6211,-0.004 C 26.735,134.61637 0,142.02277 0,150.51477 c 0.004,9.2969 32.039,17.285 77.867,20.793 z"
     id="path2054" />
  <path
     d="m 126.67732,173.19777 c 1.082,0.004 2.1562,0.0117 3.2422,0.0117 6.0039,0 11.898,-0.0781 17.684,-0.21875 v -16.117 c 2.5938,-19.512 10.098,-37.012 19.938,-52.387 L 167.19386,103.6 c -7.4648,-28.933999 -8.3984,-73.734 0.93359,-103.6 -31.734,30.801 -37.336,84.000001 -47.602,124.14 l -0.78516,3.6133 c 5.0586,10.82 7.4922,21.152 6.8594,30.211 z"
     id="path2056" />
</svg>
