<?xml version="1.0" standalone="no"?>
<!DOCTYPE svg PUBLIC "-//W3C//DTD SVG 20010904//EN"
 "http://www.w3.org/TR/2001/REC-SVG-20010904/DTD/svg10.dtd">
<svg version="1.0" xmlns="http://www.w3.org/2000/svg"
 width="1500.000000pt" height="1500.000000pt" viewBox="0 0 1500.000000 1500.000000"
 preserveAspectRatio="xMidYMid meet">
<metadata>
Created by potrace 1.14, written by Peter Selinger 2001-2017
</metadata>
<g transform="translate(0.000000,1500.000000) scale(0.100000,-0.100000)"
fill="#000000" stroke="none">
<path d="M57 14663 c-3 -7 -2 -6568 2 -6600 1 -10 697 -13 3446 -13 l3445 0 0
3310 0 3310 -3444 0 c-1895 0 -3447 -3 -3449 -7z m5234 -1653 c1 -3 2 -746 3
-1653 1 -1457 -1 -1647 -14 -1648 -45 -4 -3547 -4 -3557 -1 -17 5 -19 3298 -3
3304 16 5 3570 3 3571 -2z"/>
<path d="M8050 11360 l0 -3310 3447 2 3448 3 1 3295 c0 1812 -2 3301 -4 3308
-3 9 -702 12 -3448 12 l-3444 0 0 -3310z m4673 1101 c16 -1 17 -60 17 -1101
l0 -1100 -27 -1 c-158 -4 -2445 0 -2450 4 -5 5 -9 2073 -4 2182 1 20 7 20
1223 18 673 -1 1231 -2 1241 -2z"/>
<path d="M57 6943 c-3 -7 -1 -2726 2 -2745 0 -5 248 -8 550 -8 l549 0 1 803
c0 441 0 813 1 827 l0 26 963 0 962 0 3 552 2 552 -1514 0 c-833 0 -1516 -3
-1519 -7z"/>
<path d="M3640 5295 l0 -1655 -1792 0 -1793 0 0 -1652 0 -1653 1793 -3 1792
-2 0 1655 0 1655 1655 0 1655 0 0 1655 0 1655 -1655 0 -1655 0 0 -1655z m2203
540 c2 -5 3 -253 3 -550 l-1 -540 -550 0 -550 0 -1 545 c-1 300 0 547 2 550 5
11 1094 6 1097 -5z m-3308 -3850 l0 -550 -683 0 c-382 -1 -686 3 -689 8 -4 6
-7 960 -3 1078 0 15 57 17 688 15 l687 -1 0 -550z"/>
<path d="M8050 3640 l0 -3310 3447 2 3448 3 1 3295 c0 1812 -2 3301 -4 3308
-3 9 -702 12 -3448 12 l-3444 0 0 -3310z m5233 1651 c4 -1 6 -745 5 -1653 l-3
-1653 -1775 0 c-976 0 -1782 1 -1790 3 -13 3 -15 193 -14 1645 1 903 2 1647 3
1652 1 7 602 10 1783 9 981 -1 1786 -2 1791 -3z"/>
<path d="M1714 5291 c-2 -2 -4 -251 -4 -553 l0 -548 690 0 690 0 0 550 c0 433
-3 550 -12 551 -39 4 -1360 3 -1364 0z"/>
<path d="M5849 3083 c-1 -5 -2 -377 -3 -828 l-1 -820 -815 -2 c-448 0 -821 -1
-827 -2 -10 -1 -13 -118 -13 -551 l0 -550 1380 0 1380 0 0 1380 0 1380 -550 0
c-302 0 -550 -3 -551 -7z"/>
</g>
</svg>
