<?xml version="1.0" encoding="UTF-8" standalone="no"?>
<svg
   width="384.99979pt"
   height="525.00122pt"
   version="1.1"
   viewBox="0 0 384.99979 525.00122"
   id="svg1341"
   sodipodi:docname="logo.svg"
   inkscape:version="1.1.2 (b8e25be8, 2022-02-05)"
   xmlns:inkscape="http://www.inkscape.org/namespaces/inkscape"
   xmlns:sodipodi="http://sodipodi.sourceforge.net/DTD/sodipodi-0.dtd"
   xmlns="http://www.w3.org/2000/svg"
   xmlns:svg="http://www.w3.org/2000/svg">
  <sodipodi:namedview
     id="namedview1343"
     pagecolor="#ffffff"
     bordercolor="#666666"
     borderopacity="1.0"
     inkscape:pageshadow="2"
     inkscape:pageopacity="0.0"
     inkscape:pagecheckerboard="0"
     inkscape:document-units="pt"
     showgrid="false"
     fit-margin-top="0"
     fit-margin-left="0"
     fit-margin-right="0"
     fit-margin-bottom="0"
     inkscape:zoom="0.42107143"
     inkscape:cx="257.676"
     inkscape:cy="442.91773"
     inkscape:window-width="1680"
     inkscape:window-height="925"
     inkscape:window-x="0"
     inkscape:window-y="23"
     inkscape:window-maximized="0"
     inkscape:current-layer="svg1341" />
  <defs
     id="defs1293" />
  <path
     d="m 192.4998,122.4996 c 4.832,0 8.75,3.918 8.75,8.75 0,4.832 -3.918,8.75 -8.75,8.75 h -140 v 52.5 h 234.53 c 2.5352,-0.47656 5.1562,0.17969 7.168,1.793 2.0118,1.61331 3.2188,4.0273 3.3008,6.6055 v 0.35156 c 0,2.3203 -0.92188,4.5469 -2.5625,6.1875 -1.64062,1.6406 -3.8672,2.5625 -6.1875,2.5625 h -245 c -2.3203,0 -4.5469,-0.92188 -6.1875,-2.5625 -1.6406,-1.64062 -2.5625,-3.8672 -2.5625,-6.1875 v -70 c 0,-2.3203 0.92188,-4.5469 2.5625,-6.1875 1.64062,-1.6406 3.8672,-2.5625 6.1875,-2.5625 z m -105,218.75 c 0,2.3203 -0.92188,4.5469 -2.5625,6.1875 -1.64062,1.6406 -3.8672,2.5625 -6.1875,2.5625 h -35 c -2.3203,0 -4.5469,-0.92188 -6.1875,-2.5625 -1.6406,-1.64062 -2.5625,-3.8672 -2.5625,-6.1875 v -35 c 0,-2.3203 0.92188,-4.5469 2.5625,-6.1875 1.64062,-1.6406 3.8672,-2.5625 6.1875,-2.5625 h 35 c 2.3203,0 4.5469,0.92188 6.1875,2.5625 1.6406,1.64062 2.5625,3.8672 2.5625,6.1875 z m -17.5,-26.25 h -17.5 v 17.5 h 17.5 z m 87.5,-43.75 c 0,2.3203 -0.92188,4.5469 -2.5625,6.1875 -1.64062,1.6406 -3.8672,2.5625 -6.1875,2.5625 h -105 c -2.3203,0 -4.5469,-0.92188 -6.1875,-2.5625 -1.6406,-1.64062 -2.5625,-3.8672 -2.5625,-6.1875 v -35 c 0,-2.3203 0.92188,-4.5469 2.5625,-6.1875 1.64062,-1.6406 3.8672,-2.5625 6.1875,-2.5625 h 105 c 2.3203,0 4.5469,0.92188 6.1875,2.5625 1.6406,1.64062 2.5625,3.8672 2.5625,6.1875 z m -17.5,-26.25 h -87.5 v 17.5 h 87.5 z m 17.5,96.25 c 0,2.3203 -0.92188,4.5469 -2.5625,6.1875 -1.64062,1.6406 -3.8672,2.5625 -6.1875,2.5625 h -35 c -2.3203,0 -4.5469,-0.92188 -6.1875,-2.5625 -1.6406,-1.64062 -2.5625,-3.8672 -2.5625,-6.1875 v -35 c 0,-2.3203 0.92188,-4.5469 2.5625,-6.1875 1.64062,-1.6406 3.8672,-2.5625 6.1875,-2.5625 h 35 c 2.3203,0 4.5469,0.92188 6.1875,2.5625 1.6406,1.64062 2.5625,3.8672 2.5625,6.1875 z m -17.5,-26.25 h -17.5 v 17.5 h 17.5 z m 87.5,26.25 c 0,2.3203 -0.92188,4.5469 -2.5625,6.1875 -1.64062,1.6406 -3.8672,2.5625 -6.1875,2.5625 h -35 c -2.3203,0 -4.5469,-0.92188 -6.1875,-2.5625 -1.6406,-1.64062 -2.5625,-3.8672 -2.5625,-6.1875 v -35 c 0,-2.3203 0.92188,-4.5469 2.5625,-6.1875 1.64062,-1.6406 3.8672,-2.5625 6.1875,-2.5625 h 35 c 2.3203,0 4.5469,0.92188 6.1875,2.5625 1.6406,1.64062 2.5625,3.8672 2.5625,6.1875 z m -17.5,-26.25 h -17.5 v 17.5 h 17.5 z m 87.5,26.25 c 0,2.3203 -0.92188,4.5469 -2.5625,6.1875 -1.64062,1.6406 -3.8672,2.5625 -6.1875,2.5625 h -35 c -2.3203,0 -4.5469,-0.92188 -6.1875,-2.5625 -1.6406,-1.64062 -2.5625,-3.8672 -2.5625,-6.1875 v -35 c 0,-2.3203 0.92188,-4.5469 2.5625,-6.1875 1.64062,-1.6406 3.8672,-2.5625 6.1875,-2.5625 h 35 c 2.3203,0 4.5469,0.92188 6.1875,2.5625 1.6406,1.64062 2.5625,3.8672 2.5625,6.1875 z m -17.5,-26.25 h -17.5 v 17.5 h 17.5 z m 17.5,-43.75 c 0,2.3203 -0.92188,4.5469 -2.5625,6.1875 -1.64062,1.6406 -3.8672,2.5625 -6.1875,2.5625 h -35 c -2.3203,0 -4.5469,-0.92188 -6.1875,-2.5625 -1.6406,-1.64062 -2.5625,-3.8672 -2.5625,-6.1875 v -35 c 0,-2.3203 0.92188,-4.5469 2.5625,-6.1875 1.64062,-1.6406 3.8672,-2.5625 6.1875,-2.5625 h 35 c 2.3203,0 4.5469,0.92188 6.1875,2.5625 1.6406,1.64062 2.5625,3.8672 2.5625,6.1875 z m -17.5,-26.25 h -17.5 v 17.5 h 17.5 z m -192.5,166.25 c 0,2.3203 -0.92188,4.5469 -2.5625,6.1875 -1.64062,1.6406 -3.8672,2.5625 -6.1875,2.5625 h -35 c -2.3203,0 -4.5469,-0.92188 -6.1875,-2.5625 -1.6406,-1.64062 -2.5625,-3.8672 -2.5625,-6.1875 v -35 c 0,-2.3203 0.92188,-4.5469 2.5625,-6.1875 1.64062,-1.6406 3.8672,-2.5625 6.1875,-2.5625 h 35 c 2.3203,0 4.5469,0.92188 6.1875,2.5625 1.6406,1.64062 2.5625,3.8672 2.5625,6.1875 z m -17.5,-26.25 h -17.5 v 17.5 h 17.5 z m 87.5,26.25 c 0,2.3203 -0.92188,4.5469 -2.5625,6.1875 -1.64062,1.6406 -3.8672,2.5625 -6.1875,2.5625 h -35 c -2.3203,0 -4.5469,-0.92188 -6.1875,-2.5625 -1.6406,-1.64062 -2.5625,-3.8672 -2.5625,-6.1875 v -35 c 0,-2.3203 0.92188,-4.5469 2.5625,-6.1875 1.64062,-1.6406 3.8672,-2.5625 6.1875,-2.5625 h 35 c 2.3203,0 4.5469,0.92188 6.1875,2.5625 1.6406,1.64062 2.5625,3.8672 2.5625,6.1875 z m -17.5,-26.25 h -17.5 v 17.5 h 17.5 z m -52.5,61.25 v 35 c 0,2.3203 -0.92188,4.5469 -2.5625,6.1875 -1.64062,1.6406 -3.8672,2.5625 -6.1875,2.5625 h -35 c -2.3203,0 -4.5469,-0.92188 -6.1875,-2.5625 -1.6406,-1.64062 -2.5625,-3.8672 -2.5625,-6.1875 v -35 c 0,-2.3203 0.92188,-4.5469 2.5625,-6.1875 1.64062,-1.6406 3.8672,-2.5625 6.1875,-2.5625 h 35 c 2.3203,0 4.5469,0.92188 6.1875,2.5625 1.6406,1.64062 2.5625,3.8672 2.5625,6.1875 z m -17.5,8.75 h -17.5 v 17.5 h 17.5 z m 87.5,-8.75 v 35 c 0,2.3203 -0.92188,4.5469 -2.5625,6.1875 -1.64062,1.6406 -3.8672,2.5625 -6.1875,2.5625 h -35 c -2.3203,0 -4.5469,-0.92188 -6.1875,-2.5625 -1.6406,-1.64062 -2.5625,-3.8672 -2.5625,-6.1875 v -35 c 0,-2.3203 0.92188,-4.5469 2.5625,-6.1875 1.64062,-1.6406 3.8672,-2.5625 6.1875,-2.5625 h 35 c 2.3203,0 4.5469,0.92188 6.1875,2.5625 1.6406,1.64062 2.5625,3.8672 2.5625,6.1875 z m -17.5,8.75 h -17.5 v 17.5 h 17.5 z m 87.5,-78.75 v 105 c 0,2.3203 -0.92188,4.5469 -2.5625,6.1875 -1.64062,1.6406 -3.8672,2.5625 -6.1875,2.5625 h -35 c -2.3203,0 -4.5469,-0.92188 -6.1875,-2.5625 -1.6406,-1.64062 -2.5625,-3.8672 -2.5625,-6.1875 v -105 c 0,-2.3203 0.92188,-4.5469 2.5625,-6.1875 1.64062,-1.6406 3.8672,-2.5625 6.1875,-2.5625 h 35 c 2.3203,0 4.5469,0.92188 6.1875,2.5625 1.6406,1.64062 2.5625,3.8672 2.5625,6.1875 z m -17.5,8.75 h -17.5 v 87.5 h 17.5 z m 87.5,-8.75 v 105 c 0,2.3203 -0.92188,4.5469 -2.5625,6.1875 -1.64062,1.6406 -3.8672,2.5625 -6.1875,2.5625 h -35 c -2.3203,0 -4.5469,-0.92188 -6.1875,-2.5625 -1.6406,-1.64062 -2.5625,-3.8672 -2.5625,-6.1875 v -105 c 0,-2.3203 0.92188,-4.5469 2.5625,-6.1875 1.64062,-1.6406 3.8672,-2.5625 6.1875,-2.5625 h 35 c 2.3203,0 4.5469,0.92188 6.1875,2.5625 1.6406,1.64062 2.5625,3.8672 2.5625,6.1875 z m -17.5,8.75 h -17.5 v 87.5 h 17.5 z m -201.25,-201.25 v -35 h -17.5 v 35 z m 26.25,0 v -35 h -17.5 v 35 z m 26.25,0 v -35 h -17.5 v 35 z m 192.5,5.6914 c -2.3203,0 -4.5469,0.91797 -6.1875,2.5625 -1.6406,1.6406 -2.5625,3.8672 -2.5625,6.1875 v 291.81 c -0.008,4.6406 -1.8516,9.0859 -5.1328,12.367 -3.2812,3.2811 -7.7266,5.125 -12.367,5.1328 H 35 c -4.6406,-0.008 -9.0859,-1.8516 -12.367,-5.1328 -3.2811,-3.2812 -5.125,-7.7266 -5.1328,-12.367 v -402.5 c 0.008,-4.6406 1.8516,-9.0859 5.1328,-12.367 3.2812,-3.2811 7.7266,-5.125 12.367,-5.1328 h 151.81 c 4.832,0 8.75,-3.918 8.75,-8.75 0,-4.832 -3.918,-8.75 -8.75,-8.75 H 35 C 25.7188,52.509 16.824,56.2004 10.262,62.7632 3.7,69.326 0.008,78.2202 0,87.5012 v 402.5 c 0.008,9.2812 3.6992,18.176 10.262,24.738 6.5628,6.562 15.457,10.254 24.738,10.262 h 262.5 c 9.2812,-0.008 18.176,-3.6992 24.738,-10.262 6.562,-6.5628 10.254,-15.457 10.262,-24.738 v -291.81 c 0,-2.3203 -0.92188,-4.5469 -2.5625,-6.1875 -1.6406,-1.6445 -3.8672,-2.5625 -6.1875,-2.5625 z M 184.1898,105 c 4.832,0 8.75,-3.918 8.75,-8.75 0,-4.832 -3.918,-8.75 -8.75,-8.75 h -114.19 c -4.832,0 -8.75,3.918 -8.75,8.75 0,4.832 3.918,8.75 8.75,8.75 z m 200.81,-17.5 c 0,23.207 -9.2188,45.461 -25.629,61.871 -16.4102,16.41 -38.664,25.629 -61.871,25.629 -23.207,0 -45.461,-9.2188 -61.871,-25.629 -16.41,-16.4102 -25.629,-38.664 -25.629,-61.871 0,-23.207 9.2188,-45.461 25.629,-61.871 C 252.039,9.219 274.2928,0 297.4998,0 c 23.199,0.02734 45.438,9.2539 61.84,25.66 16.406,16.402 25.633,38.641 25.66,61.84 z m -17.5,0 c 0,-18.566 -7.375,-36.371 -20.504,-49.496 -13.125,-13.129 -30.93,-20.504 -49.496,-20.504 -18.566,0 -36.371,7.375 -49.496,20.504 -13.129,13.125 -20.504,30.93 -20.504,49.496 0,18.566 7.375,36.371 20.504,49.496 13.125,13.129 30.93,20.504 49.496,20.504 18.559,-0.0195 36.352,-7.4023 49.473,-20.527 13.125,-13.121 20.508,-30.914 20.527,-49.473 z m -70,-32.496 c 9.4844,0 17.5,5.4336 17.5,11.867 0,4.832 3.918,8.75 8.75,8.75 4.832,0 8.75,-3.918 8.75,-8.75 -0.49609,-7.0039 -3.3672,-13.629 -8.1406,-18.781 -4.7734,-5.152 -11.16,-8.5195 -18.109,-9.543 v -3.5469 c 0,-4.832 -3.918,-8.75 -8.75,-8.75 -4.832,0 -8.75,3.918 -8.75,8.75 v 3.5469 c -6.9492,1.0234 -13.336,4.3906 -18.109,9.543 -4.773,5.1524 -7.6445,11.777 -8.1406,18.781 0,16.203 15.699,29.379 35,29.379 9.4844,0 17.5,5.4414 17.5,11.879 0,6.4336 -8.0156,11.867 -17.5,11.867 -9.4844,0 -17.5,-5.4336 -17.5,-11.867 0,-4.832 -3.918,-8.75 -8.75,-8.75 -4.832,0 -8.75,3.918 -8.75,8.75 0.49609,7.0039 3.3672,13.629 8.1406,18.781 4.7734,5.152 11.16,8.5195 18.109,9.543 v 3.5469 c 0,4.832 3.918,8.75 8.75,8.75 4.832,0 8.75,-3.918 8.75,-8.75 v -3.5469 c 6.9492,-1.0234 13.336,-4.3906 18.109,-9.543 4.773,-5.1524 7.6445,-11.777 8.1406,-18.781 0,-16.203 -15.695,-29.379 -35,-29.379 -9.4844,0 -17.5,-5.4414 -17.5,-11.879 0,-6.4336 8.0156,-11.867 17.5,-11.867 z"
     id="path1295" />
</svg>
