<?xml version="1.0" encoding="UTF-8" standalone="no"?>
<svg
   width="350.56717pt"
   height="463.74219pt"
   version="1.1"
   viewBox="0 0 350.56717 463.74219"
   id="svg1824"
   sodipodi:docname="noun-painter-5061074.svg"
   inkscape:version="1.1.2 (b8e25be8, 2022-02-05)"
   xmlns:inkscape="http://www.inkscape.org/namespaces/inkscape"
   xmlns:sodipodi="http://sodipodi.sourceforge.net/DTD/sodipodi-0.dtd"
   xmlns="http://www.w3.org/2000/svg"
   xmlns:svg="http://www.w3.org/2000/svg">
  <defs
     id="defs1828" />
  <sodipodi:namedview
     id="namedview1826"
     pagecolor="#ffffff"
     bordercolor="#666666"
     borderopacity="1.0"
     inkscape:pageshadow="2"
     inkscape:pageopacity="0.0"
     inkscape:pagecheckerboard="0"
     inkscape:document-units="pt"
     showgrid="false"
     fit-margin-top="0"
     fit-margin-left="0"
     fit-margin-right="0"
     fit-margin-bottom="0"
     inkscape:zoom="0.74892857"
     inkscape:cx="234.33476"
     inkscape:cy="402.57511"
     inkscape:window-width="1680"
     inkscape:window-height="925"
     inkscape:window-x="0"
     inkscape:window-y="23"
     inkscape:window-maximized="0"
     inkscape:current-layer="svg1824" />
  <path
     d="m 17.5,48.1126 c 0,-5.793 3.7617,-10.711 8.9609,-12.441 v 24.887 C 21.2617,58.8242 17.5,53.9102 17.5,48.1176 m -17.5,0 c 0,16.258 12.672,29.559 28.664,30.555 4.3242,10.324 14.508,17.57 26.391,17.57 h 222.62 c 15.785,0 28.578,-12.793 28.578,-28.578 v -10.797 h 18.219 c 4.7422,0 8.5938,3.8516 8.5938,8.5938 v 45.289 c 0,3.5156 -2.1523,6.668 -5.4062,7.9805 -38.254,15.297 -164.1,65.641 -164.1,65.641 -3.3242,1.3281 -5.4961,4.5508 -5.4961,8.1211 v 26.461 h -26.25 c -2.8164,0 -5.4609,1.3477 -7.1055,3.6406 -1.6446,2.2929 -2.082,5.2148 -1.1914,7.8906 l 17.047,50.926 v 155.96 c 0,14.559 11.797,26.371 26.371,26.371 h 0.98047 c 13.895,0 25.148,-11.254 25.148,-25.148 v -157.18 l 17.047,-50.926 c 0.89062,-2.6758 0.4375,-5.6016 -1.1914,-7.8906 -1.6445,-2.293 -4.2891,-3.6406 -7.1055,-3.6406 h -26.25 V 198.43 c 0,0 158.59,-63.453 158.59,-63.453 9.9219,-3.9531 16.414,-13.547 16.414,-24.219 V 65.469 c 0,-14.402 -11.691,-26.094 -26.094,-26.094 h -18.219 V 28.578 C 306.25417,12.793 293.46117,0 277.67617,0 h -222.62 c -11.883,0 -22.066,7.2461 -26.391,17.57 -15.996,0.99609 -28.664,14.297 -28.664,30.555"
     fill-rule="evenodd"
     id="path1822" />
</svg>
