<?xml version="1.0" encoding="utf-8"?><svg xmlns="http://www.w3.org/2000/svg" xmlns:xlink="http://www.w3.org/1999/xlink" class="qr-svg qrcode" viewBox="0 0 400 400" preserveAspectRatio="xMinYMin"><rect x="0" y="0" width="400" height="400" fill="#ffffff" /><defs><style type="text/css"><![CDATA[.light { fill: none; } ]]></style>
</defs><symbol id="symbol-data" class="qrcode-symbol data"><path class="" d="M137.93103448276,0 m0,13.793103448276 h13.793103448276 v-13.793103448276 h-8.2758620689655 q-5.5172413793103,0 -5.5172413793103,5.5172413793103Z  M151.72413793103 0 h13.793103448276 v13.793103448276 h-13.793103448276Z  M165.51724137931 0 h13.793103448276 v13.793103448276 h-13.793103448276Z  M179.31034482759,0 h8.2758620689655 q5.5172413793103,0 5.5172413793103,5.5172413793103 v8.2758620689655 h-13.793103448276Z M193.10344827586,0 m0,13.793103448276 v-5.5172413793103 q0,5.5172413793103 5.5172413793103,5.5172413793103Z  M220.68965517241,0 m0,13.793103448276 h13.793103448276 v-5.5172413793103 q0,-5.5172413793103 -5.5172413793103,-5.5172413793103 h-2.7586206896552 q-5.5172413793103,0 -5.5172413793103,5.5172413793103Z M234.48275862069,0 m0,13.793103448276 v-5.5172413793103 q0,5.5172413793103 5.5172413793103,5.5172413793103Z  M262.06896551724,0 m13.793103448276,13.793103448276 v-13.793103448276 h-8.2758620689655 q-5.5172413793103,0 -5.5172413793103,5.5172413793103 v2.7586206896552 q0,5.5172413793103 5.5172413793103,5.5172413793103Z M262.06896551724,13.793103448276 m13.793103448276,0 v5.5172413793103 q0,-5.5172413793103 -5.5172413793103,-5.5172413793103Z M262.06896551724,13.793103448276 m13.793103448276,13.793103448276 h-5.5172413793103 q5.5172413793103,0 5.5172413793103,-5.5172413793103Z  M275.86206896552,0 h8.2758620689655 q5.5172413793103,0 5.5172413793103,5.5172413793103 v8.2758620689655 h-13.793103448276Z  M110.34482758621,13.793103448276 m0,13.793103448276 h13.793103448276 v-5.5172413793103 q0,-5.5172413793103 -5.5172413793103,-5.5172413793103 h-2.7586206896552 q-5.5172413793103,0 -5.5172413793103,5.5172413793103Z  M137.93103448276,13.793103448276 v8.2758620689655 q0,5.5172413793103 5.5172413793103,5.5172413793103 h8.2758620689655 v-13.793103448276Z M137.93103448276,27.586206896552 m13.793103448276,0 v5.5172413793103 q0,-5.5172413793103 -5.5172413793103,-5.5172413793103Z  M151.72413793103 13.793103448276 h13.793103448276 v13.793103448276 h-13.793103448276Z  M165.51724137931 13.793103448276 h13.793103448276 v13.793103448276 h-13.793103448276Z  M179.31034482759 13.793103448276 h13.793103448276 v13.793103448276 h-13.793103448276Z M193.10344827586,27.586206896552 h5.5172413793103 q-5.5172413793103,0 -5.5172413793103,5.5172413793103Z  M193.10344827586,13.793103448276 h8.2758620689655 q5.5172413793103,0 5.5172413793103,5.5172413793103 v2.7586206896552 q0,5.5172413793103 -5.5172413793103,5.5172413793103 h-8.2758620689655Z  M220.68965517241,13.793103448276 v8.2758620689655 q0,5.5172413793103 5.5172413793103,5.5172413793103 h8.2758620689655 v-13.793103448276Z M220.68965517241,27.586206896552 m13.793103448276,0 v5.5172413793103 q0,-5.5172413793103 -5.5172413793103,-5.5172413793103Z M220.68965517241,27.586206896552 m13.793103448276,13.793103448276 h-5.5172413793103 q5.5172413793103,0 5.5172413793103,-5.5172413793103Z  M234.48275862069 13.793103448276 h13.793103448276 v13.793103448276 h-13.793103448276Z M248.27586206897,27.586206896552 h5.5172413793103 q-5.5172413793103,0 -5.5172413793103,5.5172413793103Z  M248.27586206897,13.793103448276 h8.2758620689655 q5.5172413793103,0 5.5172413793103,5.5172413793103 v2.7586206896552 q0,5.5172413793103 -5.5172413793103,5.5172413793103 h-8.2758620689655Z  M275.86206896552 13.793103448276 h13.793103448276 v13.793103448276 h-13.793103448276Z  M110.34482758621 27.586206896552 h13.793103448276 v13.793103448276 h-13.793103448276Z  M151.72413793103,27.586206896552 v8.2758620689655 q0,5.5172413793103 5.5172413793103,5.5172413793103 h8.2758620689655 v-13.793103448276Z M151.72413793103,41.379310344828 m13.793103448276,0 v5.5172413793103 q0,-5.5172413793103 -5.5172413793103,-5.5172413793103Z  M165.51724137931 27.586206896552 h13.793103448276 v13.793103448276 h-13.793103448276Z  M179.31034482759 27.586206896552 h13.793103448276 v13.793103448276 h-13.793103448276Z  M234.48275862069 27.586206896552 h13.793103448276 v13.793103448276 h-13.793103448276Z  M262.06896551724,27.586206896552 m13.793103448276,13.793103448276 v-13.793103448276 h-8.2758620689655 q-5.5172413793103,0 -5.5172413793103,5.5172413793103 v2.7586206896552 q0,5.5172413793103 5.5172413793103,5.5172413793103Z  M275.86206896552,27.586206896552 h13.793103448276 v8.2758620689655 q0,5.5172413793103 -5.5172413793103,5.5172413793103 h-8.2758620689655Z  M110.34482758621 41.379310344828 h13.793103448276 v13.793103448276 h-13.793103448276Z  M137.93103448276,41.379310344828 m0,13.793103448276 h13.793103448276 v-5.5172413793103 q0,-5.5172413793103 -5.5172413793103,-5.5172413793103 h-2.7586206896552 q-5.5172413793103,0 -5.5172413793103,5.5172413793103Z M151.72413793103,55.172413793103 m0,13.793103448276 v-5.5172413793103 q0,5.5172413793103 5.5172413793103,5.5172413793103Z  M165.51724137931 41.379310344828 h13.793103448276 v13.793103448276 h-13.793103448276Z M179.31034482759,55.172413793103 h5.5172413793103 q-5.5172413793103,0 -5.5172413793103,5.5172413793103Z  M179.31034482759,41.379310344828 h13.793103448276 v8.2758620689655 q0,5.5172413793103 -5.5172413793103,5.5172413793103 h-8.2758620689655Z  M206.89655172414,41.379310344828 m13.793103448276,13.793103448276 v-13.793103448276 h-8.2758620689655 q-5.5172413793103,0 -5.5172413793103,5.5172413793103 v2.7586206896552 q0,5.5172413793103 5.5172413793103,5.5172413793103Z  M220.68965517241 41.379310344828 h13.793103448276 v13.793103448276 h-13.793103448276Z M234.48275862069,55.172413793103 m13.793103448276,13.793103448276 h-5.5172413793103 q5.5172413793103,0 5.5172413793103,-5.5172413793103Z  M234.48275862069,41.379310344828 h13.793103448276 v8.2758620689655 q0,5.5172413793103 -5.5172413793103,5.5172413793103 h-8.2758620689655Z  M110.34482758621 55.172413793103 h13.793103448276 v13.793103448276 h-13.793103448276Z  M137.93103448276 55.172413793103 h13.793103448276 v13.793103448276 h-13.793103448276Z  M165.51724137931,55.172413793103 v8.2758620689655 q0,5.5172413793103 5.5172413793103,5.5172413793103 h2.7586206896552 q5.5172413793103,0 5.5172413793103,-5.5172413793103 v-8.2758620689655Z  M193.10344827586,55.172413793103 m0,13.793103448276 h13.793103448276 v-5.5172413793103 q0,-5.5172413793103 -5.5172413793103,-5.5172413793103 h-2.7586206896552 q-5.5172413793103,0 -5.5172413793103,5.5172413793103Z  M248.27586206897,55.172413793103 m0,13.793103448276 h13.793103448276 v-5.5172413793103 q0,-5.5172413793103 -5.5172413793103,-5.5172413793103 h-2.7586206896552 q-5.5172413793103,0 -5.5172413793103,5.5172413793103Z  M110.34482758621 68.965517241379 h13.793103448276 v13.793103448276 h-13.793103448276Z  M137.93103448276 68.965517241379 h13.793103448276 v13.793103448276 h-13.793103448276Z M151.72413793103,82.758620689655 h5.5172413793103 q-5.5172413793103,0 -5.5172413793103,5.5172413793103Z  M151.72413793103,68.965517241379 h8.2758620689655 q5.5172413793103,0 5.5172413793103,5.5172413793103 v2.7586206896552 q0,5.5172413793103 -5.5172413793103,5.5172413793103 h-8.2758620689655Z  M193.10344827586 68.965517241379 h13.793103448276 v13.793103448276 h-13.793103448276Z  M220.68965517241,68.965517241379 m0,13.793103448276 h13.793103448276 v-13.793103448276 h-8.2758620689655 q-5.5172413793103,0 -5.5172413793103,5.5172413793103Z M234.48275862069,82.758620689655 h5.5172413793103 q-5.5172413793103,0 -5.5172413793103,5.5172413793103Z M234.48275862069,82.758620689655 m13.793103448276,0 v5.5172413793103 q0,-5.5172413793103 -5.5172413793103,-5.5172413793103Z  M234.48275862069 68.965517241379 h13.793103448276 v13.793103448276 h-13.793103448276Z  M248.27586206897 68.965517241379 h13.793103448276 v13.793103448276 h-13.793103448276Z  M275.86206896552,68.965517241379 m0,13.793103448276 h13.793103448276 v-5.5172413793103 q0,-5.5172413793103 -5.5172413793103,-5.5172413793103 h-2.7586206896552 q-5.5172413793103,0 -5.5172413793103,5.5172413793103Z  M110.34482758621,82.758620689655 v8.2758620689655 q0,5.5172413793103 5.5172413793103,5.5172413793103 h2.7586206896552 q5.5172413793103,0 5.5172413793103,-5.5172413793103 v-8.2758620689655Z  M137.93103448276,82.758620689655 v8.2758620689655 q0,5.5172413793103 5.5172413793103,5.5172413793103 h2.7586206896552 q5.5172413793103,0 5.5172413793103,-5.5172413793103 v-8.2758620689655Z  M165.51724137931,82.758620689655 m0,5.5172413793103 v2.7586206896552 q0,5.5172413793103 5.5172413793103,5.5172413793103 h2.7586206896552 q5.5172413793103,0 5.5172413793103,-5.5172413793103 v-2.7586206896552 q0,-5.5172413793103 -5.5172413793103,-5.5172413793103 h-2.7586206896552 q-5.5172413793103,0 -5.5172413793103,5.5172413793103Z M165.51724137931,96.551724137931 m13.793103448276,13.793103448276 h-5.5172413793103 q5.5172413793103,0 5.5172413793103,-5.5172413793103Z  M193.10344827586,82.758620689655 v8.2758620689655 q0,5.5172413793103 5.5172413793103,5.5172413793103 h2.7586206896552 q5.5172413793103,0 5.5172413793103,-5.5172413793103 v-8.2758620689655Z M193.10344827586,96.551724137931 m0,13.793103448276 v-5.5172413793103 q0,5.5172413793103 5.5172413793103,5.5172413793103Z  M220.68965517241,82.758620689655 v8.2758620689655 q0,5.5172413793103 5.5172413793103,5.5172413793103 h2.7586206896552 q5.5172413793103,0 5.5172413793103,-5.5172413793103 v-8.2758620689655Z  M248.27586206897,82.758620689655 v8.2758620689655 q0,5.5172413793103 5.5172413793103,5.5172413793103 h2.7586206896552 q5.5172413793103,0 5.5172413793103,-5.5172413793103 v-8.2758620689655Z  M275.86206896552 82.758620689655 h13.793103448276 v13.793103448276 h-13.793103448276Z M289.65517241379,96.551724137931 m0,13.793103448276 v-5.5172413793103 q0,5.5172413793103 5.5172413793103,5.5172413793103Z  M124.13793103448,96.551724137931 m0,5.5172413793103 v2.7586206896552 q0,5.5172413793103 5.5172413793103,5.5172413793103 h2.7586206896552 q5.5172413793103,0 5.5172413793103,-5.5172413793103 v-2.7586206896552 q0,-5.5172413793103 -5.5172413793103,-5.5172413793103 h-2.7586206896552 q-5.5172413793103,0 -5.5172413793103,5.5172413793103Z M124.13793103448,110.34482758621 m0,13.793103448276 v-5.5172413793103 q0,5.5172413793103 5.5172413793103,5.5172413793103Z  M179.31034482759,96.551724137931 m0,13.793103448276 h13.793103448276 v-5.5172413793103 q0,-5.5172413793103 -5.5172413793103,-5.5172413793103 h-2.7586206896552 q-5.5172413793103,0 -5.5172413793103,5.5172413793103Z  M206.89655172414,96.551724137931 m0,5.5172413793103 v2.7586206896552 q0,5.5172413793103 5.5172413793103,5.5172413793103 h2.7586206896552 q5.5172413793103,0 5.5172413793103,-5.5172413793103 v-2.7586206896552 q0,-5.5172413793103 -5.5172413793103,-5.5172413793103 h-2.7586206896552 q-5.5172413793103,0 -5.5172413793103,5.5172413793103Z  M234.48275862069,96.551724137931 m0,13.793103448276 h13.793103448276 v-5.5172413793103 q0,-5.5172413793103 -5.5172413793103,-5.5172413793103 h-2.7586206896552 q-5.5172413793103,0 -5.5172413793103,5.5172413793103Z  M275.86206896552 96.551724137931 h13.793103448276 v13.793103448276 h-13.793103448276Z  M27.586206896552,110.34482758621 m0,5.5172413793103 v2.7586206896552 q0,5.5172413793103 5.5172413793103,5.5172413793103 h2.7586206896552 q5.5172413793103,0 5.5172413793103,-5.5172413793103 v-2.7586206896552 q0,-5.5172413793103 -5.5172413793103,-5.5172413793103 h-2.7586206896552 q-5.5172413793103,0 -5.5172413793103,5.5172413793103Z M27.586206896552,124.13793103448 m13.793103448276,13.793103448276 h-5.5172413793103 q5.5172413793103,0 5.5172413793103,-5.5172413793103Z  M68.965517241379,110.34482758621 m0,13.793103448276 h13.793103448276 v-13.793103448276 h-8.2758620689655 q-5.5172413793103,0 -5.5172413793103,5.5172413793103Z M82.758620689655,124.13793103448 h5.5172413793103 q-5.5172413793103,0 -5.5172413793103,5.5172413793103Z M82.758620689655,124.13793103448 m13.793103448276,0 v5.5172413793103 q0,-5.5172413793103 -5.5172413793103,-5.5172413793103Z M82.758620689655,124.13793103448 m13.793103448276,13.793103448276 h-5.5172413793103 q5.5172413793103,0 5.5172413793103,-5.5172413793103Z M55.172413793103,124.13793103448 m0,13.793103448276 v-5.5172413793103 q0,5.5172413793103 5.5172413793103,5.5172413793103Z  M82.758620689655 110.34482758621 h13.793103448276 v13.793103448276 h-13.793103448276Z  M96.551724137931 110.34482758621 h13.793103448276 v13.793103448276 h-13.793103448276Z  M110.34482758621,110.34482758621 h8.2758620689655 q5.5172413793103,0 5.5172413793103,5.5172413793103 v8.2758620689655 h-13.793103448276Z  M151.72413793103,110.34482758621 m13.793103448276,13.793103448276 v-13.793103448276 h-8.2758620689655 q-5.5172413793103,0 -5.5172413793103,5.5172413793103 v2.7586206896552 q0,5.5172413793103 5.5172413793103,5.5172413793103Z  M165.51724137931 110.34482758621 h13.793103448276 v13.793103448276 h-13.793103448276Z  M179.31034482759 110.34482758621 h13.793103448276 v13.793103448276 h-13.793103448276Z  M193.10344827586,110.34482758621 h8.2758620689655 q5.5172413793103,0 5.5172413793103,5.5172413793103 v2.7586206896552 q0,5.5172413793103 -5.5172413793103,5.5172413793103 h-8.2758620689655Z  M234.48275862069 110.34482758621 h13.793103448276 v13.793103448276 h-13.793103448276Z M220.68965517241,124.13793103448 m13.793103448276,13.793103448276 h-5.5172413793103 q5.5172413793103,0 5.5172413793103,-5.5172413793103Z  M275.86206896552 110.34482758621 h13.793103448276 v13.793103448276 h-13.793103448276Z M289.65517241379,124.13793103448 h5.5172413793103 q-5.5172413793103,0 -5.5172413793103,5.5172413793103Z M289.65517241379,124.13793103448 m0,13.793103448276 v-5.5172413793103 q0,5.5172413793103 5.5172413793103,5.5172413793103Z  M289.65517241379,110.34482758621 h8.2758620689655 q5.5172413793103,0 5.5172413793103,5.5172413793103 v2.7586206896552 q0,5.5172413793103 -5.5172413793103,5.5172413793103 h-8.2758620689655Z M303.44827586207,110.34482758621 m13.793103448276,13.793103448276 h-5.5172413793103 q5.5172413793103,0 5.5172413793103,-5.5172413793103Z  M317.24137931034,110.34482758621 m0,13.793103448276 h13.793103448276 v-13.793103448276 h-8.2758620689655 q-5.5172413793103,0 -5.5172413793103,5.5172413793103Z M331.03448275862,124.13793103448 h5.5172413793103 q-5.5172413793103,0 -5.5172413793103,5.5172413793103Z M331.03448275862,124.13793103448 m0,13.793103448276 v-5.5172413793103 q0,5.5172413793103 5.5172413793103,5.5172413793103Z  M331.03448275862 110.34482758621 h13.793103448276 v13.793103448276 h-13.793103448276Z  M344.8275862069 110.34482758621 h13.793103448276 v13.793103448276 h-13.793103448276Z  M358.62068965517 110.34482758621 h13.793103448276 v13.793103448276 h-13.793103448276Z  M372.41379310345,110.34482758621 h8.2758620689655 q5.5172413793103,0 5.5172413793103,5.5172413793103 v2.7586206896552 q0,5.5172413793103 -5.5172413793103,5.5172413793103 h-8.2758620689655Z  M41.379310344828,124.13793103448 m0,13.793103448276 h13.793103448276 v-5.5172413793103 q0,-5.5172413793103 -5.5172413793103,-5.5172413793103 h-2.7586206896552 q-5.5172413793103,0 -5.5172413793103,5.5172413793103Z  M68.965517241379,124.13793103448 v8.2758620689655 q0,5.5172413793103 5.5172413793103,5.5172413793103 h2.7586206896552 q5.5172413793103,0 5.5172413793103,-5.5172413793103 v-8.2758620689655Z  M96.551724137931 124.13793103448 h13.793103448276 v13.793103448276 h-13.793103448276Z M110.34482758621,137.93103448276 h5.5172413793103 q-5.5172413793103,0 -5.5172413793103,5.5172413793103Z  M110.34482758621 124.13793103448 h13.793103448276 v13.793103448276 h-13.793103448276Z  M124.13793103448,124.13793103448 h8.2758620689655 q5.5172413793103,0 5.5172413793103,5.5172413793103 v2.7586206896552 q0,5.5172413793103 -5.5172413793103,5.5172413793103 h-8.2758620689655Z  M234.48275862069 124.13793103448 h13.793103448276 v13.793103448276 h-13.793103448276Z  M275.86206896552 124.13793103448 h13.793103448276 v13.793103448276 h-13.793103448276Z M262.06896551724,137.93103448276 m13.793103448276,13.793103448276 h-5.5172413793103 q5.5172413793103,0 5.5172413793103,-5.5172413793103Z  M303.44827586207,124.13793103448 m13.793103448276,13.793103448276 v-13.793103448276 h-8.2758620689655 q-5.5172413793103,0 -5.5172413793103,5.5172413793103 v2.7586206896552 q0,5.5172413793103 5.5172413793103,5.5172413793103Z M303.44827586207,137.93103448276 m13.793103448276,0 v5.5172413793103 q0,-5.5172413793103 -5.5172413793103,-5.5172413793103Z M303.44827586207,137.93103448276 m13.793103448276,13.793103448276 h-5.5172413793103 q5.5172413793103,0 5.5172413793103,-5.5172413793103Z M303.44827586207,137.93103448276 m0,13.793103448276 v-5.5172413793103 q0,5.5172413793103 5.5172413793103,5.5172413793103Z  M317.24137931034 124.13793103448 h13.793103448276 v13.793103448276 h-13.793103448276Z  M0,137.93103448276 m0,5.5172413793103 v2.7586206896552 q0,5.5172413793103 5.5172413793103,5.5172413793103 h2.7586206896552 q5.5172413793103,0 5.5172413793103,-5.5172413793103 v-2.7586206896552 q0,-5.5172413793103 -5.5172413793103,-5.5172413793103 h-2.7586206896552 q-5.5172413793103,0 -5.5172413793103,5.5172413793103Z  M27.586206896552,137.93103448276 m13.793103448276,13.793103448276 v-13.793103448276 h-8.2758620689655 q-5.5172413793103,0 -5.5172413793103,5.5172413793103 v2.7586206896552 q0,5.5172413793103 5.5172413793103,5.5172413793103Z M41.379310344828,151.72413793103 m13.793103448276,0 v5.5172413793103 q0,-5.5172413793103 -5.5172413793103,-5.5172413793103Z M41.379310344828,151.72413793103 m13.793103448276,13.793103448276 h-5.5172413793103 q5.5172413793103,0 5.5172413793103,-5.5172413793103Z  M41.379310344828 137.93103448276 h13.793103448276 v13.793103448276 h-13.793103448276Z  M55.172413793103,137.93103448276 h8.2758620689655 q5.5172413793103,0 5.5172413793103,5.5172413793103 v8.2758620689655 h-13.793103448276Z M68.965517241379,151.72413793103 m0,13.793103448276 v-5.5172413793103 q0,5.5172413793103 5.5172413793103,5.5172413793103Z  M82.758620689655,137.93103448276 m13.793103448276,13.793103448276 v-13.793103448276 h-8.2758620689655 q-5.5172413793103,0 -5.5172413793103,5.5172413793103 v2.7586206896552 q0,5.5172413793103 5.5172413793103,5.5172413793103Z  M96.551724137931,137.93103448276 h13.793103448276 v8.2758620689655 q0,5.5172413793103 -5.5172413793103,5.5172413793103 h-8.2758620689655Z  M137.93103448276,137.93103448276 m0,13.793103448276 h13.793103448276 v-13.793103448276 h-8.2758620689655 q-5.5172413793103,0 -5.5172413793103,5.5172413793103Z  M151.72413793103,137.93103448276 h8.2758620689655 q5.5172413793103,0 5.5172413793103,5.5172413793103 v8.2758620689655 h-13.793103448276Z M165.51724137931,137.93103448276 m0,13.793103448276 v-5.5172413793103 q0,5.5172413793103 5.5172413793103,5.5172413793103Z  M179.31034482759,137.93103448276 m13.793103448276,13.793103448276 v-13.793103448276 h-8.2758620689655 q-5.5172413793103,0 -5.5172413793103,5.5172413793103 v2.7586206896552 q0,5.5172413793103 5.5172413793103,5.5172413793103Z  M193.10344827586,137.93103448276 h8.2758620689655 q5.5172413793103,0 5.5172413793103,5.5172413793103 v2.7586206896552 q0,5.5172413793103 -5.5172413793103,5.5172413793103 h-8.2758620689655Z  M220.68965517241,137.93103448276 m13.793103448276,13.793103448276 v-13.793103448276 h-8.2758620689655 q-5.5172413793103,0 -5.5172413793103,5.5172413793103 v2.7586206896552 q0,5.5172413793103 5.5172413793103,5.5172413793103Z M220.68965517241,151.72413793103 m13.793103448276,0 v5.5172413793103 q0,-5.5172413793103 -5.5172413793103,-5.5172413793103Z  M234.48275862069 137.93103448276 h13.793103448276 v13.793103448276 h-13.793103448276Z  M275.86206896552 137.93103448276 h13.793103448276 v13.793103448276 h-13.793103448276Z  M289.65517241379,137.93103448276 h8.2758620689655 q5.5172413793103,0 5.5172413793103,5.5172413793103 v8.2758620689655 h-13.793103448276Z  M317.24137931034 137.93103448276 h13.793103448276 v13.793103448276 h-13.793103448276Z M331.03448275862,151.72413793103 h5.5172413793103 q-5.5172413793103,0 -5.5172413793103,5.5172413793103Z  M331.03448275862 137.93103448276 h13.793103448276 v13.793103448276 h-13.793103448276Z  M344.8275862069,137.93103448276 h8.2758620689655 q5.5172413793103,0 5.5172413793103,5.5172413793103 v2.7586206896552 q0,5.5172413793103 -5.5172413793103,5.5172413793103 h-8.2758620689655Z  M386.20689655172,137.93103448276 m0,13.793103448276 h13.793103448276 v-5.5172413793103 q0,-5.5172413793103 -5.5172413793103,-5.5172413793103 h-2.7586206896552 q-5.5172413793103,0 -5.5172413793103,5.5172413793103Z  M13.793103448276,151.72413793103 m0,5.5172413793103 v2.7586206896552 q0,5.5172413793103 5.5172413793103,5.5172413793103 h2.7586206896552 q5.5172413793103,0 5.5172413793103,-5.5172413793103 v-2.7586206896552 q0,-5.5172413793103 -5.5172413793103,-5.5172413793103 h-2.7586206896552 q-5.5172413793103,0 -5.5172413793103,5.5172413793103Z  M55.172413793103 151.72413793103 h13.793103448276 v13.793103448276 h-13.793103448276Z  M110.34482758621,151.72413793103 m0,5.5172413793103 v2.7586206896552 q0,5.5172413793103 5.5172413793103,5.5172413793103 h2.7586206896552 q5.5172413793103,0 5.5172413793103,-5.5172413793103 v-2.7586206896552 q0,-5.5172413793103 -5.5172413793103,-5.5172413793103 h-2.7586206896552 q-5.5172413793103,0 -5.5172413793103,5.5172413793103Z  M137.93103448276 151.72413793103 h13.793103448276 v13.793103448276 h-13.793103448276Z  M151.72413793103 151.72413793103 h13.793103448276 v13.793103448276 h-13.793103448276Z  M165.51724137931,151.72413793103 h8.2758620689655 q5.5172413793103,0 5.5172413793103,5.5172413793103 v8.2758620689655 h-13.793103448276Z M179.31034482759,165.51724137931 m13.793103448276,13.793103448276 h-5.5172413793103 q5.5172413793103,0 5.5172413793103,-5.5172413793103Z  M234.48275862069 151.72413793103 h13.793103448276 v13.793103448276 h-13.793103448276Z  M262.06896551724,151.72413793103 m13.793103448276,13.793103448276 v-13.793103448276 h-8.2758620689655 q-5.5172413793103,0 -5.5172413793103,5.5172413793103 v2.7586206896552 q0,5.5172413793103 5.5172413793103,5.5172413793103Z M262.06896551724,165.51724137931 m13.793103448276,0 v5.5172413793103 q0,-5.5172413793103 -5.5172413793103,-5.5172413793103Z M262.06896551724,165.51724137931 m13.793103448276,13.793103448276 h-5.5172413793103 q5.5172413793103,0 5.5172413793103,-5.5172413793103Z  M275.86206896552 151.72413793103 h13.793103448276 v13.793103448276 h-13.793103448276Z  M289.65517241379 151.72413793103 h13.793103448276 v13.793103448276 h-13.793103448276Z  M303.44827586207 151.72413793103 h13.793103448276 v13.793103448276 h-13.793103448276Z  M317.24137931034 151.72413793103 h13.793103448276 v13.793103448276 h-13.793103448276Z  M386.20689655172 151.72413793103 h13.793103448276 v13.793103448276 h-13.793103448276Z  M27.586206896552,165.51724137931 m13.793103448276,13.793103448276 v-13.793103448276 h-8.2758620689655 q-5.5172413793103,0 -5.5172413793103,5.5172413793103 v2.7586206896552 q0,5.5172413793103 5.5172413793103,5.5172413793103Z  M41.379310344828 165.51724137931 h13.793103448276 v13.793103448276 h-13.793103448276Z  M55.172413793103 165.51724137931 h13.793103448276 v13.793103448276 h-13.793103448276Z  M68.965517241379 165.51724137931 h13.793103448276 v13.793103448276 h-13.793103448276Z  M82.758620689655 165.51724137931 h13.793103448276 v13.793103448276 h-13.793103448276Z  M96.551724137931,165.51724137931 h8.2758620689655 q5.5172413793103,0 5.5172413793103,5.5172413793103 v2.7586206896552 q0,5.5172413793103 -5.5172413793103,5.5172413793103 h-8.2758620689655Z  M137.93103448276,165.51724137931 v8.2758620689655 q0,5.5172413793103 5.5172413793103,5.5172413793103 h8.2758620689655 v-13.793103448276Z  M151.72413793103 165.51724137931 h13.793103448276 v13.793103448276 h-13.793103448276Z  M165.51724137931,165.51724137931 h13.793103448276 v8.2758620689655 q0,5.5172413793103 -5.5172413793103,5.5172413793103 h-8.2758620689655Z  M193.10344827586,165.51724137931 m0,13.793103448276 h13.793103448276 v-13.793103448276 h-8.2758620689655 q-5.5172413793103,0 -5.5172413793103,5.5172413793103Z M206.89655172414,179.31034482759 h5.5172413793103 q-5.5172413793103,0 -5.5172413793103,5.5172413793103Z M206.89655172414,179.31034482759 m13.793103448276,13.793103448276 h-5.5172413793103 q5.5172413793103,0 5.5172413793103,-5.5172413793103Z  M206.89655172414,165.51724137931 h8.2758620689655 q5.5172413793103,0 5.5172413793103,5.5172413793103 v2.7586206896552 q0,5.5172413793103 -5.5172413793103,5.5172413793103 h-8.2758620689655Z  M234.48275862069,165.51724137931 v8.2758620689655 q0,5.5172413793103 5.5172413793103,5.5172413793103 h2.7586206896552 q5.5172413793103,0 5.5172413793103,-5.5172413793103 v-8.2758620689655Z M234.48275862069,179.31034482759 m0,13.793103448276 v-5.5172413793103 q0,5.5172413793103 5.5172413793103,5.5172413793103Z  M275.86206896552 165.51724137931 h13.793103448276 v13.793103448276 h-13.793103448276Z M289.65517241379,179.31034482759 h5.5172413793103 q-5.5172413793103,0 -5.5172413793103,5.5172413793103Z M289.65517241379,179.31034482759 m13.793103448276,0 v5.5172413793103 q0,-5.5172413793103 -5.5172413793103,-5.5172413793103Z  M289.65517241379 165.51724137931 h13.793103448276 v13.793103448276 h-13.793103448276Z  M303.44827586207 165.51724137931 h13.793103448276 v13.793103448276 h-13.793103448276Z M317.24137931034,179.31034482759 h5.5172413793103 q-5.5172413793103,0 -5.5172413793103,5.5172413793103Z M317.24137931034,179.31034482759 m0,13.793103448276 v-5.5172413793103 q0,5.5172413793103 5.5172413793103,5.5172413793103Z  M317.24137931034,165.51724137931 h13.793103448276 v8.2758620689655 q0,5.5172413793103 -5.5172413793103,5.5172413793103 h-8.2758620689655Z  M344.8275862069,165.51724137931 m0,5.5172413793103 v2.7586206896552 q0,5.5172413793103 5.5172413793103,5.5172413793103 h2.7586206896552 q5.5172413793103,0 5.5172413793103,-5.5172413793103 v-2.7586206896552 q0,-5.5172413793103 -5.5172413793103,-5.5172413793103 h-2.7586206896552 q-5.5172413793103,0 -5.5172413793103,5.5172413793103Z  M386.20689655172,165.51724137931 v8.2758620689655 q0,5.5172413793103 5.5172413793103,5.5172413793103 h2.7586206896552 q5.5172413793103,0 5.5172413793103,-5.5172413793103 v-8.2758620689655Z  M13.793103448276,179.31034482759 m0,13.793103448276 h13.793103448276 v-5.5172413793103 q0,-5.5172413793103 -5.5172413793103,-5.5172413793103 h-2.7586206896552 q-5.5172413793103,0 -5.5172413793103,5.5172413793103Z M27.586206896552,193.10344827586 m0,13.793103448276 v-5.5172413793103 q0,5.5172413793103 5.5172413793103,5.5172413793103Z  M124.13793103448,179.31034482759 m0,13.793103448276 h13.793103448276 v-5.5172413793103 q0,-5.5172413793103 -5.5172413793103,-5.5172413793103 h-2.7586206896552 q-5.5172413793103,0 -5.5172413793103,5.5172413793103Z M137.93103448276,193.10344827586 m13.793103448276,13.793103448276 h-5.5172413793103 q5.5172413793103,0 5.5172413793103,-5.5172413793103Z M137.93103448276,193.10344827586 m0,13.793103448276 v-5.5172413793103 q0,5.5172413793103 5.5172413793103,5.5172413793103Z  M179.31034482759,179.31034482759 m13.793103448276,13.793103448276 v-13.793103448276 h-8.2758620689655 q-5.5172413793103,0 -5.5172413793103,5.5172413793103 v2.7586206896552 q0,5.5172413793103 5.5172413793103,5.5172413793103Z M193.10344827586,193.10344827586 m13.793103448276,13.793103448276 h-5.5172413793103 q5.5172413793103,0 5.5172413793103,-5.5172413793103Z  M193.10344827586,179.31034482759 h13.793103448276 v8.2758620689655 q0,5.5172413793103 -5.5172413793103,5.5172413793103 h-8.2758620689655Z  M220.68965517241,179.31034482759 m0,13.793103448276 h13.793103448276 v-5.5172413793103 q0,-5.5172413793103 -5.5172413793103,-5.5172413793103 h-2.7586206896552 q-5.5172413793103,0 -5.5172413793103,5.5172413793103Z  M262.06896551724,179.31034482759 m0,13.793103448276 h13.793103448276 v-13.793103448276 h-8.2758620689655 q-5.5172413793103,0 -5.5172413793103,5.5172413793103Z M275.86206896552,193.10344827586 h5.5172413793103 q-5.5172413793103,0 -5.5172413793103,5.5172413793103Z  M275.86206896552,179.31034482759 h13.793103448276 v8.2758620689655 q0,5.5172413793103 -5.5172413793103,5.5172413793103 h-8.2758620689655Z  M303.44827586207 179.31034482759 h13.793103448276 v13.793103448276 h-13.793103448276Z  M372.41379310345,179.31034482759 m0,5.5172413793103 v2.7586206896552 q0,5.5172413793103 5.5172413793103,5.5172413793103 h2.7586206896552 q5.5172413793103,0 5.5172413793103,-5.5172413793103 v-2.7586206896552 q0,-5.5172413793103 -5.5172413793103,-5.5172413793103 h-2.7586206896552 q-5.5172413793103,0 -5.5172413793103,5.5172413793103Z  M13.793103448276 193.10344827586 h13.793103448276 v13.793103448276 h-13.793103448276Z  M55.172413793103,193.10344827586 m0,13.793103448276 h13.793103448276 v-5.5172413793103 q0,-5.5172413793103 -5.5172413793103,-5.5172413793103 h-2.7586206896552 q-5.5172413793103,0 -5.5172413793103,5.5172413793103Z M68.965517241379,193.10344827586 m0,13.793103448276 v-5.5172413793103 q0,5.5172413793103 5.5172413793103,5.5172413793103Z  M82.758620689655,193.10344827586 m0,5.5172413793103 v2.7586206896552 q0,5.5172413793103 5.5172413793103,5.5172413793103 h2.7586206896552 q5.5172413793103,0 5.5172413793103,-5.5172413793103 v-2.7586206896552 q0,-5.5172413793103 -5.5172413793103,-5.5172413793103 h-2.7586206896552 q-5.5172413793103,0 -5.5172413793103,5.5172413793103Z M82.758620689655,206.89655172414 m13.793103448276,13.793103448276 h-5.5172413793103 q5.5172413793103,0 5.5172413793103,-5.5172413793103Z M82.758620689655,206.89655172414 m0,13.793103448276 v-5.5172413793103 q0,5.5172413793103 5.5172413793103,5.5172413793103Z  M124.13793103448 193.10344827586 h13.793103448276 v13.793103448276 h-13.793103448276Z  M151.72413793103,193.10344827586 m0,13.793103448276 h13.793103448276 v-13.793103448276 h-8.2758620689655 q-5.5172413793103,0 -5.5172413793103,5.5172413793103Z M165.51724137931,206.89655172414 h5.5172413793103 q-5.5172413793103,0 -5.5172413793103,5.5172413793103Z  M165.51724137931,193.10344827586 h8.2758620689655 q5.5172413793103,0 5.5172413793103,5.5172413793103 v2.7586206896552 q0,5.5172413793103 -5.5172413793103,5.5172413793103 h-8.2758620689655Z  M206.89655172414,193.10344827586 m0,13.793103448276 h13.793103448276 v-13.793103448276 h-8.2758620689655 q-5.5172413793103,0 -5.5172413793103,5.5172413793103Z M220.68965517241,206.89655172414 h5.5172413793103 q-5.5172413793103,0 -5.5172413793103,5.5172413793103Z M220.68965517241,206.89655172414 m13.793103448276,0 v5.5172413793103 q0,-5.5172413793103 -5.5172413793103,-5.5172413793103Z  M220.68965517241 193.10344827586 h13.793103448276 v13.793103448276 h-13.793103448276Z  M234.48275862069,193.10344827586 h8.2758620689655 q5.5172413793103,0 5.5172413793103,5.5172413793103 v8.2758620689655 h-13.793103448276Z  M262.06896551724,193.10344827586 v8.2758620689655 q0,5.5172413793103 5.5172413793103,5.5172413793103 h2.7586206896552 q5.5172413793103,0 5.5172413793103,-5.5172413793103 v-8.2758620689655Z  M303.44827586207,193.10344827586 v8.2758620689655 q0,5.5172413793103 5.5172413793103,5.5172413793103 h8.2758620689655 v-13.793103448276Z M303.44827586207,206.89655172414 m13.793103448276,0 v5.5172413793103 q0,-5.5172413793103 -5.5172413793103,-5.5172413793103Z M303.44827586207,206.89655172414 m13.793103448276,13.793103448276 h-5.5172413793103 q5.5172413793103,0 5.5172413793103,-5.5172413793103Z M303.44827586207,206.89655172414 m0,13.793103448276 v-5.5172413793103 q0,5.5172413793103 5.5172413793103,5.5172413793103Z  M317.24137931034 193.10344827586 h13.793103448276 v13.793103448276 h-13.793103448276Z M331.03448275862,206.89655172414 h5.5172413793103 q-5.5172413793103,0 -5.5172413793103,5.5172413793103Z  M331.03448275862,193.10344827586 h8.2758620689655 q5.5172413793103,0 5.5172413793103,5.5172413793103 v2.7586206896552 q0,5.5172413793103 -5.5172413793103,5.5172413793103 h-8.2758620689655Z  M386.20689655172,193.10344827586 m0,5.5172413793103 v2.7586206896552 q0,5.5172413793103 5.5172413793103,5.5172413793103 h2.7586206896552 q5.5172413793103,0 5.5172413793103,-5.5172413793103 v-2.7586206896552 q0,-5.5172413793103 -5.5172413793103,-5.5172413793103 h-2.7586206896552 q-5.5172413793103,0 -5.5172413793103,5.5172413793103Z M386.20689655172,206.89655172414 m0,13.793103448276 v-5.5172413793103 q0,5.5172413793103 5.5172413793103,5.5172413793103Z  M13.793103448276,206.89655172414 v8.2758620689655 q0,5.5172413793103 5.5172413793103,5.5172413793103 h8.2758620689655 v-13.793103448276Z  M27.586206896552,206.89655172414 h8.2758620689655 q5.5172413793103,0 5.5172413793103,5.5172413793103 v2.7586206896552 q0,5.5172413793103 -5.5172413793103,5.5172413793103 h-8.2758620689655Z  M55.172413793103,206.89655172414 v8.2758620689655 q0,5.5172413793103 5.5172413793103,5.5172413793103 h8.2758620689655 v-13.793103448276Z M55.172413793103,220.68965517241 m13.793103448276,0 v5.5172413793103 q0,-5.5172413793103 -5.5172413793103,-5.5172413793103Z  M68.965517241379,206.89655172414 h8.2758620689655 q5.5172413793103,0 5.5172413793103,5.5172413793103 v8.2758620689655 h-13.793103448276Z  M96.551724137931,206.89655172414 m0,13.793103448276 h13.793103448276 v-5.5172413793103 q0,-5.5172413793103 -5.5172413793103,-5.5172413793103 h-2.7586206896552 q-5.5172413793103,0 -5.5172413793103,5.5172413793103Z M110.34482758621,220.68965517241 m0,13.793103448276 v-5.5172413793103 q0,5.5172413793103 5.5172413793103,5.5172413793103Z  M124.13793103448,206.89655172414 v8.2758620689655 q0,5.5172413793103 5.5172413793103,5.5172413793103 h8.2758620689655 v-13.793103448276Z M124.13793103448,220.68965517241 m13.793103448276,0 v5.5172413793103 q0,-5.5172413793103 -5.5172413793103,-5.5172413793103Z  M137.93103448276 206.89655172414 h13.793103448276 v13.793103448276 h-13.793103448276Z M151.72413793103,220.68965517241 h5.5172413793103 q-5.5172413793103,0 -5.5172413793103,5.5172413793103Z  M151.72413793103,206.89655172414 h13.793103448276 v8.2758620689655 q0,5.5172413793103 -5.5172413793103,5.5172413793103 h-8.2758620689655Z M165.51724137931,220.68965517241 m13.793103448276,13.793103448276 h-5.5172413793103 q5.5172413793103,0 5.5172413793103,-5.5172413793103Z  M179.31034482759,206.89655172414 m0,13.793103448276 h13.793103448276 v-13.793103448276 h-8.2758620689655 q-5.5172413793103,0 -5.5172413793103,5.5172413793103Z  M193.10344827586 206.89655172414 h13.793103448276 v13.793103448276 h-13.793103448276Z  M206.89655172414 206.89655172414 h13.793103448276 v13.793103448276 h-13.793103448276Z M220.68965517241,220.68965517241 m0,13.793103448276 v-5.5172413793103 q0,5.5172413793103 5.5172413793103,5.5172413793103Z  M234.48275862069,206.89655172414 v8.2758620689655 q0,5.5172413793103 5.5172413793103,5.5172413793103 h2.7586206896552 q5.5172413793103,0 5.5172413793103,-5.5172413793103 v-8.2758620689655Z  M275.86206896552,206.89655172414 m13.793103448276,13.793103448276 v-13.793103448276 h-8.2758620689655 q-5.5172413793103,0 -5.5172413793103,5.5172413793103 v2.7586206896552 q0,5.5172413793103 5.5172413793103,5.5172413793103Z M275.86206896552,220.68965517241 m13.793103448276,0 v5.5172413793103 q0,-5.5172413793103 -5.5172413793103,-5.5172413793103Z  M289.65517241379,206.89655172414 h8.2758620689655 q5.5172413793103,0 5.5172413793103,5.5172413793103 v8.2758620689655 h-13.793103448276Z  M317.24137931034 206.89655172414 h13.793103448276 v13.793103448276 h-13.793103448276Z  M344.8275862069,206.89655172414 m0,13.793103448276 h13.793103448276 v-5.5172413793103 q0,-5.5172413793103 -5.5172413793103,-5.5172413793103 h-2.7586206896552 q-5.5172413793103,0 -5.5172413793103,5.5172413793103Z  M372.41379310345,206.89655172414 m0,13.793103448276 h13.793103448276 v-5.5172413793103 q0,-5.5172413793103 -5.5172413793103,-5.5172413793103 h-2.7586206896552 q-5.5172413793103,0 -5.5172413793103,5.5172413793103Z  M0,220.68965517241 m0,5.5172413793103 v2.7586206896552 q0,5.5172413793103 5.5172413793103,5.5172413793103 h2.7586206896552 q5.5172413793103,0 5.5172413793103,-5.5172413793103 v-2.7586206896552 q0,-5.5172413793103 -5.5172413793103,-5.5172413793103 h-2.7586206896552 q-5.5172413793103,0 -5.5172413793103,5.5172413793103Z  M68.965517241379,220.68965517241 v8.2758620689655 q0,5.5172413793103 5.5172413793103,5.5172413793103 h8.2758620689655 v-13.793103448276Z M82.758620689655,234.48275862069 m13.793103448276,0 v5.5172413793103 q0,-5.5172413793103 -5.5172413793103,-5.5172413793103Z M82.758620689655,234.48275862069 m13.793103448276,13.793103448276 h-5.5172413793103 q5.5172413793103,0 5.5172413793103,-5.5172413793103Z M55.172413793103,234.48275862069 m0,13.793103448276 v-5.5172413793103 q0,5.5172413793103 5.5172413793103,5.5172413793103Z  M82.758620689655 220.68965517241 h13.793103448276 v13.793103448276 h-13.793103448276Z  M96.551724137931 220.68965517241 h13.793103448276 v13.793103448276 h-13.793103448276Z  M137.93103448276,220.68965517241 v8.2758620689655 q0,5.5172413793103 5.5172413793103,5.5172413793103 h2.7586206896552 q5.5172413793103,0 5.5172413793103,-5.5172413793103 v-8.2758620689655Z  M179.31034482759 220.68965517241 h13.793103448276 v13.793103448276 h-13.793103448276Z  M193.10344827586 220.68965517241 h13.793103448276 v13.793103448276 h-13.793103448276Z  M206.89655172414 220.68965517241 h13.793103448276 v13.793103448276 h-13.793103448276Z  M248.27586206897,220.68965517241 m13.793103448276,13.793103448276 v-13.793103448276 h-8.2758620689655 q-5.5172413793103,0 -5.5172413793103,5.5172413793103 v2.7586206896552 q0,5.5172413793103 5.5172413793103,5.5172413793103Z  M262.06896551724,220.68965517241 h8.2758620689655 q5.5172413793103,0 5.5172413793103,5.5172413793103 v2.7586206896552 q0,5.5172413793103 -5.5172413793103,5.5172413793103 h-8.2758620689655Z  M289.65517241379,220.68965517241 v8.2758620689655 q0,5.5172413793103 5.5172413793103,5.5172413793103 h8.2758620689655 v-13.793103448276Z M303.44827586207,234.48275862069 m13.793103448276,0 v5.5172413793103 q0,-5.5172413793103 -5.5172413793103,-5.5172413793103Z  M303.44827586207 220.68965517241 h13.793103448276 v13.793103448276 h-13.793103448276Z  M317.24137931034 220.68965517241 h13.793103448276 v13.793103448276 h-13.793103448276Z  M344.8275862069,220.68965517241 v8.2758620689655 q0,5.5172413793103 5.5172413793103,5.5172413793103 h2.7586206896552 q5.5172413793103,0 5.5172413793103,-5.5172413793103 v-8.2758620689655Z  M372.41379310345 220.68965517241 h13.793103448276 v13.793103448276 h-13.793103448276Z  M386.20689655172,220.68965517241 h8.2758620689655 q5.5172413793103,0 5.5172413793103,5.5172413793103 v8.2758620689655 h-13.793103448276Z  M41.379310344828,234.48275862069 m0,13.793103448276 h13.793103448276 v-5.5172413793103 q0,-5.5172413793103 -5.5172413793103,-5.5172413793103 h-2.7586206896552 q-5.5172413793103,0 -5.5172413793103,5.5172413793103Z M27.586206896552,248.27586206897 m13.793103448276,13.793103448276 h-5.5172413793103 q5.5172413793103,0 5.5172413793103,-5.5172413793103Z  M96.551724137931 234.48275862069 h13.793103448276 v13.793103448276 h-13.793103448276Z  M110.34482758621 234.48275862069 h13.793103448276 v13.793103448276 h-13.793103448276Z M124.13793103448,248.27586206897 h5.5172413793103 q-5.5172413793103,0 -5.5172413793103,5.5172413793103Z  M124.13793103448,234.48275862069 h8.2758620689655 q5.5172413793103,0 5.5172413793103,5.5172413793103 v2.7586206896552 q0,5.5172413793103 -5.5172413793103,5.5172413793103 h-8.2758620689655Z  M165.51724137931,234.48275862069 m13.793103448276,13.793103448276 v-13.793103448276 h-8.2758620689655 q-5.5172413793103,0 -5.5172413793103,5.5172413793103 v2.7586206896552 q0,5.5172413793103 5.5172413793103,5.5172413793103Z M165.51724137931,248.27586206897 m13.793103448276,0 v5.5172413793103 q0,-5.5172413793103 -5.5172413793103,-5.5172413793103Z  M179.31034482759 234.48275862069 h13.793103448276 v13.793103448276 h-13.793103448276Z  M193.10344827586 234.48275862069 h13.793103448276 v13.793103448276 h-13.793103448276Z  M206.89655172414 234.48275862069 h13.793103448276 v13.793103448276 h-13.793103448276Z  M220.68965517241,234.48275862069 h8.2758620689655 q5.5172413793103,0 5.5172413793103,5.5172413793103 v8.2758620689655 h-13.793103448276Z M234.48275862069,248.27586206897 m13.793103448276,13.793103448276 h-5.5172413793103 q5.5172413793103,0 5.5172413793103,-5.5172413793103Z  M317.24137931034,234.48275862069 v8.2758620689655 q0,5.5172413793103 5.5172413793103,5.5172413793103 h2.7586206896552 q5.5172413793103,0 5.5172413793103,-5.5172413793103 v-8.2758620689655Z M331.03448275862,248.27586206897 m13.793103448276,13.793103448276 h-5.5172413793103 q5.5172413793103,0 5.5172413793103,-5.5172413793103Z  M372.41379310345,234.48275862069 v8.2758620689655 q0,5.5172413793103 5.5172413793103,5.5172413793103 h8.2758620689655 v-13.793103448276Z M372.41379310345,248.27586206897 m13.793103448276,0 v5.5172413793103 q0,-5.5172413793103 -5.5172413793103,-5.5172413793103Z M372.41379310345,248.27586206897 m13.793103448276,13.793103448276 h-5.5172413793103 q5.5172413793103,0 5.5172413793103,-5.5172413793103Z  M386.20689655172 234.48275862069 h13.793103448276 v13.793103448276 h-13.793103448276Z  M0,248.27586206897 m13.793103448276,13.793103448276 v-13.793103448276 h-8.2758620689655 q-5.5172413793103,0 -5.5172413793103,5.5172413793103 v2.7586206896552 q0,5.5172413793103 5.5172413793103,5.5172413793103Z  M13.793103448276,248.27586206897 h8.2758620689655 q5.5172413793103,0 5.5172413793103,5.5172413793103 v2.7586206896552 q0,5.5172413793103 -5.5172413793103,5.5172413793103 h-8.2758620689655Z  M41.379310344828 248.27586206897 h13.793103448276 v13.793103448276 h-13.793103448276Z  M55.172413793103,248.27586206897 h8.2758620689655 q5.5172413793103,0 5.5172413793103,5.5172413793103 v8.2758620689655 h-13.793103448276Z M68.965517241379,262.06896551724 m0,13.793103448276 v-5.5172413793103 q0,5.5172413793103 5.5172413793103,5.5172413793103Z  M82.758620689655,248.27586206897 m13.793103448276,13.793103448276 v-13.793103448276 h-8.2758620689655 q-5.5172413793103,0 -5.5172413793103,5.5172413793103 v2.7586206896552 q0,5.5172413793103 5.5172413793103,5.5172413793103Z M82.758620689655,262.06896551724 m13.793103448276,0 v5.5172413793103 q0,-5.5172413793103 -5.5172413793103,-5.5172413793103Z  M96.551724137931 248.27586206897 h13.793103448276 v13.793103448276 h-13.793103448276Z M110.34482758621,262.06896551724 h5.5172413793103 q-5.5172413793103,0 -5.5172413793103,5.5172413793103Z  M110.34482758621,248.27586206897 h13.793103448276 v8.2758620689655 q0,5.5172413793103 -5.5172413793103,5.5172413793103 h-8.2758620689655Z  M137.93103448276,248.27586206897 m13.793103448276,13.793103448276 v-13.793103448276 h-8.2758620689655 q-5.5172413793103,0 -5.5172413793103,5.5172413793103 v2.7586206896552 q0,5.5172413793103 5.5172413793103,5.5172413793103Z  M151.72413793103,248.27586206897 h8.2758620689655 q5.5172413793103,0 5.5172413793103,5.5172413793103 v2.7586206896552 q0,5.5172413793103 -5.5172413793103,5.5172413793103 h-8.2758620689655Z  M179.31034482759 248.27586206897 h13.793103448276 v13.793103448276 h-13.793103448276Z M193.10344827586,262.06896551724 h5.5172413793103 q-5.5172413793103,0 -5.5172413793103,5.5172413793103Z M193.10344827586,262.06896551724 m13.793103448276,0 v5.5172413793103 q0,-5.5172413793103 -5.5172413793103,-5.5172413793103Z  M193.10344827586 248.27586206897 h13.793103448276 v13.793103448276 h-13.793103448276Z  M206.89655172414 248.27586206897 h13.793103448276 v13.793103448276 h-13.793103448276Z M220.68965517241,262.06896551724 h5.5172413793103 q-5.5172413793103,0 -5.5172413793103,5.5172413793103Z  M220.68965517241,248.27586206897 h13.793103448276 v8.2758620689655 q0,5.5172413793103 -5.5172413793103,5.5172413793103 h-8.2758620689655Z  M248.27586206897,248.27586206897 m0,13.793103448276 h13.793103448276 v-13.793103448276 h-8.2758620689655 q-5.5172413793103,0 -5.5172413793103,5.5172413793103Z M262.06896551724,262.06896551724 h5.5172413793103 q-5.5172413793103,0 -5.5172413793103,5.5172413793103Z M262.06896551724,262.06896551724 m0,13.793103448276 v-5.5172413793103 q0,5.5172413793103 5.5172413793103,5.5172413793103Z  M262.06896551724,248.27586206897 h8.2758620689655 q5.5172413793103,0 5.5172413793103,5.5172413793103 v2.7586206896552 q0,5.5172413793103 -5.5172413793103,5.5172413793103 h-8.2758620689655Z  M289.65517241379,248.27586206897 m13.793103448276,13.793103448276 v-13.793103448276 h-8.2758620689655 q-5.5172413793103,0 -5.5172413793103,5.5172413793103 v2.7586206896552 q0,5.5172413793103 5.5172413793103,5.5172413793103Z M303.44827586207,262.06896551724 m13.793103448276,13.793103448276 h-5.5172413793103 q5.5172413793103,0 5.5172413793103,-5.5172413793103Z  M303.44827586207,248.27586206897 h8.2758620689655 q5.5172413793103,0 5.5172413793103,5.5172413793103 v2.7586206896552 q0,5.5172413793103 -5.5172413793103,5.5172413793103 h-8.2758620689655Z  M344.8275862069,248.27586206897 m0,13.793103448276 h13.793103448276 v-13.793103448276 h-8.2758620689655 q-5.5172413793103,0 -5.5172413793103,5.5172413793103Z M358.62068965517,262.06896551724 h5.5172413793103 q-5.5172413793103,0 -5.5172413793103,5.5172413793103Z M358.62068965517,262.06896551724 m13.793103448276,13.793103448276 h-5.5172413793103 q5.5172413793103,0 5.5172413793103,-5.5172413793103Z M358.62068965517,262.06896551724 m0,13.793103448276 v-5.5172413793103 q0,5.5172413793103 5.5172413793103,5.5172413793103Z  M358.62068965517,248.27586206897 h8.2758620689655 q5.5172413793103,0 5.5172413793103,5.5172413793103 v2.7586206896552 q0,5.5172413793103 -5.5172413793103,5.5172413793103 h-8.2758620689655Z  M386.20689655172 248.27586206897 h13.793103448276 v13.793103448276 h-13.793103448276Z  M27.586206896552,262.06896551724 m13.793103448276,13.793103448276 v-13.793103448276 h-8.2758620689655 q-5.5172413793103,0 -5.5172413793103,5.5172413793103 v2.7586206896552 q0,5.5172413793103 5.5172413793103,5.5172413793103Z M41.379310344828,275.86206896552 m13.793103448276,0 v5.5172413793103 q0,-5.5172413793103 -5.5172413793103,-5.5172413793103Z  M41.379310344828 262.06896551724 h13.793103448276 v13.793103448276 h-13.793103448276Z  M55.172413793103 262.06896551724 h13.793103448276 v13.793103448276 h-13.793103448276Z  M96.551724137931,262.06896551724 v8.2758620689655 q0,5.5172413793103 5.5172413793103,5.5172413793103 h2.7586206896552 q5.5172413793103,0 5.5172413793103,-5.5172413793103 v-8.2758620689655Z  M124.13793103448,262.06896551724 m0,5.5172413793103 v2.7586206896552 q0,5.5172413793103 5.5172413793103,5.5172413793103 h2.7586206896552 q5.5172413793103,0 5.5172413793103,-5.5172413793103 v-2.7586206896552 q0,-5.5172413793103 -5.5172413793103,-5.5172413793103 h-2.7586206896552 q-5.5172413793103,0 -5.5172413793103,5.5172413793103Z  M179.31034482759,262.06896551724 v8.2758620689655 q0,5.5172413793103 5.5172413793103,5.5172413793103 h2.7586206896552 q5.5172413793103,0 5.5172413793103,-5.5172413793103 v-8.2758620689655Z  M206.89655172414,262.06896551724 v8.2758620689655 q0,5.5172413793103 5.5172413793103,5.5172413793103 h2.7586206896552 q5.5172413793103,0 5.5172413793103,-5.5172413793103 v-8.2758620689655Z  M234.48275862069,262.06896551724 m13.793103448276,13.793103448276 v-13.793103448276 h-8.2758620689655 q-5.5172413793103,0 -5.5172413793103,5.5172413793103 v2.7586206896552 q0,5.5172413793103 5.5172413793103,5.5172413793103Z M234.48275862069,275.86206896552 m13.793103448276,0 v5.5172413793103 q0,-5.5172413793103 -5.5172413793103,-5.5172413793103Z  M248.27586206897 262.06896551724 h13.793103448276 v13.793103448276 h-13.793103448276Z  M317.24137931034,262.06896551724 m0,13.793103448276 h13.793103448276 v-13.793103448276 h-8.2758620689655 q-5.5172413793103,0 -5.5172413793103,5.5172413793103Z  M331.03448275862 262.06896551724 h13.793103448276 v13.793103448276 h-13.793103448276Z  M344.8275862069 262.06896551724 h13.793103448276 v13.793103448276 h-13.793103448276Z  M372.41379310345,262.06896551724 m0,13.793103448276 h13.793103448276 v-13.793103448276 h-8.2758620689655 q-5.5172413793103,0 -5.5172413793103,5.5172413793103Z  M386.20689655172 262.06896551724 h13.793103448276 v13.793103448276 h-13.793103448276Z  M0,275.86206896552 m13.793103448276,13.793103448276 v-13.793103448276 h-8.2758620689655 q-5.5172413793103,0 -5.5172413793103,5.5172413793103 v2.7586206896552 q0,5.5172413793103 5.5172413793103,5.5172413793103Z  M13.793103448276,275.86206896552 h8.2758620689655 q5.5172413793103,0 5.5172413793103,5.5172413793103 v2.7586206896552 q0,5.5172413793103 -5.5172413793103,5.5172413793103 h-8.2758620689655Z  M55.172413793103,275.86206896552 v8.2758620689655 q0,5.5172413793103 5.5172413793103,5.5172413793103 h8.2758620689655 v-13.793103448276Z  M68.965517241379 275.86206896552 h13.793103448276 v13.793103448276 h-13.793103448276Z  M82.758620689655,275.86206896552 h8.2758620689655 q5.5172413793103,0 5.5172413793103,5.5172413793103 v2.7586206896552 q0,5.5172413793103 -5.5172413793103,5.5172413793103 h-8.2758620689655Z  M165.51724137931,275.86206896552 m0,5.5172413793103 v2.7586206896552 q0,5.5172413793103 5.5172413793103,5.5172413793103 h2.7586206896552 q5.5172413793103,0 5.5172413793103,-5.5172413793103 v-2.7586206896552 q0,-5.5172413793103 -5.5172413793103,-5.5172413793103 h-2.7586206896552 q-5.5172413793103,0 -5.5172413793103,5.5172413793103Z M151.72413793103,289.65517241379 m0,13.793103448276 v-5.5172413793103 q0,5.5172413793103 5.5172413793103,5.5172413793103Z  M248.27586206897,275.86206896552 v8.2758620689655 q0,5.5172413793103 5.5172413793103,5.5172413793103 h8.2758620689655 v-13.793103448276Z M262.06896551724,289.65517241379 m13.793103448276,0 v5.5172413793103 q0,-5.5172413793103 -5.5172413793103,-5.5172413793103Z M234.48275862069,289.65517241379 m0,13.793103448276 v-5.5172413793103 q0,5.5172413793103 5.5172413793103,5.5172413793103Z  M262.06896551724 275.86206896552 h13.793103448276 v13.793103448276 h-13.793103448276Z  M344.8275862069 275.86206896552 h13.793103448276 v13.793103448276 h-13.793103448276Z M358.62068965517,289.65517241379 m13.793103448276,0 v5.5172413793103 q0,-5.5172413793103 -5.5172413793103,-5.5172413793103Z  M358.62068965517 275.86206896552 h13.793103448276 v13.793103448276 h-13.793103448276Z  M372.41379310345 275.86206896552 h13.793103448276 v13.793103448276 h-13.793103448276Z M386.20689655172,289.65517241379 h5.5172413793103 q-5.5172413793103,0 -5.5172413793103,5.5172413793103Z  M386.20689655172,275.86206896552 h13.793103448276 v8.2758620689655 q0,5.5172413793103 -5.5172413793103,5.5172413793103 h-8.2758620689655Z  M110.34482758621,289.65517241379 m0,13.793103448276 h13.793103448276 v-13.793103448276 h-8.2758620689655 q-5.5172413793103,0 -5.5172413793103,5.5172413793103Z  M124.13793103448 289.65517241379 h13.793103448276 v13.793103448276 h-13.793103448276Z  M137.93103448276,289.65517241379 h8.2758620689655 q5.5172413793103,0 5.5172413793103,5.5172413793103 v8.2758620689655 h-13.793103448276Z  M179.31034482759,289.65517241379 m0,13.793103448276 h13.793103448276 v-13.793103448276 h-8.2758620689655 q-5.5172413793103,0 -5.5172413793103,5.5172413793103Z M193.10344827586,303.44827586207 h5.5172413793103 q-5.5172413793103,0 -5.5172413793103,5.5172413793103Z M193.10344827586,303.44827586207 m13.793103448276,0 v5.5172413793103 q0,-5.5172413793103 -5.5172413793103,-5.5172413793103Z  M193.10344827586 289.65517241379 h13.793103448276 v13.793103448276 h-13.793103448276Z  M206.89655172414 289.65517241379 h13.793103448276 v13.793103448276 h-13.793103448276Z  M220.68965517241,289.65517241379 h8.2758620689655 q5.5172413793103,0 5.5172413793103,5.5172413793103 v8.2758620689655 h-13.793103448276Z  M372.41379310345,289.65517241379 v8.2758620689655 q0,5.5172413793103 5.5172413793103,5.5172413793103 h2.7586206896552 q5.5172413793103,0 5.5172413793103,-5.5172413793103 v-8.2758620689655Z  M110.34482758621 303.44827586207 h13.793103448276 v13.793103448276 h-13.793103448276Z  M124.13793103448 303.44827586207 h13.793103448276 v13.793103448276 h-13.793103448276Z M137.93103448276,317.24137931034 h5.5172413793103 q-5.5172413793103,0 -5.5172413793103,5.5172413793103Z M137.93103448276,317.24137931034 m13.793103448276,0 v5.5172413793103 q0,-5.5172413793103 -5.5172413793103,-5.5172413793103Z  M137.93103448276 303.44827586207 h13.793103448276 v13.793103448276 h-13.793103448276Z  M151.72413793103,303.44827586207 h8.2758620689655 q5.5172413793103,0 5.5172413793103,5.5172413793103 v8.2758620689655 h-13.793103448276Z  M179.31034482759,303.44827586207 v8.2758620689655 q0,5.5172413793103 5.5172413793103,5.5172413793103 h2.7586206896552 q5.5172413793103,0 5.5172413793103,-5.5172413793103 v-8.2758620689655Z  M206.89655172414,303.44827586207 v8.2758620689655 q0,5.5172413793103 5.5172413793103,5.5172413793103 h8.2758620689655 v-13.793103448276Z M206.89655172414,317.24137931034 m13.793103448276,0 v5.5172413793103 q0,-5.5172413793103 -5.5172413793103,-5.5172413793103Z  M220.68965517241 303.44827586207 h13.793103448276 v13.793103448276 h-13.793103448276Z  M234.48275862069,303.44827586207 h8.2758620689655 q5.5172413793103,0 5.5172413793103,5.5172413793103 v8.2758620689655 h-13.793103448276Z M248.27586206897,303.44827586207 m0,13.793103448276 v-5.5172413793103 q0,5.5172413793103 5.5172413793103,5.5172413793103Z  M358.62068965517,303.44827586207 m0,5.5172413793103 v2.7586206896552 q0,5.5172413793103 5.5172413793103,5.5172413793103 h2.7586206896552 q5.5172413793103,0 5.5172413793103,-5.5172413793103 v-2.7586206896552 q0,-5.5172413793103 -5.5172413793103,-5.5172413793103 h-2.7586206896552 q-5.5172413793103,0 -5.5172413793103,5.5172413793103Z  M386.20689655172,303.44827586207 m0,5.5172413793103 v2.7586206896552 q0,5.5172413793103 5.5172413793103,5.5172413793103 h2.7586206896552 q5.5172413793103,0 5.5172413793103,-5.5172413793103 v-2.7586206896552 q0,-5.5172413793103 -5.5172413793103,-5.5172413793103 h-2.7586206896552 q-5.5172413793103,0 -5.5172413793103,5.5172413793103Z  M110.34482758621,317.24137931034 v8.2758620689655 q0,5.5172413793103 5.5172413793103,5.5172413793103 h8.2758620689655 v-13.793103448276Z M110.34482758621,331.03448275862 m13.793103448276,0 v5.5172413793103 q0,-5.5172413793103 -5.5172413793103,-5.5172413793103Z  M124.13793103448 317.24137931034 h13.793103448276 v13.793103448276 h-13.793103448276Z  M151.72413793103 317.24137931034 h13.793103448276 v13.793103448276 h-13.793103448276Z  M220.68965517241 317.24137931034 h13.793103448276 v13.793103448276 h-13.793103448276Z M234.48275862069,331.03448275862 h5.5172413793103 q-5.5172413793103,0 -5.5172413793103,5.5172413793103Z  M234.48275862069 317.24137931034 h13.793103448276 v13.793103448276 h-13.793103448276Z M248.27586206897,331.03448275862 m13.793103448276,0 v5.5172413793103 q0,-5.5172413793103 -5.5172413793103,-5.5172413793103Z  M248.27586206897 317.24137931034 h13.793103448276 v13.793103448276 h-13.793103448276Z  M262.06896551724 317.24137931034 h13.793103448276 v13.793103448276 h-13.793103448276Z  M344.8275862069,317.24137931034 h8.2758620689655 q5.5172413793103,0 5.5172413793103,5.5172413793103 v2.7586206896552 q0,5.5172413793103 -5.5172413793103,5.5172413793103 h-8.2758620689655Z  M124.13793103448,331.03448275862 v8.2758620689655 q0,5.5172413793103 5.5172413793103,5.5172413793103 h2.7586206896552 q5.5172413793103,0 5.5172413793103,-5.5172413793103 v-8.2758620689655Z  M151.72413793103,331.03448275862 v8.2758620689655 q0,5.5172413793103 5.5172413793103,5.5172413793103 h2.7586206896552 q5.5172413793103,0 5.5172413793103,-5.5172413793103 v-8.2758620689655Z  M193.10344827586,331.03448275862 m0,5.5172413793103 v2.7586206896552 q0,5.5172413793103 5.5172413793103,5.5172413793103 h2.7586206896552 q5.5172413793103,0 5.5172413793103,-5.5172413793103 v-2.7586206896552 q0,-5.5172413793103 -5.5172413793103,-5.5172413793103 h-2.7586206896552 q-5.5172413793103,0 -5.5172413793103,5.5172413793103Z  M220.68965517241 331.03448275862 h13.793103448276 v13.793103448276 h-13.793103448276Z  M262.06896551724,331.03448275862 v8.2758620689655 q0,5.5172413793103 5.5172413793103,5.5172413793103 h8.2758620689655 v-13.793103448276Z M275.86206896552,344.8275862069 m13.793103448276,0 v5.5172413793103 q0,-5.5172413793103 -5.5172413793103,-5.5172413793103Z M275.86206896552,344.8275862069 m13.793103448276,13.793103448276 h-5.5172413793103 q5.5172413793103,0 5.5172413793103,-5.5172413793103Z  M372.41379310345,331.03448275862 m0,13.793103448276 h13.793103448276 v-13.793103448276 h-8.2758620689655 q-5.5172413793103,0 -5.5172413793103,5.5172413793103Z M386.20689655172,344.8275862069 h5.5172413793103 q-5.5172413793103,0 -5.5172413793103,5.5172413793103Z M386.20689655172,344.8275862069 m0,13.793103448276 v-5.5172413793103 q0,5.5172413793103 5.5172413793103,5.5172413793103Z  M386.20689655172,331.03448275862 h8.2758620689655 q5.5172413793103,0 5.5172413793103,5.5172413793103 v2.7586206896552 q0,5.5172413793103 -5.5172413793103,5.5172413793103 h-8.2758620689655Z  M137.93103448276,344.8275862069 m0,5.5172413793103 v2.7586206896552 q0,5.5172413793103 5.5172413793103,5.5172413793103 h2.7586206896552 q5.5172413793103,0 5.5172413793103,-5.5172413793103 v-2.7586206896552 q0,-5.5172413793103 -5.5172413793103,-5.5172413793103 h-2.7586206896552 q-5.5172413793103,0 -5.5172413793103,5.5172413793103Z M137.93103448276,358.62068965517 m13.793103448276,13.793103448276 h-5.5172413793103 q5.5172413793103,0 5.5172413793103,-5.5172413793103Z  M220.68965517241,344.8275862069 v8.2758620689655 q0,5.5172413793103 5.5172413793103,5.5172413793103 h2.7586206896552 q5.5172413793103,0 5.5172413793103,-5.5172413793103 v-8.2758620689655Z  M289.65517241379 344.8275862069 h13.793103448276 v13.793103448276 h-13.793103448276Z  M331.03448275862 344.8275862069 h13.793103448276 v13.793103448276 h-13.793103448276Z M344.8275862069,358.62068965517 m0,13.793103448276 v-5.5172413793103 q0,5.5172413793103 5.5172413793103,5.5172413793103Z  M372.41379310345 344.8275862069 h13.793103448276 v13.793103448276 h-13.793103448276Z  M110.34482758621,358.62068965517 m0,5.5172413793103 v2.7586206896552 q0,5.5172413793103 5.5172413793103,5.5172413793103 h2.7586206896552 q5.5172413793103,0 5.5172413793103,-5.5172413793103 v-2.7586206896552 q0,-5.5172413793103 -5.5172413793103,-5.5172413793103 h-2.7586206896552 q-5.5172413793103,0 -5.5172413793103,5.5172413793103Z  M151.72413793103,358.62068965517 m0,13.793103448276 h13.793103448276 v-5.5172413793103 q0,-5.5172413793103 -5.5172413793103,-5.5172413793103 h-2.7586206896552 q-5.5172413793103,0 -5.5172413793103,5.5172413793103Z M165.51724137931,372.41379310345 m0,13.793103448276 v-5.5172413793103 q0,5.5172413793103 5.5172413793103,5.5172413793103Z  M179.31034482759,358.62068965517 m13.793103448276,13.793103448276 v-13.793103448276 h-8.2758620689655 q-5.5172413793103,0 -5.5172413793103,5.5172413793103 v2.7586206896552 q0,5.5172413793103 5.5172413793103,5.5172413793103Z  M193.10344827586 358.62068965517 h13.793103448276 v13.793103448276 h-13.793103448276Z  M206.89655172414,358.62068965517 h8.2758620689655 q5.5172413793103,0 5.5172413793103,5.5172413793103 v2.7586206896552 q0,5.5172413793103 -5.5172413793103,5.5172413793103 h-8.2758620689655Z  M275.86206896552,358.62068965517 m13.793103448276,13.793103448276 v-13.793103448276 h-8.2758620689655 q-5.5172413793103,0 -5.5172413793103,5.5172413793103 v2.7586206896552 q0,5.5172413793103 5.5172413793103,5.5172413793103Z M275.86206896552,372.41379310345 m13.793103448276,0 v5.5172413793103 q0,-5.5172413793103 -5.5172413793103,-5.5172413793103Z  M289.65517241379 358.62068965517 h13.793103448276 v13.793103448276 h-13.793103448276Z  M303.44827586207,358.62068965517 h8.2758620689655 q5.5172413793103,0 5.5172413793103,5.5172413793103 v8.2758620689655 h-13.793103448276Z M317.24137931034,372.41379310345 m13.793103448276,13.793103448276 h-5.5172413793103 q5.5172413793103,0 5.5172413793103,-5.5172413793103Z  M331.03448275862 358.62068965517 h13.793103448276 v13.793103448276 h-13.793103448276Z  M372.41379310345,358.62068965517 v8.2758620689655 q0,5.5172413793103 5.5172413793103,5.5172413793103 h8.2758620689655 v-13.793103448276Z  M386.20689655172,358.62068965517 h8.2758620689655 q5.5172413793103,0 5.5172413793103,5.5172413793103 v2.7586206896552 q0,5.5172413793103 -5.5172413793103,5.5172413793103 h-8.2758620689655Z  M137.93103448276,372.41379310345 m13.793103448276,13.793103448276 v-13.793103448276 h-8.2758620689655 q-5.5172413793103,0 -5.5172413793103,5.5172413793103 v2.7586206896552 q0,5.5172413793103 5.5172413793103,5.5172413793103Z M137.93103448276,386.20689655172 m13.793103448276,0 v5.5172413793103 q0,-5.5172413793103 -5.5172413793103,-5.5172413793103Z  M151.72413793103 372.41379310345 h13.793103448276 v13.793103448276 h-13.793103448276Z  M248.27586206897,372.41379310345 m0,5.5172413793103 v2.7586206896552 q0,5.5172413793103 5.5172413793103,5.5172413793103 h2.7586206896552 q5.5172413793103,0 5.5172413793103,-5.5172413793103 v-2.7586206896552 q0,-5.5172413793103 -5.5172413793103,-5.5172413793103 h-2.7586206896552 q-5.5172413793103,0 -5.5172413793103,5.5172413793103Z  M289.65517241379 372.41379310345 h13.793103448276 v13.793103448276 h-13.793103448276Z M303.44827586207,386.20689655172 h5.5172413793103 q-5.5172413793103,0 -5.5172413793103,5.5172413793103Z  M303.44827586207,372.41379310345 h13.793103448276 v8.2758620689655 q0,5.5172413793103 -5.5172413793103,5.5172413793103 h-8.2758620689655Z  M331.03448275862 372.41379310345 h13.793103448276 v13.793103448276 h-13.793103448276Z  M344.8275862069,372.41379310345 h8.2758620689655 q5.5172413793103,0 5.5172413793103,5.5172413793103 v8.2758620689655 h-13.793103448276Z  M151.72413793103,386.20689655172 v8.2758620689655 q0,5.5172413793103 5.5172413793103,5.5172413793103 h8.2758620689655 v-13.793103448276Z  M165.51724137931,386.20689655172 h8.2758620689655 q5.5172413793103,0 5.5172413793103,5.5172413793103 v2.7586206896552 q0,5.5172413793103 -5.5172413793103,5.5172413793103 h-8.2758620689655Z  M220.68965517241,386.20689655172 m13.793103448276,13.793103448276 v-13.793103448276 h-8.2758620689655 q-5.5172413793103,0 -5.5172413793103,5.5172413793103 v2.7586206896552 q0,5.5172413793103 5.5172413793103,5.5172413793103Z  M234.48275862069,386.20689655172 h8.2758620689655 q5.5172413793103,0 5.5172413793103,5.5172413793103 v2.7586206896552 q0,5.5172413793103 -5.5172413793103,5.5172413793103 h-8.2758620689655Z  M289.65517241379,386.20689655172 v8.2758620689655 q0,5.5172413793103 5.5172413793103,5.5172413793103 h2.7586206896552 q5.5172413793103,0 5.5172413793103,-5.5172413793103 v-8.2758620689655Z  M317.24137931034,386.20689655172 m13.793103448276,13.793103448276 v-13.793103448276 h-8.2758620689655 q-5.5172413793103,0 -5.5172413793103,5.5172413793103 v2.7586206896552 q0,5.5172413793103 5.5172413793103,5.5172413793103Z  M331.03448275862 386.20689655172 h13.793103448276 v13.793103448276 h-13.793103448276Z  M344.8275862069,386.20689655172 h13.793103448276 v8.2758620689655 q0,5.5172413793103 -5.5172413793103,5.5172413793103 h-8.2758620689655Z  M386.20689655172,386.20689655172 m0,5.5172413793103 v2.7586206896552 q0,5.5172413793103 5.5172413793103,5.5172413793103 h2.7586206896552 q5.5172413793103,0 5.5172413793103,-5.5172413793103 v-2.7586206896552 q0,-5.5172413793103 -5.5172413793103,-5.5172413793103 h-2.7586206896552 q-5.5172413793103,0 -5.5172413793103,5.5172413793103Z" /></symbol><symbol id="symbol-finder" class="qrcode-symbol finder"><g transform="translate(0, 0)"><g transform="translate(0, 0)"><use x="0" y="0" href="#symbol-finder-unit" width="96.551724137931" height="96.551724137931" fill="white" transform="scale(1, 1)" transform-origin="48.275862068966 48.275862068966" /></g></g><g transform="translate(400, 0)"><g transform="translate(-96.551724137931, 0)"><use x="0" y="0" href="#symbol-finder-unit" width="96.551724137931" height="96.551724137931" fill="white" transform="scale(1, 1)" transform-origin="48.275862068966 48.275862068966" /></g></g><g transform="translate(0, 400)"><g transform="translate(0, -96.551724137931)"><use x="0" y="0" href="#symbol-finder-unit" width="96.551724137931" height="96.551724137931" fill="white" transform="scale(1, 1)" transform-origin="48.275862068966 48.275862068966" /></g></g></symbol><symbol id="symbol-alignment" class="qrcode-symbol alignment"><g transform="translate(275.86206896552, 275.86206896552)"><g><use x="0" y="0" href="#symbol-alignment-unit" width="68.965517241379" height="68.965517241379" fill="white" transform-origin="34.48275862069 34.48275862069" /></g></g></symbol><symbol id="symbol-finder-dot" class="qrcode-symbol finder-dot"><g transform="translate(0, 0)"><g transform="translate(0, 0)"><use x="0" y="0" href="#symbol-finder-dot-unit" width="96.551724137931" height="96.551724137931" fill="white" transform="scale(1, 1)" transform-origin="48.275862068966 48.275862068966" /></g></g><g transform="translate(400, 0)"><g transform="translate(-96.551724137931, 0)"><use x="0" y="0" href="#symbol-finder-dot-unit" width="96.551724137931" height="96.551724137931" fill="white" transform="scale(1, 1)" transform-origin="48.275862068966 48.275862068966" /></g></g><g transform="translate(0, 400)"><g transform="translate(0, -96.551724137931)"><use x="0" y="0" href="#symbol-finder-dot-unit" width="96.551724137931" height="96.551724137931" fill="white" transform="scale(1, 1)" transform-origin="48.275862068966 48.275862068966" /></g></g></symbol><mask id="mask-data"><use x="0" y="0" href="#symbol-data" fill="white" /></mask><mask id="mask-finder"><use x="0" y="0" href="#symbol-finder" /></mask><mask id="mask-alignment"><use x="0" y="0" href="#symbol-alignment" fill="white" /></mask><mask id="mask-finder-dot"><use x="0" y="0" href="#symbol-finder-dot" /></mask><mask id="dark-mask"><use x="0" y="0" href="#symbol-data" width="400" height="400" fill="white" /><use x="0" y="0" href="#symbol-finder" width="400" height="400" fill="white" /><use x="0" y="0" href="#symbol-alignment" width="400" height="400" fill="white" /><use x="0" y="0" href="#symbol-finder-dot" width="400" height="400" fill="white" /></mask><g class="foreground-5"><g class="foreground-4" fill="url(#gradient-data-fill)"><mask id="mask-transform-reset-by-gradient"><g class="foreground-3" fill="white"><g class="foreground-2"><g class="foreground-1"><g class="foreground-0"><rect x="0" y="0" width="400" height="400" mask="url(#mask-joined-for-gradient)" class="dark type-data" /></g></g></g></g></mask><rect x="0" y="0" width="400" height="400" mask="url(#mask-transform-reset-by-gradient)" /></g></g><symbol id="symbol-finder-unit" viewBox="0 0 700 700"><path d="M 595.57337,681.84336 H 108.43385 c -48.585309,0 -87.976308,-39.38494 -87.976308,-87.9763 V 106.72754 c 0,-48.585316 39.38494,-87.976314 87.976308,-87.976314 h 487.13952 c 48.58531,0 87.9763,39.384943 87.9763,87.976314 v 487.13952 c 0,48.58531 -39.39099,87.9763 -87.9763,87.9763 z M 147.72344,597.08922 h 408.56033 c 23.4769,0 42.50723,-19.03032 42.50723,-42.50722 l 0.006,-408.57547 c 0,-23.47689 -19.03032,-42.50722 -42.50722,-42.50722 h -408.5756 c -23.47689,0 -42.50722,19.03033 -42.50722,42.50722 v 408.56034 c 0.006,23.48294 19.03639,42.51328 42.50722,42.51328 z" transform="scale(1)" /></symbol><symbol id="symbol-finder-dot-unit" viewBox="0 0 700 700"><path d="m 233.83773,490.33871 h 232.32579 c 13.35003,0 24.17152,-10.82149 24.17152,-24.17152 l 0.004,-232.33439 c 0,-13.35002 -10.82151,-24.17152 -24.17152,-24.17152 H 233.83248 c -13.35002,0 -24.17153,10.8215 -24.17153,24.17152 v 232.32578 c 0.004,13.35347 10.82494,24.17497 24.17152,24.17497 z" transform="scale(1)" /></symbol><symbol id="symbol-alignment-unit" viewBox="0 0 700 700"><g transform="scale(0.9)" transform-origin="350 350" class="alignment-outer"><path d="M 595.57337,681.84336 H 108.43385 c -48.585309,0 -87.976308,-39.38494 -87.976308,-87.9763 V 106.72754 c 0,-48.585316 39.38494,-87.976314 87.976308,-87.976314 h 487.13952 c 48.58531,0 87.9763,39.384943 87.9763,87.976314 v 487.13952 c 0,48.58531 -39.39099,87.9763 -87.9763,87.9763 z M 147.72344,597.08922 h 408.56033 c 23.4769,0 42.50723,-19.03032 42.50723,-42.50722 l 0.006,-408.57547 c 0,-23.47689 -19.03032,-42.50722 -42.50722,-42.50722 h -408.5756 c -23.47689,0 -42.50722,19.03033 -42.50722,42.50722 v 408.56034 c 0.006,23.48294 19.03639,42.51328 42.50722,42.51328 z" transform="scale(1)" stroke="white" stroke-width="70" /></g><g transform="scale(0.4)" transform-origin="350 350"><path d="m 233.83773,490.33871 h 232.32579 c 13.35003,0 24.17152,-10.82149 24.17152,-24.17152 l 0.004,-232.33439 c 0,-13.35002 -10.82151,-24.17152 -24.17152,-24.17152 H 233.83248 c -13.35002,0 -24.17153,10.8215 -24.17153,24.17152 v 232.32578 c 0.004,13.35347 10.82494,24.17497 24.17152,24.17497 z" transform="scale(1)" /></g></symbol><mask id="mask-joined-for-gradient"><rect x="0" y="0" width="400" height="400" class="" mask="url(#mask-data)" fill="white" /><rect x="0" y="0" width="400" height="400" class="" mask="url(#mask-finder)" fill="white" /><rect x="0" y="0" width="400" height="400" class="" mask="url(#mask-alignment)" fill="white" /><rect x="0" y="0" width="400" height="400" class="" mask="url(#mask-finder-dot)" fill="white" /></mask><linearGradient x1="100%" y1="0%" x2="-2.2204460492503E-14%" y2="100%" id="gradient-data-fill"><stop offset="0%" stop-color="#5c1dee" opacity="1" /><stop offset="30%" stop-color="#8546bb" opacity="1" /><stop offset="60%" stop-color="#462759" opacity="1" /><stop offset="79%" stop-color="#03cbea" opacity="1" /><stop offset="100%" stop-color="#ae37be" opacity="1" /></linearGradient></svg>