<?xml version="1.0" encoding="UTF-8" standalone="no"?>
<svg
   width="509.15274pt"
   height="218.528pt"
   version="1.1"
   viewBox="0 0 509.15274 218.528"
   id="svg959"
   sodipodi:docname="noun-barber-2529898.svg"
   inkscape:version="1.1.2 (b8e25be8, 2022-02-05)"
   xmlns:inkscape="http://www.inkscape.org/namespaces/inkscape"
   xmlns:sodipodi="http://sodipodi.sourceforge.net/DTD/sodipodi-0.dtd"
   xmlns="http://www.w3.org/2000/svg"
   xmlns:svg="http://www.w3.org/2000/svg">
  <sodipodi:namedview
     id="namedview961"
     pagecolor="#ffffff"
     bordercolor="#666666"
     borderopacity="1.0"
     inkscape:pageshadow="2"
     inkscape:pageopacity="0.0"
     inkscape:pagecheckerboard="0"
     inkscape:document-units="pt"
     showgrid="false"
     fit-margin-top="0"
     fit-margin-left="0"
     fit-margin-right="0"
     fit-margin-bottom="0"
     inkscape:zoom="0.74678571"
     inkscape:cx="-107.79531"
     inkscape:cy="239.02439"
     inkscape:window-width="1312"
     inkscape:window-height="925"
     inkscape:window-x="0"
     inkscape:window-y="23"
     inkscape:window-maximized="0"
     inkscape:current-layer="svg959" />
  <defs
     id="defs881" />
  <path
     d="m 505.02544,40.25516 c -4.9688,-25.812 -12.215,-37.793 -15.492,-40.254 -0.96875,1.0938 -3.0938,4.2734 -5.2695,12.66 -21.895,84.301 -31.77,106.12 -48.02,106.12 -8.8984,0 -15.602,-7.4492 -24.086,-16.883 -12.59,-13.992 -29.828,-33.152 -59.902,-33.152 -24.512,0 -54.461,12.59 -89.023,37.418 -2.2109,1.5859 -5.0938,1.8828 -7.5781,0.77734 -39.105,-17.391 -73.188,-26.211 -101.3,-26.211 -36.625,0 -55.527003,14.762 -68.035003,24.531 -6.8945,5.3867 -12.344,9.6406 -18.777,9.6445 h -0.008 c -11.281,0 -16.586,-12.395 -21.059,-25.09 -5.0508,-14.34 -10.988,-36.305 -21.602,-77.156 -2.1758,-8.3828 -4.3047,-11.562 -5.2734,-12.66 -3.2773,2.4688 -10.5200004,14.449 -15.4840024,40.262 -5.2734,27.398 -5.4883,58.176 -0.59766,84.434 7.9727024,42.809 32.5040024,93.832 104.0800054,93.832 21.707,0 46.664,-4.75 74.172,-14.113 0.24219,-0.082 0.49219,-0.15234 0.74219,-0.21094 23.359,-5.4023 33.293,-15.117 40.547,-22.215 5.1172,-5.0039 9.9492,-9.7305 17.246,-9.7305 4.4336,0 8.8867,1.7695 14.273,5.7773 5.3828,-4.0078 9.832,-5.7773 14.262,-5.7773 7.293,0 12.117,4.7227 17.227,9.7266 7.2461,7.0938 17.168,16.809 40.539,22.215 0.25,0.0586 0.49609,0.12891 0.74219,0.21094 27.512,9.3672 52.469,14.113 74.18,14.113 71.602,0 96.137,-51.035 104.11,-93.852 4.8867,-26.25 4.668,-57.023 -0.60547,-84.418 z m -293.03,85.648 c -2.1172,3.6602 -6.8008,4.9102 -10.461,2.7969 -42.152,-24.359 -96.934,0.0898 -97.484,0.33984 -1.0273,0.46875 -2.1094,0.69141 -3.168,0.69141 -2.910203,0 -5.687503,-1.6641 -6.972703,-4.4844 -1.7539,-3.8477 -0.0547,-8.3867 3.793,-10.141 2.531203,-1.1562 62.586003,-27.926 111.490003,0.33984 3.6641,2.1133 4.9141,6.7969 2.8008,10.457 z m 185.75,-8.2031 c -2.1172,3.6602 -6.7969,4.9141 -10.461,2.7969 -42.148,-24.359 -96.934,0.0898 -97.48,0.33984 -1.0273,0.46875 -2.1094,0.69141 -3.168,0.69141 -2.9102,0 -5.6875,-1.6641 -6.9727,-4.4844 -1.7539,-3.8477 -0.0547,-8.3867 3.793,-10.141 2.5312,-1.1523 62.586,-27.926 111.49,0.33984 3.6602,2.1133 4.9102,6.7969 2.7969,10.457 z"
     id="path883" />
</svg>
