<?xml version="1.0" encoding="UTF-8" standalone="no"?>
<!-- Created with Inkscape (http://www.inkscape.org/) -->

<svg
   version="1.1"
   id="svg2"
   width="1000"
   height="1000"
   viewBox="0 0 1000 1000"
   sodipodi:docname="logo.svg"
   inkscape:version="1.1.2 (b8e25be8, 2022-02-05)"
   xmlns:inkscape="http://www.inkscape.org/namespaces/inkscape"
   xmlns:sodipodi="http://sodipodi.sourceforge.net/DTD/sodipodi-0.dtd"
   xmlns:xlink="http://www.w3.org/1999/xlink"
   xmlns="http://www.w3.org/2000/svg"
   xmlns:svg="http://www.w3.org/2000/svg">
  <defs
     id="defs6">
    <linearGradient
       inkscape:collect="always"
       id="linearGradient9591">
      <stop
         style="stop-color:#dba7a7;stop-opacity:1"
         offset="0"
         id="stop9587" />
      <stop
         style="stop-color:#c6a983;stop-opacity:1"
         offset="1"
         id="stop9589" />
    </linearGradient>
    <linearGradient
       inkscape:collect="always"
       id="linearGradient3087">
      <stop
         style="stop-color:#503d3d;stop-opacity:1"
         offset="0"
         id="stop3083" />
      <stop
         style="stop-color:#c6c6a8;stop-opacity:1"
         offset="1"
         id="stop3085" />
    </linearGradient>
    <linearGradient
       inkscape:collect="always"
       xlink:href="#linearGradient3087"
       id="linearGradient3089"
       x1="768.25262"
       y1="-653.67181"
       x2="480.73468"
       y2="-588.24854"
       gradientUnits="userSpaceOnUse"
       gradientTransform="translate(-2.0051917e-5)" />
    <linearGradient
       inkscape:collect="always"
       xlink:href="#linearGradient9591"
       id="linearGradient9408"
       gradientUnits="userSpaceOnUse"
       gradientTransform="translate(-3.8959363e-5,-2.3413642e-5)"
       x1="504.83798"
       y1="-710.48676"
       x2="763.08765"
       y2="-488.392" />
    <filter
       y="-0.020868263"
       height="1.0417365"
       inkscape:menu-tooltip="Darkens the edge with an inner blur and adds a flexible glow"
       inkscape:menu="Shadows and Glows"
       inkscape:label="Dark and Glow"
       style="color-interpolation-filters:sRGB"
       id="filter9833"
       x="-0.020868263"
       width="1.0417365">
      <feGaussianBlur
         stdDeviation="5"
         result="result6"
         id="feGaussianBlur9823" />
      <feComposite
         result="result8"
         in="SourceGraphic"
         operator="atop"
         in2="result6"
         id="feComposite9825" />
      <feComposite
         result="result9"
         operator="over"
         in2="SourceAlpha"
         in="result8"
         id="feComposite9827" />
      <feColorMatrix
         values="1 0 0 0 0 0 1 0 0 0 0 0 1 0 0 0 0 0 1 0 "
         result="result10"
         id="feColorMatrix9829" />
      <feBlend
         in="result10"
         mode="normal"
         in2="result6"
         id="feBlend9831" />
    </filter>
  </defs>
  <sodipodi:namedview
     id="namedview4"
     pagecolor="#ffffff"
     bordercolor="#000000"
     borderopacity="0.25"
     inkscape:showpageshadow="2"
     inkscape:pageopacity="0.0"
     inkscape:pagecheckerboard="0"
     inkscape:deskcolor="#d1d1d1"
     inkscape:pageshadow="2"
     showgrid="false"
     fit-margin-top="0"
     fit-margin-left="0"
     fit-margin-right="0"
     fit-margin-bottom="0"
     inkscape:zoom="0.435625"
     inkscape:cx="1050.2152"
     inkscape:cy="581.92253"
     inkscape:window-width="1680"
     inkscape:window-height="925"
     inkscape:window-x="0"
     inkscape:window-y="23"
     inkscape:window-maximized="0"
     inkscape:current-layer="g13276" />
  <g
     id="g8"
     inkscape:groupmode="layer"
     inkscape:label="ink_ext_XXXXXX"
     transform="matrix(1.3333333,0,0,-1.3333333,-404.53766,1197.5308)">
    <g
       id="g13276"
       transform="translate(69.492629,-71.776436)">
      <g
         id="g9821"
         style="filter:url(#filter9833)">
        <circle
           style="fill:url(#linearGradient3089);fill-opacity:1;stroke-width:0;stroke-linejoin:round"
           id="path2859"
           cx="608.91064"
           cy="-594.92456"
           r="287.51794"
           transform="scale(1,-1)" />
        <circle
           style="opacity:0.409712;fill:url(#linearGradient9408);fill-opacity:1;stroke-width:0;stroke-linejoin:round"
           id="path2859-8"
           cx="608.91064"
           cy="-594.92456"
           r="287.51794"
           transform="scale(1,-1)" />
      </g>
      <g
         aria-label="STORE LOGO"
         transform="scale(1,-1)"
         id="text4475"
         style="font-weight:bold;font-size:45px;line-height:1.25;font-family:'Avenir Next';-inkscape-font-specification:'Avenir Next Bold';letter-spacing:0.0225px;fill:#333333;stroke-width:0.75">
        <path
           d="m 483.95268,-677.23674 q -0.99,-1.26 -2.61,-1.98 -1.575,-0.765 -3.06,-0.765 -0.765,0 -1.575,0.135 -0.765,0.135 -1.395,0.54 -0.63,0.36 -1.08,0.99 -0.405,0.585 -0.405,1.53 0,0.81 0.315,1.35 0.36,0.54 0.99,0.945 0.675,0.405 1.575,0.765 0.9,0.315 2.025,0.675 1.62,0.54 3.375,1.215 1.755,0.63 3.195,1.71 1.44,1.08 2.385,2.7 0.945,1.575 0.945,3.96 0,2.745 -1.035,4.77 -0.99,1.98 -2.7,3.285 -1.71,1.305 -3.915,1.935 -2.205,0.63 -4.545,0.63 -3.42,0 -6.615,-1.17 -3.195,-1.215 -5.31,-3.42 l 5.04,-5.13 q 1.17,1.44 3.06,2.43 1.935,0.945 3.825,0.945 0.855,0 1.665,-0.18 0.81,-0.18 1.395,-0.585 0.63,-0.405 0.99,-1.08 0.36,-0.675 0.36,-1.62 0,-0.9 -0.45,-1.53 -0.45,-0.63 -1.305,-1.125 -0.81,-0.54 -2.07,-0.945 -1.215,-0.45 -2.79,-0.945 -1.53,-0.495 -3.015,-1.17 -1.44,-0.675 -2.61,-1.71 -1.125,-1.08 -1.845,-2.565 -0.675,-1.53 -0.675,-3.69 0,-2.655 1.08,-4.545 1.08,-1.89 2.835,-3.105 1.755,-1.215 3.96,-1.755 2.205,-0.585 4.455,-0.585 2.7,0 5.49,0.99 2.835,0.99 4.95,2.925 z"
           id="path13307" />
        <path
           d="m 506.7958,-678.94674 v 25.29 h -7.695 v -25.29 h -9 v -6.57 h 25.695 v 6.57 z"
           id="path13309" />
        <path
           d="m 551.17846,-669.72174 q 0,3.78 -1.305,6.93 -1.305,3.105 -3.645,5.355 -2.295,2.205 -5.49,3.42 -3.195,1.215 -6.93,1.215 -3.735,0 -6.93,-1.215 -3.15,-1.215 -5.49,-3.42 -2.295,-2.25 -3.6,-5.355 -1.305,-3.15 -1.305,-6.93 0,-3.825 1.305,-6.885 1.305,-3.105 3.6,-5.265 2.34,-2.16 5.49,-3.33 3.195,-1.17 6.93,-1.17 3.735,0 6.93,1.17 3.195,1.17 5.49,3.33 2.34,2.16 3.645,5.265 1.305,3.06 1.305,6.885 z m -8.235,0 q 0,-2.07 -0.675,-3.87 -0.675,-1.8 -1.89,-3.06 -1.17,-1.305 -2.88,-2.025 -1.665,-0.765 -3.69,-0.765 -2.025,0 -3.69,0.765 -1.665,0.72 -2.88,2.025 -1.215,1.26 -1.89,3.06 -0.63,1.8 -0.63,3.87 0,2.16 0.675,4.005 0.675,1.8 1.845,3.105 1.215,1.305 2.88,2.07 1.665,0.72 3.69,0.72 2.025,0 3.69,-0.72 1.665,-0.765 2.88,-2.07 1.215,-1.305 1.89,-3.105 0.675,-1.845 0.675,-4.005 z"
           id="path13311" />
        <path
           d="m 573.36627,-653.65674 -6.885,-12.645 h -2.61 v 12.645 h -7.56 v -31.86 h 12.15 q 2.295,0 4.455,0.495 2.205,0.45 3.915,1.575 1.755,1.125 2.79,2.97 1.035,1.845 1.035,4.59 0,3.24 -1.755,5.445 -1.755,2.205 -4.86,3.15 l 8.325,13.635 z m -0.315,-22.095 q 0,-1.125 -0.495,-1.8 -0.45,-0.72 -1.215,-1.08 -0.72,-0.405 -1.665,-0.54 -0.9,-0.135 -1.755,-0.135 h -4.095 v 7.425 h 3.645 q 0.945,0 1.935,-0.135 0.99,-0.18 1.8,-0.585 0.81,-0.405 1.305,-1.17 0.54,-0.765 0.54,-1.98 z"
           id="path13313" />
        <path
           d="m 586.12869,-653.65674 v -31.86 h 21.42 v 6.525 h -13.995 v 5.985 h 13.23 v 6.165 h -13.23 v 6.615 h 14.805 v 6.57 z"
           id="path13315" />
        <path
           d="m 624.75767,-653.65674 v -31.86 h 7.74 v 25.155 h 12.33 v 6.705 z"
           id="path13317" />
        <path
           d="m 680.3144,-669.72174 q 0,3.78 -1.305,6.93 -1.305,3.105 -3.645,5.355 -2.295,2.205 -5.49,3.42 -3.195,1.215 -6.93,1.215 -3.735,0 -6.93,-1.215 -3.15,-1.215 -5.49,-3.42 -2.295,-2.25 -3.6,-5.355 -1.305,-3.15 -1.305,-6.93 0,-3.825 1.305,-6.885 1.305,-3.105 3.6,-5.265 2.34,-2.16 5.49,-3.33 3.195,-1.17 6.93,-1.17 3.735,0 6.93,1.17 3.195,1.17 5.49,3.33 2.34,2.16 3.645,5.265 1.305,3.06 1.305,6.885 z m -8.235,0 q 0,-2.07 -0.675,-3.87 -0.675,-1.8 -1.89,-3.06 -1.17,-1.305 -2.88,-2.025 -1.665,-0.765 -3.69,-0.765 -2.025,0 -3.69,0.765 -1.665,0.72 -2.88,2.025 -1.215,1.26 -1.89,3.06 -0.63,1.8 -0.63,3.87 0,2.16 0.675,4.005 0.675,1.8 1.845,3.105 1.215,1.305 2.88,2.07 1.665,0.72 3.69,0.72 2.025,0 3.69,-0.72 1.665,-0.765 2.88,-2.07 1.215,-1.305 1.89,-3.105 0.675,-1.845 0.675,-4.005 z"
           id="path13319" />
        <path
           d="m 713.7522,-655.59174 q -2.34,1.215 -5.49,1.98 -3.105,0.765 -6.795,0.765 -3.825,0 -7.065,-1.215 -3.195,-1.215 -5.535,-3.42 -2.295,-2.205 -3.6,-5.265 -1.305,-3.105 -1.305,-6.885 0,-3.825 1.305,-6.93 1.35,-3.105 3.69,-5.265 2.34,-2.205 5.49,-3.375 3.15,-1.17 6.795,-1.17 3.78,0 7.02,1.17 3.24,1.125 5.265,3.06 l -4.86,5.535 q -1.125,-1.305 -2.97,-2.115 -1.845,-0.855 -4.185,-0.855 -2.025,0 -3.735,0.765 -1.71,0.72 -2.97,2.07 -1.26,1.305 -1.98,3.15 -0.675,1.8 -0.675,3.96 0,2.205 0.63,4.05 0.63,1.845 1.845,3.195 1.26,1.305 3.06,2.07 1.845,0.72 4.185,0.72 1.35,0 2.565,-0.18 1.215,-0.225 2.25,-0.675 v -5.805 h -6.075 v -6.21 h 13.14 v 16.875 z"
           id="path13321" />
        <path
           d="m 753.30861,-669.72174 q 0,3.78 -1.305,6.93 -1.305,3.105 -3.645,5.355 -2.295,2.205 -5.49,3.42 -3.195,1.215 -6.93,1.215 -3.735,0 -6.93,-1.215 -3.15,-1.215 -5.49,-3.42 -2.295,-2.25 -3.6,-5.355 -1.305,-3.15 -1.305,-6.93 0,-3.825 1.305,-6.885 1.305,-3.105 3.6,-5.265 2.34,-2.16 5.49,-3.33 3.195,-1.17 6.93,-1.17 3.735,0 6.93,1.17 3.195,1.17 5.49,3.33 2.34,2.16 3.645,5.265 1.305,3.06 1.305,6.885 z m -8.235,0 q 0,-2.07 -0.675,-3.87 -0.675,-1.8 -1.89,-3.06 -1.17,-1.305 -2.88,-2.025 -1.665,-0.765 -3.69,-0.765 -2.025,0 -3.69,0.765 -1.665,0.72 -2.88,2.025 -1.215,1.26 -1.89,3.06 -0.63,1.8 -0.63,3.87 0,2.16 0.675,4.005 0.675,1.8 1.845,3.105 1.215,1.305 2.88,2.07 1.665,0.72 3.69,0.72 2.025,0 3.69,-0.72 1.665,-0.765 2.88,-2.07 1.215,-1.305 1.89,-3.105 0.675,-1.845 0.675,-4.005 z"
           id="path13323" />
      </g>
      <rect
         style="opacity:1;fill:#483e37;fill-opacity:1;stroke-width:0;stroke-linejoin:round"
         id="rect7359"
         width="447.63272"
         height="20.659971"
         x="385.09427"
         y="-620.96014"
         transform="scale(1,-1)"
         rx="7.5"
         ry="7.5" />
      <g
         aria-label="REPLACE WITH YOUR OWN"
         transform="scale(1,-1)"
         id="text7729"
         style="font-weight:bold;font-size:30px;line-height:1.25;-inkscape-font-specification:'sans-serif Bold';letter-spacing:0.0225px;fill:#6c5d53;stroke-width:0.75">
        <path
           d="m 394.96494,-550.02386 q 0,-0.82032 -0.33692,-1.40625 -0.33691,-0.58594 -1.15723,-0.92286 -0.57128,-0.23437 -1.333,-0.27832 -0.76172,-0.0586 -1.77246,-0.0586 h -2.03614 v 5.87402 h 1.72852 q 1.34765,0 2.25586,-0.13183 0.9082,-0.13184 1.52344,-0.60059 0.58593,-0.4541 0.8496,-0.99609 0.27833,-0.55664 0.27833,-1.47949 z m 8.77441,15.13183 h -6.87012 l -5.94726,-7.99805 h -2.59278 v 7.99805 h -5.5957 v -21.81152 h 9.43359 q 1.9336,0 3.3252,0.21972 1.3916,0.21973 2.60742,0.95215 1.23047,0.73242 1.94824,1.9043 0.73242,1.15723 0.73242,2.91504 0,2.41699 -1.12792,3.94043 -1.11329,1.52344 -3.19336,2.53418 z"
           id="path13326" />
        <path
           d="m 422.02845,-534.89203 h -15.77637 v -21.81152 h 15.77637 v 4.21875 h -10.18066 v 3.76465 h 9.44824 v 4.21875 h -9.44824 v 5.39062 h 10.18066 z"
           id="path13328" />
        <path
           d="m 444.78532,-549.81879 q 0,1.46485 -0.51269,2.8711 -0.5127,1.3916 -1.46484,2.34375 -1.30372,1.28906 -2.91504,1.94824 -1.59668,0.65918 -3.98438,0.65918 h -3.50098 v 7.10449 h -5.625 v -21.81152 h 9.25782 q 2.08008,0 3.50097,0.36621 1.43555,0.35156 2.53418,1.06933 1.31836,0.86426 2.00684,2.21192 0.70312,1.34765 0.70312,3.2373 z m -5.81543,0.13184 q 0,-0.92285 -0.49804,-1.58203 -0.49805,-0.67383 -1.15723,-0.9375 -0.87891,-0.35156 -1.71387,-0.38086 -0.83496,-0.0439 -2.22656,-0.0439 h -0.9668 v 6.53321 h 1.61133 q 1.43555,0 2.3584,-0.17578 0.9375,-0.17579 1.56738,-0.70313 0.542,-0.46875 0.77637,-1.11328 0.24902,-0.65918 0.24902,-1.59668 z"
           id="path13330" />
        <path
           d="m 464.50997,-534.89203 h -15.73242 v -21.81152 h 5.625 v 17.59277 h 10.10742 z"
           id="path13332" />
        <path
           d="m 488.05786,-534.89203 h -5.81543 l -1.50879,-4.40918 h -8.08593 l -1.50879,4.40918 h -5.66895 l 8.05664,-21.81152 h 6.47461 z m -8.68652,-8.4082 -2.68067,-7.82227 -2.68066,7.82227 z"
           id="path13334" />
        <path
           d="m 501.10283,-534.46722 q -2.43164,0 -4.49707,-0.71778 -2.05078,-0.71777 -3.53027,-2.13867 -1.4795,-1.4209 -2.29981,-3.54492 -0.80566,-2.12402 -0.80566,-4.90723 0,-2.59277 0.77636,-4.70215 0.77637,-2.10937 2.25586,-3.61816 1.4209,-1.4502 3.51563,-2.24121 2.10937,-0.79102 4.59961,-0.79102 1.37695,0 2.47558,0.16114 1.11328,0.14648 2.05078,0.3955 0.98145,0.27832 1.77247,0.62989 0.80566,0.33691 1.40625,0.62988 v 5.28809 h -0.64454 q -0.41015,-0.35157 -1.04003,-0.83497 -0.61524,-0.48339 -1.40625,-0.95214 -0.80567,-0.46875 -1.74317,-0.79102 -0.9375,-0.32227 -2.00683,-0.32227 -1.18653,0 -2.25586,0.38086 -1.06934,0.36621 -1.97754,1.23047 -0.86426,0.83496 -1.40625,2.21192 -0.52735,1.37695 -0.52735,3.33984 0,2.05078 0.57129,3.42773 0.58594,1.37696 1.46485,2.16797 0.89355,0.80567 1.99218,1.15723 1.09864,0.33691 2.16797,0.33691 1.02539,0 2.02149,-0.30761 1.01074,-0.30762 1.86035,-0.83496 0.71777,-0.42481 1.33301,-0.90821 0.61523,-0.4834 1.01074,-0.83496 h 0.58594 v 5.21485 q -0.82032,0.36621 -1.56739,0.68847 -0.74707,0.32227 -1.56738,0.55664 -1.06934,0.30762 -2.00684,0.46875 -0.9375,0.16114 -2.57812,0.16114 z"
           id="path13336" />
        <path
           d="M 528.78157,-534.89203 H 513.0052 v -21.81152 h 15.77637 v 4.21875 h -10.18066 v 3.76465 h 9.44824 v 4.21875 h -9.44824 v 5.39062 h 10.18066 z"
           id="path13338" />
        <path
           d="m 573.91446,-556.70355 -5.87402,21.81152 h -6.22559 l -3.91113,-14.20898 -3.8086,14.20898 h -6.22558 l -5.87403,-21.81152 h 5.87403 l 3.35449,15.01465 4.01367,-15.01465 h 5.61035 l 3.82325,15.01465 3.51562,-15.01465 z"
           id="path13340" />
        <path
           d="m 589.49361,-534.89203 h -12.77344 v -3.86719 h 3.57422 v -14.07714 h -3.57422 v -3.86719 h 12.77344 v 3.86719 h -3.57422 v 14.07714 h 3.57422 z"
           id="path13342" />
        <path
           d="m 611.1958,-552.4848 h -6.81152 v 17.59277 h -5.625 v -17.59277 h -6.81153 v -4.21875 h 19.24805 z"
           id="path13344" />
        <path
           d="m 634.15775,-534.89203 h -5.625 v -9.60937 h -8.30567 v 9.60937 h -5.625 v -21.81152 h 5.625 v 7.9834 h 8.30567 v -7.9834 h 5.625 z"
           id="path13346" />
        <path
           d="m 669.22717,-556.70355 -8.04199,13.37402 v 8.4375 h -5.625 v -8.17383 l -8.17383,-13.63769 h 6.38672 l 4.7168,8.4375 4.55566,-8.4375 z"
           id="path13348" />
        <path
           d="m 693.36099,-545.79047 q 0,5.21485 -2.98828,8.29102 -2.98828,3.06152 -8.26172,3.06152 -5.25879,0 -8.24707,-3.06152 -2.98828,-3.07617 -2.98828,-8.29102 0,-5.25879 2.98828,-8.30566 2.98828,-3.06152 8.24707,-3.06152 5.24414,0 8.24707,3.06152 3.00293,3.04687 3.00293,8.30566 z m -7.45605,5.52246 q 0.82031,-0.99609 1.21582,-2.34375 0.39551,-1.3623 0.39551,-3.19335 0,-1.9629 -0.45411,-3.33985 -0.4541,-1.37695 -1.18652,-2.22656 -0.74707,-0.87891 -1.72851,-1.27442 -0.9668,-0.3955 -2.02149,-0.3955 -1.06934,0 -2.02148,0.38086 -0.9375,0.38086 -1.72852,1.25976 -0.73242,0.82031 -1.20117,2.27051 -0.4541,1.43555 -0.4541,3.33984 0,1.94825 0.43945,3.3252 0.4541,1.3623 1.18652,2.22656 0.73243,0.86426 1.71387,1.27442 0.98145,0.41015 2.06543,0.41015 1.08399,0 2.06543,-0.41015 0.98145,-0.42481 1.71387,-1.30372 z"
           id="path13350" />
        <path
           d="m 716.76239,-542.78754 q 0,4.04297 -2.46094,6.19629 -2.46093,2.15332 -7.25097,2.15332 -4.79004,0 -7.25098,-2.15332 -2.44629,-2.15332 -2.44629,-6.18164 v -13.93066 h 5.6543 v 13.6084 q 0,2.2705 0.95215,3.38379 0.95214,1.11328 3.09082,1.11328 2.10937,0 3.07617,-1.06934 0.98144,-1.06934 0.98144,-3.42773 v -13.6084 h 5.6543 z"
           id="path13352" />
        <path
           d="m 734.28976,-550.02386 q 0,-0.82032 -0.33691,-1.40625 -0.33691,-0.58594 -1.15723,-0.92286 -0.57129,-0.23437 -1.333,-0.27832 -0.76172,-0.0586 -1.77246,-0.0586 h -2.03614 v 5.87402 h 1.72852 q 1.34765,0 2.25586,-0.13183 0.9082,-0.13184 1.52343,-0.60059 0.58594,-0.4541 0.84961,-0.99609 0.27832,-0.55664 0.27832,-1.47949 z m 8.77442,15.13183 h -6.87012 l -5.94726,-7.99805 h -2.59278 v 7.99805 h -5.5957 v -21.81152 h 9.43359 q 1.9336,0 3.3252,0.21972 1.3916,0.21973 2.60742,0.95215 1.23047,0.73242 1.94824,1.9043 0.73242,1.15723 0.73242,2.91504 0,2.41699 -1.12793,3.94043 -1.11328,1.52344 -3.19335,2.53418 z"
           id="path13354" />
        <path
           d="m 777.06427,-545.79047 q 0,5.21485 -2.98828,8.29102 -2.98828,3.06152 -8.26172,3.06152 -5.25879,0 -8.24707,-3.06152 -2.98828,-3.07617 -2.98828,-8.29102 0,-5.25879 2.98828,-8.30566 2.98828,-3.06152 8.24707,-3.06152 5.24414,0 8.24707,3.06152 3.00293,3.04687 3.00293,8.30566 z m -7.45605,5.52246 q 0.82031,-0.99609 1.21582,-2.34375 0.3955,-1.3623 0.3955,-3.19335 0,-1.9629 -0.4541,-3.33985 -0.4541,-1.37695 -1.18652,-2.22656 -0.74707,-0.87891 -1.72852,-1.27442 -0.96679,-0.3955 -2.02148,-0.3955 -1.06934,0 -2.02149,0.38086 -0.9375,0.38086 -1.72851,1.25976 -0.73242,0.82031 -1.20117,2.27051 -0.4541,1.43555 -0.4541,3.33984 0,1.94825 0.43945,3.3252 0.4541,1.3623 1.18652,2.22656 0.73242,0.86426 1.71387,1.27442 0.98144,0.41015 2.06543,0.41015 1.08398,0 2.06543,-0.41015 0.98144,-0.42481 1.71387,-1.30372 z"
           id="path13356" />
        <path
           d="m 811.46664,-556.70355 -5.87402,21.81152 h -6.22559 l -3.91113,-14.20898 -3.80859,14.20898 h -6.22559 l -5.87402,-21.81152 h 5.87402 l 3.35449,15.01465 4.01368,-15.01465 h 5.61035 l 3.82324,15.01465 3.51563,-15.01465 z"
           id="path13358" />
        <path
           d="m 835.0878,-534.89203 h -5.41992 l -9.25782,-14.9707 v 14.9707 h -5.15625 v -21.81152 h 6.72364 l 7.9541,12.49511 v -12.49511 h 5.15625 z"
           id="path13360" />
      </g>
      <g
         aria-label="LOGO SAMPLE"
         transform="scale(1,-1)"
         id="text10207"
         style="font-size:30px;line-height:1.25;letter-spacing:0.0225px;fill:#6c5d53;stroke-width:0.75">
        <path
           d="m 501.48578,-414.53046 v -21.24 h 5.16 v 16.77 h 8.22 v 4.47 z"
           style="font-weight:bold;font-family:'Avenir Next';-inkscape-font-specification:'Avenir Next Bold'"
           id="path13363" />
        <path
           d="m 538.53109,-425.24046 q 0,2.52 -0.87,4.62 -0.87,2.07 -2.43,3.57 -1.53,1.47 -3.66,2.28 -2.13,0.81 -4.62,0.81 -2.49,0 -4.62,-0.81 -2.1,-0.81 -3.66,-2.28 -1.53,-1.5 -2.4,-3.57 -0.87,-2.1 -0.87,-4.62 0,-2.55 0.87,-4.59 0.87,-2.07 2.4,-3.51 1.56,-1.44 3.66,-2.22 2.13,-0.78 4.62,-0.78 2.49,0 4.62,0.78 2.13,0.78 3.66,2.22 1.56,1.44 2.43,3.51 0.87,2.04 0.87,4.59 z m -5.49,0 q 0,-1.38 -0.45,-2.58 -0.45,-1.2 -1.26,-2.04 -0.78,-0.87 -1.92,-1.35 -1.11,-0.51 -2.46,-0.51 -1.35,0 -2.46,0.51 -1.11,0.48 -1.92,1.35 -0.81,0.84 -1.26,2.04 -0.42,1.2 -0.42,2.58 0,1.44 0.45,2.67 0.45,1.2 1.23,2.07 0.81,0.87 1.92,1.38 1.11,0.48 2.46,0.48 1.35,0 2.46,-0.48 1.11,-0.51 1.92,-1.38 0.81,-0.87 1.26,-2.07 0.45,-1.23 0.45,-2.67 z"
           style="font-weight:bold;font-family:'Avenir Next';-inkscape-font-specification:'Avenir Next Bold'"
           id="path13365" />
        <path
           d="m 560.83046,-415.82046 q -1.56,0.81 -3.66,1.32 -2.07,0.51 -4.53,0.51 -2.55,0 -4.71,-0.81 -2.13,-0.81 -3.69,-2.28 -1.53,-1.47 -2.4,-3.51 -0.87,-2.07 -0.87,-4.59 0,-2.55 0.87,-4.62 0.9,-2.07 2.46,-3.51 1.56,-1.47 3.66,-2.25 2.1,-0.78 4.53,-0.78 2.52,0 4.68,0.78 2.16,0.75 3.51,2.04 l -3.24,3.69 q -0.75,-0.87 -1.98,-1.41 -1.23,-0.57 -2.79,-0.57 -1.35,0 -2.49,0.51 -1.14,0.48 -1.98,1.38 -0.84,0.87 -1.32,2.1 -0.45,1.2 -0.45,2.64 0,1.47 0.42,2.7 0.42,1.23 1.23,2.13 0.84,0.87 2.04,1.38 1.23,0.48 2.79,0.48 0.9,0 1.71,-0.12 0.81,-0.15 1.5,-0.45 v -3.87 h -4.05 v -4.14 h 8.76 v 11.25 z"
           style="font-weight:bold;font-family:'Avenir Next';-inkscape-font-specification:'Avenir Next Bold'"
           id="path13367" />
        <path
           d="m 587.2089,-425.24046 q 0,2.52 -0.87,4.62 -0.87,2.07 -2.43,3.57 -1.53,1.47 -3.66,2.28 -2.13,0.81 -4.62,0.81 -2.49,0 -4.62,-0.81 -2.1,-0.81 -3.66,-2.28 -1.53,-1.5 -2.4,-3.57 -0.87,-2.1 -0.87,-4.62 0,-2.55 0.87,-4.59 0.87,-2.07 2.4,-3.51 1.56,-1.44 3.66,-2.22 2.13,-0.78 4.62,-0.78 2.49,0 4.62,0.78 2.13,0.78 3.66,2.22 1.56,1.44 2.43,3.51 0.87,2.04 0.87,4.59 z m -5.49,0 q 0,-1.38 -0.45,-2.58 -0.45,-1.2 -1.26,-2.04 -0.78,-0.87 -1.92,-1.35 -1.11,-0.51 -2.46,-0.51 -1.35,0 -2.46,0.51 -1.11,0.48 -1.92,1.35 -0.81,0.84 -1.26,2.04 -0.42,1.2 -0.42,2.58 0,1.44 0.45,2.67 0.45,1.2 1.23,2.07 0.81,0.87 1.92,1.38 1.11,0.48 2.46,0.48 1.35,0 2.46,-0.48 1.11,-0.51 1.92,-1.38 0.81,-0.87 1.26,-2.07 0.45,-1.23 0.45,-2.67 z"
           style="font-weight:bold;font-family:'Avenir Next';-inkscape-font-specification:'Avenir Next Bold'"
           id="path13369" />
        <path
           d="m 609.38078,-430.25046 q -0.66,-0.84 -1.74,-1.32 -1.05,-0.51 -2.04,-0.51 -0.51,0 -1.05,0.09 -0.51,0.09 -0.93,0.36 -0.42,0.24 -0.72,0.66 -0.27,0.39 -0.27,1.02 0,0.54 0.21,0.9 0.24,0.36 0.66,0.63 0.45,0.27 1.05,0.51 0.6,0.21 1.35,0.45 1.08,0.36 2.25,0.81 1.17,0.42 2.13,1.14 0.96,0.72 1.59,1.8 0.63,1.05 0.63,2.64 0,1.83 -0.69,3.18 -0.66,1.32 -1.8,2.19 -1.14,0.87 -2.61,1.29 -1.47,0.42 -3.03,0.42 -2.28,0 -4.41,-0.78 -2.13,-0.81 -3.54,-2.28 l 3.36,-3.42 q 0.78,0.96 2.04,1.62 1.29,0.63 2.55,0.63 0.57,0 1.11,-0.12 0.54,-0.12 0.93,-0.39 0.42,-0.27 0.66,-0.72 0.24,-0.45 0.24,-1.08 0,-0.6 -0.3,-1.02 -0.3,-0.42 -0.87,-0.75 -0.54,-0.36 -1.38,-0.63 -0.81,-0.3 -1.86,-0.63 -1.02,-0.33 -2.01,-0.78 -0.96,-0.45 -1.74,-1.14 -0.75,-0.72 -1.23,-1.71 -0.45,-1.02 -0.45,-2.46 0,-1.77 0.72,-3.03 0.72,-1.26 1.89,-2.07 1.17,-0.81 2.64,-1.17 1.47,-0.39 2.97,-0.39 1.8,0 3.66,0.66 1.89,0.66 3.3,1.95 z"
           style="font-weight:bold;font-family:'Avenir Next';-inkscape-font-specification:'Avenir Next Bold'"
           id="path13371" />
        <path
           d="m 630.33718,-414.53046 -1.65,-4.17 h -8.22 l -1.56,4.17 h -5.58 l 8.91,-21.24 h 4.98 l 8.82,21.24 z m -5.7,-15.57 -2.7,7.29 h 5.34 z"
           style="font-weight:bold;font-family:'Avenir Next';-inkscape-font-specification:'Avenir Next Bold'"
           id="path13373" />
        <path
           d="m 657.07515,-414.53046 0.12,-15.03 h -0.09 l -5.52,15.03 h -3.6 l -5.37,-15.03 h -0.09 l 0.12,15.03 h -4.83 v -21.24 h 7.29 l 4.83,13.62 h 0.12 l 4.62,-13.62 h 7.41 v 21.24 z"
           style="font-weight:bold;font-family:'Avenir Next';-inkscape-font-specification:'Avenir Next Bold'"
           id="path13375" />
        <path
           d="m 682.59999,-429.23046 q 0,1.86 -0.69,3.15 -0.69,1.26 -1.86,2.04 -1.17,0.78 -2.7,1.14 -1.53,0.36 -3.18,0.36 h -2.55 v 8.01 h -5.13 v -21.24 h 7.8 q 1.74,0 3.24,0.36 1.53,0.33 2.64,1.11 1.14,0.75 1.77,2.01 0.66,1.23 0.66,3.06 z m -5.13,0.03 q 0,-0.75 -0.3,-1.23 -0.3,-0.48 -0.81,-0.75 -0.51,-0.27 -1.17,-0.36 -0.63,-0.09 -1.32,-0.09 h -2.25 v 5.01 h 2.16 q 0.72,0 1.38,-0.12 0.66,-0.12 1.17,-0.42 0.54,-0.3 0.84,-0.78 0.3,-0.51 0.3,-1.26 z"
           style="font-weight:bold;font-family:'Avenir Next';-inkscape-font-specification:'Avenir Next Bold'"
           id="path13377" />
        <path
           d="m 685.73124,-414.53046 v -21.24 h 5.16 v 16.77 h 8.22 v 4.47 z"
           style="font-weight:bold;font-family:'Avenir Next';-inkscape-font-specification:'Avenir Next Bold'"
           id="path13379" />
        <path
           d="m 701.51547,-414.53046 v -21.24 h 14.28 v 4.35 h -9.33 v 3.99 h 8.82 v 4.11 h -8.82 v 4.41 h 9.87 v 4.38 z"
           style="font-weight:bold;font-family:'Avenir Next';-inkscape-font-specification:'Avenir Next Bold'"
           id="path13381" />
      </g>
    </g>
  </g>
</svg>
